  0
SECTION
  2
HEADER
  9
$ACADVER
  1
AC1009
  9
$FILLMODE
 70
1
  9
$EXTMIN
 10
12.9698
 20
0.9460
 30
0.0000
  9
$EXTMAX
 10
159.7302
 20
104.8302
 30
0.0000
  0
ENDSEC
  0
SECTION
  2
TABLES
  0
TABLE
  2
LTYPE
 70
1
  0
LTYPE
  2
CONTINUOUS
 70
64
  3
Solid line
 72
65
 73
0
 40
0
  0
ENDTAB
  0
TABLE
  2
LAYER
 70
255
  0
LAYER
  2
20
 70
64
 62
53
  6
CONTINUOUS
  0
LAYER
  2
21
 70
64
 62
253
  6
CONTINUOUS
  0
ENDTAB
  0
ENDSEC
  0
SECTION
  2
BLOCKS
  0
BLOCK
  8
0
  2
RECT
 70
64
 10
0.0000
 20
0.0000
 30
0.0000
  3
RECT
  0
SOLID
  8
0
 10
-0.5000
 20
-0.5000
 30
0.0000
 11
0.5000
 21
-0.5000
 31
0.0000
 12
-0.5000
 22
0.5000
 32
0.0000
 13
0.5000
 23
0.5000
 33
0.0000
  0
ENDBLK
  8
0
  0
BLOCK
  8
0
  2
PIE
 70
64
 10
0.0000
 20
0.0000
 30
0.0000
  3
PIE
  0
POLYLINE
  8
0
 66
1
 10
0.0000
 20
0.0000
 30
0.0000
 40
0.5000
 41
0.5000
 70
0
  0
VERTEX
  8
0
 10
0.0000
 20
-0.2500
 30
0.0000
 42
1.0000
  0
VERTEX
  8
0
 10
0.0000
 20
0.2500
 30
0.0000
 42
1.0000
  0
VERTEX
  8
0
 10
0.0000
 20
-0.2500
 30
0.0000
  0
SEQEND
  8
0
  0
ENDBLK
  8
0
  0
BLOCK
  8
0
  2
OCTAGONP
 70
64
 10
0.0000
 20
0.0000
 30
0.0000
  3
OCTAGONP
  0
POLYLINE
  8
0
 66
1
 10
0.0000
 20
0.0000
 30
0.0000
 40
0.5000
 41
0.5000
 70
0
  0
VERTEX
  8
0
 10
-0.2500
 20
-0.1036
 30
0.0000
  0
VERTEX
  8
0
 10
-0.2500
 20
0.1036
 30
0.0000
  0
VERTEX
  8
0
 10
-0.1036
 20
0.2500
 30
0.0000
  0
VERTEX
  8
0
 10
0.1036
 20
0.2500
 30
0.0000
  0
VERTEX
  8
0
 10
0.2500
 20
0.1036
 30
0.0000
  0
VERTEX
  8
0
 10
0.2500
 20
-0.1036
 30
0.0000
  0
VERTEX
  8
0
 10
0.1036
 20
-0.2500
 30
0.0000
  0
VERTEX
  8
0
 10
-0.1036
 20
-0.2500
 30
0.0000
  0
VERTEX
  8
0
 10
-0.2500
 20
-0.1036
 30
0.0000
  0
VERTEX
  8
0
 10
-0.2500
 20
0.1036
 30
0.0000
  0
SEQEND
  8
0
  0
ENDBLK
  8
0
  0
BLOCK
  8
0
  2
SQUAREP
 70
64
 10
0.0000
 20
0.0000
 30
0.0000
  3
SQUAREP
  0
SOLID
  8
0
 10
-0.5000
 20
-0.5000
 30
0.0000
 11
0.5000
 21
-0.5000
 31
0.0000
 12
-0.5000
 22
0.5000
 32
0.0000
 13
0.5000
 23
0.5000
 33
0.0000
  0
ENDBLK
  8
0
  0
BLOCK
  8
0
  2
ROUNDP
 70
64
 10
0.0000
 20
0.0000
 30
0.0000
  3
ROUNDP
  0
POLYLINE
  8
0
 66
1
 10
0.0000
 20
0.0000
 30
0.0000
 40
0.5000
 41
0.5000
 70
0
  0
VERTEX
  8
0
 10
0.0000
 20
-0.2500
 30
0.0000
 42
1.0000
  0
VERTEX
  8
0
 10
0.0000
 20
0.2500
 30
0.0000
 42
1.0000
  0
VERTEX
  8
0
 10
0.0000
 20
-0.2500
 30
0.0000
  0
SEQEND
  8
0
  0
ENDBLK
  8
0
  0
BLOCK
  8
0
  2
ANNULUSP
 70
64
 10
0.0000
 20
0.0000
 30
0.0000
  3
ANNULUSP
  0
POLYLINE
  8
0
 66
1
 10
0.0000
 20
0.0000
 30
0.0000
 40
0.5000
 41
0.5000
 70
0
  0
VERTEX
  8
0
 10
0.0000
 20
-0.2500
 30
0.0000
 42
1.0000
  0
VERTEX
  8
0
 10
0.0000
 20
0.2500
 30
0.0000
 42
1.0000
  0
VERTEX
  8
0
 10
0.0000
 20
-0.2500
 30
0.0000
  0
SEQEND
  8
0
  0
ENDBLK
  8
0
  0
BLOCK
  8
0
  2
THERMALP
 70
64
 10
0.0000
 20
0.0000
 30
0.0000
  3
THERMALP
  0
POLYLINE
  8
0
 66
1
 10
0.0000
 20
0.0000
 30
0.0000
 40
0.1000
 41
0.1000
 70
0
  0
VERTEX
  8
0
 10
-0.2379
 20
0.4500
 30
0.0000
  0
VERTEX
  8
0
 10
0.2379
 20
0.4500
 30
0.0000
  0
SEQEND
  8
0
  0
POLYLINE
  8
0
 66
1
 10
0.0000
 20
0.0000
 30
0.0000
 40
0.0500
 41
0.0500
 70
0
  0
VERTEX
  8
0
 10
0.2379
 20
0.4250
 30
0.0000
 42
1.0000
  0
VERTEX
  8
0
 10
0.2379
 20
0.4750
 30
0.0000
  0
SEQEND
  8
0
  0
POLYLINE
  8
0
 66
1
 10
0.0000
 20
0.0000
 30
0.0000
 40
0.0500
 41
0.0500
 70
0
  0
VERTEX
  8
0
 10
-0.2379
 20
0.4750
 30
0.0000
 42
1.0000
  0
VERTEX
  8
0
 10
-0.2379
 20
0.4250
 30
0.0000
  0
SEQEND
  8
0
  0
POLYLINE
  8
0
 66
1
 10
0.0000
 20
0.0000
 30
0.0000
 40
0.1000
 41
0.1000
 70
0
  0
VERTEX
  8
0
 10
0.4500
 20
0.2379
 30
0.0000
  0
VERTEX
  8
0
 10
0.4500
 20
-0.2379
 30
0.0000
  0
SEQEND
  8
0
  0
POLYLINE
  8
0
 66
1
 10
0.0000
 20
0.0000
 30
0.0000
 40
0.0500
 41
0.0500
 70
0
  0
VERTEX
  8
0
 10
0.4250
 20
-0.2379
 30
0.0000
 42
1.0000
  0
VERTEX
  8
0
 10
0.4750
 20
-0.2379
 30
0.0000
  0
SEQEND
  8
0
  0
POLYLINE
  8
0
 66
1
 10
0.0000
 20
0.0000
 30
0.0000
 40
0.0500
 41
0.0500
 70
0
  0
VERTEX
  8
0
 10
0.4750
 20
0.2379
 30
0.0000
 42
1.0000
  0
VERTEX
  8
0
 10
0.4250
 20
0.2379
 30
0.0000
  0
SEQEND
  8
0
  0
POLYLINE
  8
0
 66
1
 10
0.0000
 20
0.0000
 30
0.0000
 40
0.1000
 41
0.1000
 70
0
  0
VERTEX
  8
0
 10
0.2379
 20
-0.4500
 30
0.0000
  0
VERTEX
  8
0
 10
-0.2379
 20
-0.4500
 30
0.0000
  0
SEQEND
  8
0
  0
POLYLINE
  8
0
 66
1
 10
0.0000
 20
0.0000
 30
0.0000
 40
0.0500
 41
0.0500
 70
0
  0
VERTEX
  8
0
 10
-0.2379
 20
-0.4250
 30
0.0000
 42
1.0000
  0
VERTEX
  8
0
 10
-0.2379
 20
-0.4750
 30
0.0000
  0
SEQEND
  8
0
  0
POLYLINE
  8
0
 66
1
 10
0.0000
 20
0.0000
 30
0.0000
 40
0.0500
 41
0.0500
 70
0
  0
VERTEX
  8
0
 10
0.2379
 20
-0.4750
 30
0.0000
 42
1.0000
  0
VERTEX
  8
0
 10
0.2379
 20
-0.4250
 30
0.0000
  0
SEQEND
  8
0
  0
POLYLINE
  8
0
 66
1
 10
0.0000
 20
0.0000
 30
0.0000
 40
0.1000
 41
0.1000
 70
0
  0
VERTEX
  8
0
 10
-0.4500
 20
-0.2379
 30
0.0000
  0
VERTEX
  8
0
 10
-0.4500
 20
0.2379
 30
0.0000
  0
SEQEND
  8
0
  0
POLYLINE
  8
0
 66
1
 10
0.0000
 20
0.0000
 30
0.0000
 40
0.0500
 41
0.0500
 70
0
  0
VERTEX
  8
0
 10
-0.4250
 20
0.2379
 30
0.0000
 42
1.0000
  0
VERTEX
  8
0
 10
-0.4750
 20
0.2379
 30
0.0000
  0
SEQEND
  8
0
  0
POLYLINE
  8
0
 66
1
 10
0.0000
 20
0.0000
 30
0.0000
 40
0.0500
 41
0.0500
 70
0
  0
VERTEX
  8
0
 10
-0.4750
 20
-0.2379
 30
0.0000
 42
1.0000
  0
VERTEX
  8
0
 10
-0.4250
 20
-0.2379
 30
0.0000
  0
SEQEND
  8
0
  0
ENDBLK
  8
0
  0
BLOCK
  8
0
  2
OCTAGONV
 70
64
 10
0.0000
 20
0.0000
 30
0.0000
  3
OCTAGONV
  0
POLYLINE
  8
0
 66
1
 10
0.0000
 20
0.0000
 30
0.0000
 40
0.5000
 41
0.5000
 70
0
  0
VERTEX
  8
0
 10
-0.2500
 20
-0.1036
 30
0.0000
  0
VERTEX
  8
0
 10
-0.2500
 20
0.1036
 30
0.0000
  0
VERTEX
  8
0
 10
-0.1036
 20
0.2500
 30
0.0000
  0
VERTEX
  8
0
 10
0.1036
 20
0.2500
 30
0.0000
  0
VERTEX
  8
0
 10
0.2500
 20
0.1036
 30
0.0000
  0
VERTEX
  8
0
 10
0.2500
 20
-0.1036
 30
0.0000
  0
VERTEX
  8
0
 10
0.1036
 20
-0.2500
 30
0.0000
  0
VERTEX
  8
0
 10
-0.1036
 20
-0.2500
 30
0.0000
  0
VERTEX
  8
0
 10
-0.2500
 20
-0.1036
 30
0.0000
  0
VERTEX
  8
0
 10
-0.2500
 20
0.1036
 30
0.0000
  0
SEQEND
  8
0
  0
ENDBLK
  8
0
  0
BLOCK
  8
0
  2
SQUAREV
 70
64
 10
0.0000
 20
0.0000
 30
0.0000
  3
SQUAREV
  0
SOLID
  8
0
 10
-0.5000
 20
-0.5000
 30
0.0000
 11
0.5000
 21
-0.5000
 31
0.0000
 12
-0.5000
 22
0.5000
 32
0.0000
 13
0.5000
 23
0.5000
 33
0.0000
  0
ENDBLK
  8
0
  0
BLOCK
  8
0
  2
ROUNDV
 70
64
 10
0.0000
 20
0.0000
 30
0.0000
  3
ROUNDV
  0
POLYLINE
  8
0
 66
1
 10
0.0000
 20
0.0000
 30
0.0000
 40
0.5000
 41
0.5000
 70
0
  0
VERTEX
  8
0
 10
0.0000
 20
-0.2500
 30
0.0000
 42
1.0000
  0
VERTEX
  8
0
 10
0.0000
 20
0.2500
 30
0.0000
 42
1.0000
  0
VERTEX
  8
0
 10
0.0000
 20
-0.2500
 30
0.0000
  0
SEQEND
  8
0
  0
ENDBLK
  8
0
  0
BLOCK
  8
0
  2
ANNULUSV
 70
64
 10
0.0000
 20
0.0000
 30
0.0000
  3
ANNULUSV
  0
POLYLINE
  8
0
 66
1
 10
0.0000
 20
0.0000
 30
0.0000
 40
0.5000
 41
0.5000
 70
0
  0
VERTEX
  8
0
 10
0.0000
 20
-0.2500
 30
0.0000
 42
1.0000
  0
VERTEX
  8
0
 10
0.0000
 20
0.2500
 30
0.0000
 42
1.0000
  0
VERTEX
  8
0
 10
0.0000
 20
-0.2500
 30
0.0000
  0
SEQEND
  8
0
  0
ENDBLK
  8
0
  0
BLOCK
  8
0
  2
THERMALV
 70
64
 10
0.0000
 20
0.0000
 30
0.0000
  3
THERMALV
  0
POLYLINE
  8
0
 66
1
 10
0.0000
 20
0.0000
 30
0.0000
 40
0.1000
 41
0.1000
 70
0
  0
VERTEX
  8
0
 10
-0.2379
 20
0.4500
 30
0.0000
  0
VERTEX
  8
0
 10
0.2379
 20
0.4500
 30
0.0000
  0
SEQEND
  8
0
  0
POLYLINE
  8
0
 66
1
 10
0.0000
 20
0.0000
 30
0.0000
 40
0.0500
 41
0.0500
 70
0
  0
VERTEX
  8
0
 10
0.2379
 20
0.4250
 30
0.0000
 42
1.0000
  0
VERTEX
  8
0
 10
0.2379
 20
0.4750
 30
0.0000
  0
SEQEND
  8
0
  0
POLYLINE
  8
0
 66
1
 10
0.0000
 20
0.0000
 30
0.0000
 40
0.0500
 41
0.0500
 70
0
  0
VERTEX
  8
0
 10
-0.2379
 20
0.4750
 30
0.0000
 42
1.0000
  0
VERTEX
  8
0
 10
-0.2379
 20
0.4250
 30
0.0000
  0
SEQEND
  8
0
  0
POLYLINE
  8
0
 66
1
 10
0.0000
 20
0.0000
 30
0.0000
 40
0.1000
 41
0.1000
 70
0
  0
VERTEX
  8
0
 10
0.4500
 20
0.2379
 30
0.0000
  0
VERTEX
  8
0
 10
0.4500
 20
-0.2379
 30
0.0000
  0
SEQEND
  8
0
  0
POLYLINE
  8
0
 66
1
 10
0.0000
 20
0.0000
 30
0.0000
 40
0.0500
 41
0.0500
 70
0
  0
VERTEX
  8
0
 10
0.4250
 20
-0.2379
 30
0.0000
 42
1.0000
  0
VERTEX
  8
0
 10
0.4750
 20
-0.2379
 30
0.0000
  0
SEQEND
  8
0
  0
POLYLINE
  8
0
 66
1
 10
0.0000
 20
0.0000
 30
0.0000
 40
0.0500
 41
0.0500
 70
0
  0
VERTEX
  8
0
 10
0.4750
 20
0.2379
 30
0.0000
 42
1.0000
  0
VERTEX
  8
0
 10
0.4250
 20
0.2379
 30
0.0000
  0
SEQEND
  8
0
  0
POLYLINE
  8
0
 66
1
 10
0.0000
 20
0.0000
 30
0.0000
 40
0.1000
 41
0.1000
 70
0
  0
VERTEX
  8
0
 10
0.2379
 20
-0.4500
 30
0.0000
  0
VERTEX
  8
0
 10
-0.2379
 20
-0.4500
 30
0.0000
  0
SEQEND
  8
0
  0
POLYLINE
  8
0
 66
1
 10
0.0000
 20
0.0000
 30
0.0000
 40
0.0500
 41
0.0500
 70
0
  0
VERTEX
  8
0
 10
-0.2379
 20
-0.4250
 30
0.0000
 42
1.0000
  0
VERTEX
  8
0
 10
-0.2379
 20
-0.4750
 30
0.0000
  0
SEQEND
  8
0
  0
POLYLINE
  8
0
 66
1
 10
0.0000
 20
0.0000
 30
0.0000
 40
0.0500
 41
0.0500
 70
0
  0
VERTEX
  8
0
 10
0.2379
 20
-0.4750
 30
0.0000
 42
1.0000
  0
VERTEX
  8
0
 10
0.2379
 20
-0.4250
 30
0.0000
  0
SEQEND
  8
0
  0
POLYLINE
  8
0
 66
1
 10
0.0000
 20
0.0000
 30
0.0000
 40
0.1000
 41
0.1000
 70
0
  0
VERTEX
  8
0
 10
-0.4500
 20
-0.2379
 30
0.0000
  0
VERTEX
  8
0
 10
-0.4500
 20
0.2379
 30
0.0000
  0
SEQEND
  8
0
  0
POLYLINE
  8
0
 66
1
 10
0.0000
 20
0.0000
 30
0.0000
 40
0.0500
 41
0.0500
 70
0
  0
VERTEX
  8
0
 10
-0.4250
 20
0.2379
 30
0.0000
 42
1.0000
  0
VERTEX
  8
0
 10
-0.4750
 20
0.2379
 30
0.0000
  0
SEQEND
  8
0
  0
POLYLINE
  8
0
 66
1
 10
0.0000
 20
0.0000
 30
0.0000
 40
0.0500
 41
0.0500
 70
0
  0
VERTEX
  8
0
 10
-0.4750
 20
-0.2379
 30
0.0000
 42
1.0000
  0
VERTEX
  8
0
 10
-0.4250
 20
-0.2379
 30
0.0000
  0
SEQEND
  8
0
  0
ENDBLK
  8
0
  0
ENDSEC
  0
SECTION
  2
ENTITIES
  0
LINE
  8
21
 10
126.1000
 20
33.4000
 30
0.0000
 11
126.1000
 21
78.5000
 31
0.0000
  0
LINE
  8
21
 10
126.1000
 20
78.5000
 30
0.0000
 11
118.0028
 21
86.4972
 31
0.0000
  0
LINE
  8
21
 10
118.0028
 20
86.4972
 30
0.0000
 11
37.9972
 21
86.4972
 31
0.0000
  0
LINE
  8
21
 10
37.9972
 20
86.4972
 30
0.0000
 11
30.1000
 21
78.5000
 31
0.0000
  0
LINE
  8
21
 10
30.1000
 20
78.5000
 30
0.0000
 11
30.1000
 21
37.3000
 31
0.0000
  0
LINE
  8
21
 10
52.9000
 20
25.9000
 30
0.0000
 11
52.9000
 21
54.2000
 31
0.0000
  0
LINE
  8
21
 10
52.9000
 20
54.2000
 30
0.0000
 11
105.8100
 21
54.2000
 31
0.0000
  0
LINE
  8
21
 10
105.8100
 20
54.2000
 30
0.0000
 11
106.0200
 21
33.4000
 31
0.0000
  0
LINE
  8
21
 10
106.0200
 20
33.4000
 30
0.0000
 11
126.1000
 21
33.4000
 31
0.0000
  0
POLYLINE
  8
21
 66
1
 10
0.0000
 20
0.0000
 30
0.0000
 40
0.1000
 41
0.1000
 70
0
  0
VERTEX
  8
21
 10
30.1000
 20
37.3000
 30
0.0000
  0
VERTEX
  8
21
 10
33.6000
 20
33.8000
 30
0.0000
  0
SEQEND
  8
0
  0
POLYLINE
  8
21
 66
1
 10
0.0000
 20
0.0000
 30
0.0000
 40
0.0500
 41
0.0500
 70
0
  0
VERTEX
  8
21
 10
33.5823
 20
33.7823
 30
0.0000
 42
1.0000
  0
VERTEX
  8
21
 10
33.6177
 20
33.8177
 30
0.0000
  0
SEQEND
  8
0
  0
POLYLINE
  8
21
 66
1
 10
0.0000
 20
0.0000
 30
0.0000
 40
0.0500
 41
0.0500
 70
0
  0
VERTEX
  8
21
 10
30.1177
 20
37.3177
 30
0.0000
 42
1.0000
  0
VERTEX
  8
21
 10
30.0823
 20
37.2823
 30
0.0000
  0
SEQEND
  8
0
  0
POLYLINE
  8
21
 66
1
 10
0.0000
 20
0.0000
 30
0.0000
 40
0.1000
 41
0.1000
 70
0
  0
VERTEX
  8
21
 10
33.6000
 20
33.8000
 30
0.0000
  0
VERTEX
  8
21
 10
37.7168
 20
33.8000
 30
0.0000
  0
SEQEND
  8
0
  0
POLYLINE
  8
21
 66
1
 10
0.0000
 20
0.0000
 30
0.0000
 40
0.0500
 41
0.0500
 70
0
  0
VERTEX
  8
21
 10
37.7168
 20
33.7750
 30
0.0000
 42
1.0000
  0
VERTEX
  8
21
 10
37.7168
 20
33.8250
 30
0.0000
  0
SEQEND
  8
0
  0
POLYLINE
  8
21
 66
1
 10
0.0000
 20
0.0000
 30
0.0000
 40
0.0500
 41
0.0500
 70
0
  0
VERTEX
  8
21
 10
33.6000
 20
33.8250
 30
0.0000
 42
1.0000
  0
VERTEX
  8
21
 10
33.6000
 20
33.7750
 30
0.0000
  0
SEQEND
  8
0
  0
POLYLINE
  8
21
 66
1
 10
0.0000
 20
0.0000
 30
0.0000
 40
0.1000
 41
0.1000
 70
0
  0
VERTEX
  8
21
 10
40.6000
 20
30.9168
 30
0.0000
 42
0.4142
  0
VERTEX
  8
21
 10
37.7168
 20
33.8000
 30
0.0000
  0
SEQEND
  8
0
  0
POLYLINE
  8
21
 66
1
 10
0.0000
 20
0.0000
 30
0.0000
 40
0.0500
 41
0.0500
 70
0
  0
VERTEX
  8
21
 10
40.5750
 20
30.9168
 30
0.0000
 42
1.0000
  0
VERTEX
  8
21
 10
40.6250
 20
30.9168
 30
0.0000
  0
SEQEND
  8
0
  0
POLYLINE
  8
21
 66
1
 10
0.0000
 20
0.0000
 30
0.0000
 40
0.0500
 41
0.0500
 70
0
  0
VERTEX
  8
21
 10
37.7168
 20
33.8250
 30
0.0000
 42
1.0000
  0
VERTEX
  8
21
 10
37.7168
 20
33.7750
 30
0.0000
  0
SEQEND
  8
0
  0
POLYLINE
  8
21
 66
1
 10
0.0000
 20
0.0000
 30
0.0000
 40
0.1000
 41
0.1000
 70
0
  0
VERTEX
  8
21
 10
40.6000
 20
30.9168
 30
0.0000
  0
VERTEX
  8
21
 10
40.6000
 20
26.7000
 30
0.0000
  0
SEQEND
  8
0
  0
POLYLINE
  8
21
 66
1
 10
0.0000
 20
0.0000
 30
0.0000
 40
0.0500
 41
0.0500
 70
0
  0
VERTEX
  8
21
 10
40.5750
 20
26.7000
 30
0.0000
 42
1.0000
  0
VERTEX
  8
21
 10
40.6250
 20
26.7000
 30
0.0000
  0
SEQEND
  8
0
  0
POLYLINE
  8
21
 66
1
 10
0.0000
 20
0.0000
 30
0.0000
 40
0.0500
 41
0.0500
 70
0
  0
VERTEX
  8
21
 10
40.6250
 20
30.9168
 30
0.0000
 42
1.0000
  0
VERTEX
  8
21
 10
40.5750
 20
30.9168
 30
0.0000
  0
SEQEND
  8
0
  0
POLYLINE
  8
21
 66
1
 10
0.0000
 20
0.0000
 30
0.0000
 40
0.1000
 41
0.1000
 70
0
  0
VERTEX
  8
21
 10
40.6000
 20
26.7000
 30
0.0000
  0
VERTEX
  8
21
 10
41.6000
 20
25.7000
 30
0.0000
  0
SEQEND
  8
0
  0
POLYLINE
  8
21
 66
1
 10
0.0000
 20
0.0000
 30
0.0000
 40
0.0500
 41
0.0500
 70
0
  0
VERTEX
  8
21
 10
41.5823
 20
25.6823
 30
0.0000
 42
1.0000
  0
VERTEX
  8
21
 10
41.6177
 20
25.7177
 30
0.0000
  0
SEQEND
  8
0
  0
POLYLINE
  8
21
 66
1
 10
0.0000
 20
0.0000
 30
0.0000
 40
0.0500
 41
0.0500
 70
0
  0
VERTEX
  8
21
 10
40.6177
 20
26.7177
 30
0.0000
 42
1.0000
  0
VERTEX
  8
21
 10
40.5823
 20
26.6823
 30
0.0000
  0
SEQEND
  8
0
  0
POLYLINE
  8
21
 66
1
 10
0.0000
 20
0.0000
 30
0.0000
 40
0.1524
 41
0.1524
 70
0
  0
VERTEX
  8
21
 10
41.6000
 20
25.7000
 30
0.0000
  0
VERTEX
  8
21
 10
52.7000
 20
25.7000
 30
0.0000
  0
SEQEND
  8
0
  0
POLYLINE
  8
21
 66
1
 10
0.0000
 20
0.0000
 30
0.0000
 40
0.0762
 41
0.0762
 70
0
  0
VERTEX
  8
21
 10
52.7000
 20
25.6619
 30
0.0000
 42
1.0000
  0
VERTEX
  8
21
 10
52.7000
 20
25.7381
 30
0.0000
  0
SEQEND
  8
0
  0
POLYLINE
  8
21
 66
1
 10
0.0000
 20
0.0000
 30
0.0000
 40
0.0762
 41
0.0762
 70
0
  0
VERTEX
  8
21
 10
41.6000
 20
25.7381
 30
0.0000
 42
1.0000
  0
VERTEX
  8
21
 10
41.6000
 20
25.6619
 30
0.0000
  0
SEQEND
  8
0
  0
POLYLINE
  8
21
 66
1
 10
0.0000
 20
0.0000
 30
0.0000
 40
0.1524
 41
0.1524
 70
0
  0
VERTEX
  8
21
 10
52.7000
 20
25.7000
 30
0.0000
  0
VERTEX
  8
21
 10
52.9000
 20
25.9000
 30
0.0000
  0
SEQEND
  8
0
  0
POLYLINE
  8
21
 66
1
 10
0.0000
 20
0.0000
 30
0.0000
 40
0.0762
 41
0.0762
 70
0
  0
VERTEX
  8
21
 10
52.9269
 20
25.8731
 30
0.0000
 42
1.0000
  0
VERTEX
  8
21
 10
52.8731
 20
25.9269
 30
0.0000
  0
SEQEND
  8
0
  0
POLYLINE
  8
21
 66
1
 10
0.0000
 20
0.0000
 30
0.0000
 40
0.0762
 41
0.0762
 70
0
  0
VERTEX
  8
21
 10
52.6731
 20
25.7269
 30
0.0000
 42
1.0000
  0
VERTEX
  8
21
 10
52.7269
 20
25.6731
 30
0.0000
  0
SEQEND
  8
0
  0
POLYLINE
  8
20
 66
1
 10
0.0000
 20
0.0000
 30
0.0000
 40
0.1524
 41
0.1524
 70
0
  0
VERTEX
  8
20
 10
21.0000
 20
100.0000
 30
0.0000
  0
VERTEX
  8
20
 10
153.4000
 20
99.8000
 30
0.0000
  0
SEQEND
  8
0
  0
POLYLINE
  8
20
 66
1
 10
0.0000
 20
0.0000
 30
0.0000
 40
0.0762
 41
0.0762
 70
0
  0
VERTEX
  8
20
 10
153.3999
 20
99.7619
 30
0.0000
 42
1.0000
  0
VERTEX
  8
20
 10
153.4001
 20
99.8381
 30
0.0000
  0
SEQEND
  8
0
  0
POLYLINE
  8
20
 66
1
 10
0.0000
 20
0.0000
 30
0.0000
 40
0.0762
 41
0.0762
 70
0
  0
VERTEX
  8
20
 10
21.0001
 20
100.0381
 30
0.0000
 42
1.0000
  0
VERTEX
  8
20
 10
20.9999
 20
99.9619
 30
0.0000
  0
SEQEND
  8
0
  0
POLYLINE
  8
20
 66
1
 10
0.0000
 20
0.0000
 30
0.0000
 40
0.1524
 41
0.1524
 70
0
  0
VERTEX
  8
20
 10
153.4000
 20
99.8000
 30
0.0000
  0
VERTEX
  8
20
 10
153.4000
 20
8.2000
 30
0.0000
  0
SEQEND
  8
0
  0
POLYLINE
  8
20
 66
1
 10
0.0000
 20
0.0000
 30
0.0000
 40
0.0762
 41
0.0762
 70
0
  0
VERTEX
  8
20
 10
153.3619
 20
8.2000
 30
0.0000
 42
1.0000
  0
VERTEX
  8
20
 10
153.4381
 20
8.2000
 30
0.0000
  0
SEQEND
  8
0
  0
POLYLINE
  8
20
 66
1
 10
0.0000
 20
0.0000
 30
0.0000
 40
0.0762
 41
0.0762
 70
0
  0
VERTEX
  8
20
 10
153.4381
 20
99.8000
 30
0.0000
 42
1.0000
  0
VERTEX
  8
20
 10
153.3619
 20
99.8000
 30
0.0000
  0
SEQEND
  8
0
  0
POLYLINE
  8
20
 66
1
 10
0.0000
 20
0.0000
 30
0.0000
 40
0.1524
 41
0.1524
 70
0
  0
VERTEX
  8
20
 10
153.4000
 20
8.2000
 30
0.0000
  0
VERTEX
  8
20
 10
21.0000
 20
8.4000
 30
0.0000
  0
SEQEND
  8
0
  0
POLYLINE
  8
20
 66
1
 10
0.0000
 20
0.0000
 30
0.0000
 40
0.0762
 41
0.0762
 70
0
  0
VERTEX
  8
20
 10
21.0001
 20
8.4381
 30
0.0000
 42
1.0000
  0
VERTEX
  8
20
 10
20.9999
 20
8.3619
 30
0.0000
  0
SEQEND
  8
0
  0
POLYLINE
  8
20
 66
1
 10
0.0000
 20
0.0000
 30
0.0000
 40
0.0762
 41
0.0762
 70
0
  0
VERTEX
  8
20
 10
153.3999
 20
8.1619
 30
0.0000
 42
1.0000
  0
VERTEX
  8
20
 10
153.4001
 20
8.2381
 30
0.0000
  0
SEQEND
  8
0
  0
POLYLINE
  8
20
 66
1
 10
0.0000
 20
0.0000
 30
0.0000
 40
0.1524
 41
0.1524
 70
0
  0
VERTEX
  8
20
 10
21.0000
 20
8.4000
 30
0.0000
  0
VERTEX
  8
20
 10
21.0000
 20
100.0000
 30
0.0000
  0
SEQEND
  8
0
  0
POLYLINE
  8
20
 66
1
 10
0.0000
 20
0.0000
 30
0.0000
 40
0.0762
 41
0.0762
 70
0
  0
VERTEX
  8
20
 10
21.0381
 20
100.0000
 30
0.0000
 42
1.0000
  0
VERTEX
  8
20
 10
20.9619
 20
100.0000
 30
0.0000
  0
SEQEND
  8
0
  0
POLYLINE
  8
20
 66
1
 10
0.0000
 20
0.0000
 30
0.0000
 40
0.0762
 41
0.0762
 70
0
  0
VERTEX
  8
20
 10
20.9619
 20
8.4000
 30
0.0000
 42
1.0000
  0
VERTEX
  8
20
 10
21.0381
 20
8.4000
 30
0.0000
  0
SEQEND
  8
0
  0
POLYLINE
  8
21
 66
1
 10
0.0000
 20
0.0000
 30
0.0000
 40
0.3048
 41
0.3048
 70
0
  0
VERTEX
  8
21
 10
137.3976
 20
25.3218
 30
0.0000
  0
VERTEX
  8
21
 10
133.8894
 20
25.3218
 30
0.0000
  0
SEQEND
  8
0
  0
POLYLINE
  8
21
 66
1
 10
0.0000
 20
0.0000
 30
0.0000
 40
0.1524
 41
0.1524
 70
0
  0
VERTEX
  8
21
 10
133.8894
 20
25.3980
 30
0.0000
 42
1.0000
  0
VERTEX
  8
21
 10
133.8894
 20
25.2456
 30
0.0000
  0
SEQEND
  8
0
  0
POLYLINE
  8
21
 66
1
 10
0.0000
 20
0.0000
 30
0.0000
 40
0.1524
 41
0.1524
 70
0
  0
VERTEX
  8
21
 10
137.3976
 20
25.2456
 30
0.0000
 42
1.0000
  0
VERTEX
  8
21
 10
137.3976
 20
25.3980
 30
0.0000
  0
SEQEND
  8
0
  0
POLYLINE
  8
21
 66
1
 10
0.0000
 20
0.0000
 30
0.0000
 40
0.3048
 41
0.3048
 70
0
  0
VERTEX
  8
21
 10
133.8894
 20
24.1524
 30
0.0000
  0
VERTEX
  8
21
 10
133.8894
 20
26.4912
 30
0.0000
  0
SEQEND
  8
0
  0
POLYLINE
  8
21
 66
1
 10
0.0000
 20
0.0000
 30
0.0000
 40
0.1524
 41
0.1524
 70
0
  0
VERTEX
  8
21
 10
133.9656
 20
26.4912
 30
0.0000
 42
1.0000
  0
VERTEX
  8
21
 10
133.8132
 20
26.4912
 30
0.0000
  0
SEQEND
  8
0
  0
POLYLINE
  8
21
 66
1
 10
0.0000
 20
0.0000
 30
0.0000
 40
0.1524
 41
0.1524
 70
0
  0
VERTEX
  8
21
 10
133.8132
 20
24.1524
 30
0.0000
 42
1.0000
  0
VERTEX
  8
21
 10
133.9656
 20
24.1524
 30
0.0000
  0
SEQEND
  8
0
  0
POLYLINE
  8
21
 66
1
 10
0.0000
 20
0.0000
 30
0.0000
 40
0.3048
 41
0.3048
 70
0
  0
VERTEX
  8
21
 10
133.8894
 20
29.9994
 30
0.0000
  0
VERTEX
  8
21
 10
133.8894
 20
27.6606
 30
0.0000
  0
SEQEND
  8
0
  0
POLYLINE
  8
21
 66
1
 10
0.0000
 20
0.0000
 30
0.0000
 40
0.1524
 41
0.1524
 70
0
  0
VERTEX
  8
21
 10
133.8132
 20
27.6606
 30
0.0000
 42
1.0000
  0
VERTEX
  8
21
 10
133.9656
 20
27.6606
 30
0.0000
  0
SEQEND
  8
0
  0
POLYLINE
  8
21
 66
1
 10
0.0000
 20
0.0000
 30
0.0000
 40
0.1524
 41
0.1524
 70
0
  0
VERTEX
  8
21
 10
133.9656
 20
29.9994
 30
0.0000
 42
1.0000
  0
VERTEX
  8
21
 10
133.8132
 20
29.9994
 30
0.0000
  0
SEQEND
  8
0
  0
POLYLINE
  8
21
 66
1
 10
0.0000
 20
0.0000
 30
0.0000
 40
0.3048
 41
0.3048
 70
0
  0
VERTEX
  8
21
 10
133.8894
 20
27.6606
 30
0.0000
  0
VERTEX
  8
21
 10
137.3976
 20
27.6606
 30
0.0000
  0
SEQEND
  8
0
  0
POLYLINE
  8
21
 66
1
 10
0.0000
 20
0.0000
 30
0.0000
 40
0.1524
 41
0.1524
 70
0
  0
VERTEX
  8
21
 10
137.3976
 20
27.5844
 30
0.0000
 42
1.0000
  0
VERTEX
  8
21
 10
137.3976
 20
27.7368
 30
0.0000
  0
SEQEND
  8
0
  0
POLYLINE
  8
21
 66
1
 10
0.0000
 20
0.0000
 30
0.0000
 40
0.1524
 41
0.1524
 70
0
  0
VERTEX
  8
21
 10
133.8894
 20
27.7368
 30
0.0000
 42
1.0000
  0
VERTEX
  8
21
 10
133.8894
 20
27.5844
 30
0.0000
  0
SEQEND
  8
0
  0
POLYLINE
  8
21
 66
1
 10
0.0000
 20
0.0000
 30
0.0000
 40
0.3048
 41
0.3048
 70
0
  0
VERTEX
  8
21
 10
137.3976
 20
27.6606
 30
0.0000
  0
VERTEX
  8
21
 10
137.3976
 20
29.9994
 30
0.0000
  0
SEQEND
  8
0
  0
POLYLINE
  8
21
 66
1
 10
0.0000
 20
0.0000
 30
0.0000
 40
0.1524
 41
0.1524
 70
0
  0
VERTEX
  8
21
 10
137.4738
 20
29.9994
 30
0.0000
 42
1.0000
  0
VERTEX
  8
21
 10
137.3214
 20
29.9994
 30
0.0000
  0
SEQEND
  8
0
  0
POLYLINE
  8
21
 66
1
 10
0.0000
 20
0.0000
 30
0.0000
 40
0.1524
 41
0.1524
 70
0
  0
VERTEX
  8
21
 10
137.3214
 20
27.6606
 30
0.0000
 42
1.0000
  0
VERTEX
  8
21
 10
137.4738
 20
27.6606
 30
0.0000
  0
SEQEND
  8
0
  0
POLYLINE
  8
21
 66
1
 10
0.0000
 20
0.0000
 30
0.0000
 40
0.3048
 41
0.3048
 70
0
  0
VERTEX
  8
21
 10
135.6435
 20
27.6606
 30
0.0000
  0
VERTEX
  8
21
 10
135.6435
 20
28.8300
 30
0.0000
  0
SEQEND
  8
0
  0
POLYLINE
  8
21
 66
1
 10
0.0000
 20
0.0000
 30
0.0000
 40
0.1524
 41
0.1524
 70
0
  0
VERTEX
  8
21
 10
135.7197
 20
28.8300
 30
0.0000
 42
1.0000
  0
VERTEX
  8
21
 10
135.5673
 20
28.8300
 30
0.0000
  0
SEQEND
  8
0
  0
POLYLINE
  8
21
 66
1
 10
0.0000
 20
0.0000
 30
0.0000
 40
0.1524
 41
0.1524
 70
0
  0
VERTEX
  8
21
 10
135.5673
 20
27.6606
 30
0.0000
 42
1.0000
  0
VERTEX
  8
21
 10
135.7197
 20
27.6606
 30
0.0000
  0
SEQEND
  8
0
  0
POLYLINE
  8
21
 66
1
 10
0.0000
 20
0.0000
 30
0.0000
 40
0.3048
 41
0.3048
 70
0
  0
VERTEX
  8
21
 10
134.4741
 20
33.5076
 30
0.0000
  0
VERTEX
  8
21
 10
133.8894
 20
32.9229
 30
0.0000
  0
SEQEND
  8
0
  0
POLYLINE
  8
21
 66
1
 10
0.0000
 20
0.0000
 30
0.0000
 40
0.1524
 41
0.1524
 70
0
  0
VERTEX
  8
21
 10
133.8355
 20
32.9768
 30
0.0000
 42
1.0000
  0
VERTEX
  8
21
 10
133.9433
 20
32.8690
 30
0.0000
  0
SEQEND
  8
0
  0
POLYLINE
  8
21
 66
1
 10
0.0000
 20
0.0000
 30
0.0000
 40
0.1524
 41
0.1524
 70
0
  0
VERTEX
  8
21
 10
134.5280
 20
33.4537
 30
0.0000
 42
1.0000
  0
VERTEX
  8
21
 10
134.4202
 20
33.5615
 30
0.0000
  0
SEQEND
  8
0
  0
POLYLINE
  8
21
 66
1
 10
0.0000
 20
0.0000
 30
0.0000
 40
0.3048
 41
0.3048
 70
0
  0
VERTEX
  8
21
 10
133.8894
 20
32.9229
 30
0.0000
  0
VERTEX
  8
21
 10
133.8894
 20
31.7535
 30
0.0000
  0
SEQEND
  8
0
  0
POLYLINE
  8
21
 66
1
 10
0.0000
 20
0.0000
 30
0.0000
 40
0.1524
 41
0.1524
 70
0
  0
VERTEX
  8
21
 10
133.8132
 20
31.7535
 30
0.0000
 42
1.0000
  0
VERTEX
  8
21
 10
133.9656
 20
31.7535
 30
0.0000
  0
SEQEND
  8
0
  0
POLYLINE
  8
21
 66
1
 10
0.0000
 20
0.0000
 30
0.0000
 40
0.1524
 41
0.1524
 70
0
  0
VERTEX
  8
21
 10
133.9656
 20
32.9229
 30
0.0000
 42
1.0000
  0
VERTEX
  8
21
 10
133.8132
 20
32.9229
 30
0.0000
  0
SEQEND
  8
0
  0
POLYLINE
  8
21
 66
1
 10
0.0000
 20
0.0000
 30
0.0000
 40
0.3048
 41
0.3048
 70
0
  0
VERTEX
  8
21
 10
133.8894
 20
31.7535
 30
0.0000
  0
VERTEX
  8
21
 10
134.4741
 20
31.1688
 30
0.0000
  0
SEQEND
  8
0
  0
POLYLINE
  8
21
 66
1
 10
0.0000
 20
0.0000
 30
0.0000
 40
0.1524
 41
0.1524
 70
0
  0
VERTEX
  8
21
 10
134.4202
 20
31.1149
 30
0.0000
 42
1.0000
  0
VERTEX
  8
21
 10
134.5280
 20
31.2227
 30
0.0000
  0
SEQEND
  8
0
  0
POLYLINE
  8
21
 66
1
 10
0.0000
 20
0.0000
 30
0.0000
 40
0.1524
 41
0.1524
 70
0
  0
VERTEX
  8
21
 10
133.9433
 20
31.8074
 30
0.0000
 42
1.0000
  0
VERTEX
  8
21
 10
133.8355
 20
31.6996
 30
0.0000
  0
SEQEND
  8
0
  0
POLYLINE
  8
21
 66
1
 10
0.0000
 20
0.0000
 30
0.0000
 40
0.3048
 41
0.3048
 70
0
  0
VERTEX
  8
21
 10
134.4741
 20
31.1688
 30
0.0000
  0
VERTEX
  8
21
 10
135.0588
 20
31.1688
 30
0.0000
  0
SEQEND
  8
0
  0
POLYLINE
  8
21
 66
1
 10
0.0000
 20
0.0000
 30
0.0000
 40
0.1524
 41
0.1524
 70
0
  0
VERTEX
  8
21
 10
135.0588
 20
31.0926
 30
0.0000
 42
1.0000
  0
VERTEX
  8
21
 10
135.0588
 20
31.2450
 30
0.0000
  0
SEQEND
  8
0
  0
POLYLINE
  8
21
 66
1
 10
0.0000
 20
0.0000
 30
0.0000
 40
0.1524
 41
0.1524
 70
0
  0
VERTEX
  8
21
 10
134.4741
 20
31.2450
 30
0.0000
 42
1.0000
  0
VERTEX
  8
21
 10
134.4741
 20
31.0926
 30
0.0000
  0
SEQEND
  8
0
  0
POLYLINE
  8
21
 66
1
 10
0.0000
 20
0.0000
 30
0.0000
 40
0.3048
 41
0.3048
 70
0
  0
VERTEX
  8
21
 10
135.0588
 20
31.1688
 30
0.0000
  0
VERTEX
  8
21
 10
135.6435
 20
31.7535
 30
0.0000
  0
SEQEND
  8
0
  0
POLYLINE
  8
21
 66
1
 10
0.0000
 20
0.0000
 30
0.0000
 40
0.1524
 41
0.1524
 70
0
  0
VERTEX
  8
21
 10
135.6974
 20
31.6996
 30
0.0000
 42
1.0000
  0
VERTEX
  8
21
 10
135.5896
 20
31.8074
 30
0.0000
  0
SEQEND
  8
0
  0
POLYLINE
  8
21
 66
1
 10
0.0000
 20
0.0000
 30
0.0000
 40
0.1524
 41
0.1524
 70
0
  0
VERTEX
  8
21
 10
135.0049
 20
31.2227
 30
0.0000
 42
1.0000
  0
VERTEX
  8
21
 10
135.1127
 20
31.1149
 30
0.0000
  0
SEQEND
  8
0
  0
POLYLINE
  8
21
 66
1
 10
0.0000
 20
0.0000
 30
0.0000
 40
0.3048
 41
0.3048
 70
0
  0
VERTEX
  8
21
 10
135.6435
 20
31.7535
 30
0.0000
  0
VERTEX
  8
21
 10
135.6435
 20
32.9229
 30
0.0000
  0
SEQEND
  8
0
  0
POLYLINE
  8
21
 66
1
 10
0.0000
 20
0.0000
 30
0.0000
 40
0.1524
 41
0.1524
 70
0
  0
VERTEX
  8
21
 10
135.7197
 20
32.9229
 30
0.0000
 42
1.0000
  0
VERTEX
  8
21
 10
135.5673
 20
32.9229
 30
0.0000
  0
SEQEND
  8
0
  0
POLYLINE
  8
21
 66
1
 10
0.0000
 20
0.0000
 30
0.0000
 40
0.1524
 41
0.1524
 70
0
  0
VERTEX
  8
21
 10
135.5673
 20
31.7535
 30
0.0000
 42
1.0000
  0
VERTEX
  8
21
 10
135.7197
 20
31.7535
 30
0.0000
  0
SEQEND
  8
0
  0
POLYLINE
  8
21
 66
1
 10
0.0000
 20
0.0000
 30
0.0000
 40
0.3048
 41
0.3048
 70
0
  0
VERTEX
  8
21
 10
135.6435
 20
32.9229
 30
0.0000
  0
VERTEX
  8
21
 10
136.2282
 20
33.5076
 30
0.0000
  0
SEQEND
  8
0
  0
POLYLINE
  8
21
 66
1
 10
0.0000
 20
0.0000
 30
0.0000
 40
0.1524
 41
0.1524
 70
0
  0
VERTEX
  8
21
 10
136.2821
 20
33.4537
 30
0.0000
 42
1.0000
  0
VERTEX
  8
21
 10
136.1743
 20
33.5615
 30
0.0000
  0
SEQEND
  8
0
  0
POLYLINE
  8
21
 66
1
 10
0.0000
 20
0.0000
 30
0.0000
 40
0.1524
 41
0.1524
 70
0
  0
VERTEX
  8
21
 10
135.5896
 20
32.9768
 30
0.0000
 42
1.0000
  0
VERTEX
  8
21
 10
135.6974
 20
32.8690
 30
0.0000
  0
SEQEND
  8
0
  0
POLYLINE
  8
21
 66
1
 10
0.0000
 20
0.0000
 30
0.0000
 40
0.3048
 41
0.3048
 70
0
  0
VERTEX
  8
21
 10
136.2282
 20
33.5076
 30
0.0000
  0
VERTEX
  8
21
 10
136.8129
 20
33.5076
 30
0.0000
  0
SEQEND
  8
0
  0
POLYLINE
  8
21
 66
1
 10
0.0000
 20
0.0000
 30
0.0000
 40
0.1524
 41
0.1524
 70
0
  0
VERTEX
  8
21
 10
136.8129
 20
33.4314
 30
0.0000
 42
1.0000
  0
VERTEX
  8
21
 10
136.8129
 20
33.5838
 30
0.0000
  0
SEQEND
  8
0
  0
POLYLINE
  8
21
 66
1
 10
0.0000
 20
0.0000
 30
0.0000
 40
0.1524
 41
0.1524
 70
0
  0
VERTEX
  8
21
 10
136.2282
 20
33.5838
 30
0.0000
 42
1.0000
  0
VERTEX
  8
21
 10
136.2282
 20
33.4314
 30
0.0000
  0
SEQEND
  8
0
  0
POLYLINE
  8
21
 66
1
 10
0.0000
 20
0.0000
 30
0.0000
 40
0.3048
 41
0.3048
 70
0
  0
VERTEX
  8
21
 10
136.8129
 20
33.5076
 30
0.0000
  0
VERTEX
  8
21
 10
137.3976
 20
32.9229
 30
0.0000
  0
SEQEND
  8
0
  0
POLYLINE
  8
21
 66
1
 10
0.0000
 20
0.0000
 30
0.0000
 40
0.1524
 41
0.1524
 70
0
  0
VERTEX
  8
21
 10
137.3437
 20
32.8690
 30
0.0000
 42
1.0000
  0
VERTEX
  8
21
 10
137.4515
 20
32.9768
 30
0.0000
  0
SEQEND
  8
0
  0
POLYLINE
  8
21
 66
1
 10
0.0000
 20
0.0000
 30
0.0000
 40
0.1524
 41
0.1524
 70
0
  0
VERTEX
  8
21
 10
136.8668
 20
33.5615
 30
0.0000
 42
1.0000
  0
VERTEX
  8
21
 10
136.7590
 20
33.4537
 30
0.0000
  0
SEQEND
  8
0
  0
POLYLINE
  8
21
 66
1
 10
0.0000
 20
0.0000
 30
0.0000
 40
0.3048
 41
0.3048
 70
0
  0
VERTEX
  8
21
 10
137.3976
 20
32.9229
 30
0.0000
  0
VERTEX
  8
21
 10
137.3976
 20
31.7535
 30
0.0000
  0
SEQEND
  8
0
  0
POLYLINE
  8
21
 66
1
 10
0.0000
 20
0.0000
 30
0.0000
 40
0.1524
 41
0.1524
 70
0
  0
VERTEX
  8
21
 10
137.3214
 20
31.7535
 30
0.0000
 42
1.0000
  0
VERTEX
  8
21
 10
137.4738
 20
31.7535
 30
0.0000
  0
SEQEND
  8
0
  0
POLYLINE
  8
21
 66
1
 10
0.0000
 20
0.0000
 30
0.0000
 40
0.1524
 41
0.1524
 70
0
  0
VERTEX
  8
21
 10
137.4738
 20
32.9229
 30
0.0000
 42
1.0000
  0
VERTEX
  8
21
 10
137.3214
 20
32.9229
 30
0.0000
  0
SEQEND
  8
0
  0
POLYLINE
  8
21
 66
1
 10
0.0000
 20
0.0000
 30
0.0000
 40
0.3048
 41
0.3048
 70
0
  0
VERTEX
  8
21
 10
137.3976
 20
31.7535
 30
0.0000
  0
VERTEX
  8
21
 10
136.8129
 20
31.1688
 30
0.0000
  0
SEQEND
  8
0
  0
POLYLINE
  8
21
 66
1
 10
0.0000
 20
0.0000
 30
0.0000
 40
0.1524
 41
0.1524
 70
0
  0
VERTEX
  8
21
 10
136.7590
 20
31.2227
 30
0.0000
 42
1.0000
  0
VERTEX
  8
21
 10
136.8668
 20
31.1149
 30
0.0000
  0
SEQEND
  8
0
  0
POLYLINE
  8
21
 66
1
 10
0.0000
 20
0.0000
 30
0.0000
 40
0.1524
 41
0.1524
 70
0
  0
VERTEX
  8
21
 10
137.4515
 20
31.6996
 30
0.0000
 42
1.0000
  0
VERTEX
  8
21
 10
137.3437
 20
31.8074
 30
0.0000
  0
SEQEND
  8
0
  0
POLYLINE
  8
21
 66
1
 10
0.0000
 20
0.0000
 30
0.0000
 40
0.3048
 41
0.3048
 70
0
  0
VERTEX
  8
21
 10
137.3976
 20
35.8464
 30
0.0000
  0
VERTEX
  8
21
 10
133.8894
 20
35.8464
 30
0.0000
  0
SEQEND
  8
0
  0
POLYLINE
  8
21
 66
1
 10
0.0000
 20
0.0000
 30
0.0000
 40
0.1524
 41
0.1524
 70
0
  0
VERTEX
  8
21
 10
133.8894
 20
35.9226
 30
0.0000
 42
1.0000
  0
VERTEX
  8
21
 10
133.8894
 20
35.7702
 30
0.0000
  0
SEQEND
  8
0
  0
POLYLINE
  8
21
 66
1
 10
0.0000
 20
0.0000
 30
0.0000
 40
0.1524
 41
0.1524
 70
0
  0
VERTEX
  8
21
 10
137.3976
 20
35.7702
 30
0.0000
 42
1.0000
  0
VERTEX
  8
21
 10
137.3976
 20
35.9226
 30
0.0000
  0
SEQEND
  8
0
  0
POLYLINE
  8
21
 66
1
 10
0.0000
 20
0.0000
 30
0.0000
 40
0.3048
 41
0.3048
 70
0
  0
VERTEX
  8
21
 10
133.8894
 20
34.6770
 30
0.0000
  0
VERTEX
  8
21
 10
133.8894
 20
37.0158
 30
0.0000
  0
SEQEND
  8
0
  0
POLYLINE
  8
21
 66
1
 10
0.0000
 20
0.0000
 30
0.0000
 40
0.1524
 41
0.1524
 70
0
  0
VERTEX
  8
21
 10
133.9656
 20
37.0158
 30
0.0000
 42
1.0000
  0
VERTEX
  8
21
 10
133.8132
 20
37.0158
 30
0.0000
  0
SEQEND
  8
0
  0
POLYLINE
  8
21
 66
1
 10
0.0000
 20
0.0000
 30
0.0000
 40
0.1524
 41
0.1524
 70
0
  0
VERTEX
  8
21
 10
133.8132
 20
34.6770
 30
0.0000
 42
1.0000
  0
VERTEX
  8
21
 10
133.9656
 20
34.6770
 30
0.0000
  0
SEQEND
  8
0
  0
POLYLINE
  8
21
 66
1
 10
0.0000
 20
0.0000
 30
0.0000
 40
0.3048
 41
0.3048
 70
0
  0
VERTEX
  8
21
 10
133.8894
 20
40.5240
 30
0.0000
  0
VERTEX
  8
21
 10
133.8894
 20
38.1852
 30
0.0000
  0
SEQEND
  8
0
  0
POLYLINE
  8
21
 66
1
 10
0.0000
 20
0.0000
 30
0.0000
 40
0.1524
 41
0.1524
 70
0
  0
VERTEX
  8
21
 10
133.8132
 20
38.1852
 30
0.0000
 42
1.0000
  0
VERTEX
  8
21
 10
133.9656
 20
38.1852
 30
0.0000
  0
SEQEND
  8
0
  0
POLYLINE
  8
21
 66
1
 10
0.0000
 20
0.0000
 30
0.0000
 40
0.1524
 41
0.1524
 70
0
  0
VERTEX
  8
21
 10
133.9656
 20
40.5240
 30
0.0000
 42
1.0000
  0
VERTEX
  8
21
 10
133.8132
 20
40.5240
 30
0.0000
  0
SEQEND
  8
0
  0
POLYLINE
  8
21
 66
1
 10
0.0000
 20
0.0000
 30
0.0000
 40
0.3048
 41
0.3048
 70
0
  0
VERTEX
  8
21
 10
133.8894
 20
38.1852
 30
0.0000
  0
VERTEX
  8
21
 10
137.3976
 20
38.1852
 30
0.0000
  0
SEQEND
  8
0
  0
POLYLINE
  8
21
 66
1
 10
0.0000
 20
0.0000
 30
0.0000
 40
0.1524
 41
0.1524
 70
0
  0
VERTEX
  8
21
 10
137.3976
 20
38.1090
 30
0.0000
 42
1.0000
  0
VERTEX
  8
21
 10
137.3976
 20
38.2614
 30
0.0000
  0
SEQEND
  8
0
  0
POLYLINE
  8
21
 66
1
 10
0.0000
 20
0.0000
 30
0.0000
 40
0.1524
 41
0.1524
 70
0
  0
VERTEX
  8
21
 10
133.8894
 20
38.2614
 30
0.0000
 42
1.0000
  0
VERTEX
  8
21
 10
133.8894
 20
38.1090
 30
0.0000
  0
SEQEND
  8
0
  0
POLYLINE
  8
21
 66
1
 10
0.0000
 20
0.0000
 30
0.0000
 40
0.3048
 41
0.3048
 70
0
  0
VERTEX
  8
21
 10
137.3976
 20
38.1852
 30
0.0000
  0
VERTEX
  8
21
 10
137.3976
 20
40.5240
 30
0.0000
  0
SEQEND
  8
0
  0
POLYLINE
  8
21
 66
1
 10
0.0000
 20
0.0000
 30
0.0000
 40
0.1524
 41
0.1524
 70
0
  0
VERTEX
  8
21
 10
137.4738
 20
40.5240
 30
0.0000
 42
1.0000
  0
VERTEX
  8
21
 10
137.3214
 20
40.5240
 30
0.0000
  0
SEQEND
  8
0
  0
POLYLINE
  8
21
 66
1
 10
0.0000
 20
0.0000
 30
0.0000
 40
0.1524
 41
0.1524
 70
0
  0
VERTEX
  8
21
 10
137.3214
 20
38.1852
 30
0.0000
 42
1.0000
  0
VERTEX
  8
21
 10
137.4738
 20
38.1852
 30
0.0000
  0
SEQEND
  8
0
  0
POLYLINE
  8
21
 66
1
 10
0.0000
 20
0.0000
 30
0.0000
 40
0.3048
 41
0.3048
 70
0
  0
VERTEX
  8
21
 10
135.6435
 20
38.1852
 30
0.0000
  0
VERTEX
  8
21
 10
135.6435
 20
39.3546
 30
0.0000
  0
SEQEND
  8
0
  0
POLYLINE
  8
21
 66
1
 10
0.0000
 20
0.0000
 30
0.0000
 40
0.1524
 41
0.1524
 70
0
  0
VERTEX
  8
21
 10
135.7197
 20
39.3546
 30
0.0000
 42
1.0000
  0
VERTEX
  8
21
 10
135.5673
 20
39.3546
 30
0.0000
  0
SEQEND
  8
0
  0
POLYLINE
  8
21
 66
1
 10
0.0000
 20
0.0000
 30
0.0000
 40
0.1524
 41
0.1524
 70
0
  0
VERTEX
  8
21
 10
135.5673
 20
38.1852
 30
0.0000
 42
1.0000
  0
VERTEX
  8
21
 10
135.7197
 20
38.1852
 30
0.0000
  0
SEQEND
  8
0
  0
POLYLINE
  8
21
 66
1
 10
0.0000
 20
0.0000
 30
0.0000
 40
0.3048
 41
0.3048
 70
0
  0
VERTEX
  8
21
 10
137.3976
 20
41.6934
 30
0.0000
  0
VERTEX
  8
21
 10
133.8894
 20
41.6934
 30
0.0000
  0
SEQEND
  8
0
  0
POLYLINE
  8
21
 66
1
 10
0.0000
 20
0.0000
 30
0.0000
 40
0.1524
 41
0.1524
 70
0
  0
VERTEX
  8
21
 10
133.8894
 20
41.7696
 30
0.0000
 42
1.0000
  0
VERTEX
  8
21
 10
133.8894
 20
41.6172
 30
0.0000
  0
SEQEND
  8
0
  0
POLYLINE
  8
21
 66
1
 10
0.0000
 20
0.0000
 30
0.0000
 40
0.1524
 41
0.1524
 70
0
  0
VERTEX
  8
21
 10
137.3976
 20
41.6172
 30
0.0000
 42
1.0000
  0
VERTEX
  8
21
 10
137.3976
 20
41.7696
 30
0.0000
  0
SEQEND
  8
0
  0
POLYLINE
  8
21
 66
1
 10
0.0000
 20
0.0000
 30
0.0000
 40
0.3048
 41
0.3048
 70
0
  0
VERTEX
  8
21
 10
133.8894
 20
41.6934
 30
0.0000
  0
VERTEX
  8
21
 10
133.8894
 20
43.4475
 30
0.0000
  0
SEQEND
  8
0
  0
POLYLINE
  8
21
 66
1
 10
0.0000
 20
0.0000
 30
0.0000
 40
0.1524
 41
0.1524
 70
0
  0
VERTEX
  8
21
 10
133.9656
 20
43.4475
 30
0.0000
 42
1.0000
  0
VERTEX
  8
21
 10
133.8132
 20
43.4475
 30
0.0000
  0
SEQEND
  8
0
  0
POLYLINE
  8
21
 66
1
 10
0.0000
 20
0.0000
 30
0.0000
 40
0.1524
 41
0.1524
 70
0
  0
VERTEX
  8
21
 10
133.8132
 20
41.6934
 30
0.0000
 42
1.0000
  0
VERTEX
  8
21
 10
133.9656
 20
41.6934
 30
0.0000
  0
SEQEND
  8
0
  0
POLYLINE
  8
21
 66
1
 10
0.0000
 20
0.0000
 30
0.0000
 40
0.3048
 41
0.3048
 70
0
  0
VERTEX
  8
21
 10
133.8894
 20
43.4475
 30
0.0000
  0
VERTEX
  8
21
 10
134.4741
 20
44.0322
 30
0.0000
  0
SEQEND
  8
0
  0
POLYLINE
  8
21
 66
1
 10
0.0000
 20
0.0000
 30
0.0000
 40
0.1524
 41
0.1524
 70
0
  0
VERTEX
  8
21
 10
134.5280
 20
43.9783
 30
0.0000
 42
1.0000
  0
VERTEX
  8
21
 10
134.4202
 20
44.0861
 30
0.0000
  0
SEQEND
  8
0
  0
POLYLINE
  8
21
 66
1
 10
0.0000
 20
0.0000
 30
0.0000
 40
0.1524
 41
0.1524
 70
0
  0
VERTEX
  8
21
 10
133.8355
 20
43.5014
 30
0.0000
 42
1.0000
  0
VERTEX
  8
21
 10
133.9433
 20
43.3936
 30
0.0000
  0
SEQEND
  8
0
  0
POLYLINE
  8
21
 66
1
 10
0.0000
 20
0.0000
 30
0.0000
 40
0.3048
 41
0.3048
 70
0
  0
VERTEX
  8
21
 10
134.4741
 20
44.0322
 30
0.0000
  0
VERTEX
  8
21
 10
135.6435
 20
44.0322
 30
0.0000
  0
SEQEND
  8
0
  0
POLYLINE
  8
21
 66
1
 10
0.0000
 20
0.0000
 30
0.0000
 40
0.1524
 41
0.1524
 70
0
  0
VERTEX
  8
21
 10
135.6435
 20
43.9560
 30
0.0000
 42
1.0000
  0
VERTEX
  8
21
 10
135.6435
 20
44.1084
 30
0.0000
  0
SEQEND
  8
0
  0
POLYLINE
  8
21
 66
1
 10
0.0000
 20
0.0000
 30
0.0000
 40
0.1524
 41
0.1524
 70
0
  0
VERTEX
  8
21
 10
134.4741
 20
44.1084
 30
0.0000
 42
1.0000
  0
VERTEX
  8
21
 10
134.4741
 20
43.9560
 30
0.0000
  0
SEQEND
  8
0
  0
POLYLINE
  8
21
 66
1
 10
0.0000
 20
0.0000
 30
0.0000
 40
0.3048
 41
0.3048
 70
0
  0
VERTEX
  8
21
 10
135.6435
 20
44.0322
 30
0.0000
  0
VERTEX
  8
21
 10
136.2282
 20
43.4475
 30
0.0000
  0
SEQEND
  8
0
  0
POLYLINE
  8
21
 66
1
 10
0.0000
 20
0.0000
 30
0.0000
 40
0.1524
 41
0.1524
 70
0
  0
VERTEX
  8
21
 10
136.1743
 20
43.3936
 30
0.0000
 42
1.0000
  0
VERTEX
  8
21
 10
136.2821
 20
43.5014
 30
0.0000
  0
SEQEND
  8
0
  0
POLYLINE
  8
21
 66
1
 10
0.0000
 20
0.0000
 30
0.0000
 40
0.1524
 41
0.1524
 70
0
  0
VERTEX
  8
21
 10
135.6974
 20
44.0861
 30
0.0000
 42
1.0000
  0
VERTEX
  8
21
 10
135.5896
 20
43.9783
 30
0.0000
  0
SEQEND
  8
0
  0
POLYLINE
  8
21
 66
1
 10
0.0000
 20
0.0000
 30
0.0000
 40
0.3048
 41
0.3048
 70
0
  0
VERTEX
  8
21
 10
136.2282
 20
43.4475
 30
0.0000
  0
VERTEX
  8
21
 10
136.2282
 20
41.6934
 30
0.0000
  0
SEQEND
  8
0
  0
POLYLINE
  8
21
 66
1
 10
0.0000
 20
0.0000
 30
0.0000
 40
0.1524
 41
0.1524
 70
0
  0
VERTEX
  8
21
 10
136.1520
 20
41.6934
 30
0.0000
 42
1.0000
  0
VERTEX
  8
21
 10
136.3044
 20
41.6934
 30
0.0000
  0
SEQEND
  8
0
  0
POLYLINE
  8
21
 66
1
 10
0.0000
 20
0.0000
 30
0.0000
 40
0.1524
 41
0.1524
 70
0
  0
VERTEX
  8
21
 10
136.3044
 20
43.4475
 30
0.0000
 42
1.0000
  0
VERTEX
  8
21
 10
136.1520
 20
43.4475
 30
0.0000
  0
SEQEND
  8
0
  0
POLYLINE
  8
21
 66
1
 10
0.0000
 20
0.0000
 30
0.0000
 40
0.3048
 41
0.3048
 70
0
  0
VERTEX
  8
21
 10
136.2282
 20
42.8628
 30
0.0000
  0
VERTEX
  8
21
 10
137.3976
 20
44.0322
 30
0.0000
  0
SEQEND
  8
0
  0
POLYLINE
  8
21
 66
1
 10
0.0000
 20
0.0000
 30
0.0000
 40
0.1524
 41
0.1524
 70
0
  0
VERTEX
  8
21
 10
137.4515
 20
43.9783
 30
0.0000
 42
1.0000
  0
VERTEX
  8
21
 10
137.3437
 20
44.0861
 30
0.0000
  0
SEQEND
  8
0
  0
POLYLINE
  8
21
 66
1
 10
0.0000
 20
0.0000
 30
0.0000
 40
0.1524
 41
0.1524
 70
0
  0
VERTEX
  8
21
 10
136.1743
 20
42.9167
 30
0.0000
 42
1.0000
  0
VERTEX
  8
21
 10
136.2821
 20
42.8089
 30
0.0000
  0
SEQEND
  8
0
  0
POLYLINE
  8
21
 66
1
 10
0.0000
 20
0.0000
 30
0.0000
 40
0.3048
 41
0.3048
 70
0
  0
VERTEX
  8
21
 10
137.2976
 20
53.5524
 30
0.0000
  0
VERTEX
  8
21
 10
133.7894
 20
53.5524
 30
0.0000
  0
SEQEND
  8
0
  0
POLYLINE
  8
21
 66
1
 10
0.0000
 20
0.0000
 30
0.0000
 40
0.1524
 41
0.1524
 70
0
  0
VERTEX
  8
21
 10
133.7894
 20
53.6286
 30
0.0000
 42
1.0000
  0
VERTEX
  8
21
 10
133.7894
 20
53.4762
 30
0.0000
  0
SEQEND
  8
0
  0
POLYLINE
  8
21
 66
1
 10
0.0000
 20
0.0000
 30
0.0000
 40
0.1524
 41
0.1524
 70
0
  0
VERTEX
  8
21
 10
137.2976
 20
53.4762
 30
0.0000
 42
1.0000
  0
VERTEX
  8
21
 10
137.2976
 20
53.6286
 30
0.0000
  0
SEQEND
  8
0
  0
POLYLINE
  8
21
 66
1
 10
0.0000
 20
0.0000
 30
0.0000
 40
0.3048
 41
0.3048
 70
0
  0
VERTEX
  8
21
 10
133.7894
 20
53.5524
 30
0.0000
  0
VERTEX
  8
21
 10
133.7894
 20
55.3065
 30
0.0000
  0
SEQEND
  8
0
  0
POLYLINE
  8
21
 66
1
 10
0.0000
 20
0.0000
 30
0.0000
 40
0.1524
 41
0.1524
 70
0
  0
VERTEX
  8
21
 10
133.8656
 20
55.3065
 30
0.0000
 42
1.0000
  0
VERTEX
  8
21
 10
133.7132
 20
55.3065
 30
0.0000
  0
SEQEND
  8
0
  0
POLYLINE
  8
21
 66
1
 10
0.0000
 20
0.0000
 30
0.0000
 40
0.1524
 41
0.1524
 70
0
  0
VERTEX
  8
21
 10
133.7132
 20
53.5524
 30
0.0000
 42
1.0000
  0
VERTEX
  8
21
 10
133.8656
 20
53.5524
 30
0.0000
  0
SEQEND
  8
0
  0
POLYLINE
  8
21
 66
1
 10
0.0000
 20
0.0000
 30
0.0000
 40
0.3048
 41
0.3048
 70
0
  0
VERTEX
  8
21
 10
133.7894
 20
55.3065
 30
0.0000
  0
VERTEX
  8
21
 10
134.3741
 20
55.8912
 30
0.0000
  0
SEQEND
  8
0
  0
POLYLINE
  8
21
 66
1
 10
0.0000
 20
0.0000
 30
0.0000
 40
0.1524
 41
0.1524
 70
0
  0
VERTEX
  8
21
 10
134.4280
 20
55.8373
 30
0.0000
 42
1.0000
  0
VERTEX
  8
21
 10
134.3202
 20
55.9451
 30
0.0000
  0
SEQEND
  8
0
  0
POLYLINE
  8
21
 66
1
 10
0.0000
 20
0.0000
 30
0.0000
 40
0.1524
 41
0.1524
 70
0
  0
VERTEX
  8
21
 10
133.7355
 20
55.3604
 30
0.0000
 42
1.0000
  0
VERTEX
  8
21
 10
133.8433
 20
55.2526
 30
0.0000
  0
SEQEND
  8
0
  0
POLYLINE
  8
21
 66
1
 10
0.0000
 20
0.0000
 30
0.0000
 40
0.3048
 41
0.3048
 70
0
  0
VERTEX
  8
21
 10
134.3741
 20
55.8912
 30
0.0000
  0
VERTEX
  8
21
 10
135.5435
 20
55.8912
 30
0.0000
  0
SEQEND
  8
0
  0
POLYLINE
  8
21
 66
1
 10
0.0000
 20
0.0000
 30
0.0000
 40
0.1524
 41
0.1524
 70
0
  0
VERTEX
  8
21
 10
135.5435
 20
55.8150
 30
0.0000
 42
1.0000
  0
VERTEX
  8
21
 10
135.5435
 20
55.9674
 30
0.0000
  0
SEQEND
  8
0
  0
POLYLINE
  8
21
 66
1
 10
0.0000
 20
0.0000
 30
0.0000
 40
0.1524
 41
0.1524
 70
0
  0
VERTEX
  8
21
 10
134.3741
 20
55.9674
 30
0.0000
 42
1.0000
  0
VERTEX
  8
21
 10
134.3741
 20
55.8150
 30
0.0000
  0
SEQEND
  8
0
  0
POLYLINE
  8
21
 66
1
 10
0.0000
 20
0.0000
 30
0.0000
 40
0.3048
 41
0.3048
 70
0
  0
VERTEX
  8
21
 10
135.5435
 20
55.8912
 30
0.0000
  0
VERTEX
  8
21
 10
136.1282
 20
55.3065
 30
0.0000
  0
SEQEND
  8
0
  0
POLYLINE
  8
21
 66
1
 10
0.0000
 20
0.0000
 30
0.0000
 40
0.1524
 41
0.1524
 70
0
  0
VERTEX
  8
21
 10
136.0743
 20
55.2526
 30
0.0000
 42
1.0000
  0
VERTEX
  8
21
 10
136.1821
 20
55.3604
 30
0.0000
  0
SEQEND
  8
0
  0
POLYLINE
  8
21
 66
1
 10
0.0000
 20
0.0000
 30
0.0000
 40
0.1524
 41
0.1524
 70
0
  0
VERTEX
  8
21
 10
135.5974
 20
55.9451
 30
0.0000
 42
1.0000
  0
VERTEX
  8
21
 10
135.4896
 20
55.8373
 30
0.0000
  0
SEQEND
  8
0
  0
POLYLINE
  8
21
 66
1
 10
0.0000
 20
0.0000
 30
0.0000
 40
0.3048
 41
0.3048
 70
0
  0
VERTEX
  8
21
 10
136.1282
 20
55.3065
 30
0.0000
  0
VERTEX
  8
21
 10
136.1282
 20
53.5524
 30
0.0000
  0
SEQEND
  8
0
  0
POLYLINE
  8
21
 66
1
 10
0.0000
 20
0.0000
 30
0.0000
 40
0.1524
 41
0.1524
 70
0
  0
VERTEX
  8
21
 10
136.0520
 20
53.5524
 30
0.0000
 42
1.0000
  0
VERTEX
  8
21
 10
136.2044
 20
53.5524
 30
0.0000
  0
SEQEND
  8
0
  0
POLYLINE
  8
21
 66
1
 10
0.0000
 20
0.0000
 30
0.0000
 40
0.1524
 41
0.1524
 70
0
  0
VERTEX
  8
21
 10
136.2044
 20
55.3065
 30
0.0000
 42
1.0000
  0
VERTEX
  8
21
 10
136.0520
 20
55.3065
 30
0.0000
  0
SEQEND
  8
0
  0
POLYLINE
  8
21
 66
1
 10
0.0000
 20
0.0000
 30
0.0000
 40
0.3048
 41
0.3048
 70
0
  0
VERTEX
  8
21
 10
137.2976
 20
57.0606
 30
0.0000
  0
VERTEX
  8
21
 10
133.7894
 20
57.0606
 30
0.0000
  0
SEQEND
  8
0
  0
POLYLINE
  8
21
 66
1
 10
0.0000
 20
0.0000
 30
0.0000
 40
0.1524
 41
0.1524
 70
0
  0
VERTEX
  8
21
 10
133.7894
 20
57.1368
 30
0.0000
 42
1.0000
  0
VERTEX
  8
21
 10
133.7894
 20
56.9844
 30
0.0000
  0
SEQEND
  8
0
  0
POLYLINE
  8
21
 66
1
 10
0.0000
 20
0.0000
 30
0.0000
 40
0.1524
 41
0.1524
 70
0
  0
VERTEX
  8
21
 10
137.2976
 20
56.9844
 30
0.0000
 42
1.0000
  0
VERTEX
  8
21
 10
137.2976
 20
57.1368
 30
0.0000
  0
SEQEND
  8
0
  0
POLYLINE
  8
21
 66
1
 10
0.0000
 20
0.0000
 30
0.0000
 40
0.3048
 41
0.3048
 70
0
  0
VERTEX
  8
21
 10
133.7894
 20
57.0606
 30
0.0000
  0
VERTEX
  8
21
 10
133.7894
 20
58.8147
 30
0.0000
  0
SEQEND
  8
0
  0
POLYLINE
  8
21
 66
1
 10
0.0000
 20
0.0000
 30
0.0000
 40
0.1524
 41
0.1524
 70
0
  0
VERTEX
  8
21
 10
133.8656
 20
58.8147
 30
0.0000
 42
1.0000
  0
VERTEX
  8
21
 10
133.7132
 20
58.8147
 30
0.0000
  0
SEQEND
  8
0
  0
POLYLINE
  8
21
 66
1
 10
0.0000
 20
0.0000
 30
0.0000
 40
0.1524
 41
0.1524
 70
0
  0
VERTEX
  8
21
 10
133.7132
 20
57.0606
 30
0.0000
 42
1.0000
  0
VERTEX
  8
21
 10
133.8656
 20
57.0606
 30
0.0000
  0
SEQEND
  8
0
  0
POLYLINE
  8
21
 66
1
 10
0.0000
 20
0.0000
 30
0.0000
 40
0.3048
 41
0.3048
 70
0
  0
VERTEX
  8
21
 10
133.7894
 20
58.8147
 30
0.0000
  0
VERTEX
  8
21
 10
134.3741
 20
59.3994
 30
0.0000
  0
SEQEND
  8
0
  0
POLYLINE
  8
21
 66
1
 10
0.0000
 20
0.0000
 30
0.0000
 40
0.1524
 41
0.1524
 70
0
  0
VERTEX
  8
21
 10
134.4280
 20
59.3455
 30
0.0000
 42
1.0000
  0
VERTEX
  8
21
 10
134.3202
 20
59.4533
 30
0.0000
  0
SEQEND
  8
0
  0
POLYLINE
  8
21
 66
1
 10
0.0000
 20
0.0000
 30
0.0000
 40
0.1524
 41
0.1524
 70
0
  0
VERTEX
  8
21
 10
133.7355
 20
58.8686
 30
0.0000
 42
1.0000
  0
VERTEX
  8
21
 10
133.8433
 20
58.7608
 30
0.0000
  0
SEQEND
  8
0
  0
POLYLINE
  8
21
 66
1
 10
0.0000
 20
0.0000
 30
0.0000
 40
0.3048
 41
0.3048
 70
0
  0
VERTEX
  8
21
 10
134.3741
 20
59.3994
 30
0.0000
  0
VERTEX
  8
21
 10
135.5435
 20
59.3994
 30
0.0000
  0
SEQEND
  8
0
  0
POLYLINE
  8
21
 66
1
 10
0.0000
 20
0.0000
 30
0.0000
 40
0.1524
 41
0.1524
 70
0
  0
VERTEX
  8
21
 10
135.5435
 20
59.3232
 30
0.0000
 42
1.0000
  0
VERTEX
  8
21
 10
135.5435
 20
59.4756
 30
0.0000
  0
SEQEND
  8
0
  0
POLYLINE
  8
21
 66
1
 10
0.0000
 20
0.0000
 30
0.0000
 40
0.1524
 41
0.1524
 70
0
  0
VERTEX
  8
21
 10
134.3741
 20
59.4756
 30
0.0000
 42
1.0000
  0
VERTEX
  8
21
 10
134.3741
 20
59.3232
 30
0.0000
  0
SEQEND
  8
0
  0
POLYLINE
  8
21
 66
1
 10
0.0000
 20
0.0000
 30
0.0000
 40
0.3048
 41
0.3048
 70
0
  0
VERTEX
  8
21
 10
135.5435
 20
59.3994
 30
0.0000
  0
VERTEX
  8
21
 10
136.1282
 20
58.8147
 30
0.0000
  0
SEQEND
  8
0
  0
POLYLINE
  8
21
 66
1
 10
0.0000
 20
0.0000
 30
0.0000
 40
0.1524
 41
0.1524
 70
0
  0
VERTEX
  8
21
 10
136.0743
 20
58.7608
 30
0.0000
 42
1.0000
  0
VERTEX
  8
21
 10
136.1821
 20
58.8686
 30
0.0000
  0
SEQEND
  8
0
  0
POLYLINE
  8
21
 66
1
 10
0.0000
 20
0.0000
 30
0.0000
 40
0.1524
 41
0.1524
 70
0
  0
VERTEX
  8
21
 10
135.5974
 20
59.4533
 30
0.0000
 42
1.0000
  0
VERTEX
  8
21
 10
135.4896
 20
59.3455
 30
0.0000
  0
SEQEND
  8
0
  0
POLYLINE
  8
21
 66
1
 10
0.0000
 20
0.0000
 30
0.0000
 40
0.3048
 41
0.3048
 70
0
  0
VERTEX
  8
21
 10
136.1282
 20
58.8147
 30
0.0000
  0
VERTEX
  8
21
 10
136.1282
 20
57.0606
 30
0.0000
  0
SEQEND
  8
0
  0
POLYLINE
  8
21
 66
1
 10
0.0000
 20
0.0000
 30
0.0000
 40
0.1524
 41
0.1524
 70
0
  0
VERTEX
  8
21
 10
136.0520
 20
57.0606
 30
0.0000
 42
1.0000
  0
VERTEX
  8
21
 10
136.2044
 20
57.0606
 30
0.0000
  0
SEQEND
  8
0
  0
POLYLINE
  8
21
 66
1
 10
0.0000
 20
0.0000
 30
0.0000
 40
0.1524
 41
0.1524
 70
0
  0
VERTEX
  8
21
 10
136.2044
 20
58.8147
 30
0.0000
 42
1.0000
  0
VERTEX
  8
21
 10
136.0520
 20
58.8147
 30
0.0000
  0
SEQEND
  8
0
  0
POLYLINE
  8
21
 66
1
 10
0.0000
 20
0.0000
 30
0.0000
 40
0.3048
 41
0.3048
 70
0
  0
VERTEX
  8
21
 10
136.1282
 20
58.2300
 30
0.0000
  0
VERTEX
  8
21
 10
137.2976
 20
59.3994
 30
0.0000
  0
SEQEND
  8
0
  0
POLYLINE
  8
21
 66
1
 10
0.0000
 20
0.0000
 30
0.0000
 40
0.1524
 41
0.1524
 70
0
  0
VERTEX
  8
21
 10
137.3515
 20
59.3455
 30
0.0000
 42
1.0000
  0
VERTEX
  8
21
 10
137.2437
 20
59.4533
 30
0.0000
  0
SEQEND
  8
0
  0
POLYLINE
  8
21
 66
1
 10
0.0000
 20
0.0000
 30
0.0000
 40
0.1524
 41
0.1524
 70
0
  0
VERTEX
  8
21
 10
136.0743
 20
58.2839
 30
0.0000
 42
1.0000
  0
VERTEX
  8
21
 10
136.1821
 20
58.1761
 30
0.0000
  0
SEQEND
  8
0
  0
POLYLINE
  8
21
 66
1
 10
0.0000
 20
0.0000
 30
0.0000
 40
0.3048
 41
0.3048
 70
0
  0
VERTEX
  8
21
 10
133.7894
 20
62.3229
 30
0.0000
  0
VERTEX
  8
21
 10
133.7894
 20
61.1535
 30
0.0000
  0
SEQEND
  8
0
  0
POLYLINE
  8
21
 66
1
 10
0.0000
 20
0.0000
 30
0.0000
 40
0.1524
 41
0.1524
 70
0
  0
VERTEX
  8
21
 10
133.7132
 20
61.1535
 30
0.0000
 42
1.0000
  0
VERTEX
  8
21
 10
133.8656
 20
61.1535
 30
0.0000
  0
SEQEND
  8
0
  0
POLYLINE
  8
21
 66
1
 10
0.0000
 20
0.0000
 30
0.0000
 40
0.1524
 41
0.1524
 70
0
  0
VERTEX
  8
21
 10
133.8656
 20
62.3229
 30
0.0000
 42
1.0000
  0
VERTEX
  8
21
 10
133.7132
 20
62.3229
 30
0.0000
  0
SEQEND
  8
0
  0
POLYLINE
  8
21
 66
1
 10
0.0000
 20
0.0000
 30
0.0000
 40
0.3048
 41
0.3048
 70
0
  0
VERTEX
  8
21
 10
133.7894
 20
61.1535
 30
0.0000
  0
VERTEX
  8
21
 10
134.3741
 20
60.5688
 30
0.0000
  0
SEQEND
  8
0
  0
POLYLINE
  8
21
 66
1
 10
0.0000
 20
0.0000
 30
0.0000
 40
0.1524
 41
0.1524
 70
0
  0
VERTEX
  8
21
 10
134.3202
 20
60.5149
 30
0.0000
 42
1.0000
  0
VERTEX
  8
21
 10
134.4280
 20
60.6227
 30
0.0000
  0
SEQEND
  8
0
  0
POLYLINE
  8
21
 66
1
 10
0.0000
 20
0.0000
 30
0.0000
 40
0.1524
 41
0.1524
 70
0
  0
VERTEX
  8
21
 10
133.8433
 20
61.2074
 30
0.0000
 42
1.0000
  0
VERTEX
  8
21
 10
133.7355
 20
61.0996
 30
0.0000
  0
SEQEND
  8
0
  0
POLYLINE
  8
21
 66
1
 10
0.0000
 20
0.0000
 30
0.0000
 40
0.3048
 41
0.3048
 70
0
  0
VERTEX
  8
21
 10
134.3741
 20
60.5688
 30
0.0000
  0
VERTEX
  8
21
 10
136.7129
 20
60.5688
 30
0.0000
  0
SEQEND
  8
0
  0
POLYLINE
  8
21
 66
1
 10
0.0000
 20
0.0000
 30
0.0000
 40
0.1524
 41
0.1524
 70
0
  0
VERTEX
  8
21
 10
136.7129
 20
60.4926
 30
0.0000
 42
1.0000
  0
VERTEX
  8
21
 10
136.7129
 20
60.6450
 30
0.0000
  0
SEQEND
  8
0
  0
POLYLINE
  8
21
 66
1
 10
0.0000
 20
0.0000
 30
0.0000
 40
0.1524
 41
0.1524
 70
0
  0
VERTEX
  8
21
 10
134.3741
 20
60.6450
 30
0.0000
 42
1.0000
  0
VERTEX
  8
21
 10
134.3741
 20
60.4926
 30
0.0000
  0
SEQEND
  8
0
  0
POLYLINE
  8
21
 66
1
 10
0.0000
 20
0.0000
 30
0.0000
 40
0.3048
 41
0.3048
 70
0
  0
VERTEX
  8
21
 10
136.7129
 20
60.5688
 30
0.0000
  0
VERTEX
  8
21
 10
137.2976
 20
61.1535
 30
0.0000
  0
SEQEND
  8
0
  0
POLYLINE
  8
21
 66
1
 10
0.0000
 20
0.0000
 30
0.0000
 40
0.1524
 41
0.1524
 70
0
  0
VERTEX
  8
21
 10
137.3515
 20
61.0996
 30
0.0000
 42
1.0000
  0
VERTEX
  8
21
 10
137.2437
 20
61.2074
 30
0.0000
  0
SEQEND
  8
0
  0
POLYLINE
  8
21
 66
1
 10
0.0000
 20
0.0000
 30
0.0000
 40
0.1524
 41
0.1524
 70
0
  0
VERTEX
  8
21
 10
136.6590
 20
60.6227
 30
0.0000
 42
1.0000
  0
VERTEX
  8
21
 10
136.7668
 20
60.5149
 30
0.0000
  0
SEQEND
  8
0
  0
POLYLINE
  8
21
 66
1
 10
0.0000
 20
0.0000
 30
0.0000
 40
0.3048
 41
0.3048
 70
0
  0
VERTEX
  8
21
 10
137.2976
 20
61.1535
 30
0.0000
  0
VERTEX
  8
21
 10
137.2976
 20
62.3229
 30
0.0000
  0
SEQEND
  8
0
  0
POLYLINE
  8
21
 66
1
 10
0.0000
 20
0.0000
 30
0.0000
 40
0.1524
 41
0.1524
 70
0
  0
VERTEX
  8
21
 10
137.3738
 20
62.3229
 30
0.0000
 42
1.0000
  0
VERTEX
  8
21
 10
137.2214
 20
62.3229
 30
0.0000
  0
SEQEND
  8
0
  0
POLYLINE
  8
21
 66
1
 10
0.0000
 20
0.0000
 30
0.0000
 40
0.1524
 41
0.1524
 70
0
  0
VERTEX
  8
21
 10
137.2214
 20
61.1535
 30
0.0000
 42
1.0000
  0
VERTEX
  8
21
 10
137.3738
 20
61.1535
 30
0.0000
  0
SEQEND
  8
0
  0
POLYLINE
  8
21
 66
1
 10
0.0000
 20
0.0000
 30
0.0000
 40
0.3048
 41
0.3048
 70
0
  0
VERTEX
  8
21
 10
137.2976
 20
62.3229
 30
0.0000
  0
VERTEX
  8
21
 10
136.7129
 20
62.9076
 30
0.0000
  0
SEQEND
  8
0
  0
POLYLINE
  8
21
 66
1
 10
0.0000
 20
0.0000
 30
0.0000
 40
0.1524
 41
0.1524
 70
0
  0
VERTEX
  8
21
 10
136.7668
 20
62.9615
 30
0.0000
 42
1.0000
  0
VERTEX
  8
21
 10
136.6590
 20
62.8537
 30
0.0000
  0
SEQEND
  8
0
  0
POLYLINE
  8
21
 66
1
 10
0.0000
 20
0.0000
 30
0.0000
 40
0.1524
 41
0.1524
 70
0
  0
VERTEX
  8
21
 10
137.2437
 20
62.2690
 30
0.0000
 42
1.0000
  0
VERTEX
  8
21
 10
137.3515
 20
62.3768
 30
0.0000
  0
SEQEND
  8
0
  0
POLYLINE
  8
21
 66
1
 10
0.0000
 20
0.0000
 30
0.0000
 40
0.3048
 41
0.3048
 70
0
  0
VERTEX
  8
21
 10
136.7129
 20
62.9076
 30
0.0000
  0
VERTEX
  8
21
 10
134.3741
 20
62.9076
 30
0.0000
  0
SEQEND
  8
0
  0
POLYLINE
  8
21
 66
1
 10
0.0000
 20
0.0000
 30
0.0000
 40
0.1524
 41
0.1524
 70
0
  0
VERTEX
  8
21
 10
134.3741
 20
62.9838
 30
0.0000
 42
1.0000
  0
VERTEX
  8
21
 10
134.3741
 20
62.8314
 30
0.0000
  0
SEQEND
  8
0
  0
POLYLINE
  8
21
 66
1
 10
0.0000
 20
0.0000
 30
0.0000
 40
0.1524
 41
0.1524
 70
0
  0
VERTEX
  8
21
 10
136.7129
 20
62.8314
 30
0.0000
 42
1.0000
  0
VERTEX
  8
21
 10
136.7129
 20
62.9838
 30
0.0000
  0
SEQEND
  8
0
  0
POLYLINE
  8
21
 66
1
 10
0.0000
 20
0.0000
 30
0.0000
 40
0.3048
 41
0.3048
 70
0
  0
VERTEX
  8
21
 10
134.3741
 20
62.9076
 30
0.0000
  0
VERTEX
  8
21
 10
133.7894
 20
62.3229
 30
0.0000
  0
SEQEND
  8
0
  0
POLYLINE
  8
21
 66
1
 10
0.0000
 20
0.0000
 30
0.0000
 40
0.1524
 41
0.1524
 70
0
  0
VERTEX
  8
21
 10
133.7355
 20
62.3768
 30
0.0000
 42
1.0000
  0
VERTEX
  8
21
 10
133.8433
 20
62.2690
 30
0.0000
  0
SEQEND
  8
0
  0
POLYLINE
  8
21
 66
1
 10
0.0000
 20
0.0000
 30
0.0000
 40
0.1524
 41
0.1524
 70
0
  0
VERTEX
  8
21
 10
134.4280
 20
62.8537
 30
0.0000
 42
1.0000
  0
VERTEX
  8
21
 10
134.3202
 20
62.9615
 30
0.0000
  0
SEQEND
  8
0
  0
POLYLINE
  8
21
 66
1
 10
0.0000
 20
0.0000
 30
0.0000
 40
0.3048
 41
0.3048
 70
0
  0
VERTEX
  8
21
 10
134.3741
 20
66.4158
 30
0.0000
  0
VERTEX
  8
21
 10
133.7894
 20
65.8311
 30
0.0000
  0
SEQEND
  8
0
  0
POLYLINE
  8
21
 66
1
 10
0.0000
 20
0.0000
 30
0.0000
 40
0.1524
 41
0.1524
 70
0
  0
VERTEX
  8
21
 10
133.7355
 20
65.8850
 30
0.0000
 42
1.0000
  0
VERTEX
  8
21
 10
133.8433
 20
65.7772
 30
0.0000
  0
SEQEND
  8
0
  0
POLYLINE
  8
21
 66
1
 10
0.0000
 20
0.0000
 30
0.0000
 40
0.1524
 41
0.1524
 70
0
  0
VERTEX
  8
21
 10
134.4280
 20
66.3619
 30
0.0000
 42
1.0000
  0
VERTEX
  8
21
 10
134.3202
 20
66.4697
 30
0.0000
  0
SEQEND
  8
0
  0
POLYLINE
  8
21
 66
1
 10
0.0000
 20
0.0000
 30
0.0000
 40
0.3048
 41
0.3048
 70
0
  0
VERTEX
  8
21
 10
133.7894
 20
65.8311
 30
0.0000
  0
VERTEX
  8
21
 10
133.7894
 20
64.6617
 30
0.0000
  0
SEQEND
  8
0
  0
POLYLINE
  8
21
 66
1
 10
0.0000
 20
0.0000
 30
0.0000
 40
0.1524
 41
0.1524
 70
0
  0
VERTEX
  8
21
 10
133.7132
 20
64.6617
 30
0.0000
 42
1.0000
  0
VERTEX
  8
21
 10
133.8656
 20
64.6617
 30
0.0000
  0
SEQEND
  8
0
  0
POLYLINE
  8
21
 66
1
 10
0.0000
 20
0.0000
 30
0.0000
 40
0.1524
 41
0.1524
 70
0
  0
VERTEX
  8
21
 10
133.8656
 20
65.8311
 30
0.0000
 42
1.0000
  0
VERTEX
  8
21
 10
133.7132
 20
65.8311
 30
0.0000
  0
SEQEND
  8
0
  0
POLYLINE
  8
21
 66
1
 10
0.0000
 20
0.0000
 30
0.0000
 40
0.3048
 41
0.3048
 70
0
  0
VERTEX
  8
21
 10
133.7894
 20
64.6617
 30
0.0000
  0
VERTEX
  8
21
 10
134.3741
 20
64.0770
 30
0.0000
  0
SEQEND
  8
0
  0
POLYLINE
  8
21
 66
1
 10
0.0000
 20
0.0000
 30
0.0000
 40
0.1524
 41
0.1524
 70
0
  0
VERTEX
  8
21
 10
134.3202
 20
64.0231
 30
0.0000
 42
1.0000
  0
VERTEX
  8
21
 10
134.4280
 20
64.1309
 30
0.0000
  0
SEQEND
  8
0
  0
POLYLINE
  8
21
 66
1
 10
0.0000
 20
0.0000
 30
0.0000
 40
0.1524
 41
0.1524
 70
0
  0
VERTEX
  8
21
 10
133.8433
 20
64.7156
 30
0.0000
 42
1.0000
  0
VERTEX
  8
21
 10
133.7355
 20
64.6078
 30
0.0000
  0
SEQEND
  8
0
  0
POLYLINE
  8
21
 66
1
 10
0.0000
 20
0.0000
 30
0.0000
 40
0.3048
 41
0.3048
 70
0
  0
VERTEX
  8
21
 10
134.3741
 20
64.0770
 30
0.0000
  0
VERTEX
  8
21
 10
136.7129
 20
64.0770
 30
0.0000
  0
SEQEND
  8
0
  0
POLYLINE
  8
21
 66
1
 10
0.0000
 20
0.0000
 30
0.0000
 40
0.1524
 41
0.1524
 70
0
  0
VERTEX
  8
21
 10
136.7129
 20
64.0008
 30
0.0000
 42
1.0000
  0
VERTEX
  8
21
 10
136.7129
 20
64.1532
 30
0.0000
  0
SEQEND
  8
0
  0
POLYLINE
  8
21
 66
1
 10
0.0000
 20
0.0000
 30
0.0000
 40
0.1524
 41
0.1524
 70
0
  0
VERTEX
  8
21
 10
134.3741
 20
64.1532
 30
0.0000
 42
1.0000
  0
VERTEX
  8
21
 10
134.3741
 20
64.0008
 30
0.0000
  0
SEQEND
  8
0
  0
POLYLINE
  8
21
 66
1
 10
0.0000
 20
0.0000
 30
0.0000
 40
0.3048
 41
0.3048
 70
0
  0
VERTEX
  8
21
 10
136.7129
 20
64.0770
 30
0.0000
  0
VERTEX
  8
21
 10
137.2976
 20
64.6617
 30
0.0000
  0
SEQEND
  8
0
  0
POLYLINE
  8
21
 66
1
 10
0.0000
 20
0.0000
 30
0.0000
 40
0.1524
 41
0.1524
 70
0
  0
VERTEX
  8
21
 10
137.3515
 20
64.6078
 30
0.0000
 42
1.0000
  0
VERTEX
  8
21
 10
137.2437
 20
64.7156
 30
0.0000
  0
SEQEND
  8
0
  0
POLYLINE
  8
21
 66
1
 10
0.0000
 20
0.0000
 30
0.0000
 40
0.1524
 41
0.1524
 70
0
  0
VERTEX
  8
21
 10
136.6590
 20
64.1309
 30
0.0000
 42
1.0000
  0
VERTEX
  8
21
 10
136.7668
 20
64.0231
 30
0.0000
  0
SEQEND
  8
0
  0
POLYLINE
  8
21
 66
1
 10
0.0000
 20
0.0000
 30
0.0000
 40
0.3048
 41
0.3048
 70
0
  0
VERTEX
  8
21
 10
137.2976
 20
64.6617
 30
0.0000
  0
VERTEX
  8
21
 10
137.2976
 20
65.8311
 30
0.0000
  0
SEQEND
  8
0
  0
POLYLINE
  8
21
 66
1
 10
0.0000
 20
0.0000
 30
0.0000
 40
0.1524
 41
0.1524
 70
0
  0
VERTEX
  8
21
 10
137.3738
 20
65.8311
 30
0.0000
 42
1.0000
  0
VERTEX
  8
21
 10
137.2214
 20
65.8311
 30
0.0000
  0
SEQEND
  8
0
  0
POLYLINE
  8
21
 66
1
 10
0.0000
 20
0.0000
 30
0.0000
 40
0.1524
 41
0.1524
 70
0
  0
VERTEX
  8
21
 10
137.2214
 20
64.6617
 30
0.0000
 42
1.0000
  0
VERTEX
  8
21
 10
137.3738
 20
64.6617
 30
0.0000
  0
SEQEND
  8
0
  0
POLYLINE
  8
21
 66
1
 10
0.0000
 20
0.0000
 30
0.0000
 40
0.3048
 41
0.3048
 70
0
  0
VERTEX
  8
21
 10
137.2976
 20
65.8311
 30
0.0000
  0
VERTEX
  8
21
 10
136.7129
 20
66.4158
 30
0.0000
  0
SEQEND
  8
0
  0
POLYLINE
  8
21
 66
1
 10
0.0000
 20
0.0000
 30
0.0000
 40
0.1524
 41
0.1524
 70
0
  0
VERTEX
  8
21
 10
136.7668
 20
66.4697
 30
0.0000
 42
1.0000
  0
VERTEX
  8
21
 10
136.6590
 20
66.3619
 30
0.0000
  0
SEQEND
  8
0
  0
POLYLINE
  8
21
 66
1
 10
0.0000
 20
0.0000
 30
0.0000
 40
0.1524
 41
0.1524
 70
0
  0
VERTEX
  8
21
 10
137.2437
 20
65.7772
 30
0.0000
 42
1.0000
  0
VERTEX
  8
21
 10
137.3515
 20
65.8850
 30
0.0000
  0
SEQEND
  8
0
  0
POLYLINE
  8
21
 66
1
 10
0.0000
 20
0.0000
 30
0.0000
 40
0.3048
 41
0.3048
 70
0
  0
VERTEX
  8
21
 10
136.7129
 20
66.4158
 30
0.0000
  0
VERTEX
  8
21
 10
135.5435
 20
66.4158
 30
0.0000
  0
SEQEND
  8
0
  0
POLYLINE
  8
21
 66
1
 10
0.0000
 20
0.0000
 30
0.0000
 40
0.1524
 41
0.1524
 70
0
  0
VERTEX
  8
21
 10
135.5435
 20
66.4920
 30
0.0000
 42
1.0000
  0
VERTEX
  8
21
 10
135.5435
 20
66.3396
 30
0.0000
  0
SEQEND
  8
0
  0
POLYLINE
  8
21
 66
1
 10
0.0000
 20
0.0000
 30
0.0000
 40
0.1524
 41
0.1524
 70
0
  0
VERTEX
  8
21
 10
136.7129
 20
66.3396
 30
0.0000
 42
1.0000
  0
VERTEX
  8
21
 10
136.7129
 20
66.4920
 30
0.0000
  0
SEQEND
  8
0
  0
POLYLINE
  8
21
 66
1
 10
0.0000
 20
0.0000
 30
0.0000
 40
0.3048
 41
0.3048
 70
0
  0
VERTEX
  8
21
 10
135.5435
 20
66.4158
 30
0.0000
  0
VERTEX
  8
21
 10
135.5435
 20
65.2464
 30
0.0000
  0
SEQEND
  8
0
  0
POLYLINE
  8
21
 66
1
 10
0.0000
 20
0.0000
 30
0.0000
 40
0.1524
 41
0.1524
 70
0
  0
VERTEX
  8
21
 10
135.4673
 20
65.2464
 30
0.0000
 42
1.0000
  0
VERTEX
  8
21
 10
135.6197
 20
65.2464
 30
0.0000
  0
SEQEND
  8
0
  0
POLYLINE
  8
21
 66
1
 10
0.0000
 20
0.0000
 30
0.0000
 40
0.1524
 41
0.1524
 70
0
  0
VERTEX
  8
21
 10
135.6197
 20
66.4158
 30
0.0000
 42
1.0000
  0
VERTEX
  8
21
 10
135.4673
 20
66.4158
 30
0.0000
  0
SEQEND
  8
0
  0
POLYLINE
  8
21
 66
1
 10
0.0000
 20
0.0000
 30
0.0000
 40
0.3048
 41
0.3048
 70
0
  0
VERTEX
  8
21
 10
137.2976
 20
67.5852
 30
0.0000
  0
VERTEX
  8
21
 10
133.7894
 20
67.5852
 30
0.0000
  0
SEQEND
  8
0
  0
POLYLINE
  8
21
 66
1
 10
0.0000
 20
0.0000
 30
0.0000
 40
0.1524
 41
0.1524
 70
0
  0
VERTEX
  8
21
 10
133.7894
 20
67.6614
 30
0.0000
 42
1.0000
  0
VERTEX
  8
21
 10
133.7894
 20
67.5090
 30
0.0000
  0
SEQEND
  8
0
  0
POLYLINE
  8
21
 66
1
 10
0.0000
 20
0.0000
 30
0.0000
 40
0.1524
 41
0.1524
 70
0
  0
VERTEX
  8
21
 10
137.2976
 20
67.5090
 30
0.0000
 42
1.0000
  0
VERTEX
  8
21
 10
137.2976
 20
67.6614
 30
0.0000
  0
SEQEND
  8
0
  0
POLYLINE
  8
21
 66
1
 10
0.0000
 20
0.0000
 30
0.0000
 40
0.3048
 41
0.3048
 70
0
  0
VERTEX
  8
21
 10
133.7894
 20
67.5852
 30
0.0000
  0
VERTEX
  8
21
 10
133.7894
 20
69.3393
 30
0.0000
  0
SEQEND
  8
0
  0
POLYLINE
  8
21
 66
1
 10
0.0000
 20
0.0000
 30
0.0000
 40
0.1524
 41
0.1524
 70
0
  0
VERTEX
  8
21
 10
133.8656
 20
69.3393
 30
0.0000
 42
1.0000
  0
VERTEX
  8
21
 10
133.7132
 20
69.3393
 30
0.0000
  0
SEQEND
  8
0
  0
POLYLINE
  8
21
 66
1
 10
0.0000
 20
0.0000
 30
0.0000
 40
0.1524
 41
0.1524
 70
0
  0
VERTEX
  8
21
 10
133.7132
 20
67.5852
 30
0.0000
 42
1.0000
  0
VERTEX
  8
21
 10
133.8656
 20
67.5852
 30
0.0000
  0
SEQEND
  8
0
  0
POLYLINE
  8
21
 66
1
 10
0.0000
 20
0.0000
 30
0.0000
 40
0.3048
 41
0.3048
 70
0
  0
VERTEX
  8
21
 10
133.7894
 20
69.3393
 30
0.0000
  0
VERTEX
  8
21
 10
134.3741
 20
69.9240
 30
0.0000
  0
SEQEND
  8
0
  0
POLYLINE
  8
21
 66
1
 10
0.0000
 20
0.0000
 30
0.0000
 40
0.1524
 41
0.1524
 70
0
  0
VERTEX
  8
21
 10
134.4280
 20
69.8701
 30
0.0000
 42
1.0000
  0
VERTEX
  8
21
 10
134.3202
 20
69.9779
 30
0.0000
  0
SEQEND
  8
0
  0
POLYLINE
  8
21
 66
1
 10
0.0000
 20
0.0000
 30
0.0000
 40
0.1524
 41
0.1524
 70
0
  0
VERTEX
  8
21
 10
133.7355
 20
69.3932
 30
0.0000
 42
1.0000
  0
VERTEX
  8
21
 10
133.8433
 20
69.2854
 30
0.0000
  0
SEQEND
  8
0
  0
POLYLINE
  8
21
 66
1
 10
0.0000
 20
0.0000
 30
0.0000
 40
0.3048
 41
0.3048
 70
0
  0
VERTEX
  8
21
 10
134.3741
 20
69.9240
 30
0.0000
  0
VERTEX
  8
21
 10
135.5435
 20
69.9240
 30
0.0000
  0
SEQEND
  8
0
  0
POLYLINE
  8
21
 66
1
 10
0.0000
 20
0.0000
 30
0.0000
 40
0.1524
 41
0.1524
 70
0
  0
VERTEX
  8
21
 10
135.5435
 20
69.8478
 30
0.0000
 42
1.0000
  0
VERTEX
  8
21
 10
135.5435
 20
70.0002
 30
0.0000
  0
SEQEND
  8
0
  0
POLYLINE
  8
21
 66
1
 10
0.0000
 20
0.0000
 30
0.0000
 40
0.1524
 41
0.1524
 70
0
  0
VERTEX
  8
21
 10
134.3741
 20
70.0002
 30
0.0000
 42
1.0000
  0
VERTEX
  8
21
 10
134.3741
 20
69.8478
 30
0.0000
  0
SEQEND
  8
0
  0
POLYLINE
  8
21
 66
1
 10
0.0000
 20
0.0000
 30
0.0000
 40
0.3048
 41
0.3048
 70
0
  0
VERTEX
  8
21
 10
135.5435
 20
69.9240
 30
0.0000
  0
VERTEX
  8
21
 10
136.1282
 20
69.3393
 30
0.0000
  0
SEQEND
  8
0
  0
POLYLINE
  8
21
 66
1
 10
0.0000
 20
0.0000
 30
0.0000
 40
0.1524
 41
0.1524
 70
0
  0
VERTEX
  8
21
 10
136.0743
 20
69.2854
 30
0.0000
 42
1.0000
  0
VERTEX
  8
21
 10
136.1821
 20
69.3932
 30
0.0000
  0
SEQEND
  8
0
  0
POLYLINE
  8
21
 66
1
 10
0.0000
 20
0.0000
 30
0.0000
 40
0.1524
 41
0.1524
 70
0
  0
VERTEX
  8
21
 10
135.5974
 20
69.9779
 30
0.0000
 42
1.0000
  0
VERTEX
  8
21
 10
135.4896
 20
69.8701
 30
0.0000
  0
SEQEND
  8
0
  0
POLYLINE
  8
21
 66
1
 10
0.0000
 20
0.0000
 30
0.0000
 40
0.3048
 41
0.3048
 70
0
  0
VERTEX
  8
21
 10
136.1282
 20
69.3393
 30
0.0000
  0
VERTEX
  8
21
 10
136.1282
 20
67.5852
 30
0.0000
  0
SEQEND
  8
0
  0
POLYLINE
  8
21
 66
1
 10
0.0000
 20
0.0000
 30
0.0000
 40
0.1524
 41
0.1524
 70
0
  0
VERTEX
  8
21
 10
136.0520
 20
67.5852
 30
0.0000
 42
1.0000
  0
VERTEX
  8
21
 10
136.2044
 20
67.5852
 30
0.0000
  0
SEQEND
  8
0
  0
POLYLINE
  8
21
 66
1
 10
0.0000
 20
0.0000
 30
0.0000
 40
0.1524
 41
0.1524
 70
0
  0
VERTEX
  8
21
 10
136.2044
 20
69.3393
 30
0.0000
 42
1.0000
  0
VERTEX
  8
21
 10
136.0520
 20
69.3393
 30
0.0000
  0
SEQEND
  8
0
  0
POLYLINE
  8
21
 66
1
 10
0.0000
 20
0.0000
 30
0.0000
 40
0.3048
 41
0.3048
 70
0
  0
VERTEX
  8
21
 10
136.1282
 20
68.7546
 30
0.0000
  0
VERTEX
  8
21
 10
137.2976
 20
69.9240
 30
0.0000
  0
SEQEND
  8
0
  0
POLYLINE
  8
21
 66
1
 10
0.0000
 20
0.0000
 30
0.0000
 40
0.1524
 41
0.1524
 70
0
  0
VERTEX
  8
21
 10
137.3515
 20
69.8701
 30
0.0000
 42
1.0000
  0
VERTEX
  8
21
 10
137.2437
 20
69.9779
 30
0.0000
  0
SEQEND
  8
0
  0
POLYLINE
  8
21
 66
1
 10
0.0000
 20
0.0000
 30
0.0000
 40
0.1524
 41
0.1524
 70
0
  0
VERTEX
  8
21
 10
136.0743
 20
68.8085
 30
0.0000
 42
1.0000
  0
VERTEX
  8
21
 10
136.1821
 20
68.7007
 30
0.0000
  0
SEQEND
  8
0
  0
POLYLINE
  8
21
 66
1
 10
0.0000
 20
0.0000
 30
0.0000
 40
0.3048
 41
0.3048
 70
0
  0
VERTEX
  8
21
 10
137.2976
 20
71.0934
 30
0.0000
  0
VERTEX
  8
21
 10
134.9588
 20
71.0934
 30
0.0000
  0
SEQEND
  8
0
  0
POLYLINE
  8
21
 66
1
 10
0.0000
 20
0.0000
 30
0.0000
 40
0.1524
 41
0.1524
 70
0
  0
VERTEX
  8
21
 10
134.9588
 20
71.1696
 30
0.0000
 42
1.0000
  0
VERTEX
  8
21
 10
134.9588
 20
71.0172
 30
0.0000
  0
SEQEND
  8
0
  0
POLYLINE
  8
21
 66
1
 10
0.0000
 20
0.0000
 30
0.0000
 40
0.1524
 41
0.1524
 70
0
  0
VERTEX
  8
21
 10
137.2976
 20
71.0172
 30
0.0000
 42
1.0000
  0
VERTEX
  8
21
 10
137.2976
 20
71.1696
 30
0.0000
  0
SEQEND
  8
0
  0
POLYLINE
  8
21
 66
1
 10
0.0000
 20
0.0000
 30
0.0000
 40
0.3048
 41
0.3048
 70
0
  0
VERTEX
  8
21
 10
134.9588
 20
71.0934
 30
0.0000
  0
VERTEX
  8
21
 10
133.7894
 20
72.2628
 30
0.0000
  0
SEQEND
  8
0
  0
POLYLINE
  8
21
 66
1
 10
0.0000
 20
0.0000
 30
0.0000
 40
0.1524
 41
0.1524
 70
0
  0
VERTEX
  8
21
 10
133.8433
 20
72.3167
 30
0.0000
 42
1.0000
  0
VERTEX
  8
21
 10
133.7355
 20
72.2089
 30
0.0000
  0
SEQEND
  8
0
  0
POLYLINE
  8
21
 66
1
 10
0.0000
 20
0.0000
 30
0.0000
 40
0.1524
 41
0.1524
 70
0
  0
VERTEX
  8
21
 10
134.9049
 20
71.0395
 30
0.0000
 42
1.0000
  0
VERTEX
  8
21
 10
135.0127
 20
71.1473
 30
0.0000
  0
SEQEND
  8
0
  0
POLYLINE
  8
21
 66
1
 10
0.0000
 20
0.0000
 30
0.0000
 40
0.3048
 41
0.3048
 70
0
  0
VERTEX
  8
21
 10
133.7894
 20
72.2628
 30
0.0000
  0
VERTEX
  8
21
 10
134.9588
 20
73.4322
 30
0.0000
  0
SEQEND
  8
0
  0
POLYLINE
  8
21
 66
1
 10
0.0000
 20
0.0000
 30
0.0000
 40
0.1524
 41
0.1524
 70
0
  0
VERTEX
  8
21
 10
135.0127
 20
73.3783
 30
0.0000
 42
1.0000
  0
VERTEX
  8
21
 10
134.9049
 20
73.4861
 30
0.0000
  0
SEQEND
  8
0
  0
POLYLINE
  8
21
 66
1
 10
0.0000
 20
0.0000
 30
0.0000
 40
0.1524
 41
0.1524
 70
0
  0
VERTEX
  8
21
 10
133.7355
 20
72.3167
 30
0.0000
 42
1.0000
  0
VERTEX
  8
21
 10
133.8433
 20
72.2089
 30
0.0000
  0
SEQEND
  8
0
  0
POLYLINE
  8
21
 66
1
 10
0.0000
 20
0.0000
 30
0.0000
 40
0.3048
 41
0.3048
 70
0
  0
VERTEX
  8
21
 10
134.9588
 20
73.4322
 30
0.0000
  0
VERTEX
  8
21
 10
137.2976
 20
73.4322
 30
0.0000
  0
SEQEND
  8
0
  0
POLYLINE
  8
21
 66
1
 10
0.0000
 20
0.0000
 30
0.0000
 40
0.1524
 41
0.1524
 70
0
  0
VERTEX
  8
21
 10
137.2976
 20
73.3560
 30
0.0000
 42
1.0000
  0
VERTEX
  8
21
 10
137.2976
 20
73.5084
 30
0.0000
  0
SEQEND
  8
0
  0
POLYLINE
  8
21
 66
1
 10
0.0000
 20
0.0000
 30
0.0000
 40
0.1524
 41
0.1524
 70
0
  0
VERTEX
  8
21
 10
134.9588
 20
73.5084
 30
0.0000
 42
1.0000
  0
VERTEX
  8
21
 10
134.9588
 20
73.3560
 30
0.0000
  0
SEQEND
  8
0
  0
POLYLINE
  8
21
 66
1
 10
0.0000
 20
0.0000
 30
0.0000
 40
0.3048
 41
0.3048
 70
0
  0
VERTEX
  8
21
 10
135.5435
 20
71.0934
 30
0.0000
  0
VERTEX
  8
21
 10
135.5435
 20
73.4322
 30
0.0000
  0
SEQEND
  8
0
  0
POLYLINE
  8
21
 66
1
 10
0.0000
 20
0.0000
 30
0.0000
 40
0.1524
 41
0.1524
 70
0
  0
VERTEX
  8
21
 10
135.6197
 20
73.4322
 30
0.0000
 42
1.0000
  0
VERTEX
  8
21
 10
135.4673
 20
73.4322
 30
0.0000
  0
SEQEND
  8
0
  0
POLYLINE
  8
21
 66
1
 10
0.0000
 20
0.0000
 30
0.0000
 40
0.1524
 41
0.1524
 70
0
  0
VERTEX
  8
21
 10
135.4673
 20
71.0934
 30
0.0000
 42
1.0000
  0
VERTEX
  8
21
 10
135.6197
 20
71.0934
 30
0.0000
  0
SEQEND
  8
0
  0
POLYLINE
  8
21
 66
1
 10
0.0000
 20
0.0000
 30
0.0000
 40
0.3048
 41
0.3048
 70
0
  0
VERTEX
  8
21
 10
137.2976
 20
74.6016
 30
0.0000
  0
VERTEX
  8
21
 10
133.7894
 20
74.6016
 30
0.0000
  0
SEQEND
  8
0
  0
POLYLINE
  8
21
 66
1
 10
0.0000
 20
0.0000
 30
0.0000
 40
0.1524
 41
0.1524
 70
0
  0
VERTEX
  8
21
 10
133.7894
 20
74.6778
 30
0.0000
 42
1.0000
  0
VERTEX
  8
21
 10
133.7894
 20
74.5254
 30
0.0000
  0
SEQEND
  8
0
  0
POLYLINE
  8
21
 66
1
 10
0.0000
 20
0.0000
 30
0.0000
 40
0.1524
 41
0.1524
 70
0
  0
VERTEX
  8
21
 10
137.2976
 20
74.5254
 30
0.0000
 42
1.0000
  0
VERTEX
  8
21
 10
137.2976
 20
74.6778
 30
0.0000
  0
SEQEND
  8
0
  0
POLYLINE
  8
21
 66
1
 10
0.0000
 20
0.0000
 30
0.0000
 40
0.3048
 41
0.3048
 70
0
  0
VERTEX
  8
21
 10
133.7894
 20
74.6016
 30
0.0000
  0
VERTEX
  8
21
 10
134.9588
 20
75.7710
 30
0.0000
  0
SEQEND
  8
0
  0
POLYLINE
  8
21
 66
1
 10
0.0000
 20
0.0000
 30
0.0000
 40
0.1524
 41
0.1524
 70
0
  0
VERTEX
  8
21
 10
135.0127
 20
75.7171
 30
0.0000
 42
1.0000
  0
VERTEX
  8
21
 10
134.9049
 20
75.8249
 30
0.0000
  0
SEQEND
  8
0
  0
POLYLINE
  8
21
 66
1
 10
0.0000
 20
0.0000
 30
0.0000
 40
0.1524
 41
0.1524
 70
0
  0
VERTEX
  8
21
 10
133.7355
 20
74.6555
 30
0.0000
 42
1.0000
  0
VERTEX
  8
21
 10
133.8433
 20
74.5477
 30
0.0000
  0
SEQEND
  8
0
  0
POLYLINE
  8
21
 66
1
 10
0.0000
 20
0.0000
 30
0.0000
 40
0.3048
 41
0.3048
 70
0
  0
VERTEX
  8
21
 10
134.9588
 20
75.7710
 30
0.0000
  0
VERTEX
  8
21
 10
133.7894
 20
76.9404
 30
0.0000
  0
SEQEND
  8
0
  0
POLYLINE
  8
21
 66
1
 10
0.0000
 20
0.0000
 30
0.0000
 40
0.1524
 41
0.1524
 70
0
  0
VERTEX
  8
21
 10
133.8433
 20
76.9943
 30
0.0000
 42
1.0000
  0
VERTEX
  8
21
 10
133.7355
 20
76.8865
 30
0.0000
  0
SEQEND
  8
0
  0
POLYLINE
  8
21
 66
1
 10
0.0000
 20
0.0000
 30
0.0000
 40
0.1524
 41
0.1524
 70
0
  0
VERTEX
  8
21
 10
134.9049
 20
75.7171
 30
0.0000
 42
1.0000
  0
VERTEX
  8
21
 10
135.0127
 20
75.8249
 30
0.0000
  0
SEQEND
  8
0
  0
POLYLINE
  8
21
 66
1
 10
0.0000
 20
0.0000
 30
0.0000
 40
0.3048
 41
0.3048
 70
0
  0
VERTEX
  8
21
 10
133.7894
 20
76.9404
 30
0.0000
  0
VERTEX
  8
21
 10
137.2976
 20
76.9404
 30
0.0000
  0
SEQEND
  8
0
  0
POLYLINE
  8
21
 66
1
 10
0.0000
 20
0.0000
 30
0.0000
 40
0.1524
 41
0.1524
 70
0
  0
VERTEX
  8
21
 10
137.2976
 20
76.8642
 30
0.0000
 42
1.0000
  0
VERTEX
  8
21
 10
137.2976
 20
77.0166
 30
0.0000
  0
SEQEND
  8
0
  0
POLYLINE
  8
21
 66
1
 10
0.0000
 20
0.0000
 30
0.0000
 40
0.1524
 41
0.1524
 70
0
  0
VERTEX
  8
21
 10
133.7894
 20
77.0166
 30
0.0000
 42
1.0000
  0
VERTEX
  8
21
 10
133.7894
 20
76.8642
 30
0.0000
  0
SEQEND
  8
0
  0
POLYLINE
  8
21
 66
1
 10
0.0000
 20
0.0000
 30
0.0000
 40
0.3048
 41
0.3048
 70
0
  0
VERTEX
  8
21
 10
137.2976
 20
78.1098
 30
0.0000
  0
VERTEX
  8
21
 10
133.7894
 20
78.1098
 30
0.0000
  0
SEQEND
  8
0
  0
POLYLINE
  8
21
 66
1
 10
0.0000
 20
0.0000
 30
0.0000
 40
0.1524
 41
0.1524
 70
0
  0
VERTEX
  8
21
 10
133.7894
 20
78.1860
 30
0.0000
 42
1.0000
  0
VERTEX
  8
21
 10
133.7894
 20
78.0336
 30
0.0000
  0
SEQEND
  8
0
  0
POLYLINE
  8
21
 66
1
 10
0.0000
 20
0.0000
 30
0.0000
 40
0.1524
 41
0.1524
 70
0
  0
VERTEX
  8
21
 10
137.2976
 20
78.0336
 30
0.0000
 42
1.0000
  0
VERTEX
  8
21
 10
137.2976
 20
78.1860
 30
0.0000
  0
SEQEND
  8
0
  0
POLYLINE
  8
21
 66
1
 10
0.0000
 20
0.0000
 30
0.0000
 40
0.3048
 41
0.3048
 70
0
  0
VERTEX
  8
21
 10
133.7894
 20
78.1098
 30
0.0000
  0
VERTEX
  8
21
 10
134.9588
 20
79.2792
 30
0.0000
  0
SEQEND
  8
0
  0
POLYLINE
  8
21
 66
1
 10
0.0000
 20
0.0000
 30
0.0000
 40
0.1524
 41
0.1524
 70
0
  0
VERTEX
  8
21
 10
135.0127
 20
79.2253
 30
0.0000
 42
1.0000
  0
VERTEX
  8
21
 10
134.9049
 20
79.3331
 30
0.0000
  0
SEQEND
  8
0
  0
POLYLINE
  8
21
 66
1
 10
0.0000
 20
0.0000
 30
0.0000
 40
0.1524
 41
0.1524
 70
0
  0
VERTEX
  8
21
 10
133.7355
 20
78.1637
 30
0.0000
 42
1.0000
  0
VERTEX
  8
21
 10
133.8433
 20
78.0559
 30
0.0000
  0
SEQEND
  8
0
  0
POLYLINE
  8
21
 66
1
 10
0.0000
 20
0.0000
 30
0.0000
 40
0.3048
 41
0.3048
 70
0
  0
VERTEX
  8
21
 10
134.9588
 20
79.2792
 30
0.0000
  0
VERTEX
  8
21
 10
133.7894
 20
80.4486
 30
0.0000
  0
SEQEND
  8
0
  0
POLYLINE
  8
21
 66
1
 10
0.0000
 20
0.0000
 30
0.0000
 40
0.1524
 41
0.1524
 70
0
  0
VERTEX
  8
21
 10
133.8433
 20
80.5025
 30
0.0000
 42
1.0000
  0
VERTEX
  8
21
 10
133.7355
 20
80.3947
 30
0.0000
  0
SEQEND
  8
0
  0
POLYLINE
  8
21
 66
1
 10
0.0000
 20
0.0000
 30
0.0000
 40
0.1524
 41
0.1524
 70
0
  0
VERTEX
  8
21
 10
134.9049
 20
79.2253
 30
0.0000
 42
1.0000
  0
VERTEX
  8
21
 10
135.0127
 20
79.3331
 30
0.0000
  0
SEQEND
  8
0
  0
POLYLINE
  8
21
 66
1
 10
0.0000
 20
0.0000
 30
0.0000
 40
0.3048
 41
0.3048
 70
0
  0
VERTEX
  8
21
 10
133.7894
 20
80.4486
 30
0.0000
  0
VERTEX
  8
21
 10
137.2976
 20
80.4486
 30
0.0000
  0
SEQEND
  8
0
  0
POLYLINE
  8
21
 66
1
 10
0.0000
 20
0.0000
 30
0.0000
 40
0.1524
 41
0.1524
 70
0
  0
VERTEX
  8
21
 10
137.2976
 20
80.3724
 30
0.0000
 42
1.0000
  0
VERTEX
  8
21
 10
137.2976
 20
80.5248
 30
0.0000
  0
SEQEND
  8
0
  0
POLYLINE
  8
21
 66
1
 10
0.0000
 20
0.0000
 30
0.0000
 40
0.1524
 41
0.1524
 70
0
  0
VERTEX
  8
21
 10
133.7894
 20
80.5248
 30
0.0000
 42
1.0000
  0
VERTEX
  8
21
 10
133.7894
 20
80.3724
 30
0.0000
  0
SEQEND
  8
0
  0
POLYLINE
  8
21
 66
1
 10
0.0000
 20
0.0000
 30
0.0000
 40
0.3048
 41
0.3048
 70
0
  0
VERTEX
  8
21
 10
133.7894
 20
83.9568
 30
0.0000
  0
VERTEX
  8
21
 10
133.7894
 20
81.6180
 30
0.0000
  0
SEQEND
  8
0
  0
POLYLINE
  8
21
 66
1
 10
0.0000
 20
0.0000
 30
0.0000
 40
0.1524
 41
0.1524
 70
0
  0
VERTEX
  8
21
 10
133.7132
 20
81.6180
 30
0.0000
 42
1.0000
  0
VERTEX
  8
21
 10
133.8656
 20
81.6180
 30
0.0000
  0
SEQEND
  8
0
  0
POLYLINE
  8
21
 66
1
 10
0.0000
 20
0.0000
 30
0.0000
 40
0.1524
 41
0.1524
 70
0
  0
VERTEX
  8
21
 10
133.8656
 20
83.9568
 30
0.0000
 42
1.0000
  0
VERTEX
  8
21
 10
133.7132
 20
83.9568
 30
0.0000
  0
SEQEND
  8
0
  0
POLYLINE
  8
21
 66
1
 10
0.0000
 20
0.0000
 30
0.0000
 40
0.3048
 41
0.3048
 70
0
  0
VERTEX
  8
21
 10
133.7894
 20
81.6180
 30
0.0000
  0
VERTEX
  8
21
 10
137.2976
 20
81.6180
 30
0.0000
  0
SEQEND
  8
0
  0
POLYLINE
  8
21
 66
1
 10
0.0000
 20
0.0000
 30
0.0000
 40
0.1524
 41
0.1524
 70
0
  0
VERTEX
  8
21
 10
137.2976
 20
81.5418
 30
0.0000
 42
1.0000
  0
VERTEX
  8
21
 10
137.2976
 20
81.6942
 30
0.0000
  0
SEQEND
  8
0
  0
POLYLINE
  8
21
 66
1
 10
0.0000
 20
0.0000
 30
0.0000
 40
0.1524
 41
0.1524
 70
0
  0
VERTEX
  8
21
 10
133.7894
 20
81.6942
 30
0.0000
 42
1.0000
  0
VERTEX
  8
21
 10
133.7894
 20
81.5418
 30
0.0000
  0
SEQEND
  8
0
  0
POLYLINE
  8
21
 66
1
 10
0.0000
 20
0.0000
 30
0.0000
 40
0.3048
 41
0.3048
 70
0
  0
VERTEX
  8
21
 10
137.2976
 20
81.6180
 30
0.0000
  0
VERTEX
  8
21
 10
137.2976
 20
83.9568
 30
0.0000
  0
SEQEND
  8
0
  0
POLYLINE
  8
21
 66
1
 10
0.0000
 20
0.0000
 30
0.0000
 40
0.1524
 41
0.1524
 70
0
  0
VERTEX
  8
21
 10
137.3738
 20
83.9568
 30
0.0000
 42
1.0000
  0
VERTEX
  8
21
 10
137.2214
 20
83.9568
 30
0.0000
  0
SEQEND
  8
0
  0
POLYLINE
  8
21
 66
1
 10
0.0000
 20
0.0000
 30
0.0000
 40
0.1524
 41
0.1524
 70
0
  0
VERTEX
  8
21
 10
137.2214
 20
81.6180
 30
0.0000
 42
1.0000
  0
VERTEX
  8
21
 10
137.3738
 20
81.6180
 30
0.0000
  0
SEQEND
  8
0
  0
POLYLINE
  8
21
 66
1
 10
0.0000
 20
0.0000
 30
0.0000
 40
0.3048
 41
0.3048
 70
0
  0
VERTEX
  8
21
 10
135.5435
 20
81.6180
 30
0.0000
  0
VERTEX
  8
21
 10
135.5435
 20
82.7874
 30
0.0000
  0
SEQEND
  8
0
  0
POLYLINE
  8
21
 66
1
 10
0.0000
 20
0.0000
 30
0.0000
 40
0.1524
 41
0.1524
 70
0
  0
VERTEX
  8
21
 10
135.6197
 20
82.7874
 30
0.0000
 42
1.0000
  0
VERTEX
  8
21
 10
135.4673
 20
82.7874
 30
0.0000
  0
SEQEND
  8
0
  0
POLYLINE
  8
21
 66
1
 10
0.0000
 20
0.0000
 30
0.0000
 40
0.1524
 41
0.1524
 70
0
  0
VERTEX
  8
21
 10
135.4673
 20
81.6180
 30
0.0000
 42
1.0000
  0
VERTEX
  8
21
 10
135.6197
 20
81.6180
 30
0.0000
  0
SEQEND
  8
0
  0
POLYLINE
  8
21
 66
1
 10
0.0000
 20
0.0000
 30
0.0000
 40
0.3048
 41
0.3048
 70
0
  0
VERTEX
  8
21
 10
137.2976
 20
85.1262
 30
0.0000
  0
VERTEX
  8
21
 10
133.7894
 20
85.1262
 30
0.0000
  0
SEQEND
  8
0
  0
POLYLINE
  8
21
 66
1
 10
0.0000
 20
0.0000
 30
0.0000
 40
0.1524
 41
0.1524
 70
0
  0
VERTEX
  8
21
 10
133.7894
 20
85.2024
 30
0.0000
 42
1.0000
  0
VERTEX
  8
21
 10
133.7894
 20
85.0500
 30
0.0000
  0
SEQEND
  8
0
  0
POLYLINE
  8
21
 66
1
 10
0.0000
 20
0.0000
 30
0.0000
 40
0.1524
 41
0.1524
 70
0
  0
VERTEX
  8
21
 10
137.2976
 20
85.0500
 30
0.0000
 42
1.0000
  0
VERTEX
  8
21
 10
137.2976
 20
85.2024
 30
0.0000
  0
SEQEND
  8
0
  0
POLYLINE
  8
21
 66
1
 10
0.0000
 20
0.0000
 30
0.0000
 40
0.3048
 41
0.3048
 70
0
  0
VERTEX
  8
21
 10
133.7894
 20
85.1262
 30
0.0000
  0
VERTEX
  8
21
 10
133.7894
 20
86.8803
 30
0.0000
  0
SEQEND
  8
0
  0
POLYLINE
  8
21
 66
1
 10
0.0000
 20
0.0000
 30
0.0000
 40
0.1524
 41
0.1524
 70
0
  0
VERTEX
  8
21
 10
133.8656
 20
86.8803
 30
0.0000
 42
1.0000
  0
VERTEX
  8
21
 10
133.7132
 20
86.8803
 30
0.0000
  0
SEQEND
  8
0
  0
POLYLINE
  8
21
 66
1
 10
0.0000
 20
0.0000
 30
0.0000
 40
0.1524
 41
0.1524
 70
0
  0
VERTEX
  8
21
 10
133.7132
 20
85.1262
 30
0.0000
 42
1.0000
  0
VERTEX
  8
21
 10
133.8656
 20
85.1262
 30
0.0000
  0
SEQEND
  8
0
  0
POLYLINE
  8
21
 66
1
 10
0.0000
 20
0.0000
 30
0.0000
 40
0.3048
 41
0.3048
 70
0
  0
VERTEX
  8
21
 10
133.7894
 20
86.8803
 30
0.0000
  0
VERTEX
  8
21
 10
134.3741
 20
87.4650
 30
0.0000
  0
SEQEND
  8
0
  0
POLYLINE
  8
21
 66
1
 10
0.0000
 20
0.0000
 30
0.0000
 40
0.1524
 41
0.1524
 70
0
  0
VERTEX
  8
21
 10
134.4280
 20
87.4111
 30
0.0000
 42
1.0000
  0
VERTEX
  8
21
 10
134.3202
 20
87.5189
 30
0.0000
  0
SEQEND
  8
0
  0
POLYLINE
  8
21
 66
1
 10
0.0000
 20
0.0000
 30
0.0000
 40
0.1524
 41
0.1524
 70
0
  0
VERTEX
  8
21
 10
133.7355
 20
86.9342
 30
0.0000
 42
1.0000
  0
VERTEX
  8
21
 10
133.8433
 20
86.8264
 30
0.0000
  0
SEQEND
  8
0
  0
POLYLINE
  8
21
 66
1
 10
0.0000
 20
0.0000
 30
0.0000
 40
0.3048
 41
0.3048
 70
0
  0
VERTEX
  8
21
 10
134.3741
 20
87.4650
 30
0.0000
  0
VERTEX
  8
21
 10
135.5435
 20
87.4650
 30
0.0000
  0
SEQEND
  8
0
  0
POLYLINE
  8
21
 66
1
 10
0.0000
 20
0.0000
 30
0.0000
 40
0.1524
 41
0.1524
 70
0
  0
VERTEX
  8
21
 10
135.5435
 20
87.3888
 30
0.0000
 42
1.0000
  0
VERTEX
  8
21
 10
135.5435
 20
87.5412
 30
0.0000
  0
SEQEND
  8
0
  0
POLYLINE
  8
21
 66
1
 10
0.0000
 20
0.0000
 30
0.0000
 40
0.1524
 41
0.1524
 70
0
  0
VERTEX
  8
21
 10
134.3741
 20
87.5412
 30
0.0000
 42
1.0000
  0
VERTEX
  8
21
 10
134.3741
 20
87.3888
 30
0.0000
  0
SEQEND
  8
0
  0
POLYLINE
  8
21
 66
1
 10
0.0000
 20
0.0000
 30
0.0000
 40
0.3048
 41
0.3048
 70
0
  0
VERTEX
  8
21
 10
135.5435
 20
87.4650
 30
0.0000
  0
VERTEX
  8
21
 10
136.1282
 20
86.8803
 30
0.0000
  0
SEQEND
  8
0
  0
POLYLINE
  8
21
 66
1
 10
0.0000
 20
0.0000
 30
0.0000
 40
0.1524
 41
0.1524
 70
0
  0
VERTEX
  8
21
 10
136.0743
 20
86.8264
 30
0.0000
 42
1.0000
  0
VERTEX
  8
21
 10
136.1821
 20
86.9342
 30
0.0000
  0
SEQEND
  8
0
  0
POLYLINE
  8
21
 66
1
 10
0.0000
 20
0.0000
 30
0.0000
 40
0.1524
 41
0.1524
 70
0
  0
VERTEX
  8
21
 10
135.5974
 20
87.5189
 30
0.0000
 42
1.0000
  0
VERTEX
  8
21
 10
135.4896
 20
87.4111
 30
0.0000
  0
SEQEND
  8
0
  0
POLYLINE
  8
21
 66
1
 10
0.0000
 20
0.0000
 30
0.0000
 40
0.3048
 41
0.3048
 70
0
  0
VERTEX
  8
21
 10
136.1282
 20
86.8803
 30
0.0000
  0
VERTEX
  8
21
 10
136.1282
 20
85.1262
 30
0.0000
  0
SEQEND
  8
0
  0
POLYLINE
  8
21
 66
1
 10
0.0000
 20
0.0000
 30
0.0000
 40
0.1524
 41
0.1524
 70
0
  0
VERTEX
  8
21
 10
136.0520
 20
85.1262
 30
0.0000
 42
1.0000
  0
VERTEX
  8
21
 10
136.2044
 20
85.1262
 30
0.0000
  0
SEQEND
  8
0
  0
POLYLINE
  8
21
 66
1
 10
0.0000
 20
0.0000
 30
0.0000
 40
0.1524
 41
0.1524
 70
0
  0
VERTEX
  8
21
 10
136.2044
 20
86.8803
 30
0.0000
 42
1.0000
  0
VERTEX
  8
21
 10
136.0520
 20
86.8803
 30
0.0000
  0
SEQEND
  8
0
  0
POLYLINE
  8
21
 66
1
 10
0.0000
 20
0.0000
 30
0.0000
 40
0.3048
 41
0.3048
 70
0
  0
VERTEX
  8
21
 10
136.1282
 20
86.2956
 30
0.0000
  0
VERTEX
  8
21
 10
137.2976
 20
87.4650
 30
0.0000
  0
SEQEND
  8
0
  0
POLYLINE
  8
21
 66
1
 10
0.0000
 20
0.0000
 30
0.0000
 40
0.1524
 41
0.1524
 70
0
  0
VERTEX
  8
21
 10
137.3515
 20
87.4111
 30
0.0000
 42
1.0000
  0
VERTEX
  8
21
 10
137.2437
 20
87.5189
 30
0.0000
  0
SEQEND
  8
0
  0
POLYLINE
  8
21
 66
1
 10
0.0000
 20
0.0000
 30
0.0000
 40
0.1524
 41
0.1524
 70
0
  0
VERTEX
  8
21
 10
136.0743
 20
86.3495
 30
0.0000
 42
1.0000
  0
VERTEX
  8
21
 10
136.1821
 20
86.2417
 30
0.0000
  0
SEQEND
  8
0
  0
CIRCLE
  8
20
 10
35.0800
 20
78.5800
 30
0.0000
 40
1.5500
  0
CIRCLE
  8
20
 10
121.0800
 20
78.5800
 30
0.0000
 40
1.5500
  0
CIRCLE
  8
20
 10
33.0800
 20
47.5800
 30
0.0000
 40
1.5500
  0
CIRCLE
  8
20
 10
123.0800
 20
36.5800
 30
0.0000
 40
1.5500
  0
CIRCLE
  8
20
 10
24.5800
 20
96.4800
 30
0.0000
 40
1.5500
  0
CIRCLE
  8
20
 10
23.5800
 20
12.3800
 30
0.0000
 40
1.5500
  0
CIRCLE
  8
20
 10
148.7800
 20
12.1800
 30
0.0000
 40
1.5500
  0
CIRCLE
  8
20
 10
149.7800
 20
96.2800
 30
0.0000
 40
1.5500
  0
POLYLINE
  8
21
 66
1
 10
0.0000
 20
0.0000
 30
0.0000
 40
0.2000
 41
0.2000
 70
0
  0
VERTEX
  8
21
 10
149.0300
 20
22.8000
 30
0.0000
  0
VERTEX
  8
21
 10
149.0300
 20
51.0300
 30
0.0000
  0
SEQEND
  8
0
  0
POLYLINE
  8
21
 66
1
 10
0.0000
 20
0.0000
 30
0.0000
 40
0.1000
 41
0.1000
 70
0
  0
VERTEX
  8
21
 10
149.0800
 20
51.0300
 30
0.0000
 42
1.0000
  0
VERTEX
  8
21
 10
148.9800
 20
51.0300
 30
0.0000
  0
SEQEND
  8
0
  0
POLYLINE
  8
21
 66
1
 10
0.0000
 20
0.0000
 30
0.0000
 40
0.1000
 41
0.1000
 70
0
  0
VERTEX
  8
21
 10
148.9800
 20
22.8000
 30
0.0000
 42
1.0000
  0
VERTEX
  8
21
 10
149.0800
 20
22.8000
 30
0.0000
  0
SEQEND
  8
0
  0
POLYLINE
  8
21
 66
1
 10
0.0000
 20
0.0000
 30
0.0000
 40
0.2000
 41
0.2000
 70
0
  0
VERTEX
  8
21
 10
149.0300
 20
51.0300
 30
0.0000
  0
VERTEX
  8
21
 10
139.9800
 20
51.0300
 30
0.0000
  0
SEQEND
  8
0
  0
POLYLINE
  8
21
 66
1
 10
0.0000
 20
0.0000
 30
0.0000
 40
0.1000
 41
0.1000
 70
0
  0
VERTEX
  8
21
 10
139.9800
 20
51.0800
 30
0.0000
 42
1.0000
  0
VERTEX
  8
21
 10
139.9800
 20
50.9800
 30
0.0000
  0
SEQEND
  8
0
  0
POLYLINE
  8
21
 66
1
 10
0.0000
 20
0.0000
 30
0.0000
 40
0.1000
 41
0.1000
 70
0
  0
VERTEX
  8
21
 10
149.0300
 20
50.9800
 30
0.0000
 42
1.0000
  0
VERTEX
  8
21
 10
149.0300
 20
51.0800
 30
0.0000
  0
SEQEND
  8
0
  0
POLYLINE
  8
21
 66
1
 10
0.0000
 20
0.0000
 30
0.0000
 40
0.2000
 41
0.2000
 70
0
  0
VERTEX
  8
21
 10
139.9800
 20
51.0300
 30
0.0000
  0
VERTEX
  8
21
 10
139.9800
 20
17.7300
 30
0.0000
  0
SEQEND
  8
0
  0
POLYLINE
  8
21
 66
1
 10
0.0000
 20
0.0000
 30
0.0000
 40
0.1000
 41
0.1000
 70
0
  0
VERTEX
  8
21
 10
139.9300
 20
17.7300
 30
0.0000
 42
1.0000
  0
VERTEX
  8
21
 10
140.0300
 20
17.7300
 30
0.0000
  0
SEQEND
  8
0
  0
POLYLINE
  8
21
 66
1
 10
0.0000
 20
0.0000
 30
0.0000
 40
0.1000
 41
0.1000
 70
0
  0
VERTEX
  8
21
 10
140.0300
 20
51.0300
 30
0.0000
 42
1.0000
  0
VERTEX
  8
21
 10
139.9300
 20
51.0300
 30
0.0000
  0
SEQEND
  8
0
  0
POLYLINE
  8
21
 66
1
 10
0.0000
 20
0.0000
 30
0.0000
 40
0.2000
 41
0.2000
 70
0
  0
VERTEX
  8
21
 10
139.9800
 20
17.7300
 30
0.0000
  0
VERTEX
  8
21
 10
145.9000
 20
17.7300
 30
0.0000
  0
SEQEND
  8
0
  0
POLYLINE
  8
21
 66
1
 10
0.0000
 20
0.0000
 30
0.0000
 40
0.1000
 41
0.1000
 70
0
  0
VERTEX
  8
21
 10
145.9000
 20
17.6800
 30
0.0000
 42
1.0000
  0
VERTEX
  8
21
 10
145.9000
 20
17.7800
 30
0.0000
  0
SEQEND
  8
0
  0
POLYLINE
  8
21
 66
1
 10
0.0000
 20
0.0000
 30
0.0000
 40
0.1000
 41
0.1000
 70
0
  0
VERTEX
  8
21
 10
139.9800
 20
17.7800
 30
0.0000
 42
1.0000
  0
VERTEX
  8
21
 10
139.9800
 20
17.6800
 30
0.0000
  0
SEQEND
  8
0
  0
POLYLINE
  8
21
 66
1
 10
0.0000
 20
0.0000
 30
0.0000
 40
0.2000
 41
0.2000
 70
0
  0
VERTEX
  8
21
 10
149.0300
 20
60.8000
 30
0.0000
  0
VERTEX
  8
21
 10
149.0300
 20
89.0300
 30
0.0000
  0
SEQEND
  8
0
  0
POLYLINE
  8
21
 66
1
 10
0.0000
 20
0.0000
 30
0.0000
 40
0.1000
 41
0.1000
 70
0
  0
VERTEX
  8
21
 10
149.0800
 20
89.0300
 30
0.0000
 42
1.0000
  0
VERTEX
  8
21
 10
148.9800
 20
89.0300
 30
0.0000
  0
SEQEND
  8
0
  0
POLYLINE
  8
21
 66
1
 10
0.0000
 20
0.0000
 30
0.0000
 40
0.1000
 41
0.1000
 70
0
  0
VERTEX
  8
21
 10
148.9800
 20
60.8000
 30
0.0000
 42
1.0000
  0
VERTEX
  8
21
 10
149.0800
 20
60.8000
 30
0.0000
  0
SEQEND
  8
0
  0
POLYLINE
  8
21
 66
1
 10
0.0000
 20
0.0000
 30
0.0000
 40
0.2000
 41
0.2000
 70
0
  0
VERTEX
  8
21
 10
149.0300
 20
89.0300
 30
0.0000
  0
VERTEX
  8
21
 10
139.9800
 20
89.0300
 30
0.0000
  0
SEQEND
  8
0
  0
POLYLINE
  8
21
 66
1
 10
0.0000
 20
0.0000
 30
0.0000
 40
0.1000
 41
0.1000
 70
0
  0
VERTEX
  8
21
 10
139.9800
 20
89.0800
 30
0.0000
 42
1.0000
  0
VERTEX
  8
21
 10
139.9800
 20
88.9800
 30
0.0000
  0
SEQEND
  8
0
  0
POLYLINE
  8
21
 66
1
 10
0.0000
 20
0.0000
 30
0.0000
 40
0.1000
 41
0.1000
 70
0
  0
VERTEX
  8
21
 10
149.0300
 20
88.9800
 30
0.0000
 42
1.0000
  0
VERTEX
  8
21
 10
149.0300
 20
89.0800
 30
0.0000
  0
SEQEND
  8
0
  0
POLYLINE
  8
21
 66
1
 10
0.0000
 20
0.0000
 30
0.0000
 40
0.2000
 41
0.2000
 70
0
  0
VERTEX
  8
21
 10
139.9800
 20
89.0300
 30
0.0000
  0
VERTEX
  8
21
 10
139.9800
 20
55.7300
 30
0.0000
  0
SEQEND
  8
0
  0
POLYLINE
  8
21
 66
1
 10
0.0000
 20
0.0000
 30
0.0000
 40
0.1000
 41
0.1000
 70
0
  0
VERTEX
  8
21
 10
139.9300
 20
55.7300
 30
0.0000
 42
1.0000
  0
VERTEX
  8
21
 10
140.0300
 20
55.7300
 30
0.0000
  0
SEQEND
  8
0
  0
POLYLINE
  8
21
 66
1
 10
0.0000
 20
0.0000
 30
0.0000
 40
0.1000
 41
0.1000
 70
0
  0
VERTEX
  8
21
 10
140.0300
 20
89.0300
 30
0.0000
 42
1.0000
  0
VERTEX
  8
21
 10
139.9300
 20
89.0300
 30
0.0000
  0
SEQEND
  8
0
  0
POLYLINE
  8
21
 66
1
 10
0.0000
 20
0.0000
 30
0.0000
 40
0.2000
 41
0.2000
 70
0
  0
VERTEX
  8
21
 10
139.9800
 20
55.7300
 30
0.0000
  0
VERTEX
  8
21
 10
145.9000
 20
55.7300
 30
0.0000
  0
SEQEND
  8
0
  0
POLYLINE
  8
21
 66
1
 10
0.0000
 20
0.0000
 30
0.0000
 40
0.1000
 41
0.1000
 70
0
  0
VERTEX
  8
21
 10
145.9000
 20
55.6800
 30
0.0000
 42
1.0000
  0
VERTEX
  8
21
 10
145.9000
 20
55.7800
 30
0.0000
  0
SEQEND
  8
0
  0
POLYLINE
  8
21
 66
1
 10
0.0000
 20
0.0000
 30
0.0000
 40
0.1000
 41
0.1000
 70
0
  0
VERTEX
  8
21
 10
139.9800
 20
55.7800
 30
0.0000
 42
1.0000
  0
VERTEX
  8
21
 10
139.9800
 20
55.6800
 30
0.0000
  0
SEQEND
  8
0
  0
ENDSEC
  0
EOF
