0
SECTION
2
HEADER
9
$ANGDIR
70
1
9
$AUNITS
70
0
9
$PROJECTNAME
1
USBC-OVC_LIMIT
9
$TDCREATE
40
2459690.91111435
9
$INSUNITS
70
4
0
ENDSEC
0
SECTION
2
ENTITIES
0
POLYLINE
66
1
8
outline
10
0.0
20
0.0
30
0.0
70
1
0
VERTEX
8
0
10
5
20
5
30
0
0
VERTEX
8
0
10
47
20
5
30
0
0
VERTEX
8
0
10
47
20
25
30
0
0
VERTEX
8
0
10
5
20
25
30
0
0
VERTEX
8
0
10
5
20
5
30
0
0
SEQEND
0
POLYLINE
66
1
8
1_copper
10
0.0
20
0.0
30
0.0
70
1
0
VERTEX
8
0
10
47.505618750000004
20
4.4246125
30
0
42
0.39258815634569955
0
VERTEX
8
0
10
47.5762
20
4.5
30
0
0
VERTEX
8
0
10
47.5762
20
25.5
30
0
0
VERTEX
8
0
10
47.575387500000005
20
25.50561875
30
0
42
0.39258815634569955
0
VERTEX
8
0
10
47.5
20
25.5762
30
0
0
VERTEX
8
0
10
4.5
20
25.5762
30
0
0
VERTEX
8
0
10
4.49438125
20
25.5753875
30
0
42
0.39258815634569955
0
VERTEX
8
0
10
4.4238
20
25.5
30
0
0
VERTEX
8
0
10
4.4238
20
4.5
30
0
0
VERTEX
8
0
10
4.4246125
20
4.49438125
30
0
42
0.39258815634569955
0
VERTEX
8
0
10
4.5
20
4.4238
30
0
0
VERTEX
8
0
10
47.5
20
4.4238
30
0
0
SEQEND
0
POLYLINE
66
1
8
1_copper
10
0.0
20
0.0
30
0.0
70
1
0
VERTEX
8
0
10
4.8316625
20
4.5936
30
0
0
VERTEX
8
0
10
4.5936
20
4.8316625
30
0
0
VERTEX
8
0
10
4.5936
20
25.168334375
30
0
0
VERTEX
8
0
10
4.8316625
20
25.406396875000002
30
0
0
VERTEX
8
0
10
47.168334375
20
25.406396875000002
30
0
0
VERTEX
8
0
10
47.406396875000006
20
25.168334375
30
0
0
VERTEX
8
0
10
47.406396875000006
20
4.8316625
30
0
0
VERTEX
8
0
10
47.168334375
20
4.5936
30
0
0
SEQEND
0
POLYLINE
66
1
8
1_copper
10
0.0
20
0.0
30
0.0
70
1
0
VERTEX
8
0
10
21.843684375000002
20
16.943684375
30
0
42
0.1578457329177564
0
VERTEX
8
0
10
21.732209375
20
17.00063125
30
0
0
VERTEX
8
0
10
21.723884375
20
17.001293750000002
30
0
42
0.01805948283611007
0
VERTEX
8
0
10
21.70929375
20
17.002459375
30
0
0
VERTEX
8
0
10
21.7
20
17.0032
30
0
0
VERTEX
8
0
10
21.4537
20
17.0032
30
0
0
VERTEX
8
0
10
21.4537
20
17.054000000000002
30
0
0
VERTEX
8
0
10
20.4758
20
17.054000000000002
30
0
0
VERTEX
8
0
10
20.4758
20
17.0032
30
0
0
VERTEX
8
0
10
19.68416875
20
17.0032
30
0
0
VERTEX
8
0
10
19.5532
20
17.13416875
30
0
0
VERTEX
8
0
10
19.5532
20
17.5468
30
0
0
VERTEX
8
0
10
20.4758
20
17.5468
30
0
0
VERTEX
8
0
10
20.4758
20
17.496000000000002
30
0
0
VERTEX
8
0
10
21.4537
20
17.496000000000002
30
0
0
VERTEX
8
0
10
21.4537
20
18.004
30
0
0
VERTEX
8
0
10
20.4758
20
18.004
30
0
0
VERTEX
8
0
10
20.4758
20
17.953200000000002
30
0
0
VERTEX
8
0
10
19.45
20
17.953200000000002
30
0
0
VERTEX
8
0
10
19.439896875000002
20
17.9523125
30
0
0
VERTEX
8
0
10
19.429734375000002
20
17.9521875
30
0
42
0.08794246194193077
0
VERTEX
8
0
10
19.361475000000002
20
17.932903125
30
0
0
VERTEX
8
0
10
19.3582
20
17.930946875
30
0
0
VERTEX
8
0
10
19.3582
20
18.014200000000002
30
0
0
VERTEX
8
0
10
19.3573875
20
18.019818750000002
30
0
42
0.39258815634569955
0
VERTEX
8
0
10
19.282
20
18.090400000000002
30
0
0
VERTEX
8
0
10
18.033396875
20
18.090400000000002
30
0
0
VERTEX
8
0
10
18.027778125
20
18.0895875
30
0
42
0.39258815634569955
0
VERTEX
8
0
10
17.957196875
20
18.014200000000002
30
0
0
VERTEX
8
0
10
17.957196875
20
15.310618750000001
30
0
0
VERTEX
8
0
10
17.689378125
20
15.042800000000002
30
0
0
VERTEX
8
0
10
17.43356875
20
15.042800000000002
30
0
0
VERTEX
8
0
10
17.425162500000003
20
15.0415875
30
0
0
VERTEX
8
0
10
17.416671875000002
20
15.040903125000002
30
0
42
0.015760042384499524
0
VERTEX
8
0
10
17.412025
20
15.039690625
30
0
0
VERTEX
8
0
10
17.404287500000002
20
15.03614375
30
0
0
VERTEX
8
0
10
17.396353125
20
15.03309375
30
0
42
0.01118853721953328
0
VERTEX
8
0
10
17.3922375
20
15.03061875
30
0
0
VERTEX
8
0
10
17.3866375
20
15.025740625000001
30
0
0
VERTEX
8
0
10
17.384834375
20
15.024378125
30
0
0
VERTEX
8
0
10
17.2
20
15.209212500000001
30
0
0
VERTEX
8
0
10
17.2
20
16.1
30
0
0
VERTEX
8
0
10
15.600000000000001
20
16.1
30
0
0
VERTEX
8
0
10
15.600000000000001
20
15.200000000000001
30
0
0
VERTEX
8
0
10
16.4907875
20
15.200000000000001
30
0
0
VERTEX
8
0
10
16.7447875
20
14.946000000000002
30
0
0
VERTEX
8
0
10
16.552390625
20
14.946000000000002
30
0
0
VERTEX
8
0
10
16.552390625
20
14.966600000000001
30
0
42
0.4142135623730951
0
VERTEX
8
0
10
16.476190625
20
15.042800000000002
30
0
0
VERTEX
8
0
10
16.323803125
20
15.042800000000002
30
0
0
VERTEX
8
0
10
16.318184375
20
15.041987500000001
30
0
42
0.39258815634569955
0
VERTEX
8
0
10
16.247603125
20
14.966600000000001
30
0
0
VERTEX
8
0
10
16.247603125
20
14.946000000000002
30
0
0
VERTEX
8
0
10
15.566556250000001
20
14.946000000000002
30
0
0
VERTEX
8
0
10
15.501959375
20
14.963309375000001
30
0
0
VERTEX
8
0
10
15.4440375
20
14.99675
30
0
0
VERTEX
8
0
10
15.420306250000001
20
15.020481250000001
30
0
42
0.14430415280903483
0
VERTEX
8
0
10
15.382468750000001
20
15.041090625
30
0
0
VERTEX
8
0
10
15.375093750000001
20
15.0416
30
0
0
VERTEX
8
0
10
15.366425000000001
20
15.042800000000002
30
0
0
VERTEX
8
0
10
15.060618750000001
20
15.042800000000002
30
0
0
VERTEX
8
0
10
14.792800000000002
20
15.310618750000001
30
0
0
VERTEX
8
0
10
14.792800000000002
20
18.189378125
30
0
0
VERTEX
8
0
10
15.060618750000001
20
18.457196875
30
0
0
VERTEX
8
0
10
15.1174
20
18.457196875
30
0
42
0.4142135623730951
0
VERTEX
8
0
10
15.1936
20
18.533396875
30
0
0
VERTEX
8
0
10
15.1936
20
19.368334375
30
0
0
VERTEX
8
0
10
15.431662500000002
20
19.606396875
30
0
0
VERTEX
8
0
10
17.368334375
20
19.606396875
30
0
0
VERTEX
8
0
10
17.60934375
20
19.3653875
30
0
0
VERTEX
8
0
10
17.609506250000003
20
19.364253125
30
0
42
0.33254383465615467
0
VERTEX
8
0
10
17.682596875
20
19.309596875
30
0
0
VERTEX
8
0
10
18.875600000000002
20
19.309596875
30
0
0
VERTEX
8
0
10
18.881218750000002
20
19.310409375000003
30
0
42
0.39258815634569955
0
VERTEX
8
0
10
18.951800000000002
20
19.385796875
30
0
0
VERTEX
8
0
10
18.951800000000002
20
19.8174
30
0
0
VERTEX
8
0
10
18.9509875
20
19.82301875
30
0
42
0.39258815634569955
0
VERTEX
8
0
10
18.875600000000002
20
19.8936
30
0
0
VERTEX
8
0
10
18.7816625
20
19.8936
30
0
0
VERTEX
8
0
10
18.5436
20
20.1316625
30
0
0
VERTEX
8
0
10
18.5436
20
22.068334375000003
30
0
0
VERTEX
8
0
10
18.7816625
20
22.306396875
30
0
0
VERTEX
8
0
10
20.018334375000002
20
22.306396875
30
0
0
VERTEX
8
0
10
20.210318750000003
20
22.114409375
30
0
0
VERTEX
8
0
10
20.212596875000003
20
22.112706250000002
30
0
0
VERTEX
8
0
10
20.214478125
20
22.110546875
30
0
42
0.5484095900174472
0
VERTEX
8
0
10
20.33753125
20
22.147584375
30
0
0
VERTEX
8
0
10
20.338731250000002
20
22.156246875
30
0
0
VERTEX
8
0
10
20.340246875000002
20
22.163487500000002
30
0
42
0.01577037521822393
0
VERTEX
8
0
10
20.340400000000002
20
22.168290625
30
0
0
VERTEX
8
0
10
20.340400000000002
20
22.47125625
30
0
0
VERTEX
8
0
10
20.43320625
20
22.695309375
30
0
0
VERTEX
8
0
10
20.945018750000003
20
23.20711875
30
0
0
VERTEX
8
0
10
20.946721875
20
23.209396875
30
0
0
VERTEX
8
0
10
20.94888125
20
23.211278125
30
0
42
0.5484095900174472
0
VERTEX
8
0
10
20.911843750000003
20
23.33433125
30
0
0
VERTEX
8
0
10
20.90318125
20
23.335531250000003
30
0
0
VERTEX
8
0
10
20.895940625
20
23.337046875000002
30
0
42
0.01577037521822393
0
VERTEX
8
0
10
20.8911375
20
23.337200000000003
30
0
0
VERTEX
8
0
10
17.618234375
20
23.337200000000003
30
0
0
VERTEX
8
0
10
17.609806250000002
20
23.335984375000002
30
0
0
VERTEX
8
0
10
17.601340625000002
20
23.335303125
30
0
42
0.08765396656356698
0
VERTEX
8
0
10
17.576903125
20
23.32501875
30
0
0
VERTEX
8
0
10
17.571309375000002
20
23.320146875000002
30
0
0
VERTEX
8
0
10
17.564353125
20
23.314881250000003
30
0
0
VERTEX
8
0
10
14.9604125
20
20.710940625000003
30
0
0
VERTEX
8
0
10
14.661675
20
20.5872
30
0
0
VERTEX
8
0
10
8.371125000000001
20
20.5872
30
0
0
VERTEX
8
0
10
8.362696875000001
20
20.585984375000002
30
0
0
VERTEX
8
0
10
8.35423125
20
20.585303125
30
0
42
0.08765396656356698
0
VERTEX
8
0
10
8.32979375
20
20.57501875
30
0
0
VERTEX
8
0
10
8.324200000000001
20
20.570146875000002
30
0
0
VERTEX
8
0
10
8.317243750000001
20
20.564881250000003
30
0
0
VERTEX
8
0
10
7.983965625000001
20
20.2316
30
0
0
VERTEX
8
0
10
7.01603125
20
20.2316
30
0
0
VERTEX
8
0
10
6.3316
20
20.91603125
30
0
0
VERTEX
8
0
10
6.3316
20
21.883965625000002
30
0
0
VERTEX
8
0
10
7.01603125
20
22.568396875
30
0
0
VERTEX
8
0
10
7.983965625000001
20
22.568396875
30
0
0
VERTEX
8
0
10
8.317243750000001
20
22.235115625000002
30
0
0
VERTEX
8
0
10
8.324028125
20
22.23004375
30
0
0
VERTEX
8
0
10
8.330528125
20
22.224509375
30
0
42
0.087651452592134
0
VERTEX
8
0
10
8.35508125
20
22.21450625
30
0
0
VERTEX
8
0
10
8.362456250000001
20
22.213996875
30
0
0
VERTEX
8
0
10
8.371125000000001
20
22.212796875000002
30
0
0
VERTEX
8
0
10
14.1317625
20
22.212796875000002
30
0
0
VERTEX
8
0
10
14.140190625
20
22.214012500000003
30
0
0
VERTEX
8
0
10
14.14865625
20
22.214693750000002
30
0
42
0.08765396656356698
0
VERTEX
8
0
10
14.173093750000001
20
22.224978125
30
0
0
VERTEX
8
0
10
14.1786875
20
22.229850000000003
30
0
0
VERTEX
8
0
10
14.18564375
20
22.235115625000002
30
0
0
VERTEX
8
0
10
16.41405
20
24.463518750000002
30
0
0
VERTEX
8
0
10
16.415753125000002
20
24.465796875000002
30
0
0
VERTEX
8
0
10
16.4179125
20
24.467678125000003
30
0
42
0.5484095900174472
0
VERTEX
8
0
10
16.380875
20
24.59073125
30
0
0
VERTEX
8
0
10
16.3722125
20
24.591931250000002
30
0
0
VERTEX
8
0
10
16.364971875000002
20
24.593446875
30
0
42
0.01577037521822393
0
VERTEX
8
0
10
16.36016875
20
24.593600000000002
30
0
0
VERTEX
8
0
10
5.4825968750000005
20
24.593600000000002
30
0
0
VERTEX
8
0
10
5.4769781250000005
20
24.5927875
30
0
42
0.39258815634569955
0
VERTEX
8
0
10
5.406396875
20
24.517400000000002
30
0
0
VERTEX
8
0
10
5.406396875
20
5.4825968750000005
30
0
0
VERTEX
8
0
10
5.407209375
20
5.4769781250000005
30
0
42
0.39258815634569955
0
VERTEX
8
0
10
5.4825968750000005
20
5.406396875
30
0
0
VERTEX
8
0
10
46.5174
20
5.406396875
30
0
0
VERTEX
8
0
10
46.523018750000006
20
5.407209375
30
0
42
0.39258815634569955
0
VERTEX
8
0
10
46.5936
20
5.4825968750000005
30
0
0
VERTEX
8
0
10
46.5936
20
24.517400000000002
30
0
0
VERTEX
8
0
10
46.5927875
20
24.523018750000002
30
0
42
0.39258815634569955
0
VERTEX
8
0
10
46.5174
20
24.593600000000002
30
0
0
VERTEX
8
0
10
37.689828125000005
20
24.593600000000002
30
0
0
VERTEX
8
0
10
37.686996875
20
24.593190625000002
30
0
0
VERTEX
8
0
10
37.68415625
20
24.593387500000002
30
0
42
0.548409711059846
0
VERTEX
8
0
10
37.62333125
20
24.4801875
30
0
0
VERTEX
8
0
10
37.628606250000004
20
24.47321875
30
0
0
VERTEX
8
0
10
37.632656250000004
20
24.467021875
30
0
42
0.015772426617527556
0
VERTEX
8
0
10
37.635946875
20
24.463518750000002
30
0
0
VERTEX
8
0
10
38.514353125
20
23.585115625
30
0
0
VERTEX
8
0
10
38.5211375
20
23.58004375
30
0
0
VERTEX
8
0
10
38.527637500000004
20
23.574509375
30
0
42
0.087651452592134
0
VERTEX
8
0
10
38.552190625
20
23.56450625
30
0
0
VERTEX
8
0
10
38.559565625000005
20
23.563996875
30
0
0
VERTEX
8
0
10
38.568234375
20
23.562796875
30
0
0
VERTEX
8
0
10
40.528871875
20
23.562796875
30
0
0
VERTEX
8
0
10
40.5373
20
23.5640125
30
0
0
VERTEX
8
0
10
40.545765625
20
23.56469375
30
0
42
0.08765396656356698
0
VERTEX
8
0
10
40.570203125
20
23.574978125
30
0
0
VERTEX
8
0
10
40.575796875
20
23.57985
30
0
0
VERTEX
8
0
10
40.582753125
20
23.585115625
30
0
0
VERTEX
8
0
10
40.91603125
20
23.918396875000003
30
0
0
VERTEX
8
0
10
41.883965625
20
23.918396875000003
30
0
0
VERTEX
8
0
10
42.21724375
20
23.585115625
30
0
0
VERTEX
8
0
10
42.224028125000004
20
23.58004375
30
0
0
VERTEX
8
0
10
42.230528125
20
23.574509375
30
0
42
0.087651452592134
0
VERTEX
8
0
10
42.25508125
20
23.56450625
30
0
0
VERTEX
8
0
10
42.26245625
20
23.563996875
30
0
0
VERTEX
8
0
10
42.271125000000005
20
23.562796875
30
0
0
VERTEX
8
0
10
43.038731250000005
20
23.562796875
30
0
0
VERTEX
8
0
10
43.047159375
20
23.5640125
30
0
0
VERTEX
8
0
10
43.055625
20
23.56469375
30
0
42
0.08765396656356698
0
VERTEX
8
0
10
43.080062500000004
20
23.574978125
30
0
0
VERTEX
8
0
10
43.08565625
20
23.57985
30
0
0
VERTEX
8
0
10
43.0926125
20
23.585115625
30
0
0
VERTEX
8
0
10
43.561721875
20
24.054225000000002
30
0
0
VERTEX
8
0
10
44.17051875
20
24.306396875
30
0
0
VERTEX
8
0
10
44.829478125
20
24.306396875
30
0
0
VERTEX
8
0
10
45.438275000000004
20
24.054225000000002
30
0
0
VERTEX
8
0
10
45.904225000000004
20
23.588275
30
0
0
VERTEX
8
0
10
46.156396875000006
20
22.979478125
30
0
0
VERTEX
8
0
10
46.156396875000006
20
22.32051875
30
0
0
VERTEX
8
0
10
45.904225000000004
20
21.711721875000002
30
0
0
VERTEX
8
0
10
45.438275000000004
20
21.245771875000003
30
0
0
VERTEX
8
0
10
44.829478125
20
20.9936
30
0
0
VERTEX
8
0
10
44.17051875
20
20.9936
30
0
0
VERTEX
8
0
10
43.561721875
20
21.245771875000003
30
0
0
VERTEX
8
0
10
43.095771875000004
20
21.711721875000002
30
0
0
VERTEX
8
0
10
43.021862500000005
20
21.890159375
30
0
0
VERTEX
8
0
10
43.02101875
20
21.891578125000002
30
0
0
VERTEX
8
0
10
43.02054375
20
21.893159375
30
0
42
0.21834951233821367
0
VERTEX
8
0
10
42.97216875
20
21.93433125
30
0
0
VERTEX
8
0
10
42.9616125
20
21.935793750000002
30
0
0
VERTEX
8
0
10
42.953865625
20
21.9371625
30
0
42
0.00788569762177906
0
VERTEX
8
0
10
42.951462500000005
20
21.9372
30
0
0
VERTEX
8
0
10
42.271125000000005
20
21.9372
30
0
0
VERTEX
8
0
10
42.262696875
20
21.935984375
30
0
0
VERTEX
8
0
10
42.254231250000004
20
21.935303125
30
0
42
0.08765396656356698
0
VERTEX
8
0
10
42.22979375
20
21.92501875
30
0
0
VERTEX
8
0
10
42.2242
20
21.920146875
30
0
0
VERTEX
8
0
10
42.21724375
20
21.91488125
30
0
0
VERTEX
8
0
10
41.883965625
20
21.5816
30
0
0
VERTEX
8
0
10
40.91603125
20
21.5816
30
0
0
VERTEX
8
0
10
40.582753125
20
21.91488125
30
0
0
VERTEX
8
0
10
40.57596875
20
21.919953125000003
30
0
0
VERTEX
8
0
10
40.56946875
20
21.925487500000003
30
0
42
0.087651452592134
0
VERTEX
8
0
10
40.544915625
20
21.935490625
30
0
0
VERTEX
8
0
10
40.537540625000005
20
21.936
30
0
0
VERTEX
8
0
10
40.528871875
20
21.9372
30
0
0
VERTEX
8
0
10
38.308859375000004
20
21.9372
30
0
0
VERTEX
8
0
10
38.306028125000005
20
21.936790625
30
0
0
VERTEX
8
0
10
38.3031875
20
21.9369875
30
0
42
0.548409711059846
0
VERTEX
8
0
10
38.2423625
20
21.8237875
30
0
0
VERTEX
8
0
10
38.2476375
20
21.81681875
30
0
0
VERTEX
8
0
10
38.2516875
20
21.810621875000002
30
0
42
0.015772426617527556
0
VERTEX
8
0
10
38.254978125
20
21.80711875
30
0
0
VERTEX
8
0
10
38.930184375
20
21.131915625
30
0
0
VERTEX
8
0
10
38.93696875
20
21.126843750000003
30
0
0
VERTEX
8
0
10
38.94346875
20
21.121309375000003
30
0
42
0.087651452592134
0
VERTEX
8
0
10
38.968021875000005
20
21.111306250000002
30
0
0
VERTEX
8
0
10
38.975396875
20
21.110796875000002
30
0
0
VERTEX
8
0
10
38.984065625
20
21.109596875
30
0
0
VERTEX
8
0
10
43.321256250000005
20
21.109596875
30
0
0
VERTEX
8
0
10
43.545309375
20
21.016790625000002
30
0
0
VERTEX
8
0
10
43.7275
20
20.834600000000002
30
0
0
VERTEX
8
0
10
43.727509375000004
20
20.8345875
30
0
0
VERTEX
8
0
10
43.955840625
20
20.60625625
30
0
0
VERTEX
8
0
10
43.9571625
20
20.60526875
30
0
0
VERTEX
8
0
10
43.95820625
20
20.603990625
30
0
42
0.21834535467815266
0
VERTEX
8
0
10
44.018653125
20
20.5844625
30
0
0
VERTEX
8
0
10
44.02900625
20
20.5871625
30
0
0
VERTEX
8
0
10
44.036646875
20
20.588853125
30
0
42
0.007884456392637858
0
VERTEX
8
0
10
44.03888125
20
20.589737500000002
30
0
0
VERTEX
8
0
10
44.320518750000005
20
20.706396875
30
0
0
VERTEX
8
0
10
44.979478125
20
20.706396875
30
0
0
VERTEX
8
0
10
45.588275
20
20.454225
30
0
0
VERTEX
8
0
10
46.054225
20
19.988275
30
0
0
VERTEX
8
0
10
46.306396875000004
20
19.379478125000002
30
0
0
VERTEX
8
0
10
46.306396875000004
20
18.72051875
30
0
0
VERTEX
8
0
10
46.054225
20
18.111721875
30
0
0
VERTEX
8
0
10
45.588275
20
17.645771875
30
0
0
VERTEX
8
0
10
44.979478125
20
17.3936
30
0
0
VERTEX
8
0
10
44.320518750000005
20
17.3936
30
0
0
VERTEX
8
0
10
43.711721875
20
17.645771875
30
0
0
VERTEX
8
0
10
43.245771875
20
18.111721875
30
0
0
VERTEX
8
0
10
42.9936
20
18.72051875
30
0
0
VERTEX
8
0
10
42.9936
20
19.379478125000002
30
0
0
VERTEX
8
0
10
43.110259375000005
20
19.661115625
30
0
0
VERTEX
8
0
10
43.110665625
20
19.6627125
30
0
0
VERTEX
8
0
10
43.111446875
20
19.664165625000003
30
0
42
0.21835452448693757
0
VERTEX
8
0
10
43.106356250000005
20
19.727487500000002
30
0
0
VERTEX
8
0
10
43.099909375
20
19.736003125
30
0
0
VERTEX
8
0
10
43.0954125
20
19.74243125
30
0
42
0.007881903973716804
0
VERTEX
8
0
10
43.093740625
20
19.74415625
30
0
0
VERTEX
8
0
10
42.969815625
20
19.86808125
30
0
0
VERTEX
8
0
10
42.96303125
20
19.873153125
30
0
0
VERTEX
8
0
10
42.956531250000005
20
19.8786875
30
0
42
0.087651452592134
0
VERTEX
8
0
10
42.931978125
20
19.888690625000002
30
0
0
VERTEX
8
0
10
42.924603125000004
20
19.889200000000002
30
0
0
VERTEX
8
0
10
42.915934375
20
19.8904
30
0
0
VERTEX
8
0
10
40.908796875
20
19.8904
30
0
0
VERTEX
8
0
10
40.903178125000004
20
19.8895875
30
0
42
0.39258815634569955
0
VERTEX
8
0
10
40.832596875
20
19.8142
30
0
0
VERTEX
8
0
10
40.832596875
20
18.832596875
30
0
0
VERTEX
8
0
10
40.833409375
20
18.826978125
30
0
42
0.37212691362580663
0
VERTEX
8
0
10
40.903400000000005
20
18.75714375
30
0
0
VERTEX
8
0
10
40.908796875
20
18.756396875
30
0
0
VERTEX
8
0
10
40.943334375
20
18.756396875
30
0
0
VERTEX
8
0
10
41.181396875000004
20
18.518334375000002
30
0
0
VERTEX
8
0
10
41.181396875000004
20
18.2122625
30
0
0
VERTEX
8
0
10
41.18223125
20
18.2064875
30
0
0
VERTEX
8
0
10
41.182240625
20
18.204684375
30
0
0
VERTEX
8
0
10
41.18265625
20
18.20330625
30
0
0
VERTEX
8
0
10
41.183293750000004
20
18.19536875
30
0
42
0.08765396656356698
0
VERTEX
8
0
10
41.193578125
20
18.170931250000002
30
0
0
VERTEX
8
0
10
41.19845
20
18.1653375
30
0
0
VERTEX
8
0
10
41.203715625
20
18.15838125
30
0
0
VERTEX
8
0
10
44.005840625000005
20
15.356256250000001
30
0
0
VERTEX
8
0
10
44.0071625
20
15.35526875
30
0
0
VERTEX
8
0
10
44.00820625
20
15.353990625000002
30
0
42
0.21834535467815266
0
VERTEX
8
0
10
44.068653125000004
20
15.3344625
30
0
0
VERTEX
8
0
10
44.07900625
20
15.337162500000002
30
0
0
VERTEX
8
0
10
44.086646875
20
15.338853125
30
0
42
0.007884456392637858
0
VERTEX
8
0
10
44.08888125
20
15.3397375
30
0
0
VERTEX
8
0
10
44.37051875
20
15.456396875000001
30
0
0
VERTEX
8
0
10
45.029478125000004
20
15.456396875000001
30
0
0
VERTEX
8
0
10
45.638275
20
15.204225000000001
30
0
0
VERTEX
8
0
10
46.104225
20
14.738275000000002
30
0
0
VERTEX
8
0
10
46.356396875
20
14.129478125
30
0
0
VERTEX
8
0
10
46.356396875
20
13.47051875
30
0
0
VERTEX
8
0
10
46.104225
20
12.861721875
30
0
0
VERTEX
8
0
10
45.638275
20
12.395771875000001
30
0
0
VERTEX
8
0
10
45.029478125000004
20
12.143600000000001
30
0
0
VERTEX
8
0
10
44.37051875
20
12.143600000000001
30
0
0
VERTEX
8
0
10
43.761721875
20
12.395771875000001
30
0
0
VERTEX
8
0
10
43.295771875
20
12.861721875
30
0
0
VERTEX
8
0
10
43.043600000000005
20
13.47051875
30
0
0
VERTEX
8
0
10
43.043600000000005
20
14.129478125
30
0
0
VERTEX
8
0
10
43.160259375
20
14.411115625
30
0
0
VERTEX
8
0
10
43.160665625
20
14.412712500000001
30
0
0
VERTEX
8
0
10
43.161446875
20
14.414165625
30
0
42
0.21835452448693757
0
VERTEX
8
0
10
43.15635625
20
14.4774875
30
0
0
VERTEX
8
0
10
43.149909375
20
14.486003125
30
0
0
VERTEX
8
0
10
43.1454125
20
14.492431250000001
30
0
42
0.007881903973716804
0
VERTEX
8
0
10
43.143740625
20
14.494156250000001
30
0
0
VERTEX
8
0
10
40.492815625
20
17.14508125
30
0
0
VERTEX
8
0
10
40.48603125
20
17.150153125
30
0
0
VERTEX
8
0
10
40.47953125
20
17.1556875
30
0
42
0.087651452592134
0
VERTEX
8
0
10
40.454978125000004
20
17.165690625
30
0
0
VERTEX
8
0
10
40.447603125
20
17.1662
30
0
0
VERTEX
8
0
10
40.438934375
20
17.1674
30
0
0
VERTEX
8
0
10
39.81996875
20
17.1674
30
0
0
VERTEX
8
0
10
39.493684375
20
17.493684375
30
0
0
VERTEX
8
0
10
39.48589375
20
17.500215625
30
0
0
VERTEX
8
0
10
39.478637500000005
20
17.507296875
30
0
42
0.13234447677005623
0
VERTEX
8
0
10
39.382209375
20
17.550631250000002
30
0
0
VERTEX
8
0
10
39.373884375
20
17.55129375
30
0
42
0.01805948283611007
0
VERTEX
8
0
10
39.35929375
20
17.552459375
30
0
0
VERTEX
8
0
10
39.35
20
17.5532
30
0
0
VERTEX
8
0
10
38.925000000000004
20
17.5532
30
0
0
VERTEX
8
0
10
38.925000000000004
20
17.7
30
0
0
VERTEX
8
0
10
38.225
20
17.7
30
0
0
VERTEX
8
0
10
38.225
20
17
30
0
0
VERTEX
8
0
10
38.422603125
20
17
30
0
0
VERTEX
8
0
10
38.422603125
20
16.745996875
30
0
0
VERTEX
8
0
10
38.191556250000005
20
16.746000000000002
30
0
0
VERTEX
8
0
10
38.126959375
20
16.763309375000002
30
0
0
VERTEX
8
0
10
38.0690375
20
16.79675
30
0
0
VERTEX
8
0
10
38.021750000000004
20
16.844037500000002
30
0
0
VERTEX
8
0
10
37.988309375
20
16.901959375
30
0
0
VERTEX
8
0
10
37.971000000000004
20
16.96655625
30
0
0
VERTEX
8
0
10
37.971000000000004
20
17.197603125
30
0
0
VERTEX
8
0
10
38.135934375000005
20
17.197603125
30
0
0
VERTEX
8
0
10
38.1387625
20
17.1980125
30
0
0
VERTEX
8
0
10
38.141609375
20
17.197815625
30
0
42
0.5483964118425826
0
VERTEX
8
0
10
38.202431250000004
20
17.311015625
30
0
0
VERTEX
8
0
10
38.19715625
20
17.317984375
30
0
0
VERTEX
8
0
10
38.19310625
20
17.324181250000002
30
0
42
0.015772426617527556
0
VERTEX
8
0
10
38.189815625
20
17.327684375
30
0
0
VERTEX
8
0
10
38.06076875
20
17.456728125
30
0
0
VERTEX
8
0
10
38.06028125
20
17.45835
30
0
42
0.29164679930131765
0
VERTEX
8
0
10
37.9912
20
17.502390625
30
0
0
VERTEX
8
0
10
37.971000000000004
20
17.502390625
30
0
0
VERTEX
8
0
10
37.971000000000004
20
17.733440625
30
0
0
VERTEX
8
0
10
37.988309375
20
17.7980375
30
0
0
VERTEX
8
0
10
38.019071875
20
17.85131875
30
0
42
0.3394551932913137
0
VERTEX
8
0
10
38.0069625
20
17.9433
30
0
0
VERTEX
8
0
10
37.93218125
20
18.01808125
30
0
0
VERTEX
8
0
10
37.925396875000004
20
18.023153125
30
0
0
VERTEX
8
0
10
37.918896875
20
18.0286875
30
0
42
0.087651452592134
0
VERTEX
8
0
10
37.894343750000004
20
18.038690625
30
0
0
VERTEX
8
0
10
37.88696875
20
18.0392
30
0
0
VERTEX
8
0
10
37.8783
20
18.0404
30
0
0
VERTEX
8
0
10
37.628740625
20
18.0404
30
0
0
VERTEX
8
0
10
37.4046875
20
18.13320625
30
0
0
VERTEX
8
0
10
37.22250625
20
18.3153875
30
0
0
VERTEX
8
0
10
37.2224875
20
18.3154125
30
0
0
VERTEX
8
0
10
37.183203125
20
18.35469375
30
0
0
VERTEX
8
0
10
37.106196875
20
18.5406125
30
0
0
VERTEX
8
0
10
37.102684375
20
18.546525000000003
30
0
0
VERTEX
8
0
10
37.099815625000005
20
18.552784375
30
0
42
0.7477774313238661
0
VERTEX
8
0
10
36.959596875
20
18.511453125
30
0
0
VERTEX
8
0
10
36.959596875
20
17.858328125
30
0
0
VERTEX
8
0
10
36.960809375000004
20
17.84991875
30
0
0
VERTEX
8
0
10
36.96149375
20
17.841434375000002
30
0
42
0.08765396656356698
0
VERTEX
8
0
10
36.971778125
20
17.816996875
30
0
0
VERTEX
8
0
10
36.97665
20
17.811403125000002
30
0
0
VERTEX
8
0
10
36.981915625
20
17.804446875
30
0
0
VERTEX
8
0
10
37.12111875
20
17.665246875
30
0
0
VERTEX
8
0
10
37.259596875
20
17.330931250000003
30
0
0
VERTEX
8
0
10
37.259596875
20
16.969065625000002
30
0
0
VERTEX
8
0
10
37.12111875
20
16.63475
30
0
0
VERTEX
8
0
10
36.865246875000004
20
16.378878125
30
0
0
VERTEX
8
0
10
36.752471875000005
20
16.332165625000002
30
0
0
VERTEX
8
0
10
36.7486125
20
16.329875
30
0
0
VERTEX
8
0
10
36.74441875
20
16.3282625
30
0
42
0.042308517662639156
0
VERTEX
8
0
10
36.73375625
20
16.32105
30
0
0
VERTEX
8
0
10
36.731084375
20
16.31816875
30
0
0
VERTEX
8
0
10
36.72775
20
16.315646875000002
30
0
0
VERTEX
8
0
10
36.684590625
20
16.2724875
30
0
0
VERTEX
8
0
10
36.501778125
20
16.089678125000002
30
0
0
VERTEX
8
0
10
36.500075
20
16.087400000000002
30
0
0
VERTEX
8
0
10
36.497915625000005
20
16.085518750000002
30
0
42
0.5484095900174472
0
VERTEX
8
0
10
36.534953125
20
15.962465625
30
0
0
VERTEX
8
0
10
36.543609375
20
15.961265625000001
30
0
0
VERTEX
8
0
10
36.550853125
20
15.959750000000001
30
0
42
0.015780610188008835
0
VERTEX
8
0
10
36.555659375000005
20
15.959596875
30
0
0
VERTEX
8
0
10
39.27125625
20
15.959596875
30
0
0
VERTEX
8
0
10
39.495309375000005
20
15.866790625
30
0
0
VERTEX
8
0
10
39.933384375
20
15.428715625
30
0
0
VERTEX
8
0
10
39.940168750000005
20
15.42364375
30
0
0
VERTEX
8
0
10
39.94666875
20
15.418109375
30
0
42
0.087651452592134
0
VERTEX
8
0
10
39.971221875000005
20
15.408106250000001
30
0
0
VERTEX
8
0
10
39.978596875
20
15.407596875000001
30
0
0
VERTEX
8
0
10
39.987265625
20
15.406396875
30
0
0
VERTEX
8
0
10
40.668334375
20
15.406396875
30
0
0
VERTEX
8
0
10
40.906396875
20
15.168334375
30
0
0
VERTEX
8
0
10
40.906396875
20
13.2316625
30
0
0
VERTEX
8
0
10
40.668334375
20
12.9936
30
0
0
VERTEX
8
0
10
38.5316625
20
12.9936
30
0
0
VERTEX
8
0
10
38.293600000000005
20
13.2316625
30
0
0
VERTEX
8
0
10
38.293600000000005
20
14.664200000000001
30
0
0
VERTEX
8
0
10
38.2927875
20
14.669818750000001
30
0
42
0.39258815634569955
0
VERTEX
8
0
10
38.217400000000005
20
14.740400000000001
30
0
0
VERTEX
8
0
10
37.405659375
20
14.740400000000001
30
0
0
VERTEX
8
0
10
37.40283125
20
14.739990625
30
0
0
VERTEX
8
0
10
37.399984375
20
14.740187500000001
30
0
42
0.5483964118425826
0
VERTEX
8
0
10
37.3391625
20
14.6269875
30
0
0
VERTEX
8
0
10
37.344437500000005
20
14.62001875
30
0
0
VERTEX
8
0
10
37.348487500000005
20
14.613821875000001
30
0
42
0.015772426617527556
0
VERTEX
8
0
10
37.351778125
20
14.610318750000001
30
0
0
VERTEX
8
0
10
37.516790625
20
14.445309375
30
0
0
VERTEX
8
0
10
37.609596875
20
14.221256250000001
30
0
0
VERTEX
8
0
10
37.609596875
20
12.932596875
30
0
0
VERTEX
8
0
10
37.610409375
20
12.926978125
30
0
42
0.39258815634569955
0
VERTEX
8
0
10
37.685796875
20
12.856396875000002
30
0
0
VERTEX
8
0
10
37.968334375000005
20
12.856396875000002
30
0
0
VERTEX
8
0
10
38.206396875
20
12.618334375
30
0
0
VERTEX
8
0
10
38.206396875
20
12.465090625
30
0
0
VERTEX
8
0
10
38.20680625
20
12.462262500000001
30
0
0
VERTEX
8
0
10
38.206609375
20
12.459415625
30
0
42
0.5483964118425826
0
VERTEX
8
0
10
38.319809375
20
12.39859375
30
0
0
VERTEX
8
0
10
38.326778125000004
20
12.40386875
30
0
0
VERTEX
8
0
10
38.332975000000005
20
12.40791875
30
0
42
0.015772426617527556
0
VERTEX
8
0
10
38.336478125
20
12.411209375
30
0
0
VERTEX
8
0
10
38.5316625
20
12.606396875
30
0
0
VERTEX
8
0
10
40.668334375
20
12.606396875
30
0
0
VERTEX
8
0
10
40.906396875
20
12.368334375
30
0
0
VERTEX
8
0
10
40.906396875
20
10.4316625
30
0
0
VERTEX
8
0
10
40.668334375
20
10.1936
30
0
0
VERTEX
8
0
10
38.5316625
20
10.1936
30
0
0
VERTEX
8
0
10
38.278878125
20
10.446384375000001
30
0
0
VERTEX
8
0
10
38.274328125000004
20
10.449787500000001
30
0
42
0.39256960445629635
0
VERTEX
8
0
10
38.171115625
20
10.446384375000001
30
0
0
VERTEX
8
0
10
37.968334375000005
20
10.2436
30
0
0
VERTEX
8
0
10
36.0316625
20
10.2436
30
0
0
VERTEX
8
0
10
35.90478125
20
10.370481250000001
30
0
0
VERTEX
8
0
10
35.897996875000004
20
10.375553125
30
0
0
VERTEX
8
0
10
35.891496875
20
10.381087500000001
30
0
42
0.087651452592134
0
VERTEX
8
0
10
35.866943750000004
20
10.391090625
30
0
0
VERTEX
8
0
10
35.85956875
20
10.3916
30
0
0
VERTEX
8
0
10
35.8509
20
10.392800000000001
30
0
0
VERTEX
8
0
10
33.310621875
20
10.392800000000001
30
0
0
VERTEX
8
0
10
33.281021875
20
10.422403125
30
0
0
VERTEX
8
0
10
33.275409375
20
10.4266
30
0
0
VERTEX
8
0
10
33.271412500000004
20
10.429709375
30
0
0
VERTEX
8
0
10
33.268853125
20
10.4318875
30
0
0
VERTEX
8
0
10
33.268290625
20
10.4321375
30
0
0
VERTEX
8
0
10
33.265234375
20
10.434515625000001
30
0
0
VERTEX
8
0
10
33.244034375
20
10.446753125
30
0
0
VERTEX
8
0
10
33.2032
20
10.4875875
30
0
0
VERTEX
8
0
10
33.2032
20
11.3468
30
0
0
VERTEX
8
0
10
33.4
20
11.3468
30
0
0
VERTEX
8
0
10
33.4
20
10.65
30
0
0
VERTEX
8
0
10
35
20
10.65
30
0
0
VERTEX
8
0
10
35
20
12.450000000000001
30
0
0
VERTEX
8
0
10
33.4
20
12.450000000000001
30
0
0
VERTEX
8
0
10
33.4
20
11.753200000000001
30
0
0
VERTEX
8
0
10
33.0428
20
11.753200000000001
30
0
0
VERTEX
8
0
10
33.0428
20
12.7719
30
0
0
VERTEX
8
0
10
33.041987500000005
20
12.77751875
30
0
42
0.39258815634569955
0
VERTEX
8
0
10
32.9666
20
12.8481
30
0
0
VERTEX
8
0
10
32.5032
20
12.8481
30
0
0
VERTEX
8
0
10
32.5032
20
15.200000000000001
30
0
0
VERTEX
8
0
10
32.5023125
20
15.210103125000002
30
0
0
VERTEX
8
0
10
32.5021875
20
15.220265625000001
30
0
42
0.13234210275356545
0
VERTEX
8
0
10
32.46464375
20
15.319090625000001
30
0
0
VERTEX
8
0
10
32.45921875
20
15.32545625
30
0
42
0.04057533307424638
0
VERTEX
8
0
10
32.450215625
20
15.36410625
30
0
0
VERTEX
8
0
10
32.457296875000004
20
15.3713625
30
0
0
VERTEX
8
0
10
32.46161875
20
15.377709375
30
0
0
VERTEX
8
0
10
32.466556250000004
20
15.383600000000001
30
0
42
0.11317466020579091
0
VERTEX
8
0
10
32.500631250000005
20
15.467790625000001
30
0
0
VERTEX
8
0
10
32.50129375
20
15.476115625
30
0
42
0.01805948283611007
0
VERTEX
8
0
10
32.502459375
20
15.49070625
30
0
0
VERTEX
8
0
10
32.5032
20
15.5
30
0
0
VERTEX
8
0
10
32.5032
20
17.51631875
30
0
0
VERTEX
8
0
10
32.517496875
20
17.53365625
30
0
42
0.269398696319494
0
VERTEX
8
0
10
32.532903125000004
20
17.737225000000002
30
0
0
VERTEX
8
0
10
32.514643750000005
20
17.767790625
30
0
0
VERTEX
8
0
10
32.5032
20
17.78121875
30
0
0
VERTEX
8
0
10
32.5032
20
17.851896875
30
0
0
VERTEX
8
0
10
33.3520375
20
17.851896875
30
0
0
VERTEX
8
0
10
33.354865625
20
17.85230625
30
0
0
VERTEX
8
0
10
33.3577125
20
17.852109375
30
0
42
0.5484145622342881
0
VERTEX
8
0
10
33.41853125
20
17.9653125
30
0
0
VERTEX
8
0
10
33.413265625
20
17.97226875
30
0
0
VERTEX
8
0
10
33.409209375
20
17.978475
30
0
0
VERTEX
8
0
10
33.407409375
20
17.980006250000002
30
0
0
VERTEX
8
0
10
33.405915625
20
17.98198125
30
0
0
VERTEX
8
0
10
33.36540625
20
18.0224875
30
0
0
VERTEX
8
0
10
33.183206250000005
20
18.204687500000002
30
0
0
VERTEX
8
0
10
33.0904
20
18.428740625
30
0
0
VERTEX
8
0
10
33.0904
20
18.44723125
30
0
42
0.028159792405687965
0
VERTEX
8
0
10
33.08955625
20
18.455753125
30
0
0
VERTEX
8
0
10
33.08955625
20
18.455915625
30
0
0
VERTEX
8
0
10
33.089425
20
18.45635
30
0
0
VERTEX
8
0
10
33.08844375
20
18.460787500000002
30
0
0
VERTEX
8
0
10
33.087290625
20
18.468775
30
0
42
0.4813211955607076
0
VERTEX
8
0
10
32.9769875
20
18.513725
30
0
0
VERTEX
8
0
10
32.970028125
20
18.508459375
30
0
0
VERTEX
8
0
10
32.963821875
20
18.504403125
30
0
42
0.015779677950596642
0
VERTEX
8
0
10
32.960315625
20
18.5011125
30
0
0
VERTEX
8
0
10
32.905950000000004
20
18.44674375
30
0
0
VERTEX
8
0
10
32.848037500000004
20
18.413309375
30
0
0
VERTEX
8
0
10
32.783440625000004
20
18.396
30
0
0
VERTEX
8
0
10
32.5032
20
18.396
30
0
0
VERTEX
8
0
10
32.5032
20
18.650000000000002
30
0
0
VERTEX
8
0
10
32.75
20
18.650000000000002
30
0
0
VERTEX
8
0
10
32.75
20
20.25
30
0
0
VERTEX
8
0
10
32.452390625
20
20.25
30
0
0
VERTEX
8
0
10
32.452390625
20
20.503996875000002
30
0
0
VERTEX
8
0
10
32.783440625000004
20
20.503996875000002
30
0
0
VERTEX
8
0
10
32.848037500000004
20
20.486687500000002
30
0
0
VERTEX
8
0
10
32.905950000000004
20
20.453253125
30
0
0
VERTEX
8
0
10
32.960315625
20
20.398884375
30
0
0
VERTEX
8
0
10
32.96260625
20
20.397171875
30
0
0
VERTEX
8
0
10
32.964478125
20
20.395021875
30
0
42
0.5484095900174472
0
VERTEX
8
0
10
33.087531250000005
20
20.432059375
30
0
0
VERTEX
8
0
10
33.08873125
20
20.4407125
30
0
0
VERTEX
8
0
10
33.090246875
20
20.447959375
30
0
42
0.015780610188008835
0
VERTEX
8
0
10
33.0904
20
20.452765625
30
0
0
VERTEX
8
0
10
33.0904
20
20.82125625
30
0
0
VERTEX
8
0
10
33.183206250000005
20
21.045309375000002
30
0
0
VERTEX
8
0
10
33.9546875
20
21.816790625
30
0
0
VERTEX
8
0
10
34.140609375000004
20
21.893800000000002
30
0
0
VERTEX
8
0
10
34.146521875000005
20
21.8973125
30
0
0
VERTEX
8
0
10
34.152781250000004
20
21.900181250000003
30
0
42
0.7477774313238661
0
VERTEX
8
0
10
34.111450000000005
20
22.0404
30
0
0
VERTEX
8
0
10
30.984065625000003
20
22.0404
30
0
0
VERTEX
8
0
10
30.9756375
20
22.039184375
30
0
0
VERTEX
8
0
10
30.967171875000002
20
22.038503125000002
30
0
42
0.08765396656356698
0
VERTEX
8
0
10
30.942734375
20
22.02821875
30
0
0
VERTEX
8
0
10
30.937140625
20
22.023346875
30
0
0
VERTEX
8
0
10
30.930184375000003
20
22.01808125
30
0
0
VERTEX
8
0
10
29.531915625
20
20.619812500000002
30
0
0
VERTEX
8
0
10
29.52684375
20
20.613028125
30
0
0
VERTEX
8
0
10
29.521309375
20
20.606528125
30
0
42
0.087651452592134
0
VERTEX
8
0
10
29.51130625
20
20.581975
30
0
0
VERTEX
8
0
10
29.510796875
20
20.5746
30
0
0
VERTEX
8
0
10
29.509596875
20
20.565931250000002
30
0
0
VERTEX
8
0
10
29.509596875
20
20.369065625
30
0
0
VERTEX
8
0
10
29.37111875
20
20.034750000000003
30
0
0
VERTEX
8
0
10
29.115246875
20
19.778878125000002
30
0
0
VERTEX
8
0
10
28.780931250000002
20
19.6404
30
0
0
VERTEX
8
0
10
28.419065625
20
19.6404
30
0
0
VERTEX
8
0
10
28.08475
20
19.778878125000002
30
0
0
VERTEX
8
0
10
27.99555
20
19.86808125
30
0
0
VERTEX
8
0
10
27.988765625000003
20
19.873153125
30
0
0
VERTEX
8
0
10
27.982265625
20
19.8786875
30
0
42
0.087651452592134
0
VERTEX
8
0
10
27.957712500000003
20
19.888690625000002
30
0
0
VERTEX
8
0
10
27.9503375
20
19.889200000000002
30
0
0
VERTEX
8
0
10
27.94166875
20
19.8904
30
0
0
VERTEX
8
0
10
26.478740625
20
19.8904
30
0
0
VERTEX
8
0
10
26.254687500000003
20
19.983206250000002
30
0
0
VERTEX
8
0
10
26.072496875000002
20
20.165396875000003
30
0
0
VERTEX
8
0
10
26.0724875
20
20.165409375
30
0
0
VERTEX
8
0
10
23.719815625000003
20
22.51808125
30
0
0
VERTEX
8
0
10
23.71303125
20
22.523153125
30
0
0
VERTEX
8
0
10
23.70653125
20
22.5286875
30
0
42
0.087651452592134
0
VERTEX
8
0
10
23.681978125
20
22.538690625
30
0
0
VERTEX
8
0
10
23.674603125
20
22.5392
30
0
0
VERTEX
8
0
10
23.665934375000003
20
22.5404
30
0
0
VERTEX
8
0
10
22.958796875
20
22.5404
30
0
0
VERTEX
8
0
10
22.953178125
20
22.5395875
30
0
42
0.39258815634569955
0
VERTEX
8
0
10
22.882596875
20
22.4642
30
0
0
VERTEX
8
0
10
22.882596875
20
22.230196875
30
0
0
VERTEX
8
0
10
22.883409375
20
22.224578125
30
0
42
0.19894192832807317
0
VERTEX
8
0
10
22.909075
20
22.172453125
30
0
0
VERTEX
8
0
10
22.9138625
20
22.169403125000002
30
0
42
0.12351448497139637
0
VERTEX
8
0
10
22.958796875
20
22.153996875
30
0
0
VERTEX
8
0
10
22.983440625
20
22.153996875
30
0
0
VERTEX
8
0
10
23.0480375
20
22.1366875
30
0
0
VERTEX
8
0
10
23.105959375
20
22.103246875
30
0
0
VERTEX
8
0
10
23.153246875
20
22.055959375
30
0
0
VERTEX
8
0
10
23.1866875
20
21.998037500000002
30
0
0
VERTEX
8
0
10
23.203996875
20
21.933440625
30
0
0
VERTEX
8
0
10
23.203996875
20
21.252390625
30
0
0
VERTEX
8
0
10
22.958796875
20
21.252390625
30
0
0
VERTEX
8
0
10
22.953178125
20
21.251578125
30
0
0
VERTEX
8
0
10
22.950000000000003
20
21.251559375
30
0
0
VERTEX
8
0
10
22.950000000000003
20
21.900000000000002
30
0
0
VERTEX
8
0
10
22.05
20
21.900000000000002
30
0
0
VERTEX
8
0
10
22.05
20
20.884712500000003
30
0
0
VERTEX
8
0
10
22.04936875
20
20.882209375000002
30
0
0
VERTEX
8
0
10
22.048706250000002
20
20.873884375
30
0
42
0.01805948283611007
0
VERTEX
8
0
10
22.047540625
20
20.859293750000003
30
0
0
VERTEX
8
0
10
22.0468
20
20.85
30
0
0
VERTEX
8
0
10
22.0468
20
16.74056875
30
0
0
SEQEND
0
POLYLINE
66
1
8
1_copper
10
0.0
20
0.0
30
0.0
70
1
0
VERTEX
8
0
10
27.850078125
20
21.110809375000002
30
0
0
VERTEX
8
0
10
27.8585625
20
21.11149375
30
0
42
0.08765396656356698
0
VERTEX
8
0
10
27.883000000000003
20
21.121778125000002
30
0
0
VERTEX
8
0
10
27.888593750000002
20
21.12665
30
0
0
VERTEX
8
0
10
27.89555
20
21.131915625
30
0
0
VERTEX
8
0
10
28.08475
20
21.32111875
30
0
0
VERTEX
8
0
10
28.419065625
20
21.459596875000003
30
0
0
VERTEX
8
0
10
28.615931250000003
20
21.459596875000003
30
0
0
VERTEX
8
0
10
28.624359375
20
21.4608125
30
0
0
VERTEX
8
0
10
28.632825
20
21.461493750000002
30
0
42
0.08765396656356698
0
VERTEX
8
0
10
28.6572625
20
21.471778125
30
0
0
VERTEX
8
0
10
28.66285625
20
21.47665
30
0
0
VERTEX
8
0
10
28.669812500000003
20
21.481915625000003
30
0
0
VERTEX
8
0
10
30.172487500000003
20
22.9845875
30
0
0
VERTEX
8
0
10
30.172496875
20
22.9846
30
0
0
VERTEX
8
0
10
30.3546875
20
23.166790625
30
0
0
VERTEX
8
0
10
30.412175
20
23.1906
30
0
0
VERTEX
8
0
10
30.418084375000003
20
23.194109375
30
0
0
VERTEX
8
0
10
30.424346875
20
23.19698125
30
0
42
0.7477774313238661
0
VERTEX
8
0
10
30.383015625000002
20
23.337200000000003
30
0
0
VERTEX
8
0
10
24.808859375
20
23.337200000000003
30
0
0
VERTEX
8
0
10
24.806028125
20
23.336790625000003
30
0
0
VERTEX
8
0
10
24.8031875
20
23.336987500000003
30
0
42
0.548409711059846
0
VERTEX
8
0
10
24.742362500000002
20
23.2237875
30
0
0
VERTEX
8
0
10
24.7476375
20
23.21681875
30
0
0
VERTEX
8
0
10
24.751687500000003
20
23.210621875
30
0
42
0.015772426617527556
0
VERTEX
8
0
10
24.754978125
20
23.20711875
30
0
0
VERTEX
8
0
10
26.830181250000003
20
21.131915625
30
0
0
VERTEX
8
0
10
26.836965625
20
21.126843750000003
30
0
0
VERTEX
8
0
10
26.843465625
20
21.121309375000003
30
0
42
0.087651452592134
0
VERTEX
8
0
10
26.86801875
20
21.111306250000002
30
0
0
VERTEX
8
0
10
26.87539375
20
21.110796875000002
30
0
0
VERTEX
8
0
10
26.884062500000002
20
21.109596875
30
0
0
VERTEX
8
0
10
27.84166875
20
21.109596875
30
0
0
SEQEND
0
POLYLINE
66
1
8
1_copper
10
0.0
20
0.0
30
0.0
70
1
0
VERTEX
8
0
10
32.06583125
20
15.5532
30
0
0
VERTEX
8
0
10
31.483700000000002
20
15.5532
30
0
0
VERTEX
8
0
10
31.483700000000002
20
15.604000000000001
30
0
0
VERTEX
8
0
10
30.607400000000002
20
15.604000000000001
30
0
0
VERTEX
8
0
10
30.607400000000002
20
15.5532
30
0
0
VERTEX
8
0
10
28.8428
20
15.5532
30
0
0
VERTEX
8
0
10
28.8428
20
15.913534375000001
30
0
0
VERTEX
8
0
10
28.841584375
20
15.921962500000001
30
0
0
VERTEX
8
0
10
28.840903125
20
15.930428125
30
0
42
0.08765396656356698
0
VERTEX
8
0
10
28.830618750000003
20
15.954865625
30
0
0
VERTEX
8
0
10
28.825746875
20
15.960459375000001
30
0
0
VERTEX
8
0
10
28.82048125
20
15.967415625000001
30
0
0
VERTEX
8
0
10
26.7198125
20
18.068081250000002
30
0
0
VERTEX
8
0
10
26.713028125
20
18.073153125
30
0
0
VERTEX
8
0
10
26.706528125000002
20
18.0786875
30
0
42
0.087651452592134
0
VERTEX
8
0
10
26.681975
20
18.088690625
30
0
0
VERTEX
8
0
10
26.6746
20
18.0892
30
0
0
VERTEX
8
0
10
26.66593125
20
18.090400000000002
30
0
0
VERTEX
8
0
10
25.377996875
20
18.090400000000002
30
0
0
VERTEX
8
0
10
25.372378125
20
18.0895875
30
0
42
0.39258815634569955
0
VERTEX
8
0
10
25.301796875
20
18.014200000000002
30
0
0
VERTEX
8
0
10
25.301796875
20
17.953200000000002
30
0
0
VERTEX
8
0
10
22.453200000000002
20
17.953200000000002
30
0
0
VERTEX
8
0
10
22.453200000000002
20
20.3
30
0
0
VERTEX
8
0
10
22.950000000000003
20
20.3
30
0
0
VERTEX
8
0
10
22.950000000000003
20
20.948331250000003
30
0
0
VERTEX
8
0
10
22.953400000000002
20
20.94835
30
0
0
VERTEX
8
0
10
22.958796875
20
20.947603125
30
0
0
VERTEX
8
0
10
23.203996875
20
20.947603125
30
0
0
VERTEX
8
0
10
23.203996875
20
20.442396875
30
0
0
VERTEX
8
0
10
23.204809375
20
20.436778125
30
0
42
0.39258815634569955
0
VERTEX
8
0
10
23.280196875
20
20.366196875
30
0
0
VERTEX
8
0
10
25.0191
20
20.366196875
30
0
0
VERTEX
8
0
10
25.301796875
20
20.0835
30
0
0
VERTEX
8
0
10
25.301796875
20
19.385796875
30
0
0
VERTEX
8
0
10
25.302609375000003
20
19.380178125
30
0
42
0.39258815634569955
0
VERTEX
8
0
10
25.377996875
20
19.309596875
30
0
0
VERTEX
8
0
10
27.07125625
20
19.309596875
30
0
0
VERTEX
8
0
10
27.295309375000002
20
19.216790625
30
0
0
VERTEX
8
0
10
29.42321875
20
17.088878125
30
0
0
VERTEX
8
0
10
29.425496875
20
17.087175000000002
30
0
0
VERTEX
8
0
10
29.427378125
20
17.085015625
30
0
42
0.5484095900174472
0
VERTEX
8
0
10
29.550431250000003
20
17.122053125
30
0
0
VERTEX
8
0
10
29.55163125
20
17.130715625
30
0
0
VERTEX
8
0
10
29.553146875000003
20
17.137956250000002
30
0
42
0.01577037521822393
0
VERTEX
8
0
10
29.5533
20
17.142759375
30
0
0
VERTEX
8
0
10
29.5533
20
17.606396875
30
0
0
VERTEX
8
0
10
29.7988
20
17.851896875
30
0
0
VERTEX
8
0
10
32.0968
20
17.851896875
30
0
0
VERTEX
8
0
10
32.0968
20
15.58416875
30
0
0
SEQEND
0
POLYLINE
66
1
8
1_copper
10
0.0
20
0.0
30
0.0
70
1
0
VERTEX
8
0
10
31.596
20
19.602390625
30
0
0
VERTEX
8
0
10
31.596
20
20.283440625
30
0
0
VERTEX
8
0
10
31.613309375
20
20.3480375
30
0
0
VERTEX
8
0
10
31.64675
20
20.405959375000002
30
0
0
VERTEX
8
0
10
31.6940375
20
20.453246875
30
0
0
VERTEX
8
0
10
31.751959375000002
20
20.486687500000002
30
0
0
VERTEX
8
0
10
31.81655625
20
20.503996875000002
30
0
0
VERTEX
8
0
10
32.147603125
20
20.503996875000002
30
0
0
VERTEX
8
0
10
32.147603125
20
20.25
30
0
0
VERTEX
8
0
10
31.85
20
20.25
30
0
0
VERTEX
8
0
10
31.85
20
19.602390625
30
0
0
SEQEND
0
POLYLINE
66
1
8
1_copper
10
0.0
20
0.0
30
0.0
70
1
0
VERTEX
8
0
10
37.018628125
20
19.26315
30
0
0
VERTEX
8
0
10
37.025515625000004
20
19.263190625
30
0
42
0.3712023256762845
0
VERTEX
8
0
10
37.0904
20
19.338546875000002
30
0
0
VERTEX
8
0
10
37.0904
20
19.71593125
30
0
0
VERTEX
8
0
10
37.089184375
20
19.724359375000002
30
0
0
VERTEX
8
0
10
37.088503125
20
19.732825000000002
30
0
42
0.08765396656356698
0
VERTEX
8
0
10
37.078218750000005
20
19.7572625
30
0
0
VERTEX
8
0
10
37.073346875
20
19.762856250000002
30
0
0
VERTEX
8
0
10
37.06808125
20
19.7698125
30
0
0
VERTEX
8
0
10
36.386478125000004
20
20.451418750000002
30
0
0
VERTEX
8
0
10
36.3842
20
20.453121875
30
0
0
VERTEX
8
0
10
36.38231875
20
20.455281250000002
30
0
42
0.5484095900174472
0
VERTEX
8
0
10
36.259265625000005
20
20.418243750000002
30
0
0
VERTEX
8
0
10
36.258065625
20
20.409581250000002
30
0
0
VERTEX
8
0
10
36.256550000000004
20
20.402340625
30
0
42
0.01577037521822393
0
VERTEX
8
0
10
36.256396875
20
20.397537500000002
30
0
0
VERTEX
8
0
10
36.256396875
20
20.075243750000002
30
0
0
VERTEX
8
0
10
36.256634375000004
20
20.07360625
30
0
0
VERTEX
8
0
10
36.25646875
20
20.07196875
30
0
42
0.2183530382752149
0
VERTEX
8
0
10
36.285403125
20
20.015415625
30
0
0
VERTEX
8
0
10
36.29464375
20
20.009996875000002
30
0
0
VERTEX
8
0
10
36.30123125
20
20.0058
30
0
42
0.007889569284554799
0
VERTEX
8
0
10
36.3034375
20
20.004843750000003
30
0
0
VERTEX
8
0
10
36.395309375000004
20
19.966790625
30
0
0
VERTEX
8
0
10
36.866790625
20
19.495309375
30
0
0
VERTEX
8
0
10
36.9438
20
19.3093875
30
0
0
VERTEX
8
0
10
36.9473125
20
19.303475000000002
30
0
0
VERTEX
8
0
10
36.95018125
20
19.297215625
30
0
42
0.24629919478579781
0
VERTEX
8
0
10
37.011796875
20
19.262384375
30
0
0
SEQEND
0
POLYLINE
66
1
8
1_copper
10
0.0
20
0.0
30
0.0
70
1
0
VERTEX
8
0
10
31.81655625
20
18.396
30
0
0
VERTEX
8
0
10
31.751959375000002
20
18.413309375
30
0
0
VERTEX
8
0
10
31.6940375
20
18.44675
30
0
0
VERTEX
8
0
10
31.64675
20
18.4940375
30
0
0
VERTEX
8
0
10
31.613309375
20
18.551959375
30
0
0
VERTEX
8
0
10
31.596
20
18.616556250000002
30
0
0
VERTEX
8
0
10
31.596
20
19.297603125000002
30
0
0
VERTEX
8
0
10
31.85
20
19.297603125000002
30
0
0
VERTEX
8
0
10
31.85
20
18.650000000000002
30
0
0
VERTEX
8
0
10
32.0968
20
18.650000000000002
30
0
0
VERTEX
8
0
10
32.0968
20
18.396
30
0
0
SEQEND
0
POLYLINE
66
1
8
1_copper
10
0.0
20
0.0
30
0.0
70
1
0
VERTEX
8
0
10
16.6116625
20
9.8236
30
0
0
VERTEX
8
0
10
16.3736
20
10.0616625
30
0
0
VERTEX
8
0
10
16.3736
20
12.198334375
30
0
0
VERTEX
8
0
10
16.6116625
20
12.436396875
30
0
0
VERTEX
8
0
10
18.548334375
20
12.436396875
30
0
0
VERTEX
8
0
10
18.786396875
20
12.198334375
30
0
0
VERTEX
8
0
10
18.786396875
20
11.815796875
30
0
0
VERTEX
8
0
10
18.787209375
20
11.810178125
30
0
42
0.39258815634569955
0
VERTEX
8
0
10
18.862596875
20
11.739596875
30
0
0
VERTEX
8
0
10
18.941200000000002
20
11.739596875
30
0
0
VERTEX
8
0
10
18.946818750000002
20
11.740409375
30
0
42
0.39258815634569955
0
VERTEX
8
0
10
19.017400000000002
20
11.815796875
30
0
0
VERTEX
8
0
10
19.017400000000002
20
12.518534375
30
0
0
VERTEX
8
0
10
19.016184375
20
12.5269625
30
0
0
VERTEX
8
0
10
19.015503125000002
20
12.535428125000001
30
0
42
0.08765396656356698
0
VERTEX
8
0
10
19.00521875
20
12.559865625
30
0
0
VERTEX
8
0
10
19.000346875
20
12.565459375000001
30
0
0
VERTEX
8
0
10
18.995081250000002
20
12.572415625000001
30
0
0
VERTEX
8
0
10
18.9674
20
12.600096875
30
0
0
VERTEX
8
0
10
18.9674
20
13.0999
30
0
0
VERTEX
8
0
10
19.25305
20
13.38555
30
0
0
VERTEX
8
0
10
19.254134375
20
13.38570625
30
0
42
0.3288358875704129
0
VERTEX
8
0
10
19.308784375000002
20
13.457778125
30
0
0
VERTEX
8
0
10
19.30798125
20
13.4642125
30
0
0
VERTEX
8
0
10
19.307946875000003
20
13.4701125
30
0
42
0.019575157484947217
0
VERTEX
8
0
10
19.306193750000002
20
13.478521875
30
0
0
VERTEX
8
0
10
19.296
20
13.516559375
30
0
0
VERTEX
8
0
10
19.296
20
13.796800000000001
30
0
0
VERTEX
8
0
10
19.55
20
13.796800000000001
30
0
0
VERTEX
8
0
10
19.55
20
13.55
30
0
0
VERTEX
8
0
10
21.150000000000002
20
13.55
30
0
0
VERTEX
8
0
10
21.150000000000002
20
13.796800000000001
30
0
0
VERTEX
8
0
10
21.403996875
20
13.796800000000001
30
0
0
VERTEX
8
0
10
21.403996875
20
13.51655625
30
0
0
VERTEX
8
0
10
21.3866875
20
13.451959375000001
30
0
0
VERTEX
8
0
10
21.358765625
20
13.4036
30
0
42
0.3394551932913137
0
VERTEX
8
0
10
21.370875
20
13.311618750000001
30
0
0
VERTEX
8
0
10
21.632596875
20
13.049900000000001
30
0
0
VERTEX
8
0
10
21.632596875
20
11.585796875
30
0
0
VERTEX
8
0
10
21.633409375
20
11.580178125
30
0
42
0.39258815634569955
0
VERTEX
8
0
10
21.708796875
20
11.509596875
30
0
0
VERTEX
8
0
10
22.2174
20
11.509596875
30
0
0
VERTEX
8
0
10
22.22301875
20
11.510409375
30
0
42
0.313575565869682
0
VERTEX
8
0
10
22.291478125
20
11.570484375000001
30
0
0
VERTEX
8
0
10
22.29288125
20
11.57534375
30
0
0
VERTEX
8
0
10
22.292878125
20
11.576131250000001
30
0
0
VERTEX
8
0
10
22.29288125
20
11.576146875000001
30
0
0
VERTEX
8
0
10
22.29285625
20
11.58043125
30
0
0
VERTEX
8
0
10
22.2936
20
11.585796875
30
0
0
VERTEX
8
0
10
22.2936
20
11.592337500000001
30
0
42
0.14431046205070072
0
VERTEX
8
0
10
22.28141875
20
11.63366875
30
0
0
VERTEX
8
0
10
22.276546875
20
11.639262500000001
30
0
0
VERTEX
8
0
10
22.27128125
20
11.646218750000001
30
0
0
VERTEX
8
0
10
22.2174
20
11.700096875
30
0
0
VERTEX
8
0
10
22.2174
20
13.449900000000001
30
0
0
VERTEX
8
0
10
22.42368125
20
13.656181250000001
30
0
0
VERTEX
8
0
10
22.428753125
20
13.662965625
30
0
0
VERTEX
8
0
10
22.4342875
20
13.669465625
30
0
0
VERTEX
8
0
10
22.435275
20
13.671684375
30
0
0
VERTEX
8
0
10
22.436715625
20
13.6736125
30
0
0
VERTEX
8
0
10
22.439671875000002
20
13.681571875000001
30
0
0
VERTEX
8
0
10
22.44313125
20
13.689356250000001
30
0
42
0.005211592346073502
0
VERTEX
8
0
10
22.444290625
20
13.694018750000001
30
0
0
VERTEX
8
0
10
22.444637500000002
20
13.699034375
30
0
0
VERTEX
8
0
10
22.450434375
20
13.6995
30
0
42
0.07178076490023723
0
VERTEX
8
0
10
22.470753125
20
13.70730625
30
0
0
VERTEX
8
0
10
22.472731250000002
20
13.708803125000001
30
0
0
VERTEX
8
0
10
22.474871875
20
13.709784375
30
0
0
VERTEX
8
0
10
22.480465625
20
13.71465625
30
0
0
VERTEX
8
0
10
22.487421875000003
20
13.719921875
30
0
0
VERTEX
8
0
10
22.500096875
20
13.732596875
30
0
0
VERTEX
8
0
10
22.700000000000003
20
13.732596875
30
0
0
VERTEX
8
0
10
22.700000000000003
20
13.05
30
0
0
VERTEX
8
0
10
24.5
20
13.05
30
0
0
VERTEX
8
0
10
24.5
20
13.699465625
30
0
0
VERTEX
8
0
10
24.5004125
20
13.699312500000001
30
0
0
VERTEX
8
0
10
24.507787500000003
20
13.698803125000001
30
0
0
VERTEX
8
0
10
24.51645625
20
13.697603125
30
0
0
VERTEX
8
0
10
24.753996875000002
20
13.697603125
30
0
0
VERTEX
8
0
10
24.753996875000002
20
13.460059375
30
0
0
VERTEX
8
0
10
24.755209375
20
13.451653125
30
0
0
VERTEX
8
0
10
24.755893750000002
20
13.443162500000001
30
0
42
0.015760042384499524
0
VERTEX
8
0
10
24.75710625
20
13.438515625
30
0
0
VERTEX
8
0
10
24.760653125
20
13.430778125
30
0
0
VERTEX
8
0
10
24.763703125000003
20
13.42284375
30
0
42
0.01156262194924813
0
VERTEX
8
0
10
24.766178125
20
13.418728125000001
30
0
0
VERTEX
8
0
10
24.77105625
20
13.413128125
30
0
0
VERTEX
8
0
10
24.77631875
20
13.406175000000001
30
0
0
VERTEX
8
0
10
24.804918750000002
20
13.377578125000001
30
0
0
VERTEX
8
0
10
24.932596875
20
13.2499
30
0
0
VERTEX
8
0
10
24.932596875
20
11.978659375000001
30
0
0
VERTEX
8
0
10
24.933006250000002
20
11.975825
30
0
0
VERTEX
8
0
10
24.932809375
20
11.972965625
30
0
42
0.4992047508770767
0
VERTEX
8
0
10
25.046028125000003
20
11.912175000000001
30
0
0
VERTEX
8
0
10
25.052971875
20
11.91743125
30
0
0
VERTEX
8
0
10
25.059175
20
11.921487500000001
30
0
42
0.18605017356910522
0
VERTEX
8
0
10
25.088696875
20
11.968043750000001
30
0
0
VERTEX
8
0
10
25.089203125
20
11.975434375
30
0
0
VERTEX
8
0
10
25.090400000000002
20
11.984065625000001
30
0
0
VERTEX
8
0
10
25.090400000000002
20
15.0576
30
0
0
VERTEX
8
0
10
25.0895875
20
15.06321875
30
0
42
0.39258815634569955
0
VERTEX
8
0
10
25.014200000000002
20
15.1338
30
0
0
VERTEX
8
0
10
22.403200000000002
20
15.1338
30
0
0
VERTEX
8
0
10
22.403200000000002
20
16.217165625
30
0
0
VERTEX
8
0
10
22.407296875
20
16.2213625
30
0
42
0.016266296503468204
0
VERTEX
8
0
10
22.416556250000003
20
16.2336
30
0
0
VERTEX
8
0
10
22.421621875
20
16.2424
30
0
0
VERTEX
8
0
10
22.427334375
20
16.250790625
30
0
42
0.0879472418513558
0
VERTEX
8
0
10
22.45063125
20
16.317790625
30
0
0
VERTEX
8
0
10
22.45129375
20
16.326115625
30
0
42
0.01805948283611007
0
VERTEX
8
0
10
22.452459375
20
16.34070625
30
0
0
VERTEX
8
0
10
22.453200000000002
20
16.35
30
0
0
VERTEX
8
0
10
22.453200000000002
20
17.5468
30
0
0
VERTEX
8
0
10
25.301796875
20
17.5468
30
0
0
VERTEX
8
0
10
25.301796875
20
17.42715
30
0
0
VERTEX
8
0
10
25.302034375
20
17.4255125
30
0
0
VERTEX
8
0
10
25.30186875
20
17.423875000000002
30
0
42
0.21834638570063183
0
VERTEX
8
0
10
25.330803125000003
20
17.367325
30
0
0
VERTEX
8
0
10
25.340015625
20
17.361921875
30
0
0
VERTEX
8
0
10
25.34663125
20
17.35770625
30
0
42
0.007889569284554799
0
VERTEX
8
0
10
25.348837500000002
20
17.35675
30
0
0
VERTEX
8
0
10
25.445309375
20
17.316790625
30
0
0
VERTEX
8
0
10
26.216790625
20
16.545309375000002
30
0
0
VERTEX
8
0
10
26.309596875
20
16.32125625
30
0
0
VERTEX
8
0
10
26.309596875
20
11.578740625
30
0
0
VERTEX
8
0
10
26.216790625
20
11.3546875
30
0
0
VERTEX
8
0
10
25.395309375
20
10.533206250000001
30
0
0
VERTEX
8
0
10
25.171256250000003
20
10.4404
30
0
0
VERTEX
8
0
10
24.982596875000002
20
10.4404
30
0
0
VERTEX
8
0
10
24.976978125000002
20
10.4395875
30
0
42
0.39258815634569955
0
VERTEX
8
0
10
24.906396875000002
20
10.3642
30
0
0
VERTEX
8
0
10
24.906396875000002
20
10.0816625
30
0
0
VERTEX
8
0
10
24.668334375
20
9.8436
30
0
0
VERTEX
8
0
10
22.5316625
20
9.8436
30
0
0
VERTEX
8
0
10
22.2936
20
10.0816625
30
0
0
VERTEX
8
0
10
22.2936
20
10.2142
30
0
0
VERTEX
8
0
10
22.2927875
20
10.21981875
30
0
42
0.39258815634569955
0
VERTEX
8
0
10
22.2174
20
10.2904
30
0
0
VERTEX
8
0
10
21.596696875000003
20
10.2904
30
0
0
VERTEX
8
0
10
21.58826875
20
10.289184375
30
0
0
VERTEX
8
0
10
21.579803125
20
10.288503125
30
0
42
0.08765396656356698
0
VERTEX
8
0
10
21.555365625
20
10.27821875
30
0
0
VERTEX
8
0
10
21.549771875
20
10.273346875
30
0
0
VERTEX
8
0
10
21.542815625
20
10.26808125
30
0
0
VERTEX
8
0
10
21.318334375000003
20
10.0436
30
0
0
VERTEX
8
0
10
19.3816625
20
10.0436
30
0
0
VERTEX
8
0
10
19.1436
20
10.281662500000001
30
0
0
VERTEX
8
0
10
19.1436
20
10.4442
30
0
0
VERTEX
8
0
10
19.1427875
20
10.44981875
30
0
42
0.39258815634569955
0
VERTEX
8
0
10
19.0674
20
10.5204
30
0
0
VERTEX
8
0
10
18.862596875
20
10.5204
30
0
0
VERTEX
8
0
10
18.856978125
20
10.5195875
30
0
42
0.33487945155198046
0
VERTEX
8
0
10
18.78851875
20
10.4595125
30
0
0
VERTEX
8
0
10
18.787115625000002
20
10.454653125
30
0
0
VERTEX
8
0
10
18.78711875
20
10.454065625
30
0
0
VERTEX
8
0
10
18.787115625000002
20
10.454053125
30
0
0
VERTEX
8
0
10
18.787140625
20
10.449575000000001
30
0
0
VERTEX
8
0
10
18.786396875
20
10.4442
30
0
0
VERTEX
8
0
10
18.786396875
20
10.0616625
30
0
0
VERTEX
8
0
10
18.548334375
20
9.8236
30
0
0
SEQEND
0
POLYLINE
66
1
8
1_copper
10
0.0
20
0.0
30
0.0
70
1
0
VERTEX
8
0
10
38.727390625000005
20
16.746000000000002
30
0
0
VERTEX
8
0
10
38.727390625000005
20
17
30
0
0
VERTEX
8
0
10
38.925000000000004
20
17
30
0
0
VERTEX
8
0
10
38.925000000000004
20
17.146800000000002
30
0
0
VERTEX
8
0
10
39.20348125
20
17.146800000000002
30
0
0
VERTEX
8
0
10
39.201415625
20
17.144371875
30
0
42
0.19743204655465413
0
VERTEX
8
0
10
39.178996875
20
17.0912
30
0
0
VERTEX
8
0
10
39.178996875
20
16.96655625
30
0
0
VERTEX
8
0
10
39.1616875
20
16.901959375
30
0
0
VERTEX
8
0
10
39.128246875
20
16.844037500000002
30
0
0
VERTEX
8
0
10
39.080959375
20
16.79675
30
0
0
VERTEX
8
0
10
39.0230375
20
16.763309375000002
30
0
0
VERTEX
8
0
10
38.958440625
20
16.746000000000002
30
0
0
SEQEND
0
POLYLINE
66
1
8
1_copper
10
0.0
20
0.0
30
0.0
70
1
0
VERTEX
8
0
10
35.246109375
20
16.58735625
30
0
0
VERTEX
8
0
10
35.2542125
20
16.587403125
30
0
42
0.018630635040271137
0
VERTEX
8
0
10
35.259790625
20
16.58845625
30
0
0
VERTEX
8
0
10
35.267321875
20
16.591350000000002
30
0
0
VERTEX
8
0
10
35.27505625
20
16.593678125
30
0
42
0.013506000305678011
0
VERTEX
8
0
10
35.280109375
20
16.5962625
30
0
0
VERTEX
8
0
10
35.287078125
20
16.6015375
30
0
0
VERTEX
8
0
10
35.293275
20
16.605587500000002
30
0
42
0.011917273506106944
0
VERTEX
8
0
10
35.296778125
20
16.608878125
30
0
0
VERTEX
8
0
10
35.325218750000005
20
16.637318750000002
30
0
42
0.03425096582670693
0
VERTEX
8
0
10
35.333425
20
16.64829375
30
0
0
VERTEX
8
0
10
35.338253125
20
16.65475
30
0
0
VERTEX
8
0
10
35.339246875
20
16.657428125
30
0
0
VERTEX
8
0
10
35.34078125
20
16.659834375
30
0
42
0.21835807281765654
0
VERTEX
8
0
10
35.340418750000005
20
16.723359375
30
0
0
VERTEX
8
0
10
35.336009375
20
16.730103125
30
0
0
VERTEX
8
0
10
35.332100000000004
20
16.737181250000003
30
0
42
0.1267738408553933
0
VERTEX
8
0
10
35.292043750000005
20
16.76453125
30
0
0
VERTEX
8
0
10
35.283381250000005
20
16.76573125
30
0
0
VERTEX
8
0
10
35.276140625000004
20
16.767246875
30
0
42
0.013723695775080761
0
VERTEX
8
0
10
35.2713375
20
16.767400000000002
30
0
0
VERTEX
8
0
10
35.242896875
20
16.767400000000002
30
0
42
0.4142135623730951
0
VERTEX
8
0
10
35.166696875
20
16.691200000000002
30
0
0
VERTEX
8
0
10
35.166696875
20
16.662759375
30
0
42
0.20954204703164725
0
VERTEX
8
0
10
35.20473125
20
16.59765
30
0
0
VERTEX
8
0
10
35.21153125
20
16.593315625000002
30
0
0
VERTEX
8
0
10
35.21426875
20
16.592525000000002
30
0
0
VERTEX
8
0
10
35.2167875
20
16.591171875
30
0
42
0.07178574287859048
0
VERTEX
8
0
10
35.238093750000004
20
16.5867125
30
0
0
SEQEND
0
POLYLINE
66
1
8
1_copper
10
0.0
20
0.0
30
0.0
70
1
0
VERTEX
8
0
10
19.640896875
20
15.1338
30
0
0
VERTEX
8
0
10
19.5532
20
15.221496875000001
30
0
0
VERTEX
8
0
10
19.5532
20
16.597453125
30
0
0
VERTEX
8
0
10
19.561400000000003
20
16.5968
30
0
0
VERTEX
8
0
10
20.4758
20
16.5968
30
0
0
VERTEX
8
0
10
20.4758
20
16.546
30
0
0
VERTEX
8
0
10
21.4537
20
16.546
30
0
0
VERTEX
8
0
10
21.4537
20
16.5968
30
0
0
VERTEX
8
0
10
21.61583125
20
16.5968
30
0
0
VERTEX
8
0
10
21.9968
20
16.21583125
30
0
0
VERTEX
8
0
10
21.9968
20
15.1338
30
0
0
SEQEND
0
POLYLINE
66
1
8
1_copper
10
0.0
20
0.0
30
0.0
70
1
0
VERTEX
8
0
10
27.9316625
20
10.143600000000001
30
0
0
VERTEX
8
0
10
27.6936
20
10.381662500000001
30
0
0
VERTEX
8
0
10
27.6936
20
12.518334375
30
0
0
VERTEX
8
0
10
27.9316625
20
12.756396875
30
0
0
VERTEX
8
0
10
28.2142
20
12.756396875
30
0
0
VERTEX
8
0
10
28.21981875
20
12.757209375
30
0
42
0.39258815634569955
0
VERTEX
8
0
10
28.2904
20
12.832596875
30
0
0
VERTEX
8
0
10
28.2904
20
14.221256250000001
30
0
0
VERTEX
8
0
10
28.38320625
20
14.445309375
30
0
0
VERTEX
8
0
10
28.82048125
20
14.882584375
30
0
0
VERTEX
8
0
10
28.825553125000003
20
14.889368750000001
30
0
0
VERTEX
8
0
10
28.831087500000002
20
14.89586875
30
0
42
0.087651452592134
0
VERTEX
8
0
10
28.841090625
20
14.920421875
30
0
0
VERTEX
8
0
10
28.841553125
20
14.927112500000002
30
0
0
VERTEX
8
0
10
28.84208125
20
14.928946875000001
30
0
0
VERTEX
8
0
10
28.842068750000003
20
14.931184375
30
0
0
VERTEX
8
0
10
28.8428
20
14.936465625
30
0
0
VERTEX
8
0
10
28.8428
20
15.1468
30
0
0
VERTEX
8
0
10
30.607400000000002
20
15.1468
30
0
0
VERTEX
8
0
10
30.607400000000002
20
15.096
30
0
0
VERTEX
8
0
10
31.483700000000002
20
15.096
30
0
0
VERTEX
8
0
10
31.483700000000002
20
15.1468
30
0
0
VERTEX
8
0
10
32.06583125
20
15.1468
30
0
0
VERTEX
8
0
10
32.0968
20
15.115831250000001
30
0
0
VERTEX
8
0
10
32.0968
20
12.350000000000001
30
0
0
VERTEX
8
0
10
30.900000000000002
20
12.350000000000001
30
0
0
VERTEX
8
0
10
30.900000000000002
20
10.55
30
0
0
VERTEX
8
0
10
32.5
20
10.55
30
0
0
VERTEX
8
0
10
32.5
20
11.305653125000001
30
0
0
VERTEX
8
0
10
32.50203125
20
11.304359375
30
0
42
0.10645983892892469
0
VERTEX
8
0
10
32.533396875
20
11.297603125
30
0
0
VERTEX
8
0
10
32.75399375
20
11.297603125
30
0
0
VERTEX
8
0
10
32.753996875
20
10.51655625
30
0
0
VERTEX
8
0
10
32.7366875
20
10.451959375000001
30
0
0
VERTEX
8
0
10
32.703246875000005
20
10.394037500000001
30
0
0
VERTEX
8
0
10
32.655959375
20
10.34675
30
0
0
VERTEX
8
0
10
32.598037500000004
20
10.313309375000001
30
0
0
VERTEX
8
0
10
32.533440625000004
20
10.296000000000001
30
0
0
VERTEX
8
0
10
32.224137500000005
20
10.296000000000001
30
0
0
VERTEX
8
0
10
32.2157125
20
10.294784375
30
0
0
VERTEX
8
0
10
32.207209375000005
20
10.294096875000001
30
0
42
0.015161292983595878
0
VERTEX
8
0
10
32.20259375
20
10.292890625
30
0
0
VERTEX
8
0
10
32.202396875
20
10.2928
30
0
0
VERTEX
8
0
10
30.04909375
20
10.2928
30
0
0
VERTEX
8
0
10
30.040684375
20
10.2915875
30
0
0
VERTEX
8
0
10
30.032200000000003
20
10.290903125
30
0
42
0.08765396656356698
0
VERTEX
8
0
10
30.007762500000002
20
10.28061875
30
0
0
VERTEX
8
0
10
30.002168750000003
20
10.275746875000001
30
0
0
VERTEX
8
0
10
29.9952125
20
10.270481250000001
30
0
0
VERTEX
8
0
10
29.868334375
20
10.143600000000001
30
0
0
SEQEND
0
POLYLINE
66
1
8
1_copper
10
0.0
20
0.0
30
0.0
70
1
0
VERTEX
8
0
10
24.5
20
14.002390625
30
0
0
VERTEX
8
0
10
24.5
20
14.65
30
0
0
VERTEX
8
0
10
23.752390625
20
14.65
30
0
0
VERTEX
8
0
10
23.752390625
20
14.903993750000001
30
0
0
VERTEX
8
0
10
24.533440625
20
14.903996875
30
0
0
VERTEX
8
0
10
24.5980375
20
14.8866875
30
0
0
VERTEX
8
0
10
24.655959375000002
20
14.853246875
30
0
0
VERTEX
8
0
10
24.703246875
20
14.805959375
30
0
0
VERTEX
8
0
10
24.736687500000002
20
14.7480375
30
0
0
VERTEX
8
0
10
24.753996875000002
20
14.683440625000001
30
0
0
VERTEX
8
0
10
24.753996875000002
20
14.002390625
30
0
0
SEQEND
0
POLYLINE
66
1
8
1_copper
10
0.0
20
0.0
30
0.0
70
1
0
VERTEX
8
0
10
22.446
20
14.2032
30
0
0
VERTEX
8
0
10
22.446
20
14.683440625000001
30
0
0
VERTEX
8
0
10
22.463309375
20
14.7480375
30
0
0
VERTEX
8
0
10
22.496750000000002
20
14.805959375
30
0
0
VERTEX
8
0
10
22.5440375
20
14.853246875
30
0
0
VERTEX
8
0
10
22.601959375
20
14.8866875
30
0
0
VERTEX
8
0
10
22.666556250000003
20
14.903996875
30
0
0
VERTEX
8
0
10
23.447603125
20
14.903996875
30
0
0
VERTEX
8
0
10
23.447603125
20
14.65
30
0
0
VERTEX
8
0
10
22.700000000000003
20
14.65
30
0
0
VERTEX
8
0
10
22.700000000000003
20
14.2032
30
0
0
SEQEND
0
POLYLINE
66
1
8
1_copper
10
0.0
20
0.0
30
0.0
70
1
0
VERTEX
8
0
10
21.150000000000002
20
14.2032
30
0
0
VERTEX
8
0
10
21.150000000000002
20
14.450000000000001
30
0
0
VERTEX
8
0
10
20.502390625
20
14.450000000000001
30
0
0
VERTEX
8
0
10
20.502390625
20
14.703996875000001
30
0
0
VERTEX
8
0
10
21.183440625
20
14.703996875000001
30
0
0
VERTEX
8
0
10
21.248037500000002
20
14.686687500000001
30
0
0
VERTEX
8
0
10
21.305959375
20
14.653246875
30
0
0
VERTEX
8
0
10
21.353246875
20
14.605959375000001
30
0
0
VERTEX
8
0
10
21.3866875
20
14.548037500000001
30
0
0
VERTEX
8
0
10
21.403996875
20
14.483440625
30
0
0
VERTEX
8
0
10
21.403996875
20
14.2032
30
0
0
SEQEND
0
POLYLINE
66
1
8
1_copper
10
0.0
20
0.0
30
0.0
70
1
0
VERTEX
8
0
10
20.18736875
20
14.450000000000001
30
0
0
VERTEX
8
0
10
19.933371875000002
20
14.703996875000001
30
0
0
VERTEX
8
0
10
20.197603125
20
14.703996875000001
30
0
0
VERTEX
8
0
10
20.197603125
20
14.450000000000001
30
0
0
SEQEND
0
POLYLINE
66
1
8
1_copper
10
0.0
20
0.0
30
0.0
70
1
0
VERTEX
8
0
10
19.296
20
14.2032
30
0
0
VERTEX
8
0
10
19.296
20
14.483440625
30
0
0
VERTEX
8
0
10
19.313309375
20
14.548037500000001
30
0
0
VERTEX
8
0
10
19.34675
20
14.605959375000001
30
0
0
VERTEX
8
0
10
19.3940375
20
14.653246875
30
0
0
VERTEX
8
0
10
19.403765625000002
20
14.658865625
30
0
0
VERTEX
8
0
10
19.61263125
20
14.450000000000001
30
0
0
VERTEX
8
0
10
19.55
20
14.450000000000001
30
0
0
VERTEX
8
0
10
19.55
20
14.2032
30
0
0
SEQEND
0
POLYLINE
66
1
8
1_copper
10
0.0
20
0.0
30
0.0
70
1
0
VERTEX
8
0
10
32.5
20
11.753200000000001
30
0
0
VERTEX
8
0
10
32.5
20
12.015287500000001
30
0
0
VERTEX
8
0
10
32.500631250000005
20
12.017790625
30
0
0
VERTEX
8
0
10
32.50129375
20
12.026115625000001
30
0
42
0.01805948283611007
0
VERTEX
8
0
10
32.502459375
20
12.040706250000001
30
0
0
VERTEX
8
0
10
32.5032
20
12.05
30
0
0
VERTEX
8
0
10
32.5032
20
12.603996875
30
0
0
VERTEX
8
0
10
32.533440625000004
20
12.603996875
30
0
0
VERTEX
8
0
10
32.598037500000004
20
12.5866875
30
0
0
VERTEX
8
0
10
32.655959375
20
12.553246875000001
30
0
0
VERTEX
8
0
10
32.703246875000005
20
12.505959375
30
0
0
VERTEX
8
0
10
32.7366875
20
12.4480375
30
0
0
VERTEX
8
0
10
32.753996875
20
12.383440625
30
0
0
VERTEX
8
0
10
32.753996875
20
11.753200000000001
30
0
0
SEQEND
0
POLYLINE
66
1
8
1_copper
10
0.0
20
0.0
30
0.0
70
1
0
VERTEX
8
0
10
43.62051875
20
5.8436
30
0
0
VERTEX
8
0
10
43.011721875
20
6.0957718750000005
30
0
0
VERTEX
8
0
10
42.545771875
20
6.561721875
30
0
0
VERTEX
8
0
10
42.534656250000005
20
6.588559375
30
0
0
VERTEX
8
0
10
42.534271875
20
6.58920625
30
0
0
VERTEX
8
0
10
42.534165625
20
6.589559375
30
0
0
VERTEX
8
0
10
42.533746875
20
6.5902
30
0
0
VERTEX
8
0
10
42.5333375
20
6.591559375
30
0
42
0.21834951233821367
0
VERTEX
8
0
10
42.4849625
20
6.63273125
30
0
0
VERTEX
8
0
10
42.474415625
20
6.6341937500000006
30
0
0
VERTEX
8
0
10
42.466662500000005
20
6.635562500000001
30
0
42
0.007895945717277726
0
VERTEX
8
0
10
42.464256250000005
20
6.6356
30
0
0
VERTEX
8
0
10
41.669525
20
6.6356
30
0
0
VERTEX
8
0
10
41.661115625
20
6.6343875
30
0
0
VERTEX
8
0
10
41.65263125
20
6.633703125
30
0
42
0.08765396656356698
0
VERTEX
8
0
10
41.62819375
20
6.62341875
30
0
0
VERTEX
8
0
10
41.6226
20
6.618546875000001
30
0
0
VERTEX
8
0
10
41.615643750000004
20
6.61328125
30
0
0
VERTEX
8
0
10
41.383965625
20
6.381600000000001
30
0
0
VERTEX
8
0
10
40.41603125
20
6.381600000000001
30
0
0
VERTEX
8
0
10
39.91135
20
6.886281250000001
30
0
0
VERTEX
8
0
10
39.904565625000004
20
6.891353125
30
0
0
VERTEX
8
0
10
39.898065625
20
6.8968875
30
0
42
0.087651452592134
0
VERTEX
8
0
10
39.873512500000004
20
6.906890625
30
0
0
VERTEX
8
0
10
39.8661375
20
6.9074
30
0
0
VERTEX
8
0
10
39.85746875
20
6.908600000000001
30
0
0
VERTEX
8
0
10
16.182596875
20
6.908600000000001
30
0
0
VERTEX
8
0
10
16.176978125
20
6.9077875
30
0
42
0.39258815634569955
0
VERTEX
8
0
10
16.106396875
20
6.832400000000001
30
0
0
VERTEX
8
0
10
16.106396875
20
6.3816625
30
0
0
VERTEX
8
0
10
15.868334375
20
6.1436
30
0
0
VERTEX
8
0
10
14.207662500000001
20
6.1436
30
0
0
VERTEX
8
0
10
14.199234375000001
20
6.142384375000001
30
0
0
VERTEX
8
0
10
14.19076875
20
6.141703125
30
0
0
VERTEX
8
0
10
14.1885125
20
6.1408375
30
0
0
VERTEX
8
0
10
14.18611875
20
6.140490625
30
0
42
0.053308316901286956
0
VERTEX
8
0
10
14.16633125
20
6.13141875
30
0
0
VERTEX
8
0
10
14.160737500000002
20
6.126546875000001
30
0
0
VERTEX
8
0
10
14.153781250000002
20
6.12128125
30
0
0
VERTEX
8
0
10
14.1499
20
6.1174
30
0
0
VERTEX
8
0
10
12.650096875000001
20
6.1174
30
0
0
VERTEX
8
0
10
12.493815625
20
6.27368125
30
0
0
VERTEX
8
0
10
12.487031250000001
20
6.278753125000001
30
0
0
VERTEX
8
0
10
12.48053125
20
6.2842875000000005
30
0
42
0.087651452592134
0
VERTEX
8
0
10
12.455978125000001
20
6.294290625
30
0
0
VERTEX
8
0
10
12.448603125
20
6.2948
30
0
0
VERTEX
8
0
10
12.439934375
20
6.296
30
0
0
VERTEX
8
0
10
12.252390625
20
6.296
30
0
0
VERTEX
8
0
10
12.252390625
20
6.550000000000001
30
0
0
VERTEX
8
0
10
12.9
20
6.550000000000001
30
0
0
VERTEX
8
0
10
12.9
20
8.35
30
0
0
VERTEX
8
0
10
12.252390625
20
8.35
30
0
0
VERTEX
8
0
10
12.252390625
20
8.603996875
30
0
0
VERTEX
8
0
10
12.389934375000001
20
8.603996875
30
0
0
VERTEX
8
0
10
12.398362500000001
20
8.6052125
30
0
0
VERTEX
8
0
10
12.406828125
20
8.60589375
30
0
42
0.08765396656356698
0
VERTEX
8
0
10
12.431265625
20
8.616178125000001
30
0
0
VERTEX
8
0
10
12.436859375000001
20
8.62105
30
0
0
VERTEX
8
0
10
12.443815625000001
20
8.626315625
30
0
0
VERTEX
8
0
10
12.600096875
20
8.782596875000001
30
0
0
VERTEX
8
0
10
13.668534375
20
8.782596875000001
30
0
0
VERTEX
8
0
10
13.6769625
20
8.7838125
30
0
0
VERTEX
8
0
10
13.685428125000001
20
8.784493750000001
30
0
42
0.08765396656356698
0
VERTEX
8
0
10
13.709865625
20
8.794778125
30
0
0
VERTEX
8
0
10
13.715459375
20
8.79965
30
0
0
VERTEX
8
0
10
13.722415625
20
8.804915625
30
0
0
VERTEX
8
0
10
13.750096875
20
8.832596875
30
0
0
VERTEX
8
0
10
13.9586
20
8.832596875
30
0
0
VERTEX
8
0
10
13.96421875
20
8.833409375
30
0
42
0.39258815634569955
0
VERTEX
8
0
10
14.0348
20
8.908796875
30
0
0
VERTEX
8
0
10
14.0348
20
9.7474
30
0
0
VERTEX
8
0
10
14.0339875
20
9.75301875
30
0
42
0.39258815634569955
0
VERTEX
8
0
10
13.9586
20
9.8236
30
0
0
VERTEX
8
0
10
13.8116625
20
9.8236
30
0
0
VERTEX
8
0
10
13.5736
20
10.0616625
30
0
0
VERTEX
8
0
10
13.5736
20
12.198334375
30
0
0
VERTEX
8
0
10
13.8116625
20
12.436396875
30
0
0
VERTEX
8
0
10
15.748334375
20
12.436396875
30
0
0
VERTEX
8
0
10
15.986396875
20
12.198334375
30
0
0
VERTEX
8
0
10
15.986396875
20
10.0616625
30
0
0
VERTEX
8
0
10
15.748334375
20
9.8236
30
0
0
VERTEX
8
0
10
15.431796875
20
9.8236
30
0
0
VERTEX
8
0
10
15.426178125
20
9.8227875
30
0
42
0.39258815634569955
0
VERTEX
8
0
10
15.355596875000002
20
9.7474
30
0
0
VERTEX
8
0
10
15.355596875000002
20
9.067596875
30
0
0
VERTEX
8
0
10
15.356409375
20
9.061978125
30
0
42
0.39258815634569955
0
VERTEX
8
0
10
15.431796875
20
8.991396875000001
30
0
0
VERTEX
8
0
10
40.707146875
20
8.991396875000001
30
0
0
VERTEX
8
0
10
41.08990625
20
8.832853125
30
0
0
VERTEX
8
0
10
41.182043750000005
20
8.740715625
30
0
0
VERTEX
8
0
10
41.188828125
20
8.735643750000001
30
0
0
VERTEX
8
0
10
41.195328125
20
8.730109375
30
0
42
0.087651452592134
0
VERTEX
8
0
10
41.21988125
20
8.72010625
30
0
0
VERTEX
8
0
10
41.22725625
20
8.719596875
30
0
0
VERTEX
8
0
10
41.235925
20
8.718396875
30
0
0
VERTEX
8
0
10
41.383965625
20
8.718396875
30
0
0
VERTEX
8
0
10
41.615643750000004
20
8.486715625
30
0
0
VERTEX
8
0
10
41.622428125
20
8.48164375
30
0
0
VERTEX
8
0
10
41.628928125
20
8.476109375
30
0
42
0.087651452592134
0
VERTEX
8
0
10
41.65348125
20
8.466106250000001
30
0
0
VERTEX
8
0
10
41.66085625
20
8.465596875000001
30
0
0
VERTEX
8
0
10
41.669525
20
8.464396875
30
0
0
VERTEX
8
0
10
42.54033125
20
8.464396875
30
0
0
VERTEX
8
0
10
42.548759375
20
8.4656125
30
0
0
VERTEX
8
0
10
42.557225
20
8.46629375
30
0
42
0.08765396656356698
0
VERTEX
8
0
10
42.5816625
20
8.476578125
30
0
0
VERTEX
8
0
10
42.58725625
20
8.48145
30
0
0
VERTEX
8
0
10
42.594212500000005
20
8.486715625
30
0
0
VERTEX
8
0
10
43.011721875
20
8.904225
30
0
0
VERTEX
8
0
10
43.62051875
20
9.156396875
30
0
0
VERTEX
8
0
10
44.279478125000004
20
9.156396875
30
0
0
VERTEX
8
0
10
44.888275
20
8.904225
30
0
0
VERTEX
8
0
10
45.354225
20
8.438275
30
0
0
VERTEX
8
0
10
45.606396875
20
7.8294781250000005
30
0
0
VERTEX
8
0
10
45.606396875
20
7.17051875
30
0
0
VERTEX
8
0
10
45.354225
20
6.561721875
30
0
0
VERTEX
8
0
10
44.888275
20
6.0957718750000005
30
0
0
VERTEX
8
0
10
44.279478125000004
20
5.8436
30
0
0
SEQEND
0
POLYLINE
66
1
8
1_copper
10
0.0
20
0.0
30
0.0
70
1
0
VERTEX
8
0
10
6.783996875000001
20
8.102393750000001
30
0
0
VERTEX
8
0
10
6.784000000000001
20
8.3708375
30
0
0
VERTEX
8
0
10
7.379159375
20
8.965996875
30
0
0
VERTEX
8
0
10
7.647600000000001
20
8.965996875
30
0
0
VERTEX
8
0
10
7.647600000000001
20
8.712
30
0
0
VERTEX
8
0
10
7.484371875000001
20
8.712
30
0
0
VERTEX
8
0
10
7.038
20
8.265628125000001
30
0
0
VERTEX
8
0
10
7.038
20
8.102393750000001
30
0
0
SEQEND
0
POLYLINE
66
1
8
1_copper
10
0.0
20
0.0
30
0.0
70
1
0
VERTEX
8
0
10
8.242628125
20
8.585
30
0
0
VERTEX
8
0
10
8.115628125
20
8.712
30
0
0
VERTEX
8
0
10
7.952393750000001
20
8.712
30
0
0
VERTEX
8
0
10
7.952393750000001
20
8.96599375
30
0
0
VERTEX
8
0
10
8.2208375
20
8.965996875
30
0
0
VERTEX
8
0
10
8.601834375000001
20
8.585
30
0
0
SEQEND
0
POLYLINE
66
1
8
1_copper
10
0.0
20
0.0
30
0.0
70
1
0
VERTEX
8
0
10
11.9431125
20
8.404353125
30
0
0
VERTEX
8
0
10
11.9376125
20
8.410131250000001
30
0
42
0.17539971942470112
0
VERTEX
8
0
10
11.54174375
20
8.583625
30
0
0
VERTEX
8
0
10
11.5
20
8.585
30
0
0
VERTEX
8
0
10
11.199037500000001
20
8.585
30
0
0
VERTEX
8
0
10
11.201959375000001
20
8.5866875
30
0
0
VERTEX
8
0
10
11.26655625
20
8.603996875
30
0
0
VERTEX
8
0
10
11.947603125
20
8.603996875
30
0
0
VERTEX
8
0
10
11.947603125
20
8.400287500000001
30
0
0
SEQEND
0
POLYLINE
66
1
8
1_copper
10
0.0
20
0.0
30
0.0
70
1
0
VERTEX
8
0
10
7.379159375
20
6.934
30
0
0
VERTEX
8
0
10
6.784000000000001
20
7.529159375000001
30
0
0
VERTEX
8
0
10
6.783996875000001
20
7.7976
30
0
0
VERTEX
8
0
10
7.038
20
7.7976
30
0
0
VERTEX
8
0
10
7.038
20
7.634371875
30
0
0
VERTEX
8
0
10
7.484371875000001
20
7.188000000000001
30
0
0
VERTEX
8
0
10
7.647600000000001
20
7.188000000000001
30
0
0
VERTEX
8
0
10
7.647600000000001
20
6.934
30
0
0
SEQEND
0
POLYLINE
66
1
8
1_copper
10
0.0
20
0.0
30
0.0
70
1
0
VERTEX
8
0
10
7.952393750000001
20
6.934
30
0
0
VERTEX
8
0
10
7.952393750000001
20
7.188000000000001
30
0
0
VERTEX
8
0
10
8.115628125
20
7.188000000000001
30
0
0
VERTEX
8
0
10
8.242628125
20
7.315
30
0
0
VERTEX
8
0
10
8.6018375
20
7.315
30
0
0
VERTEX
8
0
10
8.2208375
20
6.934
30
0
0
SEQEND
0
POLYLINE
66
1
8
1_copper
10
0.0
20
0.0
30
0.0
70
1
0
VERTEX
8
0
10
11.26655625
20
6.296
30
0
0
VERTEX
8
0
10
11.201959375000001
20
6.313309375
30
0
0
VERTEX
8
0
10
11.144037500000001
20
6.34675
30
0
0
VERTEX
8
0
10
11.09675
20
6.3940375000000005
30
0
0
VERTEX
8
0
10
11.063309375000001
20
6.451959375
30
0
0
VERTEX
8
0
10
11.046000000000001
20
6.516556250000001
30
0
0
VERTEX
8
0
10
11.045996875
20
7.297603125
30
0
0
VERTEX
8
0
10
11.254371875
20
7.297603125
30
0
0
VERTEX
8
0
10
11.3
20
7.251975000000001
30
0
0
VERTEX
8
0
10
11.3
20
6.550000000000001
30
0
0
VERTEX
8
0
10
11.947603125
20
6.550000000000001
30
0
0
VERTEX
8
0
10
11.947603125
20
6.296
30
0
0
SEQEND
0
POLYLINE
66
1
8
16_copper
10
0.0
20
0.0
30
0.0
70
1
0
VERTEX
8
0
10
7.847034375000001
20
13.607706250000001
30
0
42
0.9999999999999999
0
VERTEX
8
0
10
7.552965625000001
20
16.09229375
30
0
0
VERTEX
8
0
10
7.4559500000000005
20
16.076928125000002
30
0
42
0.9243908702985089
0
VERTEX
8
0
10
7.749112500000001
20
13.600000000000001
30
0
0
SEQEND
0
POLYLINE
66
1
8
16_copper
10
0.0
20
0.0
30
0.0
70
1
0
VERTEX
8
0
10
8.562000000000001
20
7.634371875
30
0
0
VERTEX
8
0
10
8.562000000000001
20
8.265628125000001
30
0
0
VERTEX
8
0
10
8.115628125
20
8.712
30
0
0
VERTEX
8
0
10
7.484371875000001
20
8.712
30
0
0
VERTEX
8
0
10
7.038
20
8.265628125000001
30
0
0
VERTEX
8
0
10
7.038
20
7.634371875
30
0
0
VERTEX
8
0
10
7.484371875000001
20
7.188000000000001
30
0
0
VERTEX
8
0
10
8.115628125
20
7.188000000000001
30
0
0
SEQEND
0
POLYLINE
66
1
8
1_copper
10
0.0
20
0.0
30
0.0
70
1
0
VERTEX
8
0
10
29.700000000000003
20
12.350000000000001
30
0
0
VERTEX
8
0
10
29.1032
20
12.350000000000001
30
0
0
VERTEX
8
0
10
29.1032
20
14.015831250000002
30
0
0
VERTEX
8
0
10
29.284168750000003
20
14.196800000000001
30
0
0
VERTEX
8
0
10
30.607400000000002
20
14.196800000000001
30
0
0
VERTEX
8
0
10
30.607400000000002
20
14.146
30
0
0
VERTEX
8
0
10
31.483700000000002
20
14.146
30
0
0
VERTEX
8
0
10
31.483700000000002
20
14.654
30
0
0
VERTEX
8
0
10
30.607400000000002
20
14.654
30
0
0
VERTEX
8
0
10
30.607400000000002
20
14.603200000000001
30
0
0
VERTEX
8
0
10
29.200000000000003
20
14.603200000000001
30
0
0
VERTEX
8
0
10
29.189896875000002
20
14.6023125
30
0
0
VERTEX
8
0
10
29.179734375000002
20
14.602187500000001
30
0
42
0.13234210275356545
0
VERTEX
8
0
10
29.080909375
20
14.56464375
30
0
0
VERTEX
8
0
10
29.07454375
20
14.559218750000001
30
0
42
0.018023900800285427
0
VERTEX
8
0
10
29.063425000000002
20
14.549743750000001
30
0
0
VERTEX
8
0
10
29.056315625
20
14.543684375000002
30
0
0
VERTEX
8
0
10
28.756315625000003
20
14.243684375
30
0
0
VERTEX
8
0
10
28.749784375
20
14.23589375
30
0
0
VERTEX
8
0
10
28.742703125000002
20
14.228637500000001
30
0
42
0.13234447677005623
0
VERTEX
8
0
10
28.69936875
20
14.132209375
30
0
0
VERTEX
8
0
10
28.69870625
20
14.123884375000001
30
0
42
0.01805948283611007
0
VERTEX
8
0
10
28.697540625000002
20
14.10929375
30
0
0
VERTEX
8
0
10
28.6968
20
14.100000000000001
30
0
0
VERTEX
8
0
10
28.6968
20
12.350000000000001
30
0
0
VERTEX
8
0
10
28.1
20
12.350000000000001
30
0
0
VERTEX
8
0
10
28.1
20
10.55
30
0
0
VERTEX
8
0
10
29.700000000000003
20
10.55
30
0
0
SEQEND
0
POLYLINE
66
1
8
1_copper
10
0.0
20
0.0
30
0.0
70
1
0
VERTEX
8
0
10
40.5
20
12.200000000000001
30
0
0
VERTEX
8
0
10
38.7
20
12.200000000000001
30
0
0
VERTEX
8
0
10
38.7
20
11.603200000000001
30
0
0
VERTEX
8
0
10
37.800000000000004
20
11.603200000000001
30
0
0
VERTEX
8
0
10
37.800000000000004
20
12.450000000000001
30
0
0
VERTEX
8
0
10
37.2032
20
12.450000000000001
30
0
0
VERTEX
8
0
10
37.2032
20
14.100000000000001
30
0
0
VERTEX
8
0
10
37.202312500000005
20
14.110103125
30
0
0
VERTEX
8
0
10
37.2021875
20
14.120265625
30
0
42
0.13234210275356545
0
VERTEX
8
0
10
37.16464375
20
14.219090625000002
30
0
0
VERTEX
8
0
10
37.15921875
20
14.22545625
30
0
42
0.018023900800285427
0
VERTEX
8
0
10
37.14974375
20
14.236575
30
0
0
VERTEX
8
0
10
37.143684375
20
14.243684375
30
0
0
VERTEX
8
0
10
36.843684375
20
14.543684375000002
30
0
0
VERTEX
8
0
10
36.835893750000004
20
14.550215625
30
0
0
VERTEX
8
0
10
36.8286375
20
14.557296875
30
0
42
0.13234447677005623
0
VERTEX
8
0
10
36.732209375000004
20
14.600631250000001
30
0
0
VERTEX
8
0
10
36.723884375000004
20
14.60129375
30
0
42
0.01805948283611007
0
VERTEX
8
0
10
36.70929375
20
14.602459375
30
0
0
VERTEX
8
0
10
36.7
20
14.603200000000001
30
0
0
VERTEX
8
0
10
34.1126
20
14.603200000000001
30
0
0
VERTEX
8
0
10
34.1126
20
14.654
30
0
0
VERTEX
8
0
10
33.2363
20
14.654
30
0
0
VERTEX
8
0
10
33.2363
20
14.146
30
0
0
VERTEX
8
0
10
34.1126
20
14.146
30
0
0
VERTEX
8
0
10
34.1126
20
14.196800000000001
30
0
0
VERTEX
8
0
10
36.61583125
20
14.196800000000001
30
0
0
VERTEX
8
0
10
36.796800000000005
20
14.015831250000002
30
0
0
VERTEX
8
0
10
36.796800000000005
20
12.450000000000001
30
0
0
VERTEX
8
0
10
36.2
20
12.450000000000001
30
0
0
VERTEX
8
0
10
36.2
20
10.65
30
0
0
VERTEX
8
0
10
37.800000000000004
20
10.65
30
0
0
VERTEX
8
0
10
37.800000000000004
20
11.196800000000001
30
0
0
VERTEX
8
0
10
38.7
20
11.196800000000001
30
0
0
VERTEX
8
0
10
38.7
20
10.6
30
0
0
VERTEX
8
0
10
40.5
20
10.6
30
0
0
SEQEND
0
POLYLINE
66
1
8
1_copper
10
0.0
20
0.0
30
0.0
70
1
0
VERTEX
8
0
10
34.1126
20
16.0968
30
0
0
VERTEX
8
0
10
34.224450000000004
20
16.0968
30
0
0
VERTEX
8
0
10
34.234553125000005
20
16.0976875
30
0
0
VERTEX
8
0
10
34.244715625000005
20
16.0978125
30
0
42
0.13234210275356545
0
VERTEX
8
0
10
34.343540625
20
16.13535625
30
0
0
VERTEX
8
0
10
34.349906250000004
20
16.14078125
30
0
42
0.018023900800285427
0
VERTEX
8
0
10
34.361025000000005
20
16.15025625
30
0
0
VERTEX
8
0
10
34.368134375000004
20
16.156315625
30
0
0
VERTEX
8
0
10
34.593684375
20
16.381865625
30
0
0
VERTEX
8
0
10
34.600215625000004
20
16.38965625
30
0
0
VERTEX
8
0
10
34.607296875
20
16.3969125
30
0
42
0.13234447677005623
0
VERTEX
8
0
10
34.65063125
20
16.493340625000002
30
0
0
VERTEX
8
0
10
34.65129375
20
16.501665625
30
0
42
0.01805948283611007
0
VERTEX
8
0
10
34.652459375
20
16.51625625
30
0
0
VERTEX
8
0
10
34.6532
20
16.52555
30
0
0
VERTEX
8
0
10
34.6532
20
17.8
30
0
0
VERTEX
8
0
10
34.6523125
20
17.810103125
30
0
0
VERTEX
8
0
10
34.652187500000004
20
17.820265625
30
0
42
0.13234210275356545
0
VERTEX
8
0
10
34.61464375
20
17.919090625000003
30
0
0
VERTEX
8
0
10
34.609218750000004
20
17.92545625
30
0
42
0.018023900800285427
0
VERTEX
8
0
10
34.59974375
20
17.936575
30
0
0
VERTEX
8
0
10
34.593684375
20
17.943684375
30
0
0
VERTEX
8
0
10
33.9032
20
18.63416875
30
0
0
VERTEX
8
0
10
33.9032
20
20.61583125
30
0
0
VERTEX
8
0
10
34.38416875
20
21.0968
30
0
0
VERTEX
8
0
10
36.31583125
20
21.0968
30
0
0
VERTEX
8
0
10
37.4968
20
19.91583125
30
0
0
VERTEX
8
0
10
37.4968
20
18.7
30
0
0
VERTEX
8
0
10
37.497687500000005
20
18.689896875000002
30
0
0
VERTEX
8
0
10
37.4978125
20
18.679734375000002
30
0
42
0.13234210275356545
0
VERTEX
8
0
10
37.53535625
20
18.580909375
30
0
0
VERTEX
8
0
10
37.54078125
20
18.57454375
30
0
42
0.018023900800285427
0
VERTEX
8
0
10
37.550256250000004
20
18.563425000000002
30
0
0
VERTEX
8
0
10
37.556315625
20
18.556315625
30
0
0
VERTEX
8
0
10
37.606315625
20
18.506315625
30
0
42
0.038269306337082684
0
VERTEX
8
0
10
37.6336
20
18.48344375
30
0
0
VERTEX
8
0
10
37.6424
20
18.478378125000003
30
0
0
VERTEX
8
0
10
37.650790625
20
18.472665625
30
0
42
0.0879472418513558
0
VERTEX
8
0
10
37.717790625
20
18.44936875
30
0
0
VERTEX
8
0
10
37.726115625
20
18.44870625
30
0
42
0.01805948283611007
0
VERTEX
8
0
10
37.74070625
20
18.447540625000002
30
0
0
VERTEX
8
0
10
37.75
20
18.4468
30
0
0
VERTEX
8
0
10
38.225
20
18.4468
30
0
0
VERTEX
8
0
10
38.225
20
18.3
30
0
0
VERTEX
8
0
10
38.925000000000004
20
18.3
30
0
0
VERTEX
8
0
10
38.925000000000004
20
19
30
0
0
VERTEX
8
0
10
38.225
20
19
30
0
0
VERTEX
8
0
10
38.225
20
18.8532
30
0
0
VERTEX
8
0
10
37.903200000000005
20
18.8532
30
0
0
VERTEX
8
0
10
37.903200000000005
20
20
30
0
0
VERTEX
8
0
10
37.9023125
20
20.010103125
30
0
0
VERTEX
8
0
10
37.902187500000004
20
20.020265625
30
0
42
0.13234210275356545
0
VERTEX
8
0
10
37.86464375
20
20.119090625000002
30
0
0
VERTEX
8
0
10
37.859218750000004
20
20.125456250000003
30
0
42
0.018023900800285427
0
VERTEX
8
0
10
37.84974375
20
20.136575
30
0
0
VERTEX
8
0
10
37.843684375
20
20.143684375
30
0
0
VERTEX
8
0
10
36.543684375000005
20
21.443684375
30
0
0
VERTEX
8
0
10
36.53589375
20
21.450215625000002
30
0
0
VERTEX
8
0
10
36.5286375
20
21.457296875
30
0
42
0.13234447677005623
0
VERTEX
8
0
10
36.432209375
20
21.50063125
30
0
0
VERTEX
8
0
10
36.423884375
20
21.501293750000002
30
0
42
0.01805948283611007
0
VERTEX
8
0
10
36.40929375
20
21.502459375
30
0
0
VERTEX
8
0
10
36.4
20
21.5032
30
0
0
VERTEX
8
0
10
34.300000000000004
20
21.5032
30
0
0
VERTEX
8
0
10
34.289896875000004
20
21.502312500000002
30
0
0
VERTEX
8
0
10
34.279734375000004
20
21.5021875
30
0
42
0.13234210275356545
0
VERTEX
8
0
10
34.180909375
20
21.46464375
30
0
0
VERTEX
8
0
10
34.174543750000005
20
21.45921875
30
0
42
0.018023900800285427
0
VERTEX
8
0
10
34.163425000000004
20
21.44974375
30
0
0
VERTEX
8
0
10
34.156315625000005
20
21.443684375
30
0
0
VERTEX
8
0
10
33.556315625
20
20.843684375000002
30
0
0
VERTEX
8
0
10
33.549784375
20
20.83589375
30
0
0
VERTEX
8
0
10
33.542703125
20
20.8286375
30
0
42
0.13234447677005623
0
VERTEX
8
0
10
33.49936875
20
20.732209375
30
0
0
VERTEX
8
0
10
33.498706250000005
20
20.723884375
30
0
42
0.01805948283611007
0
VERTEX
8
0
10
33.497540625
20
20.70929375
30
0
0
VERTEX
8
0
10
33.4968
20
20.7
30
0
0
VERTEX
8
0
10
33.4968
20
18.55
30
0
0
VERTEX
8
0
10
33.497687500000005
20
18.539896875
30
0
0
VERTEX
8
0
10
33.4978125
20
18.529734375
30
0
42
0.13234210275356545
0
VERTEX
8
0
10
33.53535625
20
18.430909375000002
30
0
0
VERTEX
8
0
10
33.54078125
20
18.42454375
30
0
42
0.018023900800285427
0
VERTEX
8
0
10
33.550256250000004
20
18.413425
30
0
0
VERTEX
8
0
10
33.556315625
20
18.406315625
30
0
0
VERTEX
8
0
10
34.2468
20
17.71583125
30
0
0
VERTEX
8
0
10
34.2468
20
16.609718750000003
30
0
0
VERTEX
8
0
10
34.14028125
20
16.5032
30
0
0
VERTEX
8
0
10
34.1126
20
16.5032
30
0
0
VERTEX
8
0
10
34.1126
20
16.554000000000002
30
0
0
VERTEX
8
0
10
33.2363
20
16.554000000000002
30
0
0
VERTEX
8
0
10
33.2363
20
16.046
30
0
0
VERTEX
8
0
10
34.1126
20
16.046
30
0
0
SEQEND
0
POLYLINE
66
1
8
1_copper
10
0.0
20
0.0
30
0.0
70
1
0
VERTEX
8
0
10
31.483700000000002
20
16.554000000000002
30
0
0
VERTEX
8
0
10
30.607400000000002
20
16.554000000000002
30
0
0
VERTEX
8
0
10
30.607400000000002
20
16.5032
30
0
0
VERTEX
8
0
10
29.43416875
20
16.5032
30
0
0
VERTEX
8
0
10
27.093684375000002
20
18.843684375000002
30
0
0
VERTEX
8
0
10
27.08589375
20
18.850215625
30
0
0
VERTEX
8
0
10
27.078637500000003
20
18.857296875
30
0
42
0.13234447677005623
0
VERTEX
8
0
10
26.982209375
20
18.90063125
30
0
0
VERTEX
8
0
10
26.973884375
20
18.90129375
30
0
42
0.01805948283611007
0
VERTEX
8
0
10
26.95929375
20
18.902459375
30
0
0
VERTEX
8
0
10
26.950000000000003
20
18.903200000000002
30
0
0
VERTEX
8
0
10
24.1842
20
18.903200000000002
30
0
0
VERTEX
8
0
10
24.1842
20
18.954
30
0
0
VERTEX
8
0
10
23.206300000000002
20
18.954
30
0
0
VERTEX
8
0
10
23.206300000000002
20
18.446
30
0
0
VERTEX
8
0
10
24.1842
20
18.446
30
0
0
VERTEX
8
0
10
24.1842
20
18.4968
30
0
0
VERTEX
8
0
10
26.865831250000003
20
18.4968
30
0
0
VERTEX
8
0
10
29.206315625000002
20
16.156315625
30
0
0
VERTEX
8
0
10
29.21410625
20
16.149784375
30
0
0
VERTEX
8
0
10
29.2213625
20
16.142703125
30
0
42
0.13234447677005623
0
VERTEX
8
0
10
29.317790625
20
16.09936875
30
0
0
VERTEX
8
0
10
29.326115625
20
16.09870625
30
0
42
0.01805948283611007
0
VERTEX
8
0
10
29.34070625
20
16.097540625
30
0
0
VERTEX
8
0
10
29.35
20
16.0968
30
0
0
VERTEX
8
0
10
30.607400000000002
20
16.0968
30
0
0
VERTEX
8
0
10
30.607400000000002
20
16.046
30
0
0
VERTEX
8
0
10
31.483700000000002
20
16.046
30
0
0
SEQEND
0
POLYLINE
66
1
8
1_copper
10
0.0
20
0.0
30
0.0
70
1
0
VERTEX
8
0
10
18.380000000000003
20
10.9268
30
0
0
VERTEX
8
0
10
19.55
20
10.9268
30
0
0
VERTEX
8
0
10
19.55
20
10.450000000000001
30
0
0
VERTEX
8
0
10
21.150000000000002
20
10.450000000000001
30
0
0
VERTEX
8
0
10
21.150000000000002
20
10.6968
30
0
0
VERTEX
8
0
10
22.700000000000003
20
10.6968
30
0
0
VERTEX
8
0
10
22.700000000000003
20
10.25
30
0
0
VERTEX
8
0
10
24.5
20
10.25
30
0
0
VERTEX
8
0
10
24.5
20
10.8468
30
0
0
VERTEX
8
0
10
25.05
20
10.8468
30
0
0
VERTEX
8
0
10
25.060103125
20
10.847687500000001
30
0
0
VERTEX
8
0
10
25.070265625
20
10.8478125
30
0
42
0.13234210275356545
0
VERTEX
8
0
10
25.169090625000003
20
10.885356250000001
30
0
0
VERTEX
8
0
10
25.17545625
20
10.89078125
30
0
42
0.018023900800285427
0
VERTEX
8
0
10
25.186575
20
10.90025625
30
0
0
VERTEX
8
0
10
25.193684375
20
10.906315625000001
30
0
0
VERTEX
8
0
10
25.843684375000002
20
11.556315625
30
0
0
VERTEX
8
0
10
25.850215625
20
11.56410625
30
0
0
VERTEX
8
0
10
25.857296875000003
20
11.571362500000001
30
0
42
0.13234447677005623
0
VERTEX
8
0
10
25.90063125
20
11.667790625
30
0
0
VERTEX
8
0
10
25.90129375
20
11.676115625000001
30
0
42
0.01805948283611007
0
VERTEX
8
0
10
25.902459375000003
20
11.69070625
30
0
0
VERTEX
8
0
10
25.903200000000002
20
11.700000000000001
30
0
0
VERTEX
8
0
10
25.903200000000002
20
16.2
30
0
0
VERTEX
8
0
10
25.9023125
20
16.210103125
30
0
0
VERTEX
8
0
10
25.9021875
20
16.220265625
30
0
42
0.13234210275356545
0
VERTEX
8
0
10
25.864643750000003
20
16.319090625
30
0
0
VERTEX
8
0
10
25.85921875
20
16.325456250000002
30
0
42
0.018023900800285427
0
VERTEX
8
0
10
25.849743750000002
20
16.336575
30
0
0
VERTEX
8
0
10
25.843684375000002
20
16.343684375000002
30
0
0
VERTEX
8
0
10
25.243684375
20
16.943684375
30
0
0
VERTEX
8
0
10
25.235893750000002
20
16.950215625000002
30
0
0
VERTEX
8
0
10
25.2286375
20
16.957296875
30
0
42
0.13234447677005623
0
VERTEX
8
0
10
25.132209375000002
20
17.00063125
30
0
0
VERTEX
8
0
10
25.123884375000003
20
17.001293750000002
30
0
42
0.01805948283611007
0
VERTEX
8
0
10
25.109293750000003
20
17.002459375
30
0
0
VERTEX
8
0
10
25.1
20
17.0032
30
0
0
VERTEX
8
0
10
24.1842
20
17.0032
30
0
0
VERTEX
8
0
10
24.1842
20
17.054000000000002
30
0
0
VERTEX
8
0
10
23.206300000000002
20
17.054000000000002
30
0
0
VERTEX
8
0
10
23.206300000000002
20
16.546
30
0
0
VERTEX
8
0
10
24.1842
20
16.546
30
0
0
VERTEX
8
0
10
24.1842
20
16.5968
30
0
0
VERTEX
8
0
10
25.01583125
20
16.5968
30
0
0
VERTEX
8
0
10
25.4968
20
16.11583125
30
0
0
VERTEX
8
0
10
25.4968
20
11.784168750000001
30
0
0
VERTEX
8
0
10
24.96583125
20
11.253200000000001
30
0
0
VERTEX
8
0
10
24.5
20
11.253200000000001
30
0
0
VERTEX
8
0
10
24.5
20
11.850000000000001
30
0
0
VERTEX
8
0
10
22.700000000000003
20
11.850000000000001
30
0
0
VERTEX
8
0
10
22.700000000000003
20
11.103200000000001
30
0
0
VERTEX
8
0
10
21.150000000000002
20
11.103200000000001
30
0
0
VERTEX
8
0
10
21.150000000000002
20
11.350000000000001
30
0
0
VERTEX
8
0
10
19.55
20
11.350000000000001
30
0
0
VERTEX
8
0
10
19.55
20
11.3332
30
0
0
VERTEX
8
0
10
18.380000000000003
20
11.3332
30
0
0
VERTEX
8
0
10
18.380000000000003
20
12.030000000000001
30
0
0
VERTEX
8
0
10
16.78
20
12.030000000000001
30
0
0
VERTEX
8
0
10
16.78
20
10.23
30
0
0
VERTEX
8
0
10
18.380000000000003
20
10.23
30
0
0
SEQEND
0
POLYLINE
66
1
8
1_copper
10
0.0
20
0.0
30
0.0
70
1
0
VERTEX
8
0
10
20.4758
20
18.446
30
0
0
VERTEX
8
0
10
21.4537
20
18.446
30
0
0
VERTEX
8
0
10
21.4537
20
18.954
30
0
0
VERTEX
8
0
10
21.153200000000002
20
18.954
30
0
0
VERTEX
8
0
10
21.153200000000002
20
22.26583125
30
0
0
VERTEX
8
0
10
21.83416875
20
22.9468
30
0
0
VERTEX
8
0
10
23.86583125
20
22.9468
30
0
0
VERTEX
8
0
10
26.456315625000002
20
20.356315625
30
0
0
VERTEX
8
0
10
26.46410625
20
20.349784375000002
30
0
0
VERTEX
8
0
10
26.4713625
20
20.342703125
30
0
42
0.13234447677005623
0
VERTEX
8
0
10
26.567790625
20
20.29936875
30
0
0
VERTEX
8
0
10
26.576115625
20
20.298706250000002
30
0
42
0.01805948283611007
0
VERTEX
8
0
10
26.59070625
20
20.297540625
30
0
0
VERTEX
8
0
10
26.6
20
20.2968
30
0
0
VERTEX
8
0
10
28.16480625
20
20.2968
30
0
0
VERTEX
8
0
10
28.188962500000002
20
20.258353125
30
0
42
0.8444231390909472
0
VERTEX
8
0
10
29.084296875
20
20.689521875
30
0
0
VERTEX
8
0
10
29.069415625
20
20.732046875
30
0
0
VERTEX
8
0
10
30.784168750000003
20
22.4468
30
0
0
VERTEX
8
0
10
36.46583125
20
22.4468
30
0
0
VERTEX
8
0
10
38.556315625
20
20.356315625
30
0
0
VERTEX
8
0
10
38.56410625
20
20.349784375000002
30
0
0
VERTEX
8
0
10
38.5713625
20
20.342703125
30
0
42
0.13234447677005623
0
VERTEX
8
0
10
38.667790625
20
20.29936875
30
0
0
VERTEX
8
0
10
38.676115625
20
20.298706250000002
30
0
42
0.01805948283611007
0
VERTEX
8
0
10
38.690706250000005
20
20.297540625
30
0
0
VERTEX
8
0
10
38.7
20
20.2968
30
0
0
VERTEX
8
0
10
43.11583125
20
20.2968
30
0
0
VERTEX
8
0
10
43.634171875
20
19.778459375
30
0
0
VERTEX
8
0
10
43.609862500000006
20
19.745
30
0
42
0.9999999999999999
0
VERTEX
8
0
10
45.6901375
20
18.355
30
0
0
VERTEX
8
0
10
45.741462500000004
20
18.438753125
30
0
42
0.7883366430366149
0
VERTEX
8
0
10
43.955000000000005
20
20.0901375
30
0
0
VERTEX
8
0
10
43.921540625
20
20.065828125
30
0
0
VERTEX
8
0
10
43.343684375
20
20.643684375
30
0
0
VERTEX
8
0
10
43.335893750000004
20
20.650215625
30
0
0
VERTEX
8
0
10
43.3286375
20
20.657296875
30
0
42
0.13234447677005623
0
VERTEX
8
0
10
43.232209375000004
20
20.70063125
30
0
0
VERTEX
8
0
10
43.223884375000004
20
20.70129375
30
0
42
0.01805948283611007
0
VERTEX
8
0
10
43.20929375
20
20.702459375
30
0
0
VERTEX
8
0
10
43.2
20
20.703200000000002
30
0
0
VERTEX
8
0
10
38.78416875
20
20.703200000000002
30
0
0
VERTEX
8
0
10
36.693684375000004
20
22.793684375
30
0
0
VERTEX
8
0
10
36.685893750000005
20
22.800215625
30
0
0
VERTEX
8
0
10
36.6786375
20
22.807296875000002
30
0
42
0.13234447677005623
0
VERTEX
8
0
10
36.582209375000005
20
22.850631250000003
30
0
0
VERTEX
8
0
10
36.573884375
20
22.85129375
30
0
42
0.01805948283611007
0
VERTEX
8
0
10
36.55929375
20
22.852459375000002
30
0
0
VERTEX
8
0
10
36.550000000000004
20
22.8532
30
0
0
VERTEX
8
0
10
30.700000000000003
20
22.8532
30
0
0
VERTEX
8
0
10
30.689896875000002
20
22.8523125
30
0
0
VERTEX
8
0
10
30.679734375000002
20
22.8521875
30
0
42
0.13234210275356545
0
VERTEX
8
0
10
30.580909375
20
22.814643750000002
30
0
0
VERTEX
8
0
10
30.57454375
20
22.80921875
30
0
42
0.018023900800285427
0
VERTEX
8
0
10
30.563425000000002
20
22.79974375
30
0
0
VERTEX
8
0
10
30.556315625
20
22.793684375
30
0
0
VERTEX
8
0
10
28.782046875000002
20
21.019415625
30
0
0
VERTEX
8
0
10
28.739521875
20
21.034296875000003
30
0
42
0.381719512999863
0
VERTEX
8
0
10
28.134371875000003
20
20.74286875
30
0
0
VERTEX
8
0
10
28.120490625000002
20
20.703200000000002
30
0
0
VERTEX
8
0
10
26.68416875
20
20.703200000000002
30
0
0
VERTEX
8
0
10
24.093684375000002
20
23.293684375
30
0
0
VERTEX
8
0
10
24.08589375
20
23.300215625
30
0
0
VERTEX
8
0
10
24.078637500000003
20
23.307296875000002
30
0
42
0.13234447677005623
0
VERTEX
8
0
10
23.982209375
20
23.350631250000003
30
0
0
VERTEX
8
0
10
23.973884375
20
23.35129375
30
0
42
0.01805948283611007
0
VERTEX
8
0
10
23.95929375
20
23.352459375000002
30
0
0
VERTEX
8
0
10
23.950000000000003
20
23.3532
30
0
0
VERTEX
8
0
10
21.75
20
23.3532
30
0
0
VERTEX
8
0
10
21.739896875
20
23.3523125
30
0
0
VERTEX
8
0
10
21.729734375
20
23.3521875
30
0
42
0.13234210275356545
0
VERTEX
8
0
10
21.630909375
20
23.314643750000002
30
0
0
VERTEX
8
0
10
21.62454375
20
23.30921875
30
0
42
0.018023900800285427
0
VERTEX
8
0
10
21.613425
20
23.29974375
30
0
0
VERTEX
8
0
10
21.606315625
20
23.293684375
30
0
0
VERTEX
8
0
10
20.806315625
20
22.493684375
30
0
0
VERTEX
8
0
10
20.799784375
20
22.485893750000002
30
0
0
VERTEX
8
0
10
20.792703125000003
20
22.4786375
30
0
42
0.13234447677005623
0
VERTEX
8
0
10
20.749368750000002
20
22.382209375000002
30
0
0
VERTEX
8
0
10
20.74870625
20
22.373884375
30
0
42
0.01805948283611007
0
VERTEX
8
0
10
20.747540625000003
20
22.359293750000003
30
0
0
VERTEX
8
0
10
20.7468
20
22.35
30
0
0
VERTEX
8
0
10
20.7468
20
18.954
30
0
0
VERTEX
8
0
10
20.4758
20
18.954
30
0
0
VERTEX
8
0
10
20.4758
20
18.903200000000002
30
0
0
VERTEX
8
0
10
19.7646
20
18.903200000000002
30
0
0
VERTEX
8
0
10
19.7646
20
20.3
30
0
0
VERTEX
8
0
10
19.85
20
20.3
30
0
0
VERTEX
8
0
10
19.85
20
21.900000000000002
30
0
0
VERTEX
8
0
10
18.95
20
21.900000000000002
30
0
0
VERTEX
8
0
10
18.95
20
20.3
30
0
0
VERTEX
8
0
10
19.3582
20
20.3
30
0
0
VERTEX
8
0
10
19.3582
20
18.903200000000002
30
0
0
VERTEX
8
0
10
17.2
20
18.903200000000002
30
0
0
VERTEX
8
0
10
17.2
20
19.2
30
0
0
VERTEX
8
0
10
15.600000000000001
20
19.2
30
0
0
VERTEX
8
0
10
15.600000000000001
20
18.3
30
0
0
VERTEX
8
0
10
17.2
20
18.3
30
0
0
VERTEX
8
0
10
17.2
20
18.4968
30
0
0
VERTEX
8
0
10
20.4758
20
18.4968
30
0
0
SEQEND
0
POLYLINE
66
1
8
1_copper
10
0.0
20
0.0
30
0.0
70
1
0
VERTEX
8
0
10
39.21263125
20
15
30
0
0
VERTEX
8
0
10
38.7
20
15
30
0
0
VERTEX
8
0
10
38.7
20
13.4
30
0
0
VERTEX
8
0
10
40.5
20
13.4
30
0
0
VERTEX
8
0
10
40.5
20
15
30
0
0
VERTEX
8
0
10
39.776671875000005
20
15
30
0
0
VERTEX
8
0
10
39.7757
20
15.002075000000001
30
0
42
0.024981422708245625
0
VERTEX
8
0
10
39.764643750000005
20
15.019090625
30
0
0
VERTEX
8
0
10
39.75921875
20
15.025456250000001
30
0
42
0.018023900800285427
0
VERTEX
8
0
10
39.74974375
20
15.036575000000001
30
0
0
VERTEX
8
0
10
39.743684375
20
15.043684375000002
30
0
0
VERTEX
8
0
10
39.293684375000005
20
15.493684375
30
0
0
VERTEX
8
0
10
39.28589375
20
15.500215625000001
30
0
0
VERTEX
8
0
10
39.2786375
20
15.507296875000002
30
0
42
0.13234447677005623
0
VERTEX
8
0
10
39.182209375
20
15.55063125
30
0
0
VERTEX
8
0
10
39.173884375
20
15.551293750000001
30
0
42
0.01805948283611007
0
VERTEX
8
0
10
39.15929375
20
15.552459375000002
30
0
0
VERTEX
8
0
10
39.15
20
15.5532
30
0
0
VERTEX
8
0
10
35.39056875
20
15.5532
30
0
0
VERTEX
8
0
10
36.493684375
20
16.656315625
30
0
0
VERTEX
8
0
10
36.500215625
20
16.66410625
30
0
0
VERTEX
8
0
10
36.507296875
20
16.6713625
30
0
0
VERTEX
8
0
10
36.507796875000004
20
16.6721
30
0
0
VERTEX
8
0
10
36.542868750000004
20
16.684371875
30
0
0
VERTEX
8
0
10
36.593790625000004
20
16.70889375
30
0
42
0.5898851498070005
0
VERTEX
8
0
10
36.593790625000004
20
17.59110625
30
0
0
VERTEX
8
0
10
36.553200000000004
20
17.610653125000002
30
0
0
VERTEX
8
0
10
36.553200000000004
20
19.150000000000002
30
0
0
VERTEX
8
0
10
36.5523125
20
19.160103125000003
30
0
0
VERTEX
8
0
10
36.5521875
20
19.170265625000003
30
0
42
0.13234210275356545
0
VERTEX
8
0
10
36.514643750000005
20
19.269090625
30
0
0
VERTEX
8
0
10
36.50921875
20
19.27545625
30
0
42
0.018023900800285427
0
VERTEX
8
0
10
36.49974375
20
19.286575000000003
30
0
0
VERTEX
8
0
10
36.493684375
20
19.293684375
30
0
0
VERTEX
8
0
10
36.193684375000004
20
19.593684375000002
30
0
0
VERTEX
8
0
10
36.18589375
20
19.600215625
30
0
0
VERTEX
8
0
10
36.1786375
20
19.607296875
30
0
42
0.13234447677005623
0
VERTEX
8
0
10
36.082209375000005
20
19.65063125
30
0
0
VERTEX
8
0
10
36.073884375
20
19.65129375
30
0
42
0.01805948283611007
0
VERTEX
8
0
10
36.05929375
20
19.652459375
30
0
0
VERTEX
8
0
10
36.050000000000004
20
19.653200000000002
30
0
0
VERTEX
8
0
10
35.85
20
19.653200000000002
30
0
0
VERTEX
8
0
10
35.85
20
20.25
30
0
0
VERTEX
8
0
10
34.95
20
20.25
30
0
0
VERTEX
8
0
10
34.95
20
18.650000000000002
30
0
0
VERTEX
8
0
10
35.85
20
18.650000000000002
30
0
0
VERTEX
8
0
10
35.85
20
19.2468
30
0
0
VERTEX
8
0
10
35.96583125
20
19.2468
30
0
0
VERTEX
8
0
10
36.1468
20
19.065831250000002
30
0
0
VERTEX
8
0
10
36.1468
20
17.610653125000002
30
0
0
VERTEX
8
0
10
36.106209375
20
17.59110625
30
0
42
0.5166114887787036
0
VERTEX
8
0
10
36.014165625000004
20
16.774203125
30
0
0
VERTEX
8
0
10
36.026778125
20
16.764146875
30
0
0
VERTEX
8
0
10
34.81583125
20
15.5532
30
0
0
VERTEX
8
0
10
34.1126
20
15.5532
30
0
0
VERTEX
8
0
10
34.1126
20
15.604000000000001
30
0
0
VERTEX
8
0
10
33.2363
20
15.604000000000001
30
0
0
VERTEX
8
0
10
33.2363
20
15.096
30
0
0
VERTEX
8
0
10
34.1126
20
15.096
30
0
0
VERTEX
8
0
10
34.1126
20
15.1468
30
0
0
VERTEX
8
0
10
39.06583125
20
15.1468
30
0
0
SEQEND
0
POLYLINE
66
1
8
16_copper
10
0.0
20
0.0
30
0.0
70
1
0
VERTEX
8
0
10
28.684421875
20
20.053128125
30
0
42
0.9999999999999999
0
VERTEX
8
0
10
28.515578125
20
21.046871875
30
0
0
VERTEX
8
0
10
28.460478125
20
21.034296875000003
30
0
42
0.8936562919666523
0
VERTEX
8
0
10
28.628259375000003
20
20.0468
30
0
0
SEQEND
0
POLYLINE
66
1
8
16_copper
10
0.0
20
0.0
30
0.0
70
1
0
VERTEX
8
0
10
44.797034375
20
17.807706250000003
30
0
42
0.9999999999999999
0
VERTEX
8
0
10
44.502965625
20
20.292293750000002
30
0
0
VERTEX
8
0
10
44.405950000000004
20
20.276928125
30
0
42
0.9243908702985089
0
VERTEX
8
0
10
44.699112500000005
20
17.8
30
0
0
SEQEND
0
POLYLINE
66
1
8
16_copper
10
0.0
20
0.0
30
0.0
70
1
0
VERTEX
8
0
10
36.434421875000005
20
16.653128125000002
30
0
42
0.9999999999999999
0
VERTEX
8
0
10
36.265578125000005
20
17.646871875000002
30
0
0
VERTEX
8
0
10
36.210478125
20
17.634296875
30
0
42
0.8936562919666523
0
VERTEX
8
0
10
36.378259375
20
16.646800000000002
30
0
0
SEQEND
0
POLYLINE
66
1
8
1_copper
10
0.0
20
0.0
30
0.0
70
1
0
VERTEX
8
0
10
44.847034375
20
12.55770625
30
0
42
0.9999999999999999
0
VERTEX
8
0
10
44.552965625
20
15.04229375
30
0
0
VERTEX
8
0
10
44.45595
20
15.026928125000001
30
0
42
0.09849202941710616
0
VERTEX
8
0
10
44.005
20
14.8401375
30
0
0
VERTEX
8
0
10
43.971540625
20
14.815828125000001
30
0
0
VERTEX
8
0
10
40.775
20
18.01236875
30
0
0
VERTEX
8
0
10
40.775
20
18.35
30
0
0
VERTEX
8
0
10
40.075
20
18.35
30
0
0
VERTEX
8
0
10
40.075
20
17.650000000000002
30
0
0
VERTEX
8
0
10
40.56263125
20
17.650000000000002
30
0
0
VERTEX
8
0
10
43.684171875000004
20
14.528459375
30
0
0
VERTEX
8
0
10
43.6598625
20
14.495000000000001
30
0
42
0.6128012866986686
0
VERTEX
8
0
10
44.7491125
20
12.55
30
0
0
SEQEND
0
POLYLINE
66
1
8
16_copper
10
0.0
20
0.0
30
0.0
70
1
0
VERTEX
8
0
10
44.847034375
20
12.55770625
30
0
42
0.9999999999999999
0
VERTEX
8
0
10
44.552965625
20
15.04229375
30
0
0
VERTEX
8
0
10
44.45595
20
15.026928125000001
30
0
42
0.9243908702985089
0
VERTEX
8
0
10
44.7491125
20
12.55
30
0
0
SEQEND
0
POLYLINE
66
1
8
1_copper
10
0.0
20
0.0
30
0.0
70
1
0
VERTEX
8
0
10
44.097034375
20
6.25770625
30
0
42
0.9999999999999999
0
VERTEX
8
0
10
43.802965625
20
8.74229375
30
0
0
VERTEX
8
0
10
43.70595
20
8.726928125
30
0
42
0.21940739366794326
0
VERTEX
8
0
10
42.858537500000004
20
8.111246875
30
0
0
VERTEX
8
0
10
42.83140625
20
8.058
30
0
0
VERTEX
8
0
10
41.469628125
20
8.058
30
0
0
VERTEX
8
0
10
41.215628125
20
8.312000000000001
30
0
0
VERTEX
8
0
10
41.036025
20
8.312000000000001
30
0
0
VERTEX
8
0
10
40.9490125
20
8.3990125
30
0
42
0.18186941841848478
0
VERTEX
8
0
10
40.54174375
20
8.583625
30
0
0
VERTEX
8
0
10
40.5
20
8.585
30
0
0
VERTEX
8
0
10
15.4
20
8.585
30
0
0
VERTEX
8
0
10
15.3920375
20
8.58460625
30
0
0
VERTEX
8
0
10
15.384078125
20
8.5848
30
0
42
0.17540035433691983
0
VERTEX
8
0
10
14.981475000000001
20
8.427559375
30
0
0
VERTEX
8
0
10
14.9509875
20
8.3990125
30
0
0
VERTEX
8
0
10
14.949200000000001
20
8.397225
30
0
0
VERTEX
8
0
10
14.949200000000001
20
10.23
30
0
0
VERTEX
8
0
10
15.58
20
10.23
30
0
0
VERTEX
8
0
10
15.58
20
12.030000000000001
30
0
0
VERTEX
8
0
10
13.98
20
12.030000000000001
30
0
0
VERTEX
8
0
10
13.98
20
10.23
30
0
0
VERTEX
8
0
10
14.4412
20
10.23
30
0
0
VERTEX
8
0
10
14.4412
20
8.35
30
0
0
VERTEX
8
0
10
14.100000000000001
20
8.35
30
0
0
VERTEX
8
0
10
14.100000000000001
20
6.550000000000001
30
0
0
VERTEX
8
0
10
15.700000000000001
20
6.550000000000001
30
0
0
VERTEX
8
0
10
15.700000000000001
20
7.315
30
0
0
VERTEX
8
0
10
40.138000000000005
20
7.315
30
0
0
VERTEX
8
0
10
40.138000000000005
20
7.234371875000001
30
0
0
VERTEX
8
0
10
40.584371875
20
6.788
30
0
0
VERTEX
8
0
10
41.215628125
20
6.788
30
0
0
VERTEX
8
0
10
41.469628125
20
7.042000000000001
30
0
0
VERTEX
8
0
10
42.78671875
20
7.042000000000001
30
0
0
VERTEX
8
0
10
42.81394375
20
6.976271875
30
0
42
0.30334684862314887
0
VERTEX
8
0
10
43.9991125
20
6.25
30
0
0
SEQEND
0
POLYLINE
66
1
8
16_copper
10
0.0
20
0.0
30
0.0
70
1
0
VERTEX
8
0
10
44.097034375
20
6.25770625
30
0
42
0.9999999999999999
0
VERTEX
8
0
10
43.802965625
20
8.74229375
30
0
0
VERTEX
8
0
10
43.70595
20
8.726928125
30
0
42
0.9243908702985089
0
VERTEX
8
0
10
43.9991125
20
6.25
30
0
0
SEQEND
0
POLYLINE
66
1
8
16_copper
10
0.0
20
0.0
30
0.0
70
1
0
VERTEX
8
0
10
41.662
20
7.234371875000001
30
0
0
VERTEX
8
0
10
41.662
20
7.865628125000001
30
0
0
VERTEX
8
0
10
41.215628125
20
8.312000000000001
30
0
0
VERTEX
8
0
10
40.584371875
20
8.312000000000001
30
0
0
VERTEX
8
0
10
40.138000000000005
20
7.865628125000001
30
0
0
VERTEX
8
0
10
40.138000000000005
20
7.234371875000001
30
0
0
VERTEX
8
0
10
40.584371875
20
6.788
30
0
0
VERTEX
8
0
10
41.215628125
20
6.788
30
0
0
SEQEND
0
POLYLINE
66
1
8
1_copper
10
0.0
20
0.0
30
0.0
70
1
0
VERTEX
8
0
10
8.171228125
20
20.9936
30
0
0
VERTEX
8
0
10
14.5
20
20.9936
30
0
0
VERTEX
8
0
10
14.500081250000001
20
20.993606250000003
30
0
0
VERTEX
8
0
10
14.500165625000001
20
20.9936
30
0
0
VERTEX
8
0
10
14.52359375
20
20.995065625000002
30
0
0
VERTEX
8
0
10
14.550278125
20
20.996721875000002
30
0
0
VERTEX
8
0
10
14.550371875000002
20
20.996740625
30
0
0
VERTEX
8
0
10
14.550440625
20
20.99674375
30
0
0
VERTEX
8
0
10
14.573450000000001
20
21.001084375
30
0
0
VERTEX
8
0
10
14.599781250000001
20
21.006040625
30
0
0
VERTEX
8
0
10
14.59985625
20
21.006065625
30
0
0
VERTEX
8
0
10
14.599943750000001
20
21.00608125
30
0
42
0.03091435969764626
0
VERTEX
8
0
10
14.647753125000001
20
21.021409375
30
0
0
VERTEX
8
0
10
14.647840625
20
21.02145
30
0
0
VERTEX
8
0
10
14.647909375000001
20
21.021471875
30
0
42
0.030915842147105518
0
VERTEX
8
0
10
14.69345625
20
21.0426
30
0
0
VERTEX
8
0
10
14.69351875
20
21.0426375
30
0
0
VERTEX
8
0
10
14.693603125000001
20
21.042678125000002
30
0
42
0.030914644350520548
0
VERTEX
8
0
10
14.736184375
20
21.069278125
30
0
0
VERTEX
8
0
10
14.736253125000001
20
21.069334375
30
0
0
VERTEX
8
0
10
14.73631875
20
21.069375
30
0
0
VERTEX
8
0
10
14.736668750000002
20
21.069671875
30
0
0
VERTEX
8
0
10
14.775284375
20
21.1010375
30
0
0
VERTEX
8
0
10
14.782225
20
21.108271875
30
0
0
VERTEX
8
0
10
14.78736875
20
21.11263125
30
0
0
VERTEX
8
0
10
17.4183375
20
23.7436
30
0
0
VERTEX
8
0
10
36.631662500000004
20
23.7436
30
0
0
VERTEX
8
0
10
37.912631250000004
20
22.46263125
30
0
0
VERTEX
8
0
10
37.91270625
20
22.462565625
30
0
0
VERTEX
8
0
10
37.91275
20
22.462515625
30
0
0
VERTEX
8
0
10
37.927996875000005
20
22.4490625
30
0
0
VERTEX
8
0
10
37.950390625000004
20
22.4292875
30
0
0
VERTEX
8
0
10
37.95046875
20
22.429234375
30
0
0
VERTEX
8
0
10
37.950521875
20
22.4291875
30
0
0
VERTEX
8
0
10
37.968315625
20
22.41704375
30
0
0
VERTEX
8
0
10
37.991984375
20
22.400871875
30
0
0
VERTEX
8
0
10
37.992065625
20
22.40083125
30
0
0
VERTEX
8
0
10
37.992128125
20
22.4007875
30
0
0
VERTEX
8
0
10
38.011868750000005
20
22.3906375
30
0
0
VERTEX
8
0
10
38.036775
20
22.37781875
30
0
0
VERTEX
8
0
10
38.036862500000005
20
22.3777875
30
0
0
VERTEX
8
0
10
38.036928125
20
22.377753125
30
0
0
VERTEX
8
0
10
38.058296875
20
22.36993125
30
0
0
VERTEX
8
0
10
38.084071875
20
22.360484375000002
30
0
42
0.0001021926506015109
0
VERTEX
8
0
10
38.08423125
20
22.3604375
30
0
0
VERTEX
8
0
10
38.10599375
20
22.355415625000003
30
0
0
VERTEX
8
0
10
38.133153125
20
22.349134375000002
30
0
0
VERTEX
8
0
10
38.133250000000004
20
22.349125
30
0
0
VERTEX
8
0
10
38.133315625
20
22.349109375
30
0
0
VERTEX
8
0
10
38.13370625
20
22.349078125000002
30
0
0
VERTEX
8
0
10
38.183259375
20
22.34394375
30
0
0
VERTEX
8
0
10
38.193303125
20
22.344153125000002
30
0
0
VERTEX
8
0
10
38.2
20
22.343600000000002
30
0
0
VERTEX
8
0
10
40.728771875
20
22.343600000000002
30
0
0
VERTEX
8
0
10
41.084371875
20
21.988
30
0
0
VERTEX
8
0
10
41.715628125
20
21.988
30
0
0
VERTEX
8
0
10
42.071228125000005
20
22.343600000000002
30
0
0
VERTEX
8
0
10
43.288040625
20
22.343600000000002
30
0
0
VERTEX
8
0
10
43.296003125
20
22.310437500000003
30
0
42
0.9999999999999999
0
VERTEX
8
0
10
45.703996875
20
22.9895625
30
0
0
VERTEX
8
0
10
45.673643750000004
20
23.08298125
30
0
42
0.668178566586663
0
VERTEX
8
0
10
43.363943750000004
20
23.173728125
30
0
0
VERTEX
8
0
10
43.356765625
20
23.1564
30
0
0
VERTEX
8
0
10
42.071228125000005
20
23.1564
30
0
0
VERTEX
8
0
10
41.715628125
20
23.512
30
0
0
VERTEX
8
0
10
41.084371875
20
23.512
30
0
0
VERTEX
8
0
10
40.728771875
20
23.1564
30
0
0
VERTEX
8
0
10
38.3683375
20
23.1564
30
0
0
VERTEX
8
0
10
37.08736875
20
24.43736875
30
0
0
VERTEX
8
0
10
37.08729375
20
24.437434375000002
30
0
0
VERTEX
8
0
10
37.087250000000004
20
24.437484375
30
0
0
VERTEX
8
0
10
37.074240625
20
24.4489625
30
0
0
VERTEX
8
0
10
37.049609375
20
24.4707125
30
0
0
VERTEX
8
0
10
37.04953125
20
24.470765625000002
30
0
0
VERTEX
8
0
10
37.049478125
20
24.4708125
30
0
0
VERTEX
8
0
10
37.031684375000005
20
24.48295625
30
0
0
VERTEX
8
0
10
37.008015625
20
24.499128125000002
30
0
0
VERTEX
8
0
10
37.007934375000005
20
24.499168750000003
30
0
0
VERTEX
8
0
10
37.007871875
20
24.499212500000002
30
0
0
VERTEX
8
0
10
36.98813125
20
24.5093625
30
0
0
VERTEX
8
0
10
36.963225
20
24.522181250000003
30
0
0
VERTEX
8
0
10
36.9631375
20
24.522212500000002
30
0
0
VERTEX
8
0
10
36.963071875000004
20
24.522246875
30
0
0
VERTEX
8
0
10
36.941703125000004
20
24.53006875
30
0
0
VERTEX
8
0
10
36.915928125
20
24.539515625
30
0
42
0.0001021926506015109
0
VERTEX
8
0
10
36.915768750000005
20
24.539562500000002
30
0
0
VERTEX
8
0
10
36.894006250000004
20
24.544584375
30
0
0
VERTEX
8
0
10
36.866846875
20
24.550865625
30
0
0
VERTEX
8
0
10
36.86675
20
24.550875
30
0
0
VERTEX
8
0
10
36.866684375
20
24.550890625
30
0
0
VERTEX
8
0
10
36.866293750000004
20
24.550921875
30
0
0
VERTEX
8
0
10
36.816740625
20
24.55605625
30
0
0
VERTEX
8
0
10
36.806696875
20
24.555846875
30
0
0
VERTEX
8
0
10
36.800000000000004
20
24.5564
30
0
0
VERTEX
8
0
10
17.25
20
24.5564
30
0
0
VERTEX
8
0
10
17.24991875
20
24.55639375
30
0
0
VERTEX
8
0
10
17.249834375000002
20
24.5564
30
0
0
VERTEX
8
0
10
17.22640625
20
24.554934375000002
30
0
0
VERTEX
8
0
10
17.199721875
20
24.553278125000002
30
0
0
VERTEX
8
0
10
17.199628125
20
24.553259375
30
0
0
VERTEX
8
0
10
17.199559375
20
24.55325625
30
0
0
VERTEX
8
0
10
17.176550000000002
20
24.548915625000003
30
0
0
VERTEX
8
0
10
17.15021875
20
24.543959375
30
0
0
VERTEX
8
0
10
17.15014375
20
24.543934375000003
30
0
0
VERTEX
8
0
10
17.150056250000002
20
24.54391875
30
0
42
0.03091435969764626
0
VERTEX
8
0
10
17.102246875000002
20
24.528590625
30
0
0
VERTEX
8
0
10
17.102159375
20
24.528550000000003
30
0
0
VERTEX
8
0
10
17.102090625000002
20
24.528528125
30
0
42
0.030915842147105518
0
VERTEX
8
0
10
17.05654375
20
24.5074
30
0
0
VERTEX
8
0
10
17.05648125
20
24.507362500000003
30
0
0
VERTEX
8
0
10
17.056396875
20
24.507321875000002
30
0
42
0.030914644350520548
0
VERTEX
8
0
10
17.013815625
20
24.480721875
30
0
0
VERTEX
8
0
10
17.013746875000002
20
24.480665625
30
0
0
VERTEX
8
0
10
17.01368125
20
24.480625
30
0
0
VERTEX
8
0
10
17.01333125
20
24.480328125
30
0
0
VERTEX
8
0
10
16.974715625
20
24.4489625
30
0
0
VERTEX
8
0
10
16.967775
20
24.441728125
30
0
0
VERTEX
8
0
10
16.96263125
20
24.43736875
30
0
0
VERTEX
8
0
10
14.3316625
20
21.8064
30
0
0
VERTEX
8
0
10
8.171228125
20
21.8064
30
0
0
VERTEX
8
0
10
7.815628125000001
20
22.162000000000003
30
0
0
VERTEX
8
0
10
7.184371875
20
22.162000000000003
30
0
0
VERTEX
8
0
10
6.738
20
21.715628125000002
30
0
0
VERTEX
8
0
10
6.738
20
21.084371875000002
30
0
0
VERTEX
8
0
10
7.184371875
20
20.638
30
0
0
VERTEX
8
0
10
7.815628125000001
20
20.638
30
0
0
SEQEND
0
POLYLINE
66
1
8
16_copper
10
0.0
20
0.0
30
0.0
70
1
0
VERTEX
8
0
10
44.647034375000004
20
21.40770625
30
0
42
0.9999999999999999
0
VERTEX
8
0
10
44.352965625
20
23.89229375
30
0
0
VERTEX
8
0
10
44.255950000000006
20
23.876928125000003
30
0
42
0.9243908702985089
0
VERTEX
8
0
10
44.5491125
20
21.400000000000002
30
0
0
SEQEND
0
POLYLINE
66
1
8
16_copper
10
0.0
20
0.0
30
0.0
70
1
0
VERTEX
8
0
10
42.162
20
22.434371875
30
0
0
VERTEX
8
0
10
42.162
20
23.065628125
30
0
0
VERTEX
8
0
10
41.715628125
20
23.512
30
0
0
VERTEX
8
0
10
41.084371875
20
23.512
30
0
0
VERTEX
8
0
10
40.638000000000005
20
23.065628125
30
0
0
VERTEX
8
0
10
40.638000000000005
20
22.434371875
30
0
0
VERTEX
8
0
10
41.084371875
20
21.988
30
0
0
VERTEX
8
0
10
41.715628125
20
21.988
30
0
0
SEQEND
0
POLYLINE
66
1
8
16_copper
10
0.0
20
0.0
30
0.0
70
1
0
VERTEX
8
0
10
8.262
20
21.084371875000002
30
0
0
VERTEX
8
0
10
8.262
20
21.715628125000002
30
0
0
VERTEX
8
0
10
7.815628125000001
20
22.162000000000003
30
0
0
VERTEX
8
0
10
7.184371875
20
22.162000000000003
30
0
0
VERTEX
8
0
10
6.738
20
21.715628125000002
30
0
0
VERTEX
8
0
10
6.738
20
21.084371875000002
30
0
0
VERTEX
8
0
10
7.184371875
20
20.638
30
0
0
VERTEX
8
0
10
7.815628125000001
20
20.638
30
0
0
SEQEND
0
CIRCLE
8
drills_via_1_16
10
7.7
20
14.850000000000001
30
0
40
0.75
0
CIRCLE
8
drills_via_1_16
10
44.650000000000006
20
19.05
30
0
40
0.75
0
CIRCLE
8
drills_via_1_16
10
44.7
20
13.8
30
0
40
0.75
0
CIRCLE
8
drills_via_1_16
10
43.95
20
7.5
30
0
40
0.75
0
CIRCLE
8
drills_via_1_16
10
44.5
20
22.650000000000002
30
0
40
0.75
0
CIRCLE
8
drills_PTH
10
7.5
20
21.400000000000002
30
0
40
0.508
0
CIRCLE
8
drills_PTH
10
7.800000000000001
20
7.95
30
0
40
0.508
0
CIRCLE
8
drills_PTH
10
41.4
20
22.75
30
0
40
0.508
0
CIRCLE
8
drills_PTH
10
40.9
20
7.550000000000001
30
0
40
0.508
0
CIRCLE
8
drills_via_1_16
10
28.6
20
20.55
30
0
40
0.3
0
CIRCLE
8
drills_via_1_16
10
36.35
20
17.150000000000002
30
0
40
0.3
0
ENDSEC
0
EOF