  0
SECTION
  2
HEADER
  9
$ACADVER
  1
AC1009
  9
$FILLMODE
 70
1
  9
$EXTMIN
 10
-72.9930
 20
7.6344
 30
0.0000
  9
$EXTMAX
 10
112.8221
 20
75.5360
 30
0.0000
  0
ENDSEC
  0
SECTION
  2
TABLES
  0
TABLE
  2
LTYPE
 70
1
  0
LTYPE
  2
CONTINUOUS
 70
64
  3
Solid line
 72
65
 73
0
 40
0
  0
ENDTAB
  0
TABLE
  2
LAYER
 70
255
  0
LAYER
  2
20
 70
64
 62
53
  6
CONTINUOUS
  0
LAYER
  2
52
 70
64
 62
253
  6
CONTINUOUS
  0
ENDTAB
  0
ENDSEC
  0
SECTION
  2
BLOCKS
  0
BLOCK
  8
0
  2
RECT
 70
64
 10
0.0000
 20
0.0000
 30
0.0000
  3
RECT
  0
SOLID
  8
0
 10
-0.5000
 20
-0.5000
 30
0.0000
 11
0.5000
 21
-0.5000
 31
0.0000
 12
-0.5000
 22
0.5000
 32
0.0000
 13
0.5000
 23
0.5000
 33
0.0000
  0
ENDBLK
  8
0
  0
BLOCK
  8
0
  2
PIE
 70
64
 10
0.0000
 20
0.0000
 30
0.0000
  3
PIE
  0
POLYLINE
  8
0
 66
1
 10
0.0000
 20
0.0000
 30
0.0000
 40
0.5000
 41
0.5000
 70
0
  0
VERTEX
  8
0
 10
0.0000
 20
-0.2500
 30
0.0000
 42
1.0000
  0
VERTEX
  8
0
 10
0.0000
 20
0.2500
 30
0.0000
 42
1.0000
  0
VERTEX
  8
0
 10
0.0000
 20
-0.2500
 30
0.0000
  0
SEQEND
  8
0
  0
ENDBLK
  8
0
  0
BLOCK
  8
0
  2
OCTAGONP
 70
64
 10
0.0000
 20
0.0000
 30
0.0000
  3
OCTAGONP
  0
POLYLINE
  8
0
 66
1
 10
0.0000
 20
0.0000
 30
0.0000
 40
0.5000
 41
0.5000
 70
0
  0
VERTEX
  8
0
 10
-0.2500
 20
-0.1036
 30
0.0000
  0
VERTEX
  8
0
 10
-0.2500
 20
0.1036
 30
0.0000
  0
VERTEX
  8
0
 10
-0.1036
 20
0.2500
 30
0.0000
  0
VERTEX
  8
0
 10
0.1036
 20
0.2500
 30
0.0000
  0
VERTEX
  8
0
 10
0.2500
 20
0.1036
 30
0.0000
  0
VERTEX
  8
0
 10
0.2500
 20
-0.1036
 30
0.0000
  0
VERTEX
  8
0
 10
0.1036
 20
-0.2500
 30
0.0000
  0
VERTEX
  8
0
 10
-0.1036
 20
-0.2500
 30
0.0000
  0
VERTEX
  8
0
 10
-0.2500
 20
-0.1036
 30
0.0000
  0
VERTEX
  8
0
 10
-0.2500
 20
0.1036
 30
0.0000
  0
SEQEND
  8
0
  0
ENDBLK
  8
0
  0
BLOCK
  8
0
  2
SQUAREP
 70
64
 10
0.0000
 20
0.0000
 30
0.0000
  3
SQUAREP
  0
SOLID
  8
0
 10
-0.5000
 20
-0.5000
 30
0.0000
 11
0.5000
 21
-0.5000
 31
0.0000
 12
-0.5000
 22
0.5000
 32
0.0000
 13
0.5000
 23
0.5000
 33
0.0000
  0
ENDBLK
  8
0
  0
BLOCK
  8
0
  2
ROUNDP
 70
64
 10
0.0000
 20
0.0000
 30
0.0000
  3
ROUNDP
  0
POLYLINE
  8
0
 66
1
 10
0.0000
 20
0.0000
 30
0.0000
 40
0.5000
 41
0.5000
 70
0
  0
VERTEX
  8
0
 10
0.0000
 20
-0.2500
 30
0.0000
 42
1.0000
  0
VERTEX
  8
0
 10
0.0000
 20
0.2500
 30
0.0000
 42
1.0000
  0
VERTEX
  8
0
 10
0.0000
 20
-0.2500
 30
0.0000
  0
SEQEND
  8
0
  0
ENDBLK
  8
0
  0
BLOCK
  8
0
  2
ANNULUSP
 70
64
 10
0.0000
 20
0.0000
 30
0.0000
  3
ANNULUSP
  0
POLYLINE
  8
0
 66
1
 10
0.0000
 20
0.0000
 30
0.0000
 40
0.5000
 41
0.5000
 70
0
  0
VERTEX
  8
0
 10
0.0000
 20
-0.2500
 30
0.0000
 42
1.0000
  0
VERTEX
  8
0
 10
0.0000
 20
0.2500
 30
0.0000
 42
1.0000
  0
VERTEX
  8
0
 10
0.0000
 20
-0.2500
 30
0.0000
  0
SEQEND
  8
0
  0
ENDBLK
  8
0
  0
BLOCK
  8
0
  2
THERMALP
 70
64
 10
0.0000
 20
0.0000
 30
0.0000
  3
THERMALP
  0
POLYLINE
  8
0
 66
1
 10
0.0000
 20
0.0000
 30
0.0000
 40
0.1000
 41
0.1000
 70
0
  0
VERTEX
  8
0
 10
-0.2379
 20
0.4500
 30
0.0000
  0
VERTEX
  8
0
 10
0.2379
 20
0.4500
 30
0.0000
  0
SEQEND
  8
0
  0
POLYLINE
  8
0
 66
1
 10
0.0000
 20
0.0000
 30
0.0000
 40
0.0500
 41
0.0500
 70
0
  0
VERTEX
  8
0
 10
0.2379
 20
0.4250
 30
0.0000
 42
1.0000
  0
VERTEX
  8
0
 10
0.2379
 20
0.4750
 30
0.0000
  0
SEQEND
  8
0
  0
POLYLINE
  8
0
 66
1
 10
0.0000
 20
0.0000
 30
0.0000
 40
0.0500
 41
0.0500
 70
0
  0
VERTEX
  8
0
 10
-0.2379
 20
0.4750
 30
0.0000
 42
1.0000
  0
VERTEX
  8
0
 10
-0.2379
 20
0.4250
 30
0.0000
  0
SEQEND
  8
0
  0
POLYLINE
  8
0
 66
1
 10
0.0000
 20
0.0000
 30
0.0000
 40
0.1000
 41
0.1000
 70
0
  0
VERTEX
  8
0
 10
0.4500
 20
0.2379
 30
0.0000
  0
VERTEX
  8
0
 10
0.4500
 20
-0.2379
 30
0.0000
  0
SEQEND
  8
0
  0
POLYLINE
  8
0
 66
1
 10
0.0000
 20
0.0000
 30
0.0000
 40
0.0500
 41
0.0500
 70
0
  0
VERTEX
  8
0
 10
0.4250
 20
-0.2379
 30
0.0000
 42
1.0000
  0
VERTEX
  8
0
 10
0.4750
 20
-0.2379
 30
0.0000
  0
SEQEND
  8
0
  0
POLYLINE
  8
0
 66
1
 10
0.0000
 20
0.0000
 30
0.0000
 40
0.0500
 41
0.0500
 70
0
  0
VERTEX
  8
0
 10
0.4750
 20
0.2379
 30
0.0000
 42
1.0000
  0
VERTEX
  8
0
 10
0.4250
 20
0.2379
 30
0.0000
  0
SEQEND
  8
0
  0
POLYLINE
  8
0
 66
1
 10
0.0000
 20
0.0000
 30
0.0000
 40
0.1000
 41
0.1000
 70
0
  0
VERTEX
  8
0
 10
0.2379
 20
-0.4500
 30
0.0000
  0
VERTEX
  8
0
 10
-0.2379
 20
-0.4500
 30
0.0000
  0
SEQEND
  8
0
  0
POLYLINE
  8
0
 66
1
 10
0.0000
 20
0.0000
 30
0.0000
 40
0.0500
 41
0.0500
 70
0
  0
VERTEX
  8
0
 10
-0.2379
 20
-0.4250
 30
0.0000
 42
1.0000
  0
VERTEX
  8
0
 10
-0.2379
 20
-0.4750
 30
0.0000
  0
SEQEND
  8
0
  0
POLYLINE
  8
0
 66
1
 10
0.0000
 20
0.0000
 30
0.0000
 40
0.0500
 41
0.0500
 70
0
  0
VERTEX
  8
0
 10
0.2379
 20
-0.4750
 30
0.0000
 42
1.0000
  0
VERTEX
  8
0
 10
0.2379
 20
-0.4250
 30
0.0000
  0
SEQEND
  8
0
  0
POLYLINE
  8
0
 66
1
 10
0.0000
 20
0.0000
 30
0.0000
 40
0.1000
 41
0.1000
 70
0
  0
VERTEX
  8
0
 10
-0.4500
 20
-0.2379
 30
0.0000
  0
VERTEX
  8
0
 10
-0.4500
 20
0.2379
 30
0.0000
  0
SEQEND
  8
0
  0
POLYLINE
  8
0
 66
1
 10
0.0000
 20
0.0000
 30
0.0000
 40
0.0500
 41
0.0500
 70
0
  0
VERTEX
  8
0
 10
-0.4250
 20
0.2379
 30
0.0000
 42
1.0000
  0
VERTEX
  8
0
 10
-0.4750
 20
0.2379
 30
0.0000
  0
SEQEND
  8
0
  0
POLYLINE
  8
0
 66
1
 10
0.0000
 20
0.0000
 30
0.0000
 40
0.0500
 41
0.0500
 70
0
  0
VERTEX
  8
0
 10
-0.4750
 20
-0.2379
 30
0.0000
 42
1.0000
  0
VERTEX
  8
0
 10
-0.4250
 20
-0.2379
 30
0.0000
  0
SEQEND
  8
0
  0
ENDBLK
  8
0
  0
BLOCK
  8
0
  2
OCTAGONV
 70
64
 10
0.0000
 20
0.0000
 30
0.0000
  3
OCTAGONV
  0
POLYLINE
  8
0
 66
1
 10
0.0000
 20
0.0000
 30
0.0000
 40
0.5000
 41
0.5000
 70
0
  0
VERTEX
  8
0
 10
-0.2500
 20
-0.1036
 30
0.0000
  0
VERTEX
  8
0
 10
-0.2500
 20
0.1036
 30
0.0000
  0
VERTEX
  8
0
 10
-0.1036
 20
0.2500
 30
0.0000
  0
VERTEX
  8
0
 10
0.1036
 20
0.2500
 30
0.0000
  0
VERTEX
  8
0
 10
0.2500
 20
0.1036
 30
0.0000
  0
VERTEX
  8
0
 10
0.2500
 20
-0.1036
 30
0.0000
  0
VERTEX
  8
0
 10
0.1036
 20
-0.2500
 30
0.0000
  0
VERTEX
  8
0
 10
-0.1036
 20
-0.2500
 30
0.0000
  0
VERTEX
  8
0
 10
-0.2500
 20
-0.1036
 30
0.0000
  0
VERTEX
  8
0
 10
-0.2500
 20
0.1036
 30
0.0000
  0
SEQEND
  8
0
  0
ENDBLK
  8
0
  0
BLOCK
  8
0
  2
SQUAREV
 70
64
 10
0.0000
 20
0.0000
 30
0.0000
  3
SQUAREV
  0
SOLID
  8
0
 10
-0.5000
 20
-0.5000
 30
0.0000
 11
0.5000
 21
-0.5000
 31
0.0000
 12
-0.5000
 22
0.5000
 32
0.0000
 13
0.5000
 23
0.5000
 33
0.0000
  0
ENDBLK
  8
0
  0
BLOCK
  8
0
  2
ROUNDV
 70
64
 10
0.0000
 20
0.0000
 30
0.0000
  3
ROUNDV
  0
POLYLINE
  8
0
 66
1
 10
0.0000
 20
0.0000
 30
0.0000
 40
0.5000
 41
0.5000
 70
0
  0
VERTEX
  8
0
 10
0.0000
 20
-0.2500
 30
0.0000
 42
1.0000
  0
VERTEX
  8
0
 10
0.0000
 20
0.2500
 30
0.0000
 42
1.0000
  0
VERTEX
  8
0
 10
0.0000
 20
-0.2500
 30
0.0000
  0
SEQEND
  8
0
  0
ENDBLK
  8
0
  0
BLOCK
  8
0
  2
ANNULUSV
 70
64
 10
0.0000
 20
0.0000
 30
0.0000
  3
ANNULUSV
  0
POLYLINE
  8
0
 66
1
 10
0.0000
 20
0.0000
 30
0.0000
 40
0.5000
 41
0.5000
 70
0
  0
VERTEX
  8
0
 10
0.0000
 20
-0.2500
 30
0.0000
 42
1.0000
  0
VERTEX
  8
0
 10
0.0000
 20
0.2500
 30
0.0000
 42
1.0000
  0
VERTEX
  8
0
 10
0.0000
 20
-0.2500
 30
0.0000
  0
SEQEND
  8
0
  0
ENDBLK
  8
0
  0
BLOCK
  8
0
  2
THERMALV
 70
64
 10
0.0000
 20
0.0000
 30
0.0000
  3
THERMALV
  0
POLYLINE
  8
0
 66
1
 10
0.0000
 20
0.0000
 30
0.0000
 40
0.1000
 41
0.1000
 70
0
  0
VERTEX
  8
0
 10
-0.2379
 20
0.4500
 30
0.0000
  0
VERTEX
  8
0
 10
0.2379
 20
0.4500
 30
0.0000
  0
SEQEND
  8
0
  0
POLYLINE
  8
0
 66
1
 10
0.0000
 20
0.0000
 30
0.0000
 40
0.0500
 41
0.0500
 70
0
  0
VERTEX
  8
0
 10
0.2379
 20
0.4250
 30
0.0000
 42
1.0000
  0
VERTEX
  8
0
 10
0.2379
 20
0.4750
 30
0.0000
  0
SEQEND
  8
0
  0
POLYLINE
  8
0
 66
1
 10
0.0000
 20
0.0000
 30
0.0000
 40
0.0500
 41
0.0500
 70
0
  0
VERTEX
  8
0
 10
-0.2379
 20
0.4750
 30
0.0000
 42
1.0000
  0
VERTEX
  8
0
 10
-0.2379
 20
0.4250
 30
0.0000
  0
SEQEND
  8
0
  0
POLYLINE
  8
0
 66
1
 10
0.0000
 20
0.0000
 30
0.0000
 40
0.1000
 41
0.1000
 70
0
  0
VERTEX
  8
0
 10
0.4500
 20
0.2379
 30
0.0000
  0
VERTEX
  8
0
 10
0.4500
 20
-0.2379
 30
0.0000
  0
SEQEND
  8
0
  0
POLYLINE
  8
0
 66
1
 10
0.0000
 20
0.0000
 30
0.0000
 40
0.0500
 41
0.0500
 70
0
  0
VERTEX
  8
0
 10
0.4250
 20
-0.2379
 30
0.0000
 42
1.0000
  0
VERTEX
  8
0
 10
0.4750
 20
-0.2379
 30
0.0000
  0
SEQEND
  8
0
  0
POLYLINE
  8
0
 66
1
 10
0.0000
 20
0.0000
 30
0.0000
 40
0.0500
 41
0.0500
 70
0
  0
VERTEX
  8
0
 10
0.4750
 20
0.2379
 30
0.0000
 42
1.0000
  0
VERTEX
  8
0
 10
0.4250
 20
0.2379
 30
0.0000
  0
SEQEND
  8
0
  0
POLYLINE
  8
0
 66
1
 10
0.0000
 20
0.0000
 30
0.0000
 40
0.1000
 41
0.1000
 70
0
  0
VERTEX
  8
0
 10
0.2379
 20
-0.4500
 30
0.0000
  0
VERTEX
  8
0
 10
-0.2379
 20
-0.4500
 30
0.0000
  0
SEQEND
  8
0
  0
POLYLINE
  8
0
 66
1
 10
0.0000
 20
0.0000
 30
0.0000
 40
0.0500
 41
0.0500
 70
0
  0
VERTEX
  8
0
 10
-0.2379
 20
-0.4250
 30
0.0000
 42
1.0000
  0
VERTEX
  8
0
 10
-0.2379
 20
-0.4750
 30
0.0000
  0
SEQEND
  8
0
  0
POLYLINE
  8
0
 66
1
 10
0.0000
 20
0.0000
 30
0.0000
 40
0.0500
 41
0.0500
 70
0
  0
VERTEX
  8
0
 10
0.2379
 20
-0.4750
 30
0.0000
 42
1.0000
  0
VERTEX
  8
0
 10
0.2379
 20
-0.4250
 30
0.0000
  0
SEQEND
  8
0
  0
POLYLINE
  8
0
 66
1
 10
0.0000
 20
0.0000
 30
0.0000
 40
0.1000
 41
0.1000
 70
0
  0
VERTEX
  8
0
 10
-0.4500
 20
-0.2379
 30
0.0000
  0
VERTEX
  8
0
 10
-0.4500
 20
0.2379
 30
0.0000
  0
SEQEND
  8
0
  0
POLYLINE
  8
0
 66
1
 10
0.0000
 20
0.0000
 30
0.0000
 40
0.0500
 41
0.0500
 70
0
  0
VERTEX
  8
0
 10
-0.4250
 20
0.2379
 30
0.0000
 42
1.0000
  0
VERTEX
  8
0
 10
-0.4750
 20
0.2379
 30
0.0000
  0
SEQEND
  8
0
  0
POLYLINE
  8
0
 66
1
 10
0.0000
 20
0.0000
 30
0.0000
 40
0.0500
 41
0.0500
 70
0
  0
VERTEX
  8
0
 10
-0.4750
 20
-0.2379
 30
0.0000
 42
1.0000
  0
VERTEX
  8
0
 10
-0.4250
 20
-0.2379
 30
0.0000
  0
SEQEND
  8
0
  0
ENDBLK
  8
0
  0
BLOCK
  8
0
  2
LONGP100
 70
64
 10
0.0000
 20
0.0000
 30
0.0000
  3
LONGP100
  0
POLYLINE
  8
0
 66
1
 10
0.0000
 20
0.0000
 30
0.0000
 40
1.0000
 41
1.0000
 70
0
  0
VERTEX
  8
0
 10
-0.5000
 20
0.0000
 30
0.0000
  0
VERTEX
  8
0
 10
0.5000
 20
0.0000
 30
0.0000
  0
SEQEND
  8
0
  0
POLYLINE
  8
0
 66
1
 10
0.0000
 20
0.0000
 30
0.0000
 40
0.5000
 41
0.5000
 70
0
  0
VERTEX
  8
0
 10
0.5000
 20
-0.2500
 30
0.0000
 42
1.0000
  0
VERTEX
  8
0
 10
0.5000
 20
0.2500
 30
0.0000
  0
SEQEND
  8
0
  0
POLYLINE
  8
0
 66
1
 10
0.0000
 20
0.0000
 30
0.0000
 40
0.5000
 41
0.5000
 70
0
  0
VERTEX
  8
0
 10
-0.5000
 20
0.2500
 30
0.0000
 42
1.0000
  0
VERTEX
  8
0
 10
-0.5000
 20
-0.2500
 30
0.0000
  0
SEQEND
  8
0
  0
ENDBLK
  8
0
  0
ENDSEC
  0
SECTION
  2
ENTITIES
  0
LINE
  8
20
 10
110.8000
 20
19.7000
 30
0.0000
 11
110.8000
 21
64.8000
 31
0.0000
  0
LINE
  8
20
 10
110.8000
 20
64.8000
 30
0.0000
 11
102.7028
 21
72.7972
 31
0.0000
  0
LINE
  8
20
 10
102.7028
 20
72.7972
 30
0.0000
 11
22.6972
 21
72.7972
 31
0.0000
  0
LINE
  8
20
 10
22.6972
 20
72.7972
 30
0.0000
 11
14.8000
 21
64.8000
 31
0.0000
  0
LINE
  8
20
 10
14.8000
 20
64.8000
 30
0.0000
 11
14.8000
 21
23.6000
 31
0.0000
  0
LINE
  8
20
 10
37.6000
 20
12.2000
 30
0.0000
 11
37.6000
 21
40.5000
 31
0.0000
  0
LINE
  8
20
 10
37.6000
 20
40.5000
 30
0.0000
 11
90.5100
 21
40.5000
 31
0.0000
  0
LINE
  8
20
 10
90.5100
 20
40.5000
 30
0.0000
 11
90.7200
 21
19.7000
 31
0.0000
  0
LINE
  8
20
 10
90.7200
 20
19.7000
 30
0.0000
 11
110.8000
 21
19.7000
 31
0.0000
  0
POLYLINE
  8
20
 66
1
 10
0.0000
 20
0.0000
 30
0.0000
 40
0.1000
 41
0.1000
 70
0
  0
VERTEX
  8
20
 10
14.8000
 20
23.6000
 30
0.0000
  0
VERTEX
  8
20
 10
18.3000
 20
20.1000
 30
0.0000
  0
SEQEND
  8
0
  0
POLYLINE
  8
20
 66
1
 10
0.0000
 20
0.0000
 30
0.0000
 40
0.0500
 41
0.0500
 70
0
  0
VERTEX
  8
20
 10
18.2823
 20
20.0823
 30
0.0000
 42
1.0000
  0
VERTEX
  8
20
 10
18.3177
 20
20.1177
 30
0.0000
  0
SEQEND
  8
0
  0
POLYLINE
  8
20
 66
1
 10
0.0000
 20
0.0000
 30
0.0000
 40
0.0500
 41
0.0500
 70
0
  0
VERTEX
  8
20
 10
14.8177
 20
23.6177
 30
0.0000
 42
1.0000
  0
VERTEX
  8
20
 10
14.7823
 20
23.5823
 30
0.0000
  0
SEQEND
  8
0
  0
POLYLINE
  8
20
 66
1
 10
0.0000
 20
0.0000
 30
0.0000
 40
0.1000
 41
0.1000
 70
0
  0
VERTEX
  8
20
 10
18.3000
 20
20.1000
 30
0.0000
  0
VERTEX
  8
20
 10
22.4168
 20
20.1000
 30
0.0000
  0
SEQEND
  8
0
  0
POLYLINE
  8
20
 66
1
 10
0.0000
 20
0.0000
 30
0.0000
 40
0.0500
 41
0.0500
 70
0
  0
VERTEX
  8
20
 10
22.4168
 20
20.0750
 30
0.0000
 42
1.0000
  0
VERTEX
  8
20
 10
22.4168
 20
20.1250
 30
0.0000
  0
SEQEND
  8
0
  0
POLYLINE
  8
20
 66
1
 10
0.0000
 20
0.0000
 30
0.0000
 40
0.0500
 41
0.0500
 70
0
  0
VERTEX
  8
20
 10
18.3000
 20
20.1250
 30
0.0000
 42
1.0000
  0
VERTEX
  8
20
 10
18.3000
 20
20.0750
 30
0.0000
  0
SEQEND
  8
0
  0
POLYLINE
  8
20
 66
1
 10
0.0000
 20
0.0000
 30
0.0000
 40
0.1000
 41
0.1000
 70
0
  0
VERTEX
  8
20
 10
25.3000
 20
17.2168
 30
0.0000
 42
0.4142
  0
VERTEX
  8
20
 10
22.4168
 20
20.1000
 30
0.0000
  0
SEQEND
  8
0
  0
POLYLINE
  8
20
 66
1
 10
0.0000
 20
0.0000
 30
0.0000
 40
0.0500
 41
0.0500
 70
0
  0
VERTEX
  8
20
 10
25.2750
 20
17.2168
 30
0.0000
 42
1.0000
  0
VERTEX
  8
20
 10
25.3250
 20
17.2168
 30
0.0000
  0
SEQEND
  8
0
  0
POLYLINE
  8
20
 66
1
 10
0.0000
 20
0.0000
 30
0.0000
 40
0.0500
 41
0.0500
 70
0
  0
VERTEX
  8
20
 10
22.4168
 20
20.1250
 30
0.0000
 42
1.0000
  0
VERTEX
  8
20
 10
22.4168
 20
20.0750
 30
0.0000
  0
SEQEND
  8
0
  0
POLYLINE
  8
20
 66
1
 10
0.0000
 20
0.0000
 30
0.0000
 40
0.1000
 41
0.1000
 70
0
  0
VERTEX
  8
20
 10
25.3000
 20
17.2168
 30
0.0000
  0
VERTEX
  8
20
 10
25.3000
 20
13.0000
 30
0.0000
  0
SEQEND
  8
0
  0
POLYLINE
  8
20
 66
1
 10
0.0000
 20
0.0000
 30
0.0000
 40
0.0500
 41
0.0500
 70
0
  0
VERTEX
  8
20
 10
25.2750
 20
13.0000
 30
0.0000
 42
1.0000
  0
VERTEX
  8
20
 10
25.3250
 20
13.0000
 30
0.0000
  0
SEQEND
  8
0
  0
POLYLINE
  8
20
 66
1
 10
0.0000
 20
0.0000
 30
0.0000
 40
0.0500
 41
0.0500
 70
0
  0
VERTEX
  8
20
 10
25.3250
 20
17.2168
 30
0.0000
 42
1.0000
  0
VERTEX
  8
20
 10
25.2750
 20
17.2168
 30
0.0000
  0
SEQEND
  8
0
  0
POLYLINE
  8
20
 66
1
 10
0.0000
 20
0.0000
 30
0.0000
 40
0.1000
 41
0.1000
 70
0
  0
VERTEX
  8
20
 10
25.3000
 20
13.0000
 30
0.0000
  0
VERTEX
  8
20
 10
26.3000
 20
12.0000
 30
0.0000
  0
SEQEND
  8
0
  0
POLYLINE
  8
20
 66
1
 10
0.0000
 20
0.0000
 30
0.0000
 40
0.0500
 41
0.0500
 70
0
  0
VERTEX
  8
20
 10
26.2823
 20
11.9823
 30
0.0000
 42
1.0000
  0
VERTEX
  8
20
 10
26.3177
 20
12.0177
 30
0.0000
  0
SEQEND
  8
0
  0
POLYLINE
  8
20
 66
1
 10
0.0000
 20
0.0000
 30
0.0000
 40
0.0500
 41
0.0500
 70
0
  0
VERTEX
  8
20
 10
25.3177
 20
13.0177
 30
0.0000
 42
1.0000
  0
VERTEX
  8
20
 10
25.2823
 20
12.9823
 30
0.0000
  0
SEQEND
  8
0
  0
POLYLINE
  8
20
 66
1
 10
0.0000
 20
0.0000
 30
0.0000
 40
0.1524
 41
0.1524
 70
0
  0
VERTEX
  8
20
 10
26.3000
 20
12.0000
 30
0.0000
  0
VERTEX
  8
20
 10
37.4000
 20
12.0000
 30
0.0000
  0
SEQEND
  8
0
  0
POLYLINE
  8
20
 66
1
 10
0.0000
 20
0.0000
 30
0.0000
 40
0.0762
 41
0.0762
 70
0
  0
VERTEX
  8
20
 10
37.4000
 20
11.9619
 30
0.0000
 42
1.0000
  0
VERTEX
  8
20
 10
37.4000
 20
12.0381
 30
0.0000
  0
SEQEND
  8
0
  0
POLYLINE
  8
20
 66
1
 10
0.0000
 20
0.0000
 30
0.0000
 40
0.0762
 41
0.0762
 70
0
  0
VERTEX
  8
20
 10
26.3000
 20
12.0381
 30
0.0000
 42
1.0000
  0
VERTEX
  8
20
 10
26.3000
 20
11.9619
 30
0.0000
  0
SEQEND
  8
0
  0
POLYLINE
  8
20
 66
1
 10
0.0000
 20
0.0000
 30
0.0000
 40
0.1524
 41
0.1524
 70
0
  0
VERTEX
  8
20
 10
37.4000
 20
12.0000
 30
0.0000
  0
VERTEX
  8
20
 10
37.6000
 20
12.2000
 30
0.0000
  0
SEQEND
  8
0
  0
POLYLINE
  8
20
 66
1
 10
0.0000
 20
0.0000
 30
0.0000
 40
0.0762
 41
0.0762
 70
0
  0
VERTEX
  8
20
 10
37.6269
 20
12.1731
 30
0.0000
 42
1.0000
  0
VERTEX
  8
20
 10
37.5731
 20
12.2269
 30
0.0000
  0
SEQEND
  8
0
  0
POLYLINE
  8
20
 66
1
 10
0.0000
 20
0.0000
 30
0.0000
 40
0.0762
 41
0.0762
 70
0
  0
VERTEX
  8
20
 10
37.3731
 20
12.0269
 30
0.0000
 42
1.0000
  0
VERTEX
  8
20
 10
37.4269
 20
11.9731
 30
0.0000
  0
SEQEND
  8
0
  0
POLYLINE
  8
52
 66
1
 10
0.0000
 20
0.0000
 30
0.0000
 40
0.1524
 41
0.1524
 70
0
  0
VERTEX
  8
52
 10
35.1000
 20
52.6500
 30
0.0000
  0
VERTEX
  8
52
 10
35.1000
 20
52.0900
 30
0.0000
  0
SEQEND
  8
0
  0
POLYLINE
  8
52
 66
1
 10
0.0000
 20
0.0000
 30
0.0000
 40
0.0762
 41
0.0762
 70
0
  0
VERTEX
  8
52
 10
35.0619
 20
52.0900
 30
0.0000
 42
1.0000
  0
VERTEX
  8
52
 10
35.1381
 20
52.0900
 30
0.0000
  0
SEQEND
  8
0
  0
POLYLINE
  8
52
 66
1
 10
0.0000
 20
0.0000
 30
0.0000
 40
0.0762
 41
0.0762
 70
0
  0
VERTEX
  8
52
 10
35.1381
 20
52.6500
 30
0.0000
 42
1.0000
  0
VERTEX
  8
52
 10
35.0619
 20
52.6500
 30
0.0000
  0
SEQEND
  8
0
  0
POLYLINE
  8
52
 66
1
 10
0.0000
 20
0.0000
 30
0.0000
 40
0.1524
 41
0.1524
 70
0
  0
VERTEX
  8
52
 10
35.1000
 20
52.0900
 30
0.0000
  0
VERTEX
  8
52
 10
35.1000
 20
51.5100
 30
0.0000
  0
SEQEND
  8
0
  0
POLYLINE
  8
52
 66
1
 10
0.0000
 20
0.0000
 30
0.0000
 40
0.0762
 41
0.0762
 70
0
  0
VERTEX
  8
52
 10
35.0619
 20
51.5100
 30
0.0000
 42
1.0000
  0
VERTEX
  8
52
 10
35.1381
 20
51.5100
 30
0.0000
  0
SEQEND
  8
0
  0
POLYLINE
  8
52
 66
1
 10
0.0000
 20
0.0000
 30
0.0000
 40
0.0762
 41
0.0762
 70
0
  0
VERTEX
  8
52
 10
35.1381
 20
52.0900
 30
0.0000
 42
1.0000
  0
VERTEX
  8
52
 10
35.0619
 20
52.0900
 30
0.0000
  0
SEQEND
  8
0
  0
POLYLINE
  8
52
 66
1
 10
0.0000
 20
0.0000
 30
0.0000
 40
0.1524
 41
0.1524
 70
0
  0
VERTEX
  8
52
 10
35.1000
 20
52.0900
 30
0.0000
  0
VERTEX
  8
52
 10
35.6500
 20
52.0900
 30
0.0000
  0
SEQEND
  8
0
  0
POLYLINE
  8
52
 66
1
 10
0.0000
 20
0.0000
 30
0.0000
 40
0.0762
 41
0.0762
 70
0
  0
VERTEX
  8
52
 10
35.6500
 20
52.0519
 30
0.0000
 42
1.0000
  0
VERTEX
  8
52
 10
35.6500
 20
52.1281
 30
0.0000
  0
SEQEND
  8
0
  0
POLYLINE
  8
52
 66
1
 10
0.0000
 20
0.0000
 30
0.0000
 40
0.0762
 41
0.0762
 70
0
  0
VERTEX
  8
52
 10
35.1000
 20
52.1281
 30
0.0000
 42
1.0000
  0
VERTEX
  8
52
 10
35.1000
 20
52.0519
 30
0.0000
  0
SEQEND
  8
0
  0
POLYLINE
  8
52
 66
1
 10
0.0000
 20
0.0000
 30
0.0000
 40
0.1524
 41
0.1524
 70
0
  0
VERTEX
  8
52
 10
35.1000
 20
52.0900
 30
0.0000
  0
VERTEX
  8
52
 10
34.5300
 20
52.0900
 30
0.0000
  0
SEQEND
  8
0
  0
POLYLINE
  8
52
 66
1
 10
0.0000
 20
0.0000
 30
0.0000
 40
0.0762
 41
0.0762
 70
0
  0
VERTEX
  8
52
 10
34.5300
 20
52.1281
 30
0.0000
 42
1.0000
  0
VERTEX
  8
52
 10
34.5300
 20
52.0519
 30
0.0000
  0
SEQEND
  8
0
  0
POLYLINE
  8
52
 66
1
 10
0.0000
 20
0.0000
 30
0.0000
 40
0.0762
 41
0.0762
 70
0
  0
VERTEX
  8
52
 10
35.1000
 20
52.0519
 30
0.0000
 42
1.0000
  0
VERTEX
  8
52
 10
35.1000
 20
52.1281
 30
0.0000
  0
SEQEND
  8
0
  0
POLYLINE
  8
52
 66
1
 10
0.0000
 20
0.0000
 30
0.0000
 40
0.1524
 41
0.1524
 70
0
  0
VERTEX
  8
52
 10
27.0800
 20
51.7500
 30
0.0000
  0
VERTEX
  8
52
 10
27.0800
 20
51.1900
 30
0.0000
  0
SEQEND
  8
0
  0
POLYLINE
  8
52
 66
1
 10
0.0000
 20
0.0000
 30
0.0000
 40
0.0762
 41
0.0762
 70
0
  0
VERTEX
  8
52
 10
27.0419
 20
51.1900
 30
0.0000
 42
1.0000
  0
VERTEX
  8
52
 10
27.1181
 20
51.1900
 30
0.0000
  0
SEQEND
  8
0
  0
POLYLINE
  8
52
 66
1
 10
0.0000
 20
0.0000
 30
0.0000
 40
0.0762
 41
0.0762
 70
0
  0
VERTEX
  8
52
 10
27.1181
 20
51.7500
 30
0.0000
 42
1.0000
  0
VERTEX
  8
52
 10
27.0419
 20
51.7500
 30
0.0000
  0
SEQEND
  8
0
  0
POLYLINE
  8
52
 66
1
 10
0.0000
 20
0.0000
 30
0.0000
 40
0.1524
 41
0.1524
 70
0
  0
VERTEX
  8
52
 10
27.0800
 20
51.1900
 30
0.0000
  0
VERTEX
  8
52
 10
27.0800
 20
50.6100
 30
0.0000
  0
SEQEND
  8
0
  0
POLYLINE
  8
52
 66
1
 10
0.0000
 20
0.0000
 30
0.0000
 40
0.0762
 41
0.0762
 70
0
  0
VERTEX
  8
52
 10
27.0419
 20
50.6100
 30
0.0000
 42
1.0000
  0
VERTEX
  8
52
 10
27.1181
 20
50.6100
 30
0.0000
  0
SEQEND
  8
0
  0
POLYLINE
  8
52
 66
1
 10
0.0000
 20
0.0000
 30
0.0000
 40
0.0762
 41
0.0762
 70
0
  0
VERTEX
  8
52
 10
27.1181
 20
51.1900
 30
0.0000
 42
1.0000
  0
VERTEX
  8
52
 10
27.0419
 20
51.1900
 30
0.0000
  0
SEQEND
  8
0
  0
POLYLINE
  8
52
 66
1
 10
0.0000
 20
0.0000
 30
0.0000
 40
0.1524
 41
0.1524
 70
0
  0
VERTEX
  8
52
 10
27.0800
 20
51.1900
 30
0.0000
  0
VERTEX
  8
52
 10
27.6300
 20
51.1900
 30
0.0000
  0
SEQEND
  8
0
  0
POLYLINE
  8
52
 66
1
 10
0.0000
 20
0.0000
 30
0.0000
 40
0.0762
 41
0.0762
 70
0
  0
VERTEX
  8
52
 10
27.6300
 20
51.1519
 30
0.0000
 42
1.0000
  0
VERTEX
  8
52
 10
27.6300
 20
51.2281
 30
0.0000
  0
SEQEND
  8
0
  0
POLYLINE
  8
52
 66
1
 10
0.0000
 20
0.0000
 30
0.0000
 40
0.0762
 41
0.0762
 70
0
  0
VERTEX
  8
52
 10
27.0800
 20
51.2281
 30
0.0000
 42
1.0000
  0
VERTEX
  8
52
 10
27.0800
 20
51.1519
 30
0.0000
  0
SEQEND
  8
0
  0
POLYLINE
  8
52
 66
1
 10
0.0000
 20
0.0000
 30
0.0000
 40
0.1524
 41
0.1524
 70
0
  0
VERTEX
  8
52
 10
27.0800
 20
51.1900
 30
0.0000
  0
VERTEX
  8
52
 10
26.5100
 20
51.1900
 30
0.0000
  0
SEQEND
  8
0
  0
POLYLINE
  8
52
 66
1
 10
0.0000
 20
0.0000
 30
0.0000
 40
0.0762
 41
0.0762
 70
0
  0
VERTEX
  8
52
 10
26.5100
 20
51.2281
 30
0.0000
 42
1.0000
  0
VERTEX
  8
52
 10
26.5100
 20
51.1519
 30
0.0000
  0
SEQEND
  8
0
  0
POLYLINE
  8
52
 66
1
 10
0.0000
 20
0.0000
 30
0.0000
 40
0.0762
 41
0.0762
 70
0
  0
VERTEX
  8
52
 10
27.0800
 20
51.1519
 30
0.0000
 42
1.0000
  0
VERTEX
  8
52
 10
27.0800
 20
51.2281
 30
0.0000
  0
SEQEND
  8
0
  0
POLYLINE
  8
52
 66
1
 10
0.0000
 20
0.0000
 30
0.0000
 40
0.1524
 41
0.1524
 70
0
  0
VERTEX
  8
52
 10
20.2200
 20
50.9200
 30
0.0000
  0
VERTEX
  8
52
 10
20.2200
 20
50.3600
 30
0.0000
  0
SEQEND
  8
0
  0
POLYLINE
  8
52
 66
1
 10
0.0000
 20
0.0000
 30
0.0000
 40
0.0762
 41
0.0762
 70
0
  0
VERTEX
  8
52
 10
20.1819
 20
50.3600
 30
0.0000
 42
1.0000
  0
VERTEX
  8
52
 10
20.2581
 20
50.3600
 30
0.0000
  0
SEQEND
  8
0
  0
POLYLINE
  8
52
 66
1
 10
0.0000
 20
0.0000
 30
0.0000
 40
0.0762
 41
0.0762
 70
0
  0
VERTEX
  8
52
 10
20.2581
 20
50.9200
 30
0.0000
 42
1.0000
  0
VERTEX
  8
52
 10
20.1819
 20
50.9200
 30
0.0000
  0
SEQEND
  8
0
  0
POLYLINE
  8
52
 66
1
 10
0.0000
 20
0.0000
 30
0.0000
 40
0.1524
 41
0.1524
 70
0
  0
VERTEX
  8
52
 10
20.2200
 20
50.3600
 30
0.0000
  0
VERTEX
  8
52
 10
20.2200
 20
49.7800
 30
0.0000
  0
SEQEND
  8
0
  0
POLYLINE
  8
52
 66
1
 10
0.0000
 20
0.0000
 30
0.0000
 40
0.0762
 41
0.0762
 70
0
  0
VERTEX
  8
52
 10
20.1819
 20
49.7800
 30
0.0000
 42
1.0000
  0
VERTEX
  8
52
 10
20.2581
 20
49.7800
 30
0.0000
  0
SEQEND
  8
0
  0
POLYLINE
  8
52
 66
1
 10
0.0000
 20
0.0000
 30
0.0000
 40
0.0762
 41
0.0762
 70
0
  0
VERTEX
  8
52
 10
20.2581
 20
50.3600
 30
0.0000
 42
1.0000
  0
VERTEX
  8
52
 10
20.1819
 20
50.3600
 30
0.0000
  0
SEQEND
  8
0
  0
POLYLINE
  8
52
 66
1
 10
0.0000
 20
0.0000
 30
0.0000
 40
0.1524
 41
0.1524
 70
0
  0
VERTEX
  8
52
 10
20.2200
 20
50.3600
 30
0.0000
  0
VERTEX
  8
52
 10
20.7700
 20
50.3600
 30
0.0000
  0
SEQEND
  8
0
  0
POLYLINE
  8
52
 66
1
 10
0.0000
 20
0.0000
 30
0.0000
 40
0.0762
 41
0.0762
 70
0
  0
VERTEX
  8
52
 10
20.7700
 20
50.3219
 30
0.0000
 42
1.0000
  0
VERTEX
  8
52
 10
20.7700
 20
50.3981
 30
0.0000
  0
SEQEND
  8
0
  0
POLYLINE
  8
52
 66
1
 10
0.0000
 20
0.0000
 30
0.0000
 40
0.0762
 41
0.0762
 70
0
  0
VERTEX
  8
52
 10
20.2200
 20
50.3981
 30
0.0000
 42
1.0000
  0
VERTEX
  8
52
 10
20.2200
 20
50.3219
 30
0.0000
  0
SEQEND
  8
0
  0
POLYLINE
  8
52
 66
1
 10
0.0000
 20
0.0000
 30
0.0000
 40
0.1524
 41
0.1524
 70
0
  0
VERTEX
  8
52
 10
20.2200
 20
50.3600
 30
0.0000
  0
VERTEX
  8
52
 10
19.6500
 20
50.3600
 30
0.0000
  0
SEQEND
  8
0
  0
POLYLINE
  8
52
 66
1
 10
0.0000
 20
0.0000
 30
0.0000
 40
0.0762
 41
0.0762
 70
0
  0
VERTEX
  8
52
 10
19.6500
 20
50.3981
 30
0.0000
 42
1.0000
  0
VERTEX
  8
52
 10
19.6500
 20
50.3219
 30
0.0000
  0
SEQEND
  8
0
  0
POLYLINE
  8
52
 66
1
 10
0.0000
 20
0.0000
 30
0.0000
 40
0.0762
 41
0.0762
 70
0
  0
VERTEX
  8
52
 10
20.2200
 20
50.3219
 30
0.0000
 42
1.0000
  0
VERTEX
  8
52
 10
20.2200
 20
50.3981
 30
0.0000
  0
SEQEND
  8
0
  0
POLYLINE
  8
52
 66
1
 10
0.0000
 20
0.0000
 30
0.0000
 40
0.1524
 41
0.1524
 70
0
  0
VERTEX
  8
52
 10
16.8400
 20
25.4700
 30
0.0000
  0
VERTEX
  8
52
 10
16.8400
 20
24.9100
 30
0.0000
  0
SEQEND
  8
0
  0
POLYLINE
  8
52
 66
1
 10
0.0000
 20
0.0000
 30
0.0000
 40
0.0762
 41
0.0762
 70
0
  0
VERTEX
  8
52
 10
16.8019
 20
24.9100
 30
0.0000
 42
1.0000
  0
VERTEX
  8
52
 10
16.8781
 20
24.9100
 30
0.0000
  0
SEQEND
  8
0
  0
POLYLINE
  8
52
 66
1
 10
0.0000
 20
0.0000
 30
0.0000
 40
0.0762
 41
0.0762
 70
0
  0
VERTEX
  8
52
 10
16.8781
 20
25.4700
 30
0.0000
 42
1.0000
  0
VERTEX
  8
52
 10
16.8019
 20
25.4700
 30
0.0000
  0
SEQEND
  8
0
  0
POLYLINE
  8
52
 66
1
 10
0.0000
 20
0.0000
 30
0.0000
 40
0.1524
 41
0.1524
 70
0
  0
VERTEX
  8
52
 10
16.8400
 20
24.9100
 30
0.0000
  0
VERTEX
  8
52
 10
16.8400
 20
24.3300
 30
0.0000
  0
SEQEND
  8
0
  0
POLYLINE
  8
52
 66
1
 10
0.0000
 20
0.0000
 30
0.0000
 40
0.0762
 41
0.0762
 70
0
  0
VERTEX
  8
52
 10
16.8019
 20
24.3300
 30
0.0000
 42
1.0000
  0
VERTEX
  8
52
 10
16.8781
 20
24.3300
 30
0.0000
  0
SEQEND
  8
0
  0
POLYLINE
  8
52
 66
1
 10
0.0000
 20
0.0000
 30
0.0000
 40
0.0762
 41
0.0762
 70
0
  0
VERTEX
  8
52
 10
16.8781
 20
24.9100
 30
0.0000
 42
1.0000
  0
VERTEX
  8
52
 10
16.8019
 20
24.9100
 30
0.0000
  0
SEQEND
  8
0
  0
POLYLINE
  8
52
 66
1
 10
0.0000
 20
0.0000
 30
0.0000
 40
0.1524
 41
0.1524
 70
0
  0
VERTEX
  8
52
 10
16.8400
 20
24.9100
 30
0.0000
  0
VERTEX
  8
52
 10
17.3900
 20
24.9100
 30
0.0000
  0
SEQEND
  8
0
  0
POLYLINE
  8
52
 66
1
 10
0.0000
 20
0.0000
 30
0.0000
 40
0.0762
 41
0.0762
 70
0
  0
VERTEX
  8
52
 10
17.3900
 20
24.8719
 30
0.0000
 42
1.0000
  0
VERTEX
  8
52
 10
17.3900
 20
24.9481
 30
0.0000
  0
SEQEND
  8
0
  0
POLYLINE
  8
52
 66
1
 10
0.0000
 20
0.0000
 30
0.0000
 40
0.0762
 41
0.0762
 70
0
  0
VERTEX
  8
52
 10
16.8400
 20
24.9481
 30
0.0000
 42
1.0000
  0
VERTEX
  8
52
 10
16.8400
 20
24.8719
 30
0.0000
  0
SEQEND
  8
0
  0
POLYLINE
  8
52
 66
1
 10
0.0000
 20
0.0000
 30
0.0000
 40
0.1524
 41
0.1524
 70
0
  0
VERTEX
  8
52
 10
16.8400
 20
24.9100
 30
0.0000
  0
VERTEX
  8
52
 10
16.2700
 20
24.9100
 30
0.0000
  0
SEQEND
  8
0
  0
POLYLINE
  8
52
 66
1
 10
0.0000
 20
0.0000
 30
0.0000
 40
0.0762
 41
0.0762
 70
0
  0
VERTEX
  8
52
 10
16.2700
 20
24.9481
 30
0.0000
 42
1.0000
  0
VERTEX
  8
52
 10
16.2700
 20
24.8719
 30
0.0000
  0
SEQEND
  8
0
  0
POLYLINE
  8
52
 66
1
 10
0.0000
 20
0.0000
 30
0.0000
 40
0.0762
 41
0.0762
 70
0
  0
VERTEX
  8
52
 10
16.8400
 20
24.8719
 30
0.0000
 42
1.0000
  0
VERTEX
  8
52
 10
16.8400
 20
24.9481
 30
0.0000
  0
SEQEND
  8
0
  0
POLYLINE
  8
52
 66
1
 10
0.0000
 20
0.0000
 30
0.0000
 40
0.1524
 41
0.1524
 70
0
  0
VERTEX
  8
52
 10
20.0200
 20
29.4500
 30
0.0000
  0
VERTEX
  8
52
 10
20.0200
 20
28.8900
 30
0.0000
  0
SEQEND
  8
0
  0
POLYLINE
  8
52
 66
1
 10
0.0000
 20
0.0000
 30
0.0000
 40
0.0762
 41
0.0762
 70
0
  0
VERTEX
  8
52
 10
19.9819
 20
28.8900
 30
0.0000
 42
1.0000
  0
VERTEX
  8
52
 10
20.0581
 20
28.8900
 30
0.0000
  0
SEQEND
  8
0
  0
POLYLINE
  8
52
 66
1
 10
0.0000
 20
0.0000
 30
0.0000
 40
0.0762
 41
0.0762
 70
0
  0
VERTEX
  8
52
 10
20.0581
 20
29.4500
 30
0.0000
 42
1.0000
  0
VERTEX
  8
52
 10
19.9819
 20
29.4500
 30
0.0000
  0
SEQEND
  8
0
  0
POLYLINE
  8
52
 66
1
 10
0.0000
 20
0.0000
 30
0.0000
 40
0.1524
 41
0.1524
 70
0
  0
VERTEX
  8
52
 10
20.0200
 20
28.8900
 30
0.0000
  0
VERTEX
  8
52
 10
20.0200
 20
28.3100
 30
0.0000
  0
SEQEND
  8
0
  0
POLYLINE
  8
52
 66
1
 10
0.0000
 20
0.0000
 30
0.0000
 40
0.0762
 41
0.0762
 70
0
  0
VERTEX
  8
52
 10
19.9819
 20
28.3100
 30
0.0000
 42
1.0000
  0
VERTEX
  8
52
 10
20.0581
 20
28.3100
 30
0.0000
  0
SEQEND
  8
0
  0
POLYLINE
  8
52
 66
1
 10
0.0000
 20
0.0000
 30
0.0000
 40
0.0762
 41
0.0762
 70
0
  0
VERTEX
  8
52
 10
20.0581
 20
28.8900
 30
0.0000
 42
1.0000
  0
VERTEX
  8
52
 10
19.9819
 20
28.8900
 30
0.0000
  0
SEQEND
  8
0
  0
POLYLINE
  8
52
 66
1
 10
0.0000
 20
0.0000
 30
0.0000
 40
0.1524
 41
0.1524
 70
0
  0
VERTEX
  8
52
 10
20.0200
 20
28.8900
 30
0.0000
  0
VERTEX
  8
52
 10
20.5700
 20
28.8900
 30
0.0000
  0
SEQEND
  8
0
  0
POLYLINE
  8
52
 66
1
 10
0.0000
 20
0.0000
 30
0.0000
 40
0.0762
 41
0.0762
 70
0
  0
VERTEX
  8
52
 10
20.5700
 20
28.8519
 30
0.0000
 42
1.0000
  0
VERTEX
  8
52
 10
20.5700
 20
28.9281
 30
0.0000
  0
SEQEND
  8
0
  0
POLYLINE
  8
52
 66
1
 10
0.0000
 20
0.0000
 30
0.0000
 40
0.0762
 41
0.0762
 70
0
  0
VERTEX
  8
52
 10
20.0200
 20
28.9281
 30
0.0000
 42
1.0000
  0
VERTEX
  8
52
 10
20.0200
 20
28.8519
 30
0.0000
  0
SEQEND
  8
0
  0
POLYLINE
  8
52
 66
1
 10
0.0000
 20
0.0000
 30
0.0000
 40
0.1524
 41
0.1524
 70
0
  0
VERTEX
  8
52
 10
20.0200
 20
28.8900
 30
0.0000
  0
VERTEX
  8
52
 10
19.4500
 20
28.8900
 30
0.0000
  0
SEQEND
  8
0
  0
POLYLINE
  8
52
 66
1
 10
0.0000
 20
0.0000
 30
0.0000
 40
0.0762
 41
0.0762
 70
0
  0
VERTEX
  8
52
 10
19.4500
 20
28.9281
 30
0.0000
 42
1.0000
  0
VERTEX
  8
52
 10
19.4500
 20
28.8519
 30
0.0000
  0
SEQEND
  8
0
  0
POLYLINE
  8
52
 66
1
 10
0.0000
 20
0.0000
 30
0.0000
 40
0.0762
 41
0.0762
 70
0
  0
VERTEX
  8
52
 10
20.0200
 20
28.8519
 30
0.0000
 42
1.0000
  0
VERTEX
  8
52
 10
20.0200
 20
28.9281
 30
0.0000
  0
SEQEND
  8
0
  0
POLYLINE
  8
52
 66
1
 10
0.0000
 20
0.0000
 30
0.0000
 40
0.1524
 41
0.1524
 70
0
  0
VERTEX
  8
52
 10
29.0700
 20
30.3000
 30
0.0000
  0
VERTEX
  8
52
 10
29.0700
 20
29.7400
 30
0.0000
  0
SEQEND
  8
0
  0
POLYLINE
  8
52
 66
1
 10
0.0000
 20
0.0000
 30
0.0000
 40
0.0762
 41
0.0762
 70
0
  0
VERTEX
  8
52
 10
29.0319
 20
29.7400
 30
0.0000
 42
1.0000
  0
VERTEX
  8
52
 10
29.1081
 20
29.7400
 30
0.0000
  0
SEQEND
  8
0
  0
POLYLINE
  8
52
 66
1
 10
0.0000
 20
0.0000
 30
0.0000
 40
0.0762
 41
0.0762
 70
0
  0
VERTEX
  8
52
 10
29.1081
 20
30.3000
 30
0.0000
 42
1.0000
  0
VERTEX
  8
52
 10
29.0319
 20
30.3000
 30
0.0000
  0
SEQEND
  8
0
  0
POLYLINE
  8
52
 66
1
 10
0.0000
 20
0.0000
 30
0.0000
 40
0.1524
 41
0.1524
 70
0
  0
VERTEX
  8
52
 10
29.0700
 20
29.7400
 30
0.0000
  0
VERTEX
  8
52
 10
29.0700
 20
29.1600
 30
0.0000
  0
SEQEND
  8
0
  0
POLYLINE
  8
52
 66
1
 10
0.0000
 20
0.0000
 30
0.0000
 40
0.0762
 41
0.0762
 70
0
  0
VERTEX
  8
52
 10
29.0319
 20
29.1600
 30
0.0000
 42
1.0000
  0
VERTEX
  8
52
 10
29.1081
 20
29.1600
 30
0.0000
  0
SEQEND
  8
0
  0
POLYLINE
  8
52
 66
1
 10
0.0000
 20
0.0000
 30
0.0000
 40
0.0762
 41
0.0762
 70
0
  0
VERTEX
  8
52
 10
29.1081
 20
29.7400
 30
0.0000
 42
1.0000
  0
VERTEX
  8
52
 10
29.0319
 20
29.7400
 30
0.0000
  0
SEQEND
  8
0
  0
POLYLINE
  8
52
 66
1
 10
0.0000
 20
0.0000
 30
0.0000
 40
0.1524
 41
0.1524
 70
0
  0
VERTEX
  8
52
 10
29.0700
 20
29.7400
 30
0.0000
  0
VERTEX
  8
52
 10
29.6200
 20
29.7400
 30
0.0000
  0
SEQEND
  8
0
  0
POLYLINE
  8
52
 66
1
 10
0.0000
 20
0.0000
 30
0.0000
 40
0.0762
 41
0.0762
 70
0
  0
VERTEX
  8
52
 10
29.6200
 20
29.7019
 30
0.0000
 42
1.0000
  0
VERTEX
  8
52
 10
29.6200
 20
29.7781
 30
0.0000
  0
SEQEND
  8
0
  0
POLYLINE
  8
52
 66
1
 10
0.0000
 20
0.0000
 30
0.0000
 40
0.0762
 41
0.0762
 70
0
  0
VERTEX
  8
52
 10
29.0700
 20
29.7781
 30
0.0000
 42
1.0000
  0
VERTEX
  8
52
 10
29.0700
 20
29.7019
 30
0.0000
  0
SEQEND
  8
0
  0
POLYLINE
  8
52
 66
1
 10
0.0000
 20
0.0000
 30
0.0000
 40
0.1524
 41
0.1524
 70
0
  0
VERTEX
  8
52
 10
29.0700
 20
29.7400
 30
0.0000
  0
VERTEX
  8
52
 10
28.5000
 20
29.7400
 30
0.0000
  0
SEQEND
  8
0
  0
POLYLINE
  8
52
 66
1
 10
0.0000
 20
0.0000
 30
0.0000
 40
0.0762
 41
0.0762
 70
0
  0
VERTEX
  8
52
 10
28.5000
 20
29.7781
 30
0.0000
 42
1.0000
  0
VERTEX
  8
52
 10
28.5000
 20
29.7019
 30
0.0000
  0
SEQEND
  8
0
  0
POLYLINE
  8
52
 66
1
 10
0.0000
 20
0.0000
 30
0.0000
 40
0.0762
 41
0.0762
 70
0
  0
VERTEX
  8
52
 10
29.0700
 20
29.7019
 30
0.0000
 42
1.0000
  0
VERTEX
  8
52
 10
29.0700
 20
29.7781
 30
0.0000
  0
SEQEND
  8
0
  0
POLYLINE
  8
52
 66
1
 10
0.0000
 20
0.0000
 30
0.0000
 40
0.1524
 41
0.1524
 70
0
  0
VERTEX
  8
52
 10
32.1200
 20
32.0400
 30
0.0000
  0
VERTEX
  8
52
 10
32.1200
 20
31.4800
 30
0.0000
  0
SEQEND
  8
0
  0
POLYLINE
  8
52
 66
1
 10
0.0000
 20
0.0000
 30
0.0000
 40
0.0762
 41
0.0762
 70
0
  0
VERTEX
  8
52
 10
32.0819
 20
31.4800
 30
0.0000
 42
1.0000
  0
VERTEX
  8
52
 10
32.1581
 20
31.4800
 30
0.0000
  0
SEQEND
  8
0
  0
POLYLINE
  8
52
 66
1
 10
0.0000
 20
0.0000
 30
0.0000
 40
0.0762
 41
0.0762
 70
0
  0
VERTEX
  8
52
 10
32.1581
 20
32.0400
 30
0.0000
 42
1.0000
  0
VERTEX
  8
52
 10
32.0819
 20
32.0400
 30
0.0000
  0
SEQEND
  8
0
  0
POLYLINE
  8
52
 66
1
 10
0.0000
 20
0.0000
 30
0.0000
 40
0.1524
 41
0.1524
 70
0
  0
VERTEX
  8
52
 10
32.1200
 20
31.4800
 30
0.0000
  0
VERTEX
  8
52
 10
32.1200
 20
30.9000
 30
0.0000
  0
SEQEND
  8
0
  0
POLYLINE
  8
52
 66
1
 10
0.0000
 20
0.0000
 30
0.0000
 40
0.0762
 41
0.0762
 70
0
  0
VERTEX
  8
52
 10
32.0819
 20
30.9000
 30
0.0000
 42
1.0000
  0
VERTEX
  8
52
 10
32.1581
 20
30.9000
 30
0.0000
  0
SEQEND
  8
0
  0
POLYLINE
  8
52
 66
1
 10
0.0000
 20
0.0000
 30
0.0000
 40
0.0762
 41
0.0762
 70
0
  0
VERTEX
  8
52
 10
32.1581
 20
31.4800
 30
0.0000
 42
1.0000
  0
VERTEX
  8
52
 10
32.0819
 20
31.4800
 30
0.0000
  0
SEQEND
  8
0
  0
POLYLINE
  8
52
 66
1
 10
0.0000
 20
0.0000
 30
0.0000
 40
0.1524
 41
0.1524
 70
0
  0
VERTEX
  8
52
 10
32.1200
 20
31.4800
 30
0.0000
  0
VERTEX
  8
52
 10
32.6700
 20
31.4800
 30
0.0000
  0
SEQEND
  8
0
  0
POLYLINE
  8
52
 66
1
 10
0.0000
 20
0.0000
 30
0.0000
 40
0.0762
 41
0.0762
 70
0
  0
VERTEX
  8
52
 10
32.6700
 20
31.4419
 30
0.0000
 42
1.0000
  0
VERTEX
  8
52
 10
32.6700
 20
31.5181
 30
0.0000
  0
SEQEND
  8
0
  0
POLYLINE
  8
52
 66
1
 10
0.0000
 20
0.0000
 30
0.0000
 40
0.0762
 41
0.0762
 70
0
  0
VERTEX
  8
52
 10
32.1200
 20
31.5181
 30
0.0000
 42
1.0000
  0
VERTEX
  8
52
 10
32.1200
 20
31.4419
 30
0.0000
  0
SEQEND
  8
0
  0
POLYLINE
  8
52
 66
1
 10
0.0000
 20
0.0000
 30
0.0000
 40
0.1524
 41
0.1524
 70
0
  0
VERTEX
  8
52
 10
32.1200
 20
31.4800
 30
0.0000
  0
VERTEX
  8
52
 10
31.5500
 20
31.4800
 30
0.0000
  0
SEQEND
  8
0
  0
POLYLINE
  8
52
 66
1
 10
0.0000
 20
0.0000
 30
0.0000
 40
0.0762
 41
0.0762
 70
0
  0
VERTEX
  8
52
 10
31.5500
 20
31.5181
 30
0.0000
 42
1.0000
  0
VERTEX
  8
52
 10
31.5500
 20
31.4419
 30
0.0000
  0
SEQEND
  8
0
  0
POLYLINE
  8
52
 66
1
 10
0.0000
 20
0.0000
 30
0.0000
 40
0.0762
 41
0.0762
 70
0
  0
VERTEX
  8
52
 10
32.1200
 20
31.4419
 30
0.0000
 42
1.0000
  0
VERTEX
  8
52
 10
32.1200
 20
31.5181
 30
0.0000
  0
SEQEND
  8
0
  0
POLYLINE
  8
52
 66
1
 10
0.0000
 20
0.0000
 30
0.0000
 40
0.1524
 41
0.1524
 70
0
  0
VERTEX
  8
52
 10
35.5900
 20
31.8700
 30
0.0000
  0
VERTEX
  8
52
 10
35.5900
 20
31.3100
 30
0.0000
  0
SEQEND
  8
0
  0
POLYLINE
  8
52
 66
1
 10
0.0000
 20
0.0000
 30
0.0000
 40
0.0762
 41
0.0762
 70
0
  0
VERTEX
  8
52
 10
35.5519
 20
31.3100
 30
0.0000
 42
1.0000
  0
VERTEX
  8
52
 10
35.6281
 20
31.3100
 30
0.0000
  0
SEQEND
  8
0
  0
POLYLINE
  8
52
 66
1
 10
0.0000
 20
0.0000
 30
0.0000
 40
0.0762
 41
0.0762
 70
0
  0
VERTEX
  8
52
 10
35.6281
 20
31.8700
 30
0.0000
 42
1.0000
  0
VERTEX
  8
52
 10
35.5519
 20
31.8700
 30
0.0000
  0
SEQEND
  8
0
  0
POLYLINE
  8
52
 66
1
 10
0.0000
 20
0.0000
 30
0.0000
 40
0.1524
 41
0.1524
 70
0
  0
VERTEX
  8
52
 10
35.5900
 20
31.3100
 30
0.0000
  0
VERTEX
  8
52
 10
35.5900
 20
30.7300
 30
0.0000
  0
SEQEND
  8
0
  0
POLYLINE
  8
52
 66
1
 10
0.0000
 20
0.0000
 30
0.0000
 40
0.0762
 41
0.0762
 70
0
  0
VERTEX
  8
52
 10
35.5519
 20
30.7300
 30
0.0000
 42
1.0000
  0
VERTEX
  8
52
 10
35.6281
 20
30.7300
 30
0.0000
  0
SEQEND
  8
0
  0
POLYLINE
  8
52
 66
1
 10
0.0000
 20
0.0000
 30
0.0000
 40
0.0762
 41
0.0762
 70
0
  0
VERTEX
  8
52
 10
35.6281
 20
31.3100
 30
0.0000
 42
1.0000
  0
VERTEX
  8
52
 10
35.5519
 20
31.3100
 30
0.0000
  0
SEQEND
  8
0
  0
POLYLINE
  8
52
 66
1
 10
0.0000
 20
0.0000
 30
0.0000
 40
0.1524
 41
0.1524
 70
0
  0
VERTEX
  8
52
 10
35.5900
 20
31.3100
 30
0.0000
  0
VERTEX
  8
52
 10
36.1400
 20
31.3100
 30
0.0000
  0
SEQEND
  8
0
  0
POLYLINE
  8
52
 66
1
 10
0.0000
 20
0.0000
 30
0.0000
 40
0.0762
 41
0.0762
 70
0
  0
VERTEX
  8
52
 10
36.1400
 20
31.2719
 30
0.0000
 42
1.0000
  0
VERTEX
  8
52
 10
36.1400
 20
31.3481
 30
0.0000
  0
SEQEND
  8
0
  0
POLYLINE
  8
52
 66
1
 10
0.0000
 20
0.0000
 30
0.0000
 40
0.0762
 41
0.0762
 70
0
  0
VERTEX
  8
52
 10
35.5900
 20
31.3481
 30
0.0000
 42
1.0000
  0
VERTEX
  8
52
 10
35.5900
 20
31.2719
 30
0.0000
  0
SEQEND
  8
0
  0
POLYLINE
  8
52
 66
1
 10
0.0000
 20
0.0000
 30
0.0000
 40
0.1524
 41
0.1524
 70
0
  0
VERTEX
  8
52
 10
35.5900
 20
31.3100
 30
0.0000
  0
VERTEX
  8
52
 10
35.0200
 20
31.3100
 30
0.0000
  0
SEQEND
  8
0
  0
POLYLINE
  8
52
 66
1
 10
0.0000
 20
0.0000
 30
0.0000
 40
0.0762
 41
0.0762
 70
0
  0
VERTEX
  8
52
 10
35.0200
 20
31.3481
 30
0.0000
 42
1.0000
  0
VERTEX
  8
52
 10
35.0200
 20
31.2719
 30
0.0000
  0
SEQEND
  8
0
  0
POLYLINE
  8
52
 66
1
 10
0.0000
 20
0.0000
 30
0.0000
 40
0.0762
 41
0.0762
 70
0
  0
VERTEX
  8
52
 10
35.5900
 20
31.2719
 30
0.0000
 42
1.0000
  0
VERTEX
  8
52
 10
35.5900
 20
31.3481
 30
0.0000
  0
SEQEND
  8
0
  0
POLYLINE
  8
52
 66
1
 10
0.0000
 20
0.0000
 30
0.0000
 40
0.1524
 41
0.1524
 70
0
  0
VERTEX
  8
52
 10
24.6100
 20
34.6300
 30
0.0000
  0
VERTEX
  8
52
 10
24.6100
 20
34.0700
 30
0.0000
  0
SEQEND
  8
0
  0
POLYLINE
  8
52
 66
1
 10
0.0000
 20
0.0000
 30
0.0000
 40
0.0762
 41
0.0762
 70
0
  0
VERTEX
  8
52
 10
24.5719
 20
34.0700
 30
0.0000
 42
1.0000
  0
VERTEX
  8
52
 10
24.6481
 20
34.0700
 30
0.0000
  0
SEQEND
  8
0
  0
POLYLINE
  8
52
 66
1
 10
0.0000
 20
0.0000
 30
0.0000
 40
0.0762
 41
0.0762
 70
0
  0
VERTEX
  8
52
 10
24.6481
 20
34.6300
 30
0.0000
 42
1.0000
  0
VERTEX
  8
52
 10
24.5719
 20
34.6300
 30
0.0000
  0
SEQEND
  8
0
  0
POLYLINE
  8
52
 66
1
 10
0.0000
 20
0.0000
 30
0.0000
 40
0.1524
 41
0.1524
 70
0
  0
VERTEX
  8
52
 10
24.6100
 20
34.0700
 30
0.0000
  0
VERTEX
  8
52
 10
24.6100
 20
33.4900
 30
0.0000
  0
SEQEND
  8
0
  0
POLYLINE
  8
52
 66
1
 10
0.0000
 20
0.0000
 30
0.0000
 40
0.0762
 41
0.0762
 70
0
  0
VERTEX
  8
52
 10
24.5719
 20
33.4900
 30
0.0000
 42
1.0000
  0
VERTEX
  8
52
 10
24.6481
 20
33.4900
 30
0.0000
  0
SEQEND
  8
0
  0
POLYLINE
  8
52
 66
1
 10
0.0000
 20
0.0000
 30
0.0000
 40
0.0762
 41
0.0762
 70
0
  0
VERTEX
  8
52
 10
24.6481
 20
34.0700
 30
0.0000
 42
1.0000
  0
VERTEX
  8
52
 10
24.5719
 20
34.0700
 30
0.0000
  0
SEQEND
  8
0
  0
POLYLINE
  8
52
 66
1
 10
0.0000
 20
0.0000
 30
0.0000
 40
0.1524
 41
0.1524
 70
0
  0
VERTEX
  8
52
 10
24.6100
 20
34.0700
 30
0.0000
  0
VERTEX
  8
52
 10
25.1600
 20
34.0700
 30
0.0000
  0
SEQEND
  8
0
  0
POLYLINE
  8
52
 66
1
 10
0.0000
 20
0.0000
 30
0.0000
 40
0.0762
 41
0.0762
 70
0
  0
VERTEX
  8
52
 10
25.1600
 20
34.0319
 30
0.0000
 42
1.0000
  0
VERTEX
  8
52
 10
25.1600
 20
34.1081
 30
0.0000
  0
SEQEND
  8
0
  0
POLYLINE
  8
52
 66
1
 10
0.0000
 20
0.0000
 30
0.0000
 40
0.0762
 41
0.0762
 70
0
  0
VERTEX
  8
52
 10
24.6100
 20
34.1081
 30
0.0000
 42
1.0000
  0
VERTEX
  8
52
 10
24.6100
 20
34.0319
 30
0.0000
  0
SEQEND
  8
0
  0
POLYLINE
  8
52
 66
1
 10
0.0000
 20
0.0000
 30
0.0000
 40
0.1524
 41
0.1524
 70
0
  0
VERTEX
  8
52
 10
24.6100
 20
34.0700
 30
0.0000
  0
VERTEX
  8
52
 10
24.0400
 20
34.0700
 30
0.0000
  0
SEQEND
  8
0
  0
POLYLINE
  8
52
 66
1
 10
0.0000
 20
0.0000
 30
0.0000
 40
0.0762
 41
0.0762
 70
0
  0
VERTEX
  8
52
 10
24.0400
 20
34.1081
 30
0.0000
 42
1.0000
  0
VERTEX
  8
52
 10
24.0400
 20
34.0319
 30
0.0000
  0
SEQEND
  8
0
  0
POLYLINE
  8
52
 66
1
 10
0.0000
 20
0.0000
 30
0.0000
 40
0.0762
 41
0.0762
 70
0
  0
VERTEX
  8
52
 10
24.6100
 20
34.0319
 30
0.0000
 42
1.0000
  0
VERTEX
  8
52
 10
24.6100
 20
34.1081
 30
0.0000
  0
SEQEND
  8
0
  0
POLYLINE
  8
52
 66
1
 10
0.0000
 20
0.0000
 30
0.0000
 40
0.1524
 41
0.1524
 70
0
  0
VERTEX
  8
52
 10
53.3300
 20
54.0100
 30
0.0000
  0
VERTEX
  8
52
 10
53.3300
 20
53.4500
 30
0.0000
  0
SEQEND
  8
0
  0
POLYLINE
  8
52
 66
1
 10
0.0000
 20
0.0000
 30
0.0000
 40
0.0762
 41
0.0762
 70
0
  0
VERTEX
  8
52
 10
53.2919
 20
53.4500
 30
0.0000
 42
1.0000
  0
VERTEX
  8
52
 10
53.3681
 20
53.4500
 30
0.0000
  0
SEQEND
  8
0
  0
POLYLINE
  8
52
 66
1
 10
0.0000
 20
0.0000
 30
0.0000
 40
0.0762
 41
0.0762
 70
0
  0
VERTEX
  8
52
 10
53.3681
 20
54.0100
 30
0.0000
 42
1.0000
  0
VERTEX
  8
52
 10
53.2919
 20
54.0100
 30
0.0000
  0
SEQEND
  8
0
  0
POLYLINE
  8
52
 66
1
 10
0.0000
 20
0.0000
 30
0.0000
 40
0.1524
 41
0.1524
 70
0
  0
VERTEX
  8
52
 10
53.3300
 20
53.4500
 30
0.0000
  0
VERTEX
  8
52
 10
53.3300
 20
52.8700
 30
0.0000
  0
SEQEND
  8
0
  0
POLYLINE
  8
52
 66
1
 10
0.0000
 20
0.0000
 30
0.0000
 40
0.0762
 41
0.0762
 70
0
  0
VERTEX
  8
52
 10
53.2919
 20
52.8700
 30
0.0000
 42
1.0000
  0
VERTEX
  8
52
 10
53.3681
 20
52.8700
 30
0.0000
  0
SEQEND
  8
0
  0
POLYLINE
  8
52
 66
1
 10
0.0000
 20
0.0000
 30
0.0000
 40
0.0762
 41
0.0762
 70
0
  0
VERTEX
  8
52
 10
53.3681
 20
53.4500
 30
0.0000
 42
1.0000
  0
VERTEX
  8
52
 10
53.2919
 20
53.4500
 30
0.0000
  0
SEQEND
  8
0
  0
POLYLINE
  8
52
 66
1
 10
0.0000
 20
0.0000
 30
0.0000
 40
0.1524
 41
0.1524
 70
0
  0
VERTEX
  8
52
 10
53.3300
 20
53.4500
 30
0.0000
  0
VERTEX
  8
52
 10
53.8800
 20
53.4500
 30
0.0000
  0
SEQEND
  8
0
  0
POLYLINE
  8
52
 66
1
 10
0.0000
 20
0.0000
 30
0.0000
 40
0.0762
 41
0.0762
 70
0
  0
VERTEX
  8
52
 10
53.8800
 20
53.4119
 30
0.0000
 42
1.0000
  0
VERTEX
  8
52
 10
53.8800
 20
53.4881
 30
0.0000
  0
SEQEND
  8
0
  0
POLYLINE
  8
52
 66
1
 10
0.0000
 20
0.0000
 30
0.0000
 40
0.0762
 41
0.0762
 70
0
  0
VERTEX
  8
52
 10
53.3300
 20
53.4881
 30
0.0000
 42
1.0000
  0
VERTEX
  8
52
 10
53.3300
 20
53.4119
 30
0.0000
  0
SEQEND
  8
0
  0
POLYLINE
  8
52
 66
1
 10
0.0000
 20
0.0000
 30
0.0000
 40
0.1524
 41
0.1524
 70
0
  0
VERTEX
  8
52
 10
53.3300
 20
53.4500
 30
0.0000
  0
VERTEX
  8
52
 10
52.7600
 20
53.4500
 30
0.0000
  0
SEQEND
  8
0
  0
POLYLINE
  8
52
 66
1
 10
0.0000
 20
0.0000
 30
0.0000
 40
0.0762
 41
0.0762
 70
0
  0
VERTEX
  8
52
 10
52.7600
 20
53.4881
 30
0.0000
 42
1.0000
  0
VERTEX
  8
52
 10
52.7600
 20
53.4119
 30
0.0000
  0
SEQEND
  8
0
  0
POLYLINE
  8
52
 66
1
 10
0.0000
 20
0.0000
 30
0.0000
 40
0.0762
 41
0.0762
 70
0
  0
VERTEX
  8
52
 10
53.3300
 20
53.4119
 30
0.0000
 42
1.0000
  0
VERTEX
  8
52
 10
53.3300
 20
53.4881
 30
0.0000
  0
SEQEND
  8
0
  0
POLYLINE
  8
52
 66
1
 10
0.0000
 20
0.0000
 30
0.0000
 40
0.1524
 41
0.1524
 70
0
  0
VERTEX
  8
52
 10
45.8900
 20
70.1300
 30
0.0000
  0
VERTEX
  8
52
 10
45.8900
 20
69.5700
 30
0.0000
  0
SEQEND
  8
0
  0
POLYLINE
  8
52
 66
1
 10
0.0000
 20
0.0000
 30
0.0000
 40
0.0762
 41
0.0762
 70
0
  0
VERTEX
  8
52
 10
45.8519
 20
69.5700
 30
0.0000
 42
1.0000
  0
VERTEX
  8
52
 10
45.9281
 20
69.5700
 30
0.0000
  0
SEQEND
  8
0
  0
POLYLINE
  8
52
 66
1
 10
0.0000
 20
0.0000
 30
0.0000
 40
0.0762
 41
0.0762
 70
0
  0
VERTEX
  8
52
 10
45.9281
 20
70.1300
 30
0.0000
 42
1.0000
  0
VERTEX
  8
52
 10
45.8519
 20
70.1300
 30
0.0000
  0
SEQEND
  8
0
  0
POLYLINE
  8
52
 66
1
 10
0.0000
 20
0.0000
 30
0.0000
 40
0.1524
 41
0.1524
 70
0
  0
VERTEX
  8
52
 10
45.8900
 20
69.5700
 30
0.0000
  0
VERTEX
  8
52
 10
45.8900
 20
68.9900
 30
0.0000
  0
SEQEND
  8
0
  0
POLYLINE
  8
52
 66
1
 10
0.0000
 20
0.0000
 30
0.0000
 40
0.0762
 41
0.0762
 70
0
  0
VERTEX
  8
52
 10
45.8519
 20
68.9900
 30
0.0000
 42
1.0000
  0
VERTEX
  8
52
 10
45.9281
 20
68.9900
 30
0.0000
  0
SEQEND
  8
0
  0
POLYLINE
  8
52
 66
1
 10
0.0000
 20
0.0000
 30
0.0000
 40
0.0762
 41
0.0762
 70
0
  0
VERTEX
  8
52
 10
45.9281
 20
69.5700
 30
0.0000
 42
1.0000
  0
VERTEX
  8
52
 10
45.8519
 20
69.5700
 30
0.0000
  0
SEQEND
  8
0
  0
POLYLINE
  8
52
 66
1
 10
0.0000
 20
0.0000
 30
0.0000
 40
0.1524
 41
0.1524
 70
0
  0
VERTEX
  8
52
 10
45.8900
 20
69.5700
 30
0.0000
  0
VERTEX
  8
52
 10
46.4400
 20
69.5700
 30
0.0000
  0
SEQEND
  8
0
  0
POLYLINE
  8
52
 66
1
 10
0.0000
 20
0.0000
 30
0.0000
 40
0.0762
 41
0.0762
 70
0
  0
VERTEX
  8
52
 10
46.4400
 20
69.5319
 30
0.0000
 42
1.0000
  0
VERTEX
  8
52
 10
46.4400
 20
69.6081
 30
0.0000
  0
SEQEND
  8
0
  0
POLYLINE
  8
52
 66
1
 10
0.0000
 20
0.0000
 30
0.0000
 40
0.0762
 41
0.0762
 70
0
  0
VERTEX
  8
52
 10
45.8900
 20
69.6081
 30
0.0000
 42
1.0000
  0
VERTEX
  8
52
 10
45.8900
 20
69.5319
 30
0.0000
  0
SEQEND
  8
0
  0
POLYLINE
  8
52
 66
1
 10
0.0000
 20
0.0000
 30
0.0000
 40
0.1524
 41
0.1524
 70
0
  0
VERTEX
  8
52
 10
45.8900
 20
69.5700
 30
0.0000
  0
VERTEX
  8
52
 10
45.3200
 20
69.5700
 30
0.0000
  0
SEQEND
  8
0
  0
POLYLINE
  8
52
 66
1
 10
0.0000
 20
0.0000
 30
0.0000
 40
0.0762
 41
0.0762
 70
0
  0
VERTEX
  8
52
 10
45.3200
 20
69.6081
 30
0.0000
 42
1.0000
  0
VERTEX
  8
52
 10
45.3200
 20
69.5319
 30
0.0000
  0
SEQEND
  8
0
  0
POLYLINE
  8
52
 66
1
 10
0.0000
 20
0.0000
 30
0.0000
 40
0.0762
 41
0.0762
 70
0
  0
VERTEX
  8
52
 10
45.8900
 20
69.5319
 30
0.0000
 42
1.0000
  0
VERTEX
  8
52
 10
45.8900
 20
69.6081
 30
0.0000
  0
SEQEND
  8
0
  0
POLYLINE
  8
52
 66
1
 10
0.0000
 20
0.0000
 30
0.0000
 40
0.1524
 41
0.1524
 70
0
  0
VERTEX
  8
52
 10
60.9400
 20
71.0800
 30
0.0000
  0
VERTEX
  8
52
 10
60.9400
 20
70.5200
 30
0.0000
  0
SEQEND
  8
0
  0
POLYLINE
  8
52
 66
1
 10
0.0000
 20
0.0000
 30
0.0000
 40
0.0762
 41
0.0762
 70
0
  0
VERTEX
  8
52
 10
60.9019
 20
70.5200
 30
0.0000
 42
1.0000
  0
VERTEX
  8
52
 10
60.9781
 20
70.5200
 30
0.0000
  0
SEQEND
  8
0
  0
POLYLINE
  8
52
 66
1
 10
0.0000
 20
0.0000
 30
0.0000
 40
0.0762
 41
0.0762
 70
0
  0
VERTEX
  8
52
 10
60.9781
 20
71.0800
 30
0.0000
 42
1.0000
  0
VERTEX
  8
52
 10
60.9019
 20
71.0800
 30
0.0000
  0
SEQEND
  8
0
  0
POLYLINE
  8
52
 66
1
 10
0.0000
 20
0.0000
 30
0.0000
 40
0.1524
 41
0.1524
 70
0
  0
VERTEX
  8
52
 10
60.9400
 20
70.5200
 30
0.0000
  0
VERTEX
  8
52
 10
60.9400
 20
69.9400
 30
0.0000
  0
SEQEND
  8
0
  0
POLYLINE
  8
52
 66
1
 10
0.0000
 20
0.0000
 30
0.0000
 40
0.0762
 41
0.0762
 70
0
  0
VERTEX
  8
52
 10
60.9019
 20
69.9400
 30
0.0000
 42
1.0000
  0
VERTEX
  8
52
 10
60.9781
 20
69.9400
 30
0.0000
  0
SEQEND
  8
0
  0
POLYLINE
  8
52
 66
1
 10
0.0000
 20
0.0000
 30
0.0000
 40
0.0762
 41
0.0762
 70
0
  0
VERTEX
  8
52
 10
60.9781
 20
70.5200
 30
0.0000
 42
1.0000
  0
VERTEX
  8
52
 10
60.9019
 20
70.5200
 30
0.0000
  0
SEQEND
  8
0
  0
POLYLINE
  8
52
 66
1
 10
0.0000
 20
0.0000
 30
0.0000
 40
0.1524
 41
0.1524
 70
0
  0
VERTEX
  8
52
 10
60.9400
 20
70.5200
 30
0.0000
  0
VERTEX
  8
52
 10
61.4900
 20
70.5200
 30
0.0000
  0
SEQEND
  8
0
  0
POLYLINE
  8
52
 66
1
 10
0.0000
 20
0.0000
 30
0.0000
 40
0.0762
 41
0.0762
 70
0
  0
VERTEX
  8
52
 10
61.4900
 20
70.4819
 30
0.0000
 42
1.0000
  0
VERTEX
  8
52
 10
61.4900
 20
70.5581
 30
0.0000
  0
SEQEND
  8
0
  0
POLYLINE
  8
52
 66
1
 10
0.0000
 20
0.0000
 30
0.0000
 40
0.0762
 41
0.0762
 70
0
  0
VERTEX
  8
52
 10
60.9400
 20
70.5581
 30
0.0000
 42
1.0000
  0
VERTEX
  8
52
 10
60.9400
 20
70.4819
 30
0.0000
  0
SEQEND
  8
0
  0
POLYLINE
  8
52
 66
1
 10
0.0000
 20
0.0000
 30
0.0000
 40
0.1524
 41
0.1524
 70
0
  0
VERTEX
  8
52
 10
60.9400
 20
70.5200
 30
0.0000
  0
VERTEX
  8
52
 10
60.3700
 20
70.5200
 30
0.0000
  0
SEQEND
  8
0
  0
POLYLINE
  8
52
 66
1
 10
0.0000
 20
0.0000
 30
0.0000
 40
0.0762
 41
0.0762
 70
0
  0
VERTEX
  8
52
 10
60.3700
 20
70.5581
 30
0.0000
 42
1.0000
  0
VERTEX
  8
52
 10
60.3700
 20
70.4819
 30
0.0000
  0
SEQEND
  8
0
  0
POLYLINE
  8
52
 66
1
 10
0.0000
 20
0.0000
 30
0.0000
 40
0.0762
 41
0.0762
 70
0
  0
VERTEX
  8
52
 10
60.9400
 20
70.4819
 30
0.0000
 42
1.0000
  0
VERTEX
  8
52
 10
60.9400
 20
70.5581
 30
0.0000
  0
SEQEND
  8
0
  0
POLYLINE
  8
52
 66
1
 10
0.0000
 20
0.0000
 30
0.0000
 40
0.1524
 41
0.1524
 70
0
  0
VERTEX
  8
52
 10
92.9000
 20
66.5800
 30
0.0000
  0
VERTEX
  8
52
 10
92.9000
 20
66.0200
 30
0.0000
  0
SEQEND
  8
0
  0
POLYLINE
  8
52
 66
1
 10
0.0000
 20
0.0000
 30
0.0000
 40
0.0762
 41
0.0762
 70
0
  0
VERTEX
  8
52
 10
92.8619
 20
66.0200
 30
0.0000
 42
1.0000
  0
VERTEX
  8
52
 10
92.9381
 20
66.0200
 30
0.0000
  0
SEQEND
  8
0
  0
POLYLINE
  8
52
 66
1
 10
0.0000
 20
0.0000
 30
0.0000
 40
0.0762
 41
0.0762
 70
0
  0
VERTEX
  8
52
 10
92.9381
 20
66.5800
 30
0.0000
 42
1.0000
  0
VERTEX
  8
52
 10
92.8619
 20
66.5800
 30
0.0000
  0
SEQEND
  8
0
  0
POLYLINE
  8
52
 66
1
 10
0.0000
 20
0.0000
 30
0.0000
 40
0.1524
 41
0.1524
 70
0
  0
VERTEX
  8
52
 10
92.9000
 20
66.0200
 30
0.0000
  0
VERTEX
  8
52
 10
92.9000
 20
65.4400
 30
0.0000
  0
SEQEND
  8
0
  0
POLYLINE
  8
52
 66
1
 10
0.0000
 20
0.0000
 30
0.0000
 40
0.0762
 41
0.0762
 70
0
  0
VERTEX
  8
52
 10
92.8619
 20
65.4400
 30
0.0000
 42
1.0000
  0
VERTEX
  8
52
 10
92.9381
 20
65.4400
 30
0.0000
  0
SEQEND
  8
0
  0
POLYLINE
  8
52
 66
1
 10
0.0000
 20
0.0000
 30
0.0000
 40
0.0762
 41
0.0762
 70
0
  0
VERTEX
  8
52
 10
92.9381
 20
66.0200
 30
0.0000
 42
1.0000
  0
VERTEX
  8
52
 10
92.8619
 20
66.0200
 30
0.0000
  0
SEQEND
  8
0
  0
POLYLINE
  8
52
 66
1
 10
0.0000
 20
0.0000
 30
0.0000
 40
0.1524
 41
0.1524
 70
0
  0
VERTEX
  8
52
 10
92.9000
 20
66.0200
 30
0.0000
  0
VERTEX
  8
52
 10
93.4500
 20
66.0200
 30
0.0000
  0
SEQEND
  8
0
  0
POLYLINE
  8
52
 66
1
 10
0.0000
 20
0.0000
 30
0.0000
 40
0.0762
 41
0.0762
 70
0
  0
VERTEX
  8
52
 10
93.4500
 20
65.9819
 30
0.0000
 42
1.0000
  0
VERTEX
  8
52
 10
93.4500
 20
66.0581
 30
0.0000
  0
SEQEND
  8
0
  0
POLYLINE
  8
52
 66
1
 10
0.0000
 20
0.0000
 30
0.0000
 40
0.0762
 41
0.0762
 70
0
  0
VERTEX
  8
52
 10
92.9000
 20
66.0581
 30
0.0000
 42
1.0000
  0
VERTEX
  8
52
 10
92.9000
 20
65.9819
 30
0.0000
  0
SEQEND
  8
0
  0
POLYLINE
  8
52
 66
1
 10
0.0000
 20
0.0000
 30
0.0000
 40
0.1524
 41
0.1524
 70
0
  0
VERTEX
  8
52
 10
92.9000
 20
66.0200
 30
0.0000
  0
VERTEX
  8
52
 10
92.3300
 20
66.0200
 30
0.0000
  0
SEQEND
  8
0
  0
POLYLINE
  8
52
 66
1
 10
0.0000
 20
0.0000
 30
0.0000
 40
0.0762
 41
0.0762
 70
0
  0
VERTEX
  8
52
 10
92.3300
 20
66.0581
 30
0.0000
 42
1.0000
  0
VERTEX
  8
52
 10
92.3300
 20
65.9819
 30
0.0000
  0
SEQEND
  8
0
  0
POLYLINE
  8
52
 66
1
 10
0.0000
 20
0.0000
 30
0.0000
 40
0.0762
 41
0.0762
 70
0
  0
VERTEX
  8
52
 10
92.9000
 20
65.9819
 30
0.0000
 42
1.0000
  0
VERTEX
  8
52
 10
92.9000
 20
66.0581
 30
0.0000
  0
SEQEND
  8
0
  0
POLYLINE
  8
52
 66
1
 10
0.0000
 20
0.0000
 30
0.0000
 40
0.1524
 41
0.1524
 70
0
  0
VERTEX
  8
52
 10
108.9600
 20
61.4100
 30
0.0000
  0
VERTEX
  8
52
 10
108.9600
 20
60.8500
 30
0.0000
  0
SEQEND
  8
0
  0
POLYLINE
  8
52
 66
1
 10
0.0000
 20
0.0000
 30
0.0000
 40
0.0762
 41
0.0762
 70
0
  0
VERTEX
  8
52
 10
108.9219
 20
60.8500
 30
0.0000
 42
1.0000
  0
VERTEX
  8
52
 10
108.9981
 20
60.8500
 30
0.0000
  0
SEQEND
  8
0
  0
POLYLINE
  8
52
 66
1
 10
0.0000
 20
0.0000
 30
0.0000
 40
0.0762
 41
0.0762
 70
0
  0
VERTEX
  8
52
 10
108.9981
 20
61.4100
 30
0.0000
 42
1.0000
  0
VERTEX
  8
52
 10
108.9219
 20
61.4100
 30
0.0000
  0
SEQEND
  8
0
  0
POLYLINE
  8
52
 66
1
 10
0.0000
 20
0.0000
 30
0.0000
 40
0.1524
 41
0.1524
 70
0
  0
VERTEX
  8
52
 10
108.9600
 20
60.8500
 30
0.0000
  0
VERTEX
  8
52
 10
108.9600
 20
60.2700
 30
0.0000
  0
SEQEND
  8
0
  0
POLYLINE
  8
52
 66
1
 10
0.0000
 20
0.0000
 30
0.0000
 40
0.0762
 41
0.0762
 70
0
  0
VERTEX
  8
52
 10
108.9219
 20
60.2700
 30
0.0000
 42
1.0000
  0
VERTEX
  8
52
 10
108.9981
 20
60.2700
 30
0.0000
  0
SEQEND
  8
0
  0
POLYLINE
  8
52
 66
1
 10
0.0000
 20
0.0000
 30
0.0000
 40
0.0762
 41
0.0762
 70
0
  0
VERTEX
  8
52
 10
108.9981
 20
60.8500
 30
0.0000
 42
1.0000
  0
VERTEX
  8
52
 10
108.9219
 20
60.8500
 30
0.0000
  0
SEQEND
  8
0
  0
POLYLINE
  8
52
 66
1
 10
0.0000
 20
0.0000
 30
0.0000
 40
0.1524
 41
0.1524
 70
0
  0
VERTEX
  8
52
 10
108.9600
 20
60.8500
 30
0.0000
  0
VERTEX
  8
52
 10
109.5100
 20
60.8500
 30
0.0000
  0
SEQEND
  8
0
  0
POLYLINE
  8
52
 66
1
 10
0.0000
 20
0.0000
 30
0.0000
 40
0.0762
 41
0.0762
 70
0
  0
VERTEX
  8
52
 10
109.5100
 20
60.8119
 30
0.0000
 42
1.0000
  0
VERTEX
  8
52
 10
109.5100
 20
60.8881
 30
0.0000
  0
SEQEND
  8
0
  0
POLYLINE
  8
52
 66
1
 10
0.0000
 20
0.0000
 30
0.0000
 40
0.0762
 41
0.0762
 70
0
  0
VERTEX
  8
52
 10
108.9600
 20
60.8881
 30
0.0000
 42
1.0000
  0
VERTEX
  8
52
 10
108.9600
 20
60.8119
 30
0.0000
  0
SEQEND
  8
0
  0
POLYLINE
  8
52
 66
1
 10
0.0000
 20
0.0000
 30
0.0000
 40
0.1524
 41
0.1524
 70
0
  0
VERTEX
  8
52
 10
108.9600
 20
60.8500
 30
0.0000
  0
VERTEX
  8
52
 10
108.3900
 20
60.8500
 30
0.0000
  0
SEQEND
  8
0
  0
POLYLINE
  8
52
 66
1
 10
0.0000
 20
0.0000
 30
0.0000
 40
0.0762
 41
0.0762
 70
0
  0
VERTEX
  8
52
 10
108.3900
 20
60.8881
 30
0.0000
 42
1.0000
  0
VERTEX
  8
52
 10
108.3900
 20
60.8119
 30
0.0000
  0
SEQEND
  8
0
  0
POLYLINE
  8
52
 66
1
 10
0.0000
 20
0.0000
 30
0.0000
 40
0.0762
 41
0.0762
 70
0
  0
VERTEX
  8
52
 10
108.9600
 20
60.8119
 30
0.0000
 42
1.0000
  0
VERTEX
  8
52
 10
108.9600
 20
60.8881
 30
0.0000
  0
SEQEND
  8
0
  0
POLYLINE
  8
52
 66
1
 10
0.0000
 20
0.0000
 30
0.0000
 40
0.1524
 41
0.1524
 70
0
  0
VERTEX
  8
52
 10
106.1800
 20
61.1400
 30
0.0000
  0
VERTEX
  8
52
 10
106.1800
 20
60.5800
 30
0.0000
  0
SEQEND
  8
0
  0
POLYLINE
  8
52
 66
1
 10
0.0000
 20
0.0000
 30
0.0000
 40
0.0762
 41
0.0762
 70
0
  0
VERTEX
  8
52
 10
106.1419
 20
60.5800
 30
0.0000
 42
1.0000
  0
VERTEX
  8
52
 10
106.2181
 20
60.5800
 30
0.0000
  0
SEQEND
  8
0
  0
POLYLINE
  8
52
 66
1
 10
0.0000
 20
0.0000
 30
0.0000
 40
0.0762
 41
0.0762
 70
0
  0
VERTEX
  8
52
 10
106.2181
 20
61.1400
 30
0.0000
 42
1.0000
  0
VERTEX
  8
52
 10
106.1419
 20
61.1400
 30
0.0000
  0
SEQEND
  8
0
  0
POLYLINE
  8
52
 66
1
 10
0.0000
 20
0.0000
 30
0.0000
 40
0.1524
 41
0.1524
 70
0
  0
VERTEX
  8
52
 10
106.1800
 20
60.5800
 30
0.0000
  0
VERTEX
  8
52
 10
106.1800
 20
60.0000
 30
0.0000
  0
SEQEND
  8
0
  0
POLYLINE
  8
52
 66
1
 10
0.0000
 20
0.0000
 30
0.0000
 40
0.0762
 41
0.0762
 70
0
  0
VERTEX
  8
52
 10
106.1419
 20
60.0000
 30
0.0000
 42
1.0000
  0
VERTEX
  8
52
 10
106.2181
 20
60.0000
 30
0.0000
  0
SEQEND
  8
0
  0
POLYLINE
  8
52
 66
1
 10
0.0000
 20
0.0000
 30
0.0000
 40
0.0762
 41
0.0762
 70
0
  0
VERTEX
  8
52
 10
106.2181
 20
60.5800
 30
0.0000
 42
1.0000
  0
VERTEX
  8
52
 10
106.1419
 20
60.5800
 30
0.0000
  0
SEQEND
  8
0
  0
POLYLINE
  8
52
 66
1
 10
0.0000
 20
0.0000
 30
0.0000
 40
0.1524
 41
0.1524
 70
0
  0
VERTEX
  8
52
 10
106.1800
 20
60.5800
 30
0.0000
  0
VERTEX
  8
52
 10
106.7300
 20
60.5800
 30
0.0000
  0
SEQEND
  8
0
  0
POLYLINE
  8
52
 66
1
 10
0.0000
 20
0.0000
 30
0.0000
 40
0.0762
 41
0.0762
 70
0
  0
VERTEX
  8
52
 10
106.7300
 20
60.5419
 30
0.0000
 42
1.0000
  0
VERTEX
  8
52
 10
106.7300
 20
60.6181
 30
0.0000
  0
SEQEND
  8
0
  0
POLYLINE
  8
52
 66
1
 10
0.0000
 20
0.0000
 30
0.0000
 40
0.0762
 41
0.0762
 70
0
  0
VERTEX
  8
52
 10
106.1800
 20
60.6181
 30
0.0000
 42
1.0000
  0
VERTEX
  8
52
 10
106.1800
 20
60.5419
 30
0.0000
  0
SEQEND
  8
0
  0
POLYLINE
  8
52
 66
1
 10
0.0000
 20
0.0000
 30
0.0000
 40
0.1524
 41
0.1524
 70
0
  0
VERTEX
  8
52
 10
106.1800
 20
60.5800
 30
0.0000
  0
VERTEX
  8
52
 10
105.6100
 20
60.5800
 30
0.0000
  0
SEQEND
  8
0
  0
POLYLINE
  8
52
 66
1
 10
0.0000
 20
0.0000
 30
0.0000
 40
0.0762
 41
0.0762
 70
0
  0
VERTEX
  8
52
 10
105.6100
 20
60.6181
 30
0.0000
 42
1.0000
  0
VERTEX
  8
52
 10
105.6100
 20
60.5419
 30
0.0000
  0
SEQEND
  8
0
  0
POLYLINE
  8
52
 66
1
 10
0.0000
 20
0.0000
 30
0.0000
 40
0.0762
 41
0.0762
 70
0
  0
VERTEX
  8
52
 10
106.1800
 20
60.5419
 30
0.0000
 42
1.0000
  0
VERTEX
  8
52
 10
106.1800
 20
60.6181
 30
0.0000
  0
SEQEND
  8
0
  0
POLYLINE
  8
52
 66
1
 10
0.0000
 20
0.0000
 30
0.0000
 40
0.1524
 41
0.1524
 70
0
  0
VERTEX
  8
52
 10
109.2900
 20
45.3600
 30
0.0000
  0
VERTEX
  8
52
 10
109.2900
 20
44.8000
 30
0.0000
  0
SEQEND
  8
0
  0
POLYLINE
  8
52
 66
1
 10
0.0000
 20
0.0000
 30
0.0000
 40
0.0762
 41
0.0762
 70
0
  0
VERTEX
  8
52
 10
109.2519
 20
44.8000
 30
0.0000
 42
1.0000
  0
VERTEX
  8
52
 10
109.3281
 20
44.8000
 30
0.0000
  0
SEQEND
  8
0
  0
POLYLINE
  8
52
 66
1
 10
0.0000
 20
0.0000
 30
0.0000
 40
0.0762
 41
0.0762
 70
0
  0
VERTEX
  8
52
 10
109.3281
 20
45.3600
 30
0.0000
 42
1.0000
  0
VERTEX
  8
52
 10
109.2519
 20
45.3600
 30
0.0000
  0
SEQEND
  8
0
  0
POLYLINE
  8
52
 66
1
 10
0.0000
 20
0.0000
 30
0.0000
 40
0.1524
 41
0.1524
 70
0
  0
VERTEX
  8
52
 10
109.2900
 20
44.8000
 30
0.0000
  0
VERTEX
  8
52
 10
109.2900
 20
44.2200
 30
0.0000
  0
SEQEND
  8
0
  0
POLYLINE
  8
52
 66
1
 10
0.0000
 20
0.0000
 30
0.0000
 40
0.0762
 41
0.0762
 70
0
  0
VERTEX
  8
52
 10
109.2519
 20
44.2200
 30
0.0000
 42
1.0000
  0
VERTEX
  8
52
 10
109.3281
 20
44.2200
 30
0.0000
  0
SEQEND
  8
0
  0
POLYLINE
  8
52
 66
1
 10
0.0000
 20
0.0000
 30
0.0000
 40
0.0762
 41
0.0762
 70
0
  0
VERTEX
  8
52
 10
109.3281
 20
44.8000
 30
0.0000
 42
1.0000
  0
VERTEX
  8
52
 10
109.2519
 20
44.8000
 30
0.0000
  0
SEQEND
  8
0
  0
POLYLINE
  8
52
 66
1
 10
0.0000
 20
0.0000
 30
0.0000
 40
0.1524
 41
0.1524
 70
0
  0
VERTEX
  8
52
 10
109.2900
 20
44.8000
 30
0.0000
  0
VERTEX
  8
52
 10
109.8400
 20
44.8000
 30
0.0000
  0
SEQEND
  8
0
  0
POLYLINE
  8
52
 66
1
 10
0.0000
 20
0.0000
 30
0.0000
 40
0.0762
 41
0.0762
 70
0
  0
VERTEX
  8
52
 10
109.8400
 20
44.7619
 30
0.0000
 42
1.0000
  0
VERTEX
  8
52
 10
109.8400
 20
44.8381
 30
0.0000
  0
SEQEND
  8
0
  0
POLYLINE
  8
52
 66
1
 10
0.0000
 20
0.0000
 30
0.0000
 40
0.0762
 41
0.0762
 70
0
  0
VERTEX
  8
52
 10
109.2900
 20
44.8381
 30
0.0000
 42
1.0000
  0
VERTEX
  8
52
 10
109.2900
 20
44.7619
 30
0.0000
  0
SEQEND
  8
0
  0
POLYLINE
  8
52
 66
1
 10
0.0000
 20
0.0000
 30
0.0000
 40
0.1524
 41
0.1524
 70
0
  0
VERTEX
  8
52
 10
109.2900
 20
44.8000
 30
0.0000
  0
VERTEX
  8
52
 10
108.7200
 20
44.8000
 30
0.0000
  0
SEQEND
  8
0
  0
POLYLINE
  8
52
 66
1
 10
0.0000
 20
0.0000
 30
0.0000
 40
0.0762
 41
0.0762
 70
0
  0
VERTEX
  8
52
 10
108.7200
 20
44.8381
 30
0.0000
 42
1.0000
  0
VERTEX
  8
52
 10
108.7200
 20
44.7619
 30
0.0000
  0
SEQEND
  8
0
  0
POLYLINE
  8
52
 66
1
 10
0.0000
 20
0.0000
 30
0.0000
 40
0.0762
 41
0.0762
 70
0
  0
VERTEX
  8
52
 10
109.2900
 20
44.7619
 30
0.0000
 42
1.0000
  0
VERTEX
  8
52
 10
109.2900
 20
44.8381
 30
0.0000
  0
SEQEND
  8
0
  0
POLYLINE
  8
52
 66
1
 10
0.0000
 20
0.0000
 30
0.0000
 40
0.1524
 41
0.1524
 70
0
  0
VERTEX
  8
52
 10
102.4400
 20
23.5200
 30
0.0000
  0
VERTEX
  8
52
 10
102.4400
 20
22.9600
 30
0.0000
  0
SEQEND
  8
0
  0
POLYLINE
  8
52
 66
1
 10
0.0000
 20
0.0000
 30
0.0000
 40
0.0762
 41
0.0762
 70
0
  0
VERTEX
  8
52
 10
102.4019
 20
22.9600
 30
0.0000
 42
1.0000
  0
VERTEX
  8
52
 10
102.4781
 20
22.9600
 30
0.0000
  0
SEQEND
  8
0
  0
POLYLINE
  8
52
 66
1
 10
0.0000
 20
0.0000
 30
0.0000
 40
0.0762
 41
0.0762
 70
0
  0
VERTEX
  8
52
 10
102.4781
 20
23.5200
 30
0.0000
 42
1.0000
  0
VERTEX
  8
52
 10
102.4019
 20
23.5200
 30
0.0000
  0
SEQEND
  8
0
  0
POLYLINE
  8
52
 66
1
 10
0.0000
 20
0.0000
 30
0.0000
 40
0.1524
 41
0.1524
 70
0
  0
VERTEX
  8
52
 10
102.4400
 20
22.9600
 30
0.0000
  0
VERTEX
  8
52
 10
102.4400
 20
22.3800
 30
0.0000
  0
SEQEND
  8
0
  0
POLYLINE
  8
52
 66
1
 10
0.0000
 20
0.0000
 30
0.0000
 40
0.0762
 41
0.0762
 70
0
  0
VERTEX
  8
52
 10
102.4019
 20
22.3800
 30
0.0000
 42
1.0000
  0
VERTEX
  8
52
 10
102.4781
 20
22.3800
 30
0.0000
  0
SEQEND
  8
0
  0
POLYLINE
  8
52
 66
1
 10
0.0000
 20
0.0000
 30
0.0000
 40
0.0762
 41
0.0762
 70
0
  0
VERTEX
  8
52
 10
102.4781
 20
22.9600
 30
0.0000
 42
1.0000
  0
VERTEX
  8
52
 10
102.4019
 20
22.9600
 30
0.0000
  0
SEQEND
  8
0
  0
POLYLINE
  8
52
 66
1
 10
0.0000
 20
0.0000
 30
0.0000
 40
0.1524
 41
0.1524
 70
0
  0
VERTEX
  8
52
 10
102.4400
 20
22.9600
 30
0.0000
  0
VERTEX
  8
52
 10
102.9900
 20
22.9600
 30
0.0000
  0
SEQEND
  8
0
  0
POLYLINE
  8
52
 66
1
 10
0.0000
 20
0.0000
 30
0.0000
 40
0.0762
 41
0.0762
 70
0
  0
VERTEX
  8
52
 10
102.9900
 20
22.9219
 30
0.0000
 42
1.0000
  0
VERTEX
  8
52
 10
102.9900
 20
22.9981
 30
0.0000
  0
SEQEND
  8
0
  0
POLYLINE
  8
52
 66
1
 10
0.0000
 20
0.0000
 30
0.0000
 40
0.0762
 41
0.0762
 70
0
  0
VERTEX
  8
52
 10
102.4400
 20
22.9981
 30
0.0000
 42
1.0000
  0
VERTEX
  8
52
 10
102.4400
 20
22.9219
 30
0.0000
  0
SEQEND
  8
0
  0
POLYLINE
  8
52
 66
1
 10
0.0000
 20
0.0000
 30
0.0000
 40
0.1524
 41
0.1524
 70
0
  0
VERTEX
  8
52
 10
102.4400
 20
22.9600
 30
0.0000
  0
VERTEX
  8
52
 10
101.8700
 20
22.9600
 30
0.0000
  0
SEQEND
  8
0
  0
POLYLINE
  8
52
 66
1
 10
0.0000
 20
0.0000
 30
0.0000
 40
0.0762
 41
0.0762
 70
0
  0
VERTEX
  8
52
 10
101.8700
 20
22.9981
 30
0.0000
 42
1.0000
  0
VERTEX
  8
52
 10
101.8700
 20
22.9219
 30
0.0000
  0
SEQEND
  8
0
  0
POLYLINE
  8
52
 66
1
 10
0.0000
 20
0.0000
 30
0.0000
 40
0.0762
 41
0.0762
 70
0
  0
VERTEX
  8
52
 10
102.4400
 20
22.9219
 30
0.0000
 42
1.0000
  0
VERTEX
  8
52
 10
102.4400
 20
22.9981
 30
0.0000
  0
SEQEND
  8
0
  0
POLYLINE
  8
52
 66
1
 10
0.0000
 20
0.0000
 30
0.0000
 40
0.1524
 41
0.1524
 70
0
  0
VERTEX
  8
52
 10
95.8900
 20
27.7700
 30
0.0000
  0
VERTEX
  8
52
 10
95.8900
 20
27.2100
 30
0.0000
  0
SEQEND
  8
0
  0
POLYLINE
  8
52
 66
1
 10
0.0000
 20
0.0000
 30
0.0000
 40
0.0762
 41
0.0762
 70
0
  0
VERTEX
  8
52
 10
95.8519
 20
27.2100
 30
0.0000
 42
1.0000
  0
VERTEX
  8
52
 10
95.9281
 20
27.2100
 30
0.0000
  0
SEQEND
  8
0
  0
POLYLINE
  8
52
 66
1
 10
0.0000
 20
0.0000
 30
0.0000
 40
0.0762
 41
0.0762
 70
0
  0
VERTEX
  8
52
 10
95.9281
 20
27.7700
 30
0.0000
 42
1.0000
  0
VERTEX
  8
52
 10
95.8519
 20
27.7700
 30
0.0000
  0
SEQEND
  8
0
  0
POLYLINE
  8
52
 66
1
 10
0.0000
 20
0.0000
 30
0.0000
 40
0.1524
 41
0.1524
 70
0
  0
VERTEX
  8
52
 10
95.8900
 20
27.2100
 30
0.0000
  0
VERTEX
  8
52
 10
95.8900
 20
26.6300
 30
0.0000
  0
SEQEND
  8
0
  0
POLYLINE
  8
52
 66
1
 10
0.0000
 20
0.0000
 30
0.0000
 40
0.0762
 41
0.0762
 70
0
  0
VERTEX
  8
52
 10
95.8519
 20
26.6300
 30
0.0000
 42
1.0000
  0
VERTEX
  8
52
 10
95.9281
 20
26.6300
 30
0.0000
  0
SEQEND
  8
0
  0
POLYLINE
  8
52
 66
1
 10
0.0000
 20
0.0000
 30
0.0000
 40
0.0762
 41
0.0762
 70
0
  0
VERTEX
  8
52
 10
95.9281
 20
27.2100
 30
0.0000
 42
1.0000
  0
VERTEX
  8
52
 10
95.8519
 20
27.2100
 30
0.0000
  0
SEQEND
  8
0
  0
POLYLINE
  8
52
 66
1
 10
0.0000
 20
0.0000
 30
0.0000
 40
0.1524
 41
0.1524
 70
0
  0
VERTEX
  8
52
 10
95.8900
 20
27.2100
 30
0.0000
  0
VERTEX
  8
52
 10
96.4400
 20
27.2100
 30
0.0000
  0
SEQEND
  8
0
  0
POLYLINE
  8
52
 66
1
 10
0.0000
 20
0.0000
 30
0.0000
 40
0.0762
 41
0.0762
 70
0
  0
VERTEX
  8
52
 10
96.4400
 20
27.1719
 30
0.0000
 42
1.0000
  0
VERTEX
  8
52
 10
96.4400
 20
27.2481
 30
0.0000
  0
SEQEND
  8
0
  0
POLYLINE
  8
52
 66
1
 10
0.0000
 20
0.0000
 30
0.0000
 40
0.0762
 41
0.0762
 70
0
  0
VERTEX
  8
52
 10
95.8900
 20
27.2481
 30
0.0000
 42
1.0000
  0
VERTEX
  8
52
 10
95.8900
 20
27.1719
 30
0.0000
  0
SEQEND
  8
0
  0
POLYLINE
  8
52
 66
1
 10
0.0000
 20
0.0000
 30
0.0000
 40
0.1524
 41
0.1524
 70
0
  0
VERTEX
  8
52
 10
95.8900
 20
27.2100
 30
0.0000
  0
VERTEX
  8
52
 10
95.3200
 20
27.2100
 30
0.0000
  0
SEQEND
  8
0
  0
POLYLINE
  8
52
 66
1
 10
0.0000
 20
0.0000
 30
0.0000
 40
0.0762
 41
0.0762
 70
0
  0
VERTEX
  8
52
 10
95.3200
 20
27.2481
 30
0.0000
 42
1.0000
  0
VERTEX
  8
52
 10
95.3200
 20
27.1719
 30
0.0000
  0
SEQEND
  8
0
  0
POLYLINE
  8
52
 66
1
 10
0.0000
 20
0.0000
 30
0.0000
 40
0.0762
 41
0.0762
 70
0
  0
VERTEX
  8
52
 10
95.8900
 20
27.1719
 30
0.0000
 42
1.0000
  0
VERTEX
  8
52
 10
95.8900
 20
27.2481
 30
0.0000
  0
SEQEND
  8
0
  0
POLYLINE
  8
52
 66
1
 10
0.0000
 20
0.0000
 30
0.0000
 40
0.1524
 41
0.1524
 70
0
  0
VERTEX
  8
52
 10
71.6300
 20
43.3200
 30
0.0000
  0
VERTEX
  8
52
 10
71.6300
 20
42.7600
 30
0.0000
  0
SEQEND
  8
0
  0
POLYLINE
  8
52
 66
1
 10
0.0000
 20
0.0000
 30
0.0000
 40
0.0762
 41
0.0762
 70
0
  0
VERTEX
  8
52
 10
71.5919
 20
42.7600
 30
0.0000
 42
1.0000
  0
VERTEX
  8
52
 10
71.6681
 20
42.7600
 30
0.0000
  0
SEQEND
  8
0
  0
POLYLINE
  8
52
 66
1
 10
0.0000
 20
0.0000
 30
0.0000
 40
0.0762
 41
0.0762
 70
0
  0
VERTEX
  8
52
 10
71.6681
 20
43.3200
 30
0.0000
 42
1.0000
  0
VERTEX
  8
52
 10
71.5919
 20
43.3200
 30
0.0000
  0
SEQEND
  8
0
  0
POLYLINE
  8
52
 66
1
 10
0.0000
 20
0.0000
 30
0.0000
 40
0.1524
 41
0.1524
 70
0
  0
VERTEX
  8
52
 10
71.6300
 20
42.7600
 30
0.0000
  0
VERTEX
  8
52
 10
71.6300
 20
42.1800
 30
0.0000
  0
SEQEND
  8
0
  0
POLYLINE
  8
52
 66
1
 10
0.0000
 20
0.0000
 30
0.0000
 40
0.0762
 41
0.0762
 70
0
  0
VERTEX
  8
52
 10
71.5919
 20
42.1800
 30
0.0000
 42
1.0000
  0
VERTEX
  8
52
 10
71.6681
 20
42.1800
 30
0.0000
  0
SEQEND
  8
0
  0
POLYLINE
  8
52
 66
1
 10
0.0000
 20
0.0000
 30
0.0000
 40
0.0762
 41
0.0762
 70
0
  0
VERTEX
  8
52
 10
71.6681
 20
42.7600
 30
0.0000
 42
1.0000
  0
VERTEX
  8
52
 10
71.5919
 20
42.7600
 30
0.0000
  0
SEQEND
  8
0
  0
POLYLINE
  8
52
 66
1
 10
0.0000
 20
0.0000
 30
0.0000
 40
0.1524
 41
0.1524
 70
0
  0
VERTEX
  8
52
 10
71.6300
 20
42.7600
 30
0.0000
  0
VERTEX
  8
52
 10
72.1800
 20
42.7600
 30
0.0000
  0
SEQEND
  8
0
  0
POLYLINE
  8
52
 66
1
 10
0.0000
 20
0.0000
 30
0.0000
 40
0.0762
 41
0.0762
 70
0
  0
VERTEX
  8
52
 10
72.1800
 20
42.7219
 30
0.0000
 42
1.0000
  0
VERTEX
  8
52
 10
72.1800
 20
42.7981
 30
0.0000
  0
SEQEND
  8
0
  0
POLYLINE
  8
52
 66
1
 10
0.0000
 20
0.0000
 30
0.0000
 40
0.0762
 41
0.0762
 70
0
  0
VERTEX
  8
52
 10
71.6300
 20
42.7981
 30
0.0000
 42
1.0000
  0
VERTEX
  8
52
 10
71.6300
 20
42.7219
 30
0.0000
  0
SEQEND
  8
0
  0
POLYLINE
  8
52
 66
1
 10
0.0000
 20
0.0000
 30
0.0000
 40
0.1524
 41
0.1524
 70
0
  0
VERTEX
  8
52
 10
71.6300
 20
42.7600
 30
0.0000
  0
VERTEX
  8
52
 10
71.0600
 20
42.7600
 30
0.0000
  0
SEQEND
  8
0
  0
POLYLINE
  8
52
 66
1
 10
0.0000
 20
0.0000
 30
0.0000
 40
0.0762
 41
0.0762
 70
0
  0
VERTEX
  8
52
 10
71.0600
 20
42.7981
 30
0.0000
 42
1.0000
  0
VERTEX
  8
52
 10
71.0600
 20
42.7219
 30
0.0000
  0
SEQEND
  8
0
  0
POLYLINE
  8
52
 66
1
 10
0.0000
 20
0.0000
 30
0.0000
 40
0.0762
 41
0.0762
 70
0
  0
VERTEX
  8
52
 10
71.6300
 20
42.7219
 30
0.0000
 42
1.0000
  0
VERTEX
  8
52
 10
71.6300
 20
42.7981
 30
0.0000
  0
SEQEND
  8
0
  0
POLYLINE
  8
52
 66
1
 10
0.0000
 20
0.0000
 30
0.0000
 40
0.1524
 41
0.1524
 70
0
  0
VERTEX
  8
52
 10
97.3100
 20
57.8500
 30
0.0000
  0
VERTEX
  8
52
 10
97.3100
 20
57.2900
 30
0.0000
  0
SEQEND
  8
0
  0
POLYLINE
  8
52
 66
1
 10
0.0000
 20
0.0000
 30
0.0000
 40
0.0762
 41
0.0762
 70
0
  0
VERTEX
  8
52
 10
97.2719
 20
57.2900
 30
0.0000
 42
1.0000
  0
VERTEX
  8
52
 10
97.3481
 20
57.2900
 30
0.0000
  0
SEQEND
  8
0
  0
POLYLINE
  8
52
 66
1
 10
0.0000
 20
0.0000
 30
0.0000
 40
0.0762
 41
0.0762
 70
0
  0
VERTEX
  8
52
 10
97.3481
 20
57.8500
 30
0.0000
 42
1.0000
  0
VERTEX
  8
52
 10
97.2719
 20
57.8500
 30
0.0000
  0
SEQEND
  8
0
  0
POLYLINE
  8
52
 66
1
 10
0.0000
 20
0.0000
 30
0.0000
 40
0.1524
 41
0.1524
 70
0
  0
VERTEX
  8
52
 10
97.3100
 20
57.2900
 30
0.0000
  0
VERTEX
  8
52
 10
97.3100
 20
56.7100
 30
0.0000
  0
SEQEND
  8
0
  0
POLYLINE
  8
52
 66
1
 10
0.0000
 20
0.0000
 30
0.0000
 40
0.0762
 41
0.0762
 70
0
  0
VERTEX
  8
52
 10
97.2719
 20
56.7100
 30
0.0000
 42
1.0000
  0
VERTEX
  8
52
 10
97.3481
 20
56.7100
 30
0.0000
  0
SEQEND
  8
0
  0
POLYLINE
  8
52
 66
1
 10
0.0000
 20
0.0000
 30
0.0000
 40
0.0762
 41
0.0762
 70
0
  0
VERTEX
  8
52
 10
97.3481
 20
57.2900
 30
0.0000
 42
1.0000
  0
VERTEX
  8
52
 10
97.2719
 20
57.2900
 30
0.0000
  0
SEQEND
  8
0
  0
POLYLINE
  8
52
 66
1
 10
0.0000
 20
0.0000
 30
0.0000
 40
0.1524
 41
0.1524
 70
0
  0
VERTEX
  8
52
 10
97.3100
 20
57.2900
 30
0.0000
  0
VERTEX
  8
52
 10
97.8600
 20
57.2900
 30
0.0000
  0
SEQEND
  8
0
  0
POLYLINE
  8
52
 66
1
 10
0.0000
 20
0.0000
 30
0.0000
 40
0.0762
 41
0.0762
 70
0
  0
VERTEX
  8
52
 10
97.8600
 20
57.2519
 30
0.0000
 42
1.0000
  0
VERTEX
  8
52
 10
97.8600
 20
57.3281
 30
0.0000
  0
SEQEND
  8
0
  0
POLYLINE
  8
52
 66
1
 10
0.0000
 20
0.0000
 30
0.0000
 40
0.0762
 41
0.0762
 70
0
  0
VERTEX
  8
52
 10
97.3100
 20
57.3281
 30
0.0000
 42
1.0000
  0
VERTEX
  8
52
 10
97.3100
 20
57.2519
 30
0.0000
  0
SEQEND
  8
0
  0
POLYLINE
  8
52
 66
1
 10
0.0000
 20
0.0000
 30
0.0000
 40
0.1524
 41
0.1524
 70
0
  0
VERTEX
  8
52
 10
97.3100
 20
57.2900
 30
0.0000
  0
VERTEX
  8
52
 10
96.7400
 20
57.2900
 30
0.0000
  0
SEQEND
  8
0
  0
POLYLINE
  8
52
 66
1
 10
0.0000
 20
0.0000
 30
0.0000
 40
0.0762
 41
0.0762
 70
0
  0
VERTEX
  8
52
 10
96.7400
 20
57.3281
 30
0.0000
 42
1.0000
  0
VERTEX
  8
52
 10
96.7400
 20
57.2519
 30
0.0000
  0
SEQEND
  8
0
  0
POLYLINE
  8
52
 66
1
 10
0.0000
 20
0.0000
 30
0.0000
 40
0.0762
 41
0.0762
 70
0
  0
VERTEX
  8
52
 10
97.3100
 20
57.2519
 30
0.0000
 42
1.0000
  0
VERTEX
  8
52
 10
97.3100
 20
57.3281
 30
0.0000
  0
SEQEND
  8
0
  0
POLYLINE
  8
52
 66
1
 10
0.0000
 20
0.0000
 30
0.0000
 40
0.1524
 41
0.1524
 70
0
  0
VERTEX
  8
52
 10
34.0000
 20
44.3100
 30
0.0000
  0
VERTEX
  8
52
 10
34.0000
 20
43.7500
 30
0.0000
  0
SEQEND
  8
0
  0
POLYLINE
  8
52
 66
1
 10
0.0000
 20
0.0000
 30
0.0000
 40
0.0762
 41
0.0762
 70
0
  0
VERTEX
  8
52
 10
33.9619
 20
43.7500
 30
0.0000
 42
1.0000
  0
VERTEX
  8
52
 10
34.0381
 20
43.7500
 30
0.0000
  0
SEQEND
  8
0
  0
POLYLINE
  8
52
 66
1
 10
0.0000
 20
0.0000
 30
0.0000
 40
0.0762
 41
0.0762
 70
0
  0
VERTEX
  8
52
 10
34.0381
 20
44.3100
 30
0.0000
 42
1.0000
  0
VERTEX
  8
52
 10
33.9619
 20
44.3100
 30
0.0000
  0
SEQEND
  8
0
  0
POLYLINE
  8
52
 66
1
 10
0.0000
 20
0.0000
 30
0.0000
 40
0.1524
 41
0.1524
 70
0
  0
VERTEX
  8
52
 10
34.0000
 20
43.7500
 30
0.0000
  0
VERTEX
  8
52
 10
34.0000
 20
43.1700
 30
0.0000
  0
SEQEND
  8
0
  0
POLYLINE
  8
52
 66
1
 10
0.0000
 20
0.0000
 30
0.0000
 40
0.0762
 41
0.0762
 70
0
  0
VERTEX
  8
52
 10
33.9619
 20
43.1700
 30
0.0000
 42
1.0000
  0
VERTEX
  8
52
 10
34.0381
 20
43.1700
 30
0.0000
  0
SEQEND
  8
0
  0
POLYLINE
  8
52
 66
1
 10
0.0000
 20
0.0000
 30
0.0000
 40
0.0762
 41
0.0762
 70
0
  0
VERTEX
  8
52
 10
34.0381
 20
43.7500
 30
0.0000
 42
1.0000
  0
VERTEX
  8
52
 10
33.9619
 20
43.7500
 30
0.0000
  0
SEQEND
  8
0
  0
POLYLINE
  8
52
 66
1
 10
0.0000
 20
0.0000
 30
0.0000
 40
0.1524
 41
0.1524
 70
0
  0
VERTEX
  8
52
 10
34.0000
 20
43.7500
 30
0.0000
  0
VERTEX
  8
52
 10
34.5500
 20
43.7500
 30
0.0000
  0
SEQEND
  8
0
  0
POLYLINE
  8
52
 66
1
 10
0.0000
 20
0.0000
 30
0.0000
 40
0.0762
 41
0.0762
 70
0
  0
VERTEX
  8
52
 10
34.5500
 20
43.7119
 30
0.0000
 42
1.0000
  0
VERTEX
  8
52
 10
34.5500
 20
43.7881
 30
0.0000
  0
SEQEND
  8
0
  0
POLYLINE
  8
52
 66
1
 10
0.0000
 20
0.0000
 30
0.0000
 40
0.0762
 41
0.0762
 70
0
  0
VERTEX
  8
52
 10
34.0000
 20
43.7881
 30
0.0000
 42
1.0000
  0
VERTEX
  8
52
 10
34.0000
 20
43.7119
 30
0.0000
  0
SEQEND
  8
0
  0
POLYLINE
  8
52
 66
1
 10
0.0000
 20
0.0000
 30
0.0000
 40
0.1524
 41
0.1524
 70
0
  0
VERTEX
  8
52
 10
34.0000
 20
43.7500
 30
0.0000
  0
VERTEX
  8
52
 10
33.4300
 20
43.7500
 30
0.0000
  0
SEQEND
  8
0
  0
POLYLINE
  8
52
 66
1
 10
0.0000
 20
0.0000
 30
0.0000
 40
0.0762
 41
0.0762
 70
0
  0
VERTEX
  8
52
 10
33.4300
 20
43.7881
 30
0.0000
 42
1.0000
  0
VERTEX
  8
52
 10
33.4300
 20
43.7119
 30
0.0000
  0
SEQEND
  8
0
  0
POLYLINE
  8
52
 66
1
 10
0.0000
 20
0.0000
 30
0.0000
 40
0.0762
 41
0.0762
 70
0
  0
VERTEX
  8
52
 10
34.0000
 20
43.7119
 30
0.0000
 42
1.0000
  0
VERTEX
  8
52
 10
34.0000
 20
43.7881
 30
0.0000
  0
SEQEND
  8
0
  0
POLYLINE
  8
20
 66
1
 10
0.0000
 20
0.0000
 30
0.0000
 40
0.1524
 41
0.1524
 70
0
  0
VERTEX
  8
20
 10
50.4380
 20
66.1688
 30
0.0000
 42
1.0000
  0
VERTEX
  8
20
 10
50.4380
 20
68.3552
 30
0.0000
 42
1.0000
  0
VERTEX
  8
20
 10
50.4380
 20
66.1688
 30
0.0000
  0
SEQEND
  8
0
  0
POLYLINE
  8
20
 66
1
 10
0.0000
 20
0.0000
 30
0.0000
 40
0.1524
 41
0.1524
 70
0
  0
VERTEX
  8
20
 10
73.6660
 20
66.1562
 30
0.0000
 42
1.0000
  0
VERTEX
  8
20
 10
73.6660
 20
68.4278
 30
0.0000
 42
1.0000
  0
VERTEX
  8
20
 10
73.6660
 20
66.1562
 30
0.0000
  0
SEQEND
  8
0
  0
CIRCLE
  8
20
 10
19.7800
 20
64.8800
 30
0.0000
 40
1.5500
  0
CIRCLE
  8
20
 10
105.7800
 20
64.8800
 30
0.0000
 40
1.5500
  0
CIRCLE
  8
20
 10
17.7800
 20
33.8800
 30
0.0000
 40
1.5500
  0
CIRCLE
  8
20
 10
107.7800
 20
22.8800
 30
0.0000
 40
1.5500
  0
POLYLINE
  8
52
 66
1
 10
0.0000
 20
0.0000
 30
0.0000
 40
0.1016
 41
0.1016
 70
0
  0
VERTEX
  8
52
 10
24.5870
 20
41.6770
 30
0.0000
  0
VERTEX
  8
52
 10
24.5870
 20
39.7470
 30
0.0000
  0
SEQEND
  8
0
  0
POLYLINE
  8
52
 66
1
 10
0.0000
 20
0.0000
 30
0.0000
 40
0.0508
 41
0.0508
 70
0
  0
VERTEX
  8
52
 10
24.5616
 20
39.7470
 30
0.0000
 42
1.0000
  0
VERTEX
  8
52
 10
24.6124
 20
39.7470
 30
0.0000
  0
SEQEND
  8
0
  0
POLYLINE
  8
52
 66
1
 10
0.0000
 20
0.0000
 30
0.0000
 40
0.0508
 41
0.0508
 70
0
  0
VERTEX
  8
52
 10
24.6124
 20
41.6770
 30
0.0000
 42
1.0000
  0
VERTEX
  8
52
 10
24.5616
 20
41.6770
 30
0.0000
  0
SEQEND
  8
0
  0
POLYLINE
  8
52
 66
1
 10
0.0000
 20
0.0000
 30
0.0000
 40
0.1016
 41
0.1016
 70
0
  0
VERTEX
  8
52
 10
26.1610
 20
41.6770
 30
0.0000
  0
VERTEX
  8
52
 10
26.1610
 20
39.7470
 30
0.0000
  0
SEQEND
  8
0
  0
POLYLINE
  8
52
 66
1
 10
0.0000
 20
0.0000
 30
0.0000
 40
0.0508
 41
0.0508
 70
0
  0
VERTEX
  8
52
 10
26.1356
 20
39.7470
 30
0.0000
 42
1.0000
  0
VERTEX
  8
52
 10
26.1864
 20
39.7470
 30
0.0000
  0
SEQEND
  8
0
  0
POLYLINE
  8
52
 66
1
 10
0.0000
 20
0.0000
 30
0.0000
 40
0.0508
 41
0.0508
 70
0
  0
VERTEX
  8
52
 10
26.1864
 20
41.6770
 30
0.0000
 42
1.0000
  0
VERTEX
  8
52
 10
26.1356
 20
41.6770
 30
0.0000
  0
SEQEND
  8
0
  0
INSERT
  8
52
  2
RECT
 10
25.3749
 20
42.0388
 30
0.0000
 41
0.7501
 42
1.7000
 43
1.0000
 50
270.0000
  0
INSERT
  8
52
  2
RECT
 10
25.3731
 20
39.3852
 30
0.0000
 41
0.7501
 42
1.7000
 43
1.0000
 50
270.0000
  0
POLYLINE
  8
52
 66
1
 10
0.0000
 20
0.0000
 30
0.0000
 40
0.1270
 41
0.1270
 70
0
  0
VERTEX
  8
52
 10
47.7119
 20
54.3079
 30
0.0000
  0
VERTEX
  8
52
 10
47.7119
 20
57.5079
 30
0.0000
  0
SEQEND
  8
0
  0
POLYLINE
  8
52
 66
1
 10
0.0000
 20
0.0000
 30
0.0000
 40
0.0635
 41
0.0635
 70
0
  0
VERTEX
  8
52
 10
47.7437
 20
57.5079
 30
0.0000
 42
1.0000
  0
VERTEX
  8
52
 10
47.6801
 20
57.5079
 30
0.0000
  0
SEQEND
  8
0
  0
POLYLINE
  8
52
 66
1
 10
0.0000
 20
0.0000
 30
0.0000
 40
0.0635
 41
0.0635
 70
0
  0
VERTEX
  8
52
 10
47.6801
 20
54.3079
 30
0.0000
 42
1.0000
  0
VERTEX
  8
52
 10
47.7437
 20
54.3079
 30
0.0000
  0
SEQEND
  8
0
  0
POLYLINE
  8
52
 66
1
 10
0.0000
 20
0.0000
 30
0.0000
 40
0.1270
 41
0.1270
 70
0
  0
VERTEX
  8
52
 10
47.7119
 20
57.5079
 30
0.0000
  0
VERTEX
  8
52
 10
45.1119
 20
57.5079
 30
0.0000
  0
SEQEND
  8
0
  0
POLYLINE
  8
52
 66
1
 10
0.0000
 20
0.0000
 30
0.0000
 40
0.0635
 41
0.0635
 70
0
  0
VERTEX
  8
52
 10
45.1119
 20
57.5397
 30
0.0000
 42
1.0000
  0
VERTEX
  8
52
 10
45.1119
 20
57.4761
 30
0.0000
  0
SEQEND
  8
0
  0
POLYLINE
  8
52
 66
1
 10
0.0000
 20
0.0000
 30
0.0000
 40
0.0635
 41
0.0635
 70
0
  0
VERTEX
  8
52
 10
47.7119
 20
57.4761
 30
0.0000
 42
1.0000
  0
VERTEX
  8
52
 10
47.7119
 20
57.5397
 30
0.0000
  0
SEQEND
  8
0
  0
POLYLINE
  8
52
 66
1
 10
0.0000
 20
0.0000
 30
0.0000
 40
0.1270
 41
0.1270
 70
0
  0
VERTEX
  8
52
 10
45.1119
 20
57.5079
 30
0.0000
  0
VERTEX
  8
52
 10
45.1119
 20
54.3079
 30
0.0000
  0
SEQEND
  8
0
  0
POLYLINE
  8
52
 66
1
 10
0.0000
 20
0.0000
 30
0.0000
 40
0.0635
 41
0.0635
 70
0
  0
VERTEX
  8
52
 10
45.0802
 20
54.3079
 30
0.0000
 42
1.0000
  0
VERTEX
  8
52
 10
45.1437
 20
54.3079
 30
0.0000
  0
SEQEND
  8
0
  0
POLYLINE
  8
52
 66
1
 10
0.0000
 20
0.0000
 30
0.0000
 40
0.0635
 41
0.0635
 70
0
  0
VERTEX
  8
52
 10
45.1437
 20
57.5079
 30
0.0000
 42
1.0000
  0
VERTEX
  8
52
 10
45.0802
 20
57.5079
 30
0.0000
  0
SEQEND
  8
0
  0
POLYLINE
  8
52
 66
1
 10
0.0000
 20
0.0000
 30
0.0000
 40
0.1270
 41
0.1270
 70
0
  0
VERTEX
  8
52
 10
45.1119
 20
54.3079
 30
0.0000
  0
VERTEX
  8
52
 10
47.7119
 20
54.3079
 30
0.0000
  0
SEQEND
  8
0
  0
POLYLINE
  8
52
 66
1
 10
0.0000
 20
0.0000
 30
0.0000
 40
0.0635
 41
0.0635
 70
0
  0
VERTEX
  8
52
 10
47.7119
 20
54.2762
 30
0.0000
 42
1.0000
  0
VERTEX
  8
52
 10
47.7119
 20
54.3397
 30
0.0000
  0
SEQEND
  8
0
  0
POLYLINE
  8
52
 66
1
 10
0.0000
 20
0.0000
 30
0.0000
 40
0.0635
 41
0.0635
 70
0
  0
VERTEX
  8
52
 10
45.1119
 20
54.3397
 30
0.0000
 42
1.0000
  0
VERTEX
  8
52
 10
45.1119
 20
54.2762
 30
0.0000
  0
SEQEND
  8
0
  0
POLYLINE
  8
52
 66
1
 10
0.0000
 20
0.0000
 30
0.0000
 40
0.1270
 41
0.1270
 70
0
  0
VERTEX
  8
52
 10
44.6639
 20
54.3079
 30
0.0000
  0
VERTEX
  8
52
 10
44.6639
 20
57.5079
 30
0.0000
  0
SEQEND
  8
0
  0
POLYLINE
  8
52
 66
1
 10
0.0000
 20
0.0000
 30
0.0000
 40
0.0635
 41
0.0635
 70
0
  0
VERTEX
  8
52
 10
44.6957
 20
57.5079
 30
0.0000
 42
1.0000
  0
VERTEX
  8
52
 10
44.6322
 20
57.5079
 30
0.0000
  0
SEQEND
  8
0
  0
POLYLINE
  8
52
 66
1
 10
0.0000
 20
0.0000
 30
0.0000
 40
0.0635
 41
0.0635
 70
0
  0
VERTEX
  8
52
 10
44.6322
 20
54.3079
 30
0.0000
 42
1.0000
  0
VERTEX
  8
52
 10
44.6957
 20
54.3079
 30
0.0000
  0
SEQEND
  8
0
  0
POLYLINE
  8
52
 66
1
 10
0.0000
 20
0.0000
 30
0.0000
 40
0.1270
 41
0.1270
 70
0
  0
VERTEX
  8
52
 10
44.6639
 20
57.5079
 30
0.0000
  0
VERTEX
  8
52
 10
42.0639
 20
57.5079
 30
0.0000
  0
SEQEND
  8
0
  0
POLYLINE
  8
52
 66
1
 10
0.0000
 20
0.0000
 30
0.0000
 40
0.0635
 41
0.0635
 70
0
  0
VERTEX
  8
52
 10
42.0639
 20
57.5397
 30
0.0000
 42
1.0000
  0
VERTEX
  8
52
 10
42.0639
 20
57.4761
 30
0.0000
  0
SEQEND
  8
0
  0
POLYLINE
  8
52
 66
1
 10
0.0000
 20
0.0000
 30
0.0000
 40
0.0635
 41
0.0635
 70
0
  0
VERTEX
  8
52
 10
44.6639
 20
57.4761
 30
0.0000
 42
1.0000
  0
VERTEX
  8
52
 10
44.6639
 20
57.5397
 30
0.0000
  0
SEQEND
  8
0
  0
POLYLINE
  8
52
 66
1
 10
0.0000
 20
0.0000
 30
0.0000
 40
0.1270
 41
0.1270
 70
0
  0
VERTEX
  8
52
 10
42.0639
 20
57.5079
 30
0.0000
  0
VERTEX
  8
52
 10
42.0639
 20
54.3079
 30
0.0000
  0
SEQEND
  8
0
  0
POLYLINE
  8
52
 66
1
 10
0.0000
 20
0.0000
 30
0.0000
 40
0.0635
 41
0.0635
 70
0
  0
VERTEX
  8
52
 10
42.0322
 20
54.3079
 30
0.0000
 42
1.0000
  0
VERTEX
  8
52
 10
42.0957
 20
54.3079
 30
0.0000
  0
SEQEND
  8
0
  0
POLYLINE
  8
52
 66
1
 10
0.0000
 20
0.0000
 30
0.0000
 40
0.0635
 41
0.0635
 70
0
  0
VERTEX
  8
52
 10
42.0957
 20
57.5079
 30
0.0000
 42
1.0000
  0
VERTEX
  8
52
 10
42.0322
 20
57.5079
 30
0.0000
  0
SEQEND
  8
0
  0
POLYLINE
  8
52
 66
1
 10
0.0000
 20
0.0000
 30
0.0000
 40
0.1270
 41
0.1270
 70
0
  0
VERTEX
  8
52
 10
42.0639
 20
54.3079
 30
0.0000
  0
VERTEX
  8
52
 10
44.6639
 20
54.3079
 30
0.0000
  0
SEQEND
  8
0
  0
POLYLINE
  8
52
 66
1
 10
0.0000
 20
0.0000
 30
0.0000
 40
0.0635
 41
0.0635
 70
0
  0
VERTEX
  8
52
 10
44.6639
 20
54.2762
 30
0.0000
 42
1.0000
  0
VERTEX
  8
52
 10
44.6639
 20
54.3397
 30
0.0000
  0
SEQEND
  8
0
  0
POLYLINE
  8
52
 66
1
 10
0.0000
 20
0.0000
 30
0.0000
 40
0.0635
 41
0.0635
 70
0
  0
VERTEX
  8
52
 10
42.0639
 20
54.3397
 30
0.0000
 42
1.0000
  0
VERTEX
  8
52
 10
42.0639
 20
54.2762
 30
0.0000
  0
SEQEND
  8
0
  0
POLYLINE
  8
52
 66
1
 10
0.0000
 20
0.0000
 30
0.0000
 40
0.1270
 41
0.1270
 70
0
  0
VERTEX
  8
52
 10
50.7218
 20
54.3587
 30
0.0000
  0
VERTEX
  8
52
 10
50.7218
 20
57.5587
 30
0.0000
  0
SEQEND
  8
0
  0
POLYLINE
  8
52
 66
1
 10
0.0000
 20
0.0000
 30
0.0000
 40
0.0635
 41
0.0635
 70
0
  0
VERTEX
  8
52
 10
50.7536
 20
57.5587
 30
0.0000
 42
1.0000
  0
VERTEX
  8
52
 10
50.6900
 20
57.5587
 30
0.0000
  0
SEQEND
  8
0
  0
POLYLINE
  8
52
 66
1
 10
0.0000
 20
0.0000
 30
0.0000
 40
0.0635
 41
0.0635
 70
0
  0
VERTEX
  8
52
 10
50.6900
 20
54.3587
 30
0.0000
 42
1.0000
  0
VERTEX
  8
52
 10
50.7536
 20
54.3587
 30
0.0000
  0
SEQEND
  8
0
  0
POLYLINE
  8
52
 66
1
 10
0.0000
 20
0.0000
 30
0.0000
 40
0.1270
 41
0.1270
 70
0
  0
VERTEX
  8
52
 10
50.7218
 20
57.5587
 30
0.0000
  0
VERTEX
  8
52
 10
48.1218
 20
57.5587
 30
0.0000
  0
SEQEND
  8
0
  0
POLYLINE
  8
52
 66
1
 10
0.0000
 20
0.0000
 30
0.0000
 40
0.0635
 41
0.0635
 70
0
  0
VERTEX
  8
52
 10
48.1218
 20
57.5905
 30
0.0000
 42
1.0000
  0
VERTEX
  8
52
 10
48.1218
 20
57.5269
 30
0.0000
  0
SEQEND
  8
0
  0
POLYLINE
  8
52
 66
1
 10
0.0000
 20
0.0000
 30
0.0000
 40
0.0635
 41
0.0635
 70
0
  0
VERTEX
  8
52
 10
50.7218
 20
57.5269
 30
0.0000
 42
1.0000
  0
VERTEX
  8
52
 10
50.7218
 20
57.5905
 30
0.0000
  0
SEQEND
  8
0
  0
POLYLINE
  8
52
 66
1
 10
0.0000
 20
0.0000
 30
0.0000
 40
0.1270
 41
0.1270
 70
0
  0
VERTEX
  8
52
 10
48.1218
 20
57.5587
 30
0.0000
  0
VERTEX
  8
52
 10
48.1218
 20
54.3587
 30
0.0000
  0
SEQEND
  8
0
  0
POLYLINE
  8
52
 66
1
 10
0.0000
 20
0.0000
 30
0.0000
 40
0.0635
 41
0.0635
 70
0
  0
VERTEX
  8
52
 10
48.0900
 20
54.3587
 30
0.0000
 42
1.0000
  0
VERTEX
  8
52
 10
48.1536
 20
54.3587
 30
0.0000
  0
SEQEND
  8
0
  0
POLYLINE
  8
52
 66
1
 10
0.0000
 20
0.0000
 30
0.0000
 40
0.0635
 41
0.0635
 70
0
  0
VERTEX
  8
52
 10
48.1536
 20
57.5587
 30
0.0000
 42
1.0000
  0
VERTEX
  8
52
 10
48.0900
 20
57.5587
 30
0.0000
  0
SEQEND
  8
0
  0
POLYLINE
  8
52
 66
1
 10
0.0000
 20
0.0000
 30
0.0000
 40
0.1270
 41
0.1270
 70
0
  0
VERTEX
  8
52
 10
48.1218
 20
54.3587
 30
0.0000
  0
VERTEX
  8
52
 10
50.7218
 20
54.3587
 30
0.0000
  0
SEQEND
  8
0
  0
POLYLINE
  8
52
 66
1
 10
0.0000
 20
0.0000
 30
0.0000
 40
0.0635
 41
0.0635
 70
0
  0
VERTEX
  8
52
 10
50.7218
 20
54.3270
 30
0.0000
 42
1.0000
  0
VERTEX
  8
52
 10
50.7218
 20
54.3905
 30
0.0000
  0
SEQEND
  8
0
  0
POLYLINE
  8
52
 66
1
 10
0.0000
 20
0.0000
 30
0.0000
 40
0.0635
 41
0.0635
 70
0
  0
VERTEX
  8
52
 10
48.1218
 20
54.3905
 30
0.0000
 42
1.0000
  0
VERTEX
  8
52
 10
48.1218
 20
54.3270
 30
0.0000
  0
SEQEND
  8
0
  0
POLYLINE
  8
52
 66
1
 10
0.0000
 20
0.0000
 30
0.0000
 40
0.1270
 41
0.1270
 70
0
  0
VERTEX
  8
52
 10
41.7429
 20
54.3079
 30
0.0000
  0
VERTEX
  8
52
 10
41.7429
 20
57.5079
 30
0.0000
  0
SEQEND
  8
0
  0
POLYLINE
  8
52
 66
1
 10
0.0000
 20
0.0000
 30
0.0000
 40
0.0635
 41
0.0635
 70
0
  0
VERTEX
  8
52
 10
41.7747
 20
57.5079
 30
0.0000
 42
1.0000
  0
VERTEX
  8
52
 10
41.7111
 20
57.5079
 30
0.0000
  0
SEQEND
  8
0
  0
POLYLINE
  8
52
 66
1
 10
0.0000
 20
0.0000
 30
0.0000
 40
0.0635
 41
0.0635
 70
0
  0
VERTEX
  8
52
 10
41.7111
 20
54.3079
 30
0.0000
 42
1.0000
  0
VERTEX
  8
52
 10
41.7747
 20
54.3079
 30
0.0000
  0
SEQEND
  8
0
  0
POLYLINE
  8
52
 66
1
 10
0.0000
 20
0.0000
 30
0.0000
 40
0.1270
 41
0.1270
 70
0
  0
VERTEX
  8
52
 10
41.7429
 20
57.5079
 30
0.0000
  0
VERTEX
  8
52
 10
39.1429
 20
57.5079
 30
0.0000
  0
SEQEND
  8
0
  0
POLYLINE
  8
52
 66
1
 10
0.0000
 20
0.0000
 30
0.0000
 40
0.0635
 41
0.0635
 70
0
  0
VERTEX
  8
52
 10
39.1429
 20
57.5397
 30
0.0000
 42
1.0000
  0
VERTEX
  8
52
 10
39.1429
 20
57.4761
 30
0.0000
  0
SEQEND
  8
0
  0
POLYLINE
  8
52
 66
1
 10
0.0000
 20
0.0000
 30
0.0000
 40
0.0635
 41
0.0635
 70
0
  0
VERTEX
  8
52
 10
41.7429
 20
57.4761
 30
0.0000
 42
1.0000
  0
VERTEX
  8
52
 10
41.7429
 20
57.5397
 30
0.0000
  0
SEQEND
  8
0
  0
POLYLINE
  8
52
 66
1
 10
0.0000
 20
0.0000
 30
0.0000
 40
0.1270
 41
0.1270
 70
0
  0
VERTEX
  8
52
 10
39.1429
 20
57.5079
 30
0.0000
  0
VERTEX
  8
52
 10
39.1429
 20
54.3079
 30
0.0000
  0
SEQEND
  8
0
  0
POLYLINE
  8
52
 66
1
 10
0.0000
 20
0.0000
 30
0.0000
 40
0.0635
 41
0.0635
 70
0
  0
VERTEX
  8
52
 10
39.1112
 20
54.3079
 30
0.0000
 42
1.0000
  0
VERTEX
  8
52
 10
39.1747
 20
54.3079
 30
0.0000
  0
SEQEND
  8
0
  0
POLYLINE
  8
52
 66
1
 10
0.0000
 20
0.0000
 30
0.0000
 40
0.0635
 41
0.0635
 70
0
  0
VERTEX
  8
52
 10
39.1747
 20
57.5079
 30
0.0000
 42
1.0000
  0
VERTEX
  8
52
 10
39.1112
 20
57.5079
 30
0.0000
  0
SEQEND
  8
0
  0
POLYLINE
  8
52
 66
1
 10
0.0000
 20
0.0000
 30
0.0000
 40
0.1270
 41
0.1270
 70
0
  0
VERTEX
  8
52
 10
39.1429
 20
54.3079
 30
0.0000
  0
VERTEX
  8
52
 10
41.7429
 20
54.3079
 30
0.0000
  0
SEQEND
  8
0
  0
POLYLINE
  8
52
 66
1
 10
0.0000
 20
0.0000
 30
0.0000
 40
0.0635
 41
0.0635
 70
0
  0
VERTEX
  8
52
 10
41.7429
 20
54.2762
 30
0.0000
 42
1.0000
  0
VERTEX
  8
52
 10
41.7429
 20
54.3397
 30
0.0000
  0
SEQEND
  8
0
  0
POLYLINE
  8
52
 66
1
 10
0.0000
 20
0.0000
 30
0.0000
 40
0.0635
 41
0.0635
 70
0
  0
VERTEX
  8
52
 10
39.1429
 20
54.3397
 30
0.0000
 42
1.0000
  0
VERTEX
  8
52
 10
39.1429
 20
54.2762
 30
0.0000
  0
SEQEND
  8
0
  0
POLYLINE
  8
52
 66
1
 10
0.0000
 20
0.0000
 30
0.0000
 40
0.1016
 41
0.1016
 70
0
  0
VERTEX
  8
52
 10
53.6470
 20
46.9550
 30
0.0000
  0
VERTEX
  8
52
 10
53.6470
 20
48.8850
 30
0.0000
  0
SEQEND
  8
0
  0
POLYLINE
  8
52
 66
1
 10
0.0000
 20
0.0000
 30
0.0000
 40
0.0508
 41
0.0508
 70
0
  0
VERTEX
  8
52
 10
53.6724
 20
48.8850
 30
0.0000
 42
1.0000
  0
VERTEX
  8
52
 10
53.6216
 20
48.8850
 30
0.0000
  0
SEQEND
  8
0
  0
POLYLINE
  8
52
 66
1
 10
0.0000
 20
0.0000
 30
0.0000
 40
0.0508
 41
0.0508
 70
0
  0
VERTEX
  8
52
 10
53.6216
 20
46.9550
 30
0.0000
 42
1.0000
  0
VERTEX
  8
52
 10
53.6724
 20
46.9550
 30
0.0000
  0
SEQEND
  8
0
  0
POLYLINE
  8
52
 66
1
 10
0.0000
 20
0.0000
 30
0.0000
 40
0.1016
 41
0.1016
 70
0
  0
VERTEX
  8
52
 10
52.0730
 20
46.9550
 30
0.0000
  0
VERTEX
  8
52
 10
52.0730
 20
48.8850
 30
0.0000
  0
SEQEND
  8
0
  0
POLYLINE
  8
52
 66
1
 10
0.0000
 20
0.0000
 30
0.0000
 40
0.0508
 41
0.0508
 70
0
  0
VERTEX
  8
52
 10
52.0984
 20
48.8850
 30
0.0000
 42
1.0000
  0
VERTEX
  8
52
 10
52.0476
 20
48.8850
 30
0.0000
  0
SEQEND
  8
0
  0
POLYLINE
  8
52
 66
1
 10
0.0000
 20
0.0000
 30
0.0000
 40
0.0508
 41
0.0508
 70
0
  0
VERTEX
  8
52
 10
52.0476
 20
46.9550
 30
0.0000
 42
1.0000
  0
VERTEX
  8
52
 10
52.0984
 20
46.9550
 30
0.0000
  0
SEQEND
  8
0
  0
INSERT
  8
52
  2
RECT
 10
52.8591
 20
46.5933
 30
0.0000
 41
0.7501
 42
1.7000
 43
1.0000
 50
90.0000
  0
INSERT
  8
52
  2
RECT
 10
52.8609
 20
49.2468
 30
0.0000
 41
0.7501
 42
1.7000
 43
1.0000
 50
90.0000
  0
POLYLINE
  8
52
 66
1
 10
0.0000
 20
0.0000
 30
0.0000
 40
0.1524
 41
0.1524
 70
0
  0
VERTEX
  8
52
 10
36.9925
 20
44.8837
 30
0.0000
  0
VERTEX
  8
52
 10
36.9925
 20
46.2045
 30
0.0000
  0
SEQEND
  8
0
  0
POLYLINE
  8
52
 66
1
 10
0.0000
 20
0.0000
 30
0.0000
 40
0.0762
 41
0.0762
 70
0
  0
VERTEX
  8
52
 10
37.0306
 20
46.2045
 30
0.0000
 42
1.0000
  0
VERTEX
  8
52
 10
36.9544
 20
46.2045
 30
0.0000
  0
SEQEND
  8
0
  0
POLYLINE
  8
52
 66
1
 10
0.0000
 20
0.0000
 30
0.0000
 40
0.0762
 41
0.0762
 70
0
  0
VERTEX
  8
52
 10
36.9544
 20
44.8837
 30
0.0000
 42
1.0000
  0
VERTEX
  8
52
 10
37.0306
 20
44.8837
 30
0.0000
  0
SEQEND
  8
0
  0
POLYLINE
  8
52
 66
1
 10
0.0000
 20
0.0000
 30
0.0000
 40
0.1524
 41
0.1524
 70
0
  0
VERTEX
  8
52
 10
36.9925
 20
46.2045
 30
0.0000
  0
VERTEX
  8
52
 10
34.1477
 20
46.2045
 30
0.0000
  0
SEQEND
  8
0
  0
POLYLINE
  8
52
 66
1
 10
0.0000
 20
0.0000
 30
0.0000
 40
0.0762
 41
0.0762
 70
0
  0
VERTEX
  8
52
 10
34.1477
 20
46.2426
 30
0.0000
 42
1.0000
  0
VERTEX
  8
52
 10
34.1477
 20
46.1664
 30
0.0000
  0
SEQEND
  8
0
  0
POLYLINE
  8
52
 66
1
 10
0.0000
 20
0.0000
 30
0.0000
 40
0.0762
 41
0.0762
 70
0
  0
VERTEX
  8
52
 10
36.9925
 20
46.1664
 30
0.0000
 42
1.0000
  0
VERTEX
  8
52
 10
36.9925
 20
46.2426
 30
0.0000
  0
SEQEND
  8
0
  0
POLYLINE
  8
52
 66
1
 10
0.0000
 20
0.0000
 30
0.0000
 40
0.1524
 41
0.1524
 70
0
  0
VERTEX
  8
52
 10
34.1477
 20
46.2045
 30
0.0000
  0
VERTEX
  8
52
 10
34.1477
 20
44.8837
 30
0.0000
  0
SEQEND
  8
0
  0
POLYLINE
  8
52
 66
1
 10
0.0000
 20
0.0000
 30
0.0000
 40
0.0762
 41
0.0762
 70
0
  0
VERTEX
  8
52
 10
34.1096
 20
44.8837
 30
0.0000
 42
1.0000
  0
VERTEX
  8
52
 10
34.1858
 20
44.8837
 30
0.0000
  0
SEQEND
  8
0
  0
POLYLINE
  8
52
 66
1
 10
0.0000
 20
0.0000
 30
0.0000
 40
0.0762
 41
0.0762
 70
0
  0
VERTEX
  8
52
 10
34.1858
 20
46.2045
 30
0.0000
 42
1.0000
  0
VERTEX
  8
52
 10
34.1096
 20
46.2045
 30
0.0000
  0
SEQEND
  8
0
  0
POLYLINE
  8
52
 66
1
 10
0.0000
 20
0.0000
 30
0.0000
 40
0.1524
 41
0.1524
 70
0
  0
VERTEX
  8
52
 10
34.1477
 20
44.8837
 30
0.0000
  0
VERTEX
  8
52
 10
36.9925
 20
44.8837
 30
0.0000
  0
SEQEND
  8
0
  0
POLYLINE
  8
52
 66
1
 10
0.0000
 20
0.0000
 30
0.0000
 40
0.0762
 41
0.0762
 70
0
  0
VERTEX
  8
52
 10
36.9925
 20
44.8456
 30
0.0000
 42
1.0000
  0
VERTEX
  8
52
 10
36.9925
 20
44.9218
 30
0.0000
  0
SEQEND
  8
0
  0
POLYLINE
  8
52
 66
1
 10
0.0000
 20
0.0000
 30
0.0000
 40
0.0762
 41
0.0762
 70
0
  0
VERTEX
  8
52
 10
34.1477
 20
44.9218
 30
0.0000
 42
1.0000
  0
VERTEX
  8
52
 10
34.1477
 20
44.8456
 30
0.0000
  0
SEQEND
  8
0
  0
INSERT
  8
52
  2
RECT
 10
35.5701
 20
44.5408
 30
0.0000
 41
0.4572
 42
0.5842
 43
1.0000
 50
0.0000
  0
INSERT
  8
52
  2
RECT
 10
36.5099
 20
46.5474
 30
0.0000
 41
0.4572
 42
0.5842
 43
1.0000
 50
0.0000
  0
INSERT
  8
52
  2
RECT
 10
34.6303
 20
46.5474
 30
0.0000
 41
0.4572
 42
0.5842
 43
1.0000
 50
0.0000
  0
POLYLINE
  8
52
 66
1
 10
0.0000
 20
0.0000
 30
0.0000
 40
0.0500
 41
0.0500
 70
0
  0
VERTEX
  8
52
 10
30.9679
 20
42.7520
 30
0.0000
  0
VERTEX
  8
52
 10
30.9679
 20
49.9020
 30
0.0000
  0
SEQEND
  8
0
  0
POLYLINE
  8
52
 66
1
 10
0.0000
 20
0.0000
 30
0.0000
 40
0.0250
 41
0.0250
 70
0
  0
VERTEX
  8
52
 10
30.9804
 20
49.9020
 30
0.0000
 42
1.0000
  0
VERTEX
  8
52
 10
30.9554
 20
49.9020
 30
0.0000
  0
SEQEND
  8
0
  0
POLYLINE
  8
52
 66
1
 10
0.0000
 20
0.0000
 30
0.0000
 40
0.0250
 41
0.0250
 70
0
  0
VERTEX
  8
52
 10
30.9554
 20
42.7520
 30
0.0000
 42
1.0000
  0
VERTEX
  8
52
 10
30.9804
 20
42.7520
 30
0.0000
  0
SEQEND
  8
0
  0
POLYLINE
  8
52
 66
1
 10
0.0000
 20
0.0000
 30
0.0000
 40
0.0500
 41
0.0500
 70
0
  0
VERTEX
  8
52
 10
30.9679
 20
49.9020
 30
0.0000
  0
VERTEX
  8
52
 10
27.5479
 20
49.9020
 30
0.0000
  0
SEQEND
  8
0
  0
POLYLINE
  8
52
 66
1
 10
0.0000
 20
0.0000
 30
0.0000
 40
0.0250
 41
0.0250
 70
0
  0
VERTEX
  8
52
 10
27.5479
 20
49.9145
 30
0.0000
 42
1.0000
  0
VERTEX
  8
52
 10
27.5479
 20
49.8895
 30
0.0000
  0
SEQEND
  8
0
  0
POLYLINE
  8
52
 66
1
 10
0.0000
 20
0.0000
 30
0.0000
 40
0.0250
 41
0.0250
 70
0
  0
VERTEX
  8
52
 10
30.9679
 20
49.8895
 30
0.0000
 42
1.0000
  0
VERTEX
  8
52
 10
30.9679
 20
49.9145
 30
0.0000
  0
SEQEND
  8
0
  0
POLYLINE
  8
52
 66
1
 10
0.0000
 20
0.0000
 30
0.0000
 40
0.0500
 41
0.0500
 70
0
  0
VERTEX
  8
52
 10
27.5479
 20
49.9020
 30
0.0000
  0
VERTEX
  8
52
 10
27.5479
 20
42.7520
 30
0.0000
  0
SEQEND
  8
0
  0
POLYLINE
  8
52
 66
1
 10
0.0000
 20
0.0000
 30
0.0000
 40
0.0250
 41
0.0250
 70
0
  0
VERTEX
  8
52
 10
27.5354
 20
42.7520
 30
0.0000
 42
1.0000
  0
VERTEX
  8
52
 10
27.5604
 20
42.7520
 30
0.0000
  0
SEQEND
  8
0
  0
POLYLINE
  8
52
 66
1
 10
0.0000
 20
0.0000
 30
0.0000
 40
0.0250
 41
0.0250
 70
0
  0
VERTEX
  8
52
 10
27.5604
 20
49.9020
 30
0.0000
 42
1.0000
  0
VERTEX
  8
52
 10
27.5354
 20
49.9020
 30
0.0000
  0
SEQEND
  8
0
  0
POLYLINE
  8
52
 66
1
 10
0.0000
 20
0.0000
 30
0.0000
 40
0.0500
 41
0.0500
 70
0
  0
VERTEX
  8
52
 10
27.5479
 20
42.7520
 30
0.0000
  0
VERTEX
  8
52
 10
30.9679
 20
42.7520
 30
0.0000
  0
SEQEND
  8
0
  0
POLYLINE
  8
52
 66
1
 10
0.0000
 20
0.0000
 30
0.0000
 40
0.0250
 41
0.0250
 70
0
  0
VERTEX
  8
52
 10
30.9679
 20
42.7395
 30
0.0000
 42
1.0000
  0
VERTEX
  8
52
 10
30.9679
 20
42.7645
 30
0.0000
  0
SEQEND
  8
0
  0
POLYLINE
  8
52
 66
1
 10
0.0000
 20
0.0000
 30
0.0000
 40
0.0250
 41
0.0250
 70
0
  0
VERTEX
  8
52
 10
27.5479
 20
42.7645
 30
0.0000
 42
1.0000
  0
VERTEX
  8
52
 10
27.5479
 20
42.7395
 30
0.0000
  0
SEQEND
  8
0
  0
POLYLINE
  8
52
 66
1
 10
0.0000
 20
0.0000
 30
0.0000
 40
0.1000
 41
0.1000
 70
0
  0
VERTEX
  8
52
 10
30.5499
 20
43.7290
 30
0.0000
  0
VERTEX
  8
52
 10
30.5499
 20
48.9250
 30
0.0000
  0
SEQEND
  8
0
  0
POLYLINE
  8
52
 66
1
 10
0.0000
 20
0.0000
 30
0.0000
 40
0.0500
 41
0.0500
 70
0
  0
VERTEX
  8
52
 10
30.5749
 20
48.9250
 30
0.0000
 42
1.0000
  0
VERTEX
  8
52
 10
30.5249
 20
48.9250
 30
0.0000
  0
SEQEND
  8
0
  0
POLYLINE
  8
52
 66
1
 10
0.0000
 20
0.0000
 30
0.0000
 40
0.0500
 41
0.0500
 70
0
  0
VERTEX
  8
52
 10
30.5249
 20
43.7290
 30
0.0000
 42
1.0000
  0
VERTEX
  8
52
 10
30.5749
 20
43.7290
 30
0.0000
  0
SEQEND
  8
0
  0
POLYLINE
  8
52
 66
1
 10
0.0000
 20
0.0000
 30
0.0000
 40
0.1000
 41
0.1000
 70
0
  0
VERTEX
  8
52
 10
30.5499
 20
48.9250
 30
0.0000
  0
VERTEX
  8
52
 10
27.9659
 20
48.9250
 30
0.0000
  0
SEQEND
  8
0
  0
POLYLINE
  8
52
 66
1
 10
0.0000
 20
0.0000
 30
0.0000
 40
0.0500
 41
0.0500
 70
0
  0
VERTEX
  8
52
 10
27.9659
 20
48.9500
 30
0.0000
 42
1.0000
  0
VERTEX
  8
52
 10
27.9659
 20
48.9000
 30
0.0000
  0
SEQEND
  8
0
  0
POLYLINE
  8
52
 66
1
 10
0.0000
 20
0.0000
 30
0.0000
 40
0.0500
 41
0.0500
 70
0
  0
VERTEX
  8
52
 10
30.5499
 20
48.9000
 30
0.0000
 42
1.0000
  0
VERTEX
  8
52
 10
30.5499
 20
48.9500
 30
0.0000
  0
SEQEND
  8
0
  0
POLYLINE
  8
52
 66
1
 10
0.0000
 20
0.0000
 30
0.0000
 40
0.1000
 41
0.1000
 70
0
  0
VERTEX
  8
52
 10
27.9659
 20
48.9250
 30
0.0000
  0
VERTEX
  8
52
 10
27.9659
 20
43.7290
 30
0.0000
  0
SEQEND
  8
0
  0
POLYLINE
  8
52
 66
1
 10
0.0000
 20
0.0000
 30
0.0000
 40
0.0500
 41
0.0500
 70
0
  0
VERTEX
  8
52
 10
27.9409
 20
43.7290
 30
0.0000
 42
1.0000
  0
VERTEX
  8
52
 10
27.9909
 20
43.7290
 30
0.0000
  0
SEQEND
  8
0
  0
POLYLINE
  8
52
 66
1
 10
0.0000
 20
0.0000
 30
0.0000
 40
0.0500
 41
0.0500
 70
0
  0
VERTEX
  8
52
 10
27.9909
 20
48.9250
 30
0.0000
 42
1.0000
  0
VERTEX
  8
52
 10
27.9409
 20
48.9250
 30
0.0000
  0
SEQEND
  8
0
  0
POLYLINE
  8
52
 66
1
 10
0.0000
 20
0.0000
 30
0.0000
 40
0.1000
 41
0.1000
 70
0
  0
VERTEX
  8
52
 10
27.9659
 20
43.7290
 30
0.0000
  0
VERTEX
  8
52
 10
30.5499
 20
43.7290
 30
0.0000
  0
SEQEND
  8
0
  0
POLYLINE
  8
52
 66
1
 10
0.0000
 20
0.0000
 30
0.0000
 40
0.0500
 41
0.0500
 70
0
  0
VERTEX
  8
52
 10
30.5499
 20
43.7040
 30
0.0000
 42
1.0000
  0
VERTEX
  8
52
 10
30.5499
 20
43.7540
 30
0.0000
  0
SEQEND
  8
0
  0
POLYLINE
  8
52
 66
1
 10
0.0000
 20
0.0000
 30
0.0000
 40
0.0500
 41
0.0500
 70
0
  0
VERTEX
  8
52
 10
27.9659
 20
43.7540
 30
0.0000
 42
1.0000
  0
VERTEX
  8
52
 10
27.9659
 20
43.7040
 30
0.0000
  0
SEQEND
  8
0
  0
POLYLINE
  8
52
 66
1
 10
0.0000
 20
0.0000
 30
0.0000
 40
0.1000
 41
0.1000
 70
0
  0
VERTEX
  8
52
 10
29.7759
 20
43.7290
 30
0.0000
  0
VERTEX
  8
52
 10
30.5499
 20
44.5050
 30
0.0000
  0
SEQEND
  8
0
  0
POLYLINE
  8
52
 66
1
 10
0.0000
 20
0.0000
 30
0.0000
 40
0.0500
 41
0.0500
 70
0
  0
VERTEX
  8
52
 10
30.5676
 20
44.4873
 30
0.0000
 42
1.0000
  0
VERTEX
  8
52
 10
30.5322
 20
44.5227
 30
0.0000
  0
SEQEND
  8
0
  0
POLYLINE
  8
52
 66
1
 10
0.0000
 20
0.0000
 30
0.0000
 40
0.0500
 41
0.0500
 70
0
  0
VERTEX
  8
52
 10
29.7582
 20
43.7467
 30
0.0000
 42
1.0000
  0
VERTEX
  8
52
 10
29.7936
 20
43.7113
 30
0.0000
  0
SEQEND
  8
0
  0
POLYLINE
  8
52
 66
1
 10
0.0000
 20
0.0000
 30
0.0000
 40
0.1270
 41
0.1270
 70
0
  0
VERTEX
  8
52
 10
27.0300
 20
18.4000
 30
0.0000
  0
VERTEX
  8
52
 10
27.0300
 20
12.0000
 30
0.0000
  0
SEQEND
  8
0
  0
POLYLINE
  8
52
 66
1
 10
0.0000
 20
0.0000
 30
0.0000
 40
0.0635
 41
0.0635
 70
0
  0
VERTEX
  8
52
 10
26.9983
 20
12.0000
 30
0.0000
 42
1.0000
  0
VERTEX
  8
52
 10
27.0617
 20
12.0000
 30
0.0000
  0
SEQEND
  8
0
  0
POLYLINE
  8
52
 66
1
 10
0.0000
 20
0.0000
 30
0.0000
 40
0.0635
 41
0.0635
 70
0
  0
VERTEX
  8
52
 10
27.0617
 20
18.4000
 30
0.0000
 42
1.0000
  0
VERTEX
  8
52
 10
26.9983
 20
18.4000
 30
0.0000
  0
SEQEND
  8
0
  0
POLYLINE
  8
52
 66
1
 10
0.0000
 20
0.0000
 30
0.0000
 40
0.1270
 41
0.1270
 70
0
  0
VERTEX
  8
52
 10
27.0300
 20
12.0000
 30
0.0000
  0
VERTEX
  8
52
 10
27.0300
 20
11.5000
 30
0.0000
  0
SEQEND
  8
0
  0
POLYLINE
  8
52
 66
1
 10
0.0000
 20
0.0000
 30
0.0000
 40
0.0635
 41
0.0635
 70
0
  0
VERTEX
  8
52
 10
26.9983
 20
11.5000
 30
0.0000
 42
1.0000
  0
VERTEX
  8
52
 10
27.0617
 20
11.5000
 30
0.0000
  0
SEQEND
  8
0
  0
POLYLINE
  8
52
 66
1
 10
0.0000
 20
0.0000
 30
0.0000
 40
0.0635
 41
0.0635
 70
0
  0
VERTEX
  8
52
 10
27.0617
 20
12.0000
 30
0.0000
 42
1.0000
  0
VERTEX
  8
52
 10
26.9983
 20
12.0000
 30
0.0000
  0
SEQEND
  8
0
  0
POLYLINE
  8
52
 66
1
 10
0.0000
 20
0.0000
 30
0.0000
 40
0.1270
 41
0.1270
 70
0
  0
VERTEX
  8
52
 10
27.0300
 20
11.5000
 30
0.0000
  0
VERTEX
  8
52
 10
35.9700
 20
11.5000
 30
0.0000
  0
SEQEND
  8
0
  0
POLYLINE
  8
52
 66
1
 10
0.0000
 20
0.0000
 30
0.0000
 40
0.0635
 41
0.0635
 70
0
  0
VERTEX
  8
52
 10
35.9700
 20
11.4682
 30
0.0000
 42
1.0000
  0
VERTEX
  8
52
 10
35.9700
 20
11.5318
 30
0.0000
  0
SEQEND
  8
0
  0
POLYLINE
  8
52
 66
1
 10
0.0000
 20
0.0000
 30
0.0000
 40
0.0635
 41
0.0635
 70
0
  0
VERTEX
  8
52
 10
27.0300
 20
11.5318
 30
0.0000
 42
1.0000
  0
VERTEX
  8
52
 10
27.0300
 20
11.4682
 30
0.0000
  0
SEQEND
  8
0
  0
POLYLINE
  8
52
 66
1
 10
0.0000
 20
0.0000
 30
0.0000
 40
0.1270
 41
0.1270
 70
0
  0
VERTEX
  8
52
 10
35.9700
 20
11.5000
 30
0.0000
  0
VERTEX
  8
52
 10
35.9700
 20
12.0000
 30
0.0000
  0
SEQEND
  8
0
  0
POLYLINE
  8
52
 66
1
 10
0.0000
 20
0.0000
 30
0.0000
 40
0.0635
 41
0.0635
 70
0
  0
VERTEX
  8
52
 10
36.0018
 20
12.0000
 30
0.0000
 42
1.0000
  0
VERTEX
  8
52
 10
35.9382
 20
12.0000
 30
0.0000
  0
SEQEND
  8
0
  0
POLYLINE
  8
52
 66
1
 10
0.0000
 20
0.0000
 30
0.0000
 40
0.0635
 41
0.0635
 70
0
  0
VERTEX
  8
52
 10
35.9382
 20
11.5000
 30
0.0000
 42
1.0000
  0
VERTEX
  8
52
 10
36.0018
 20
11.5000
 30
0.0000
  0
SEQEND
  8
0
  0
POLYLINE
  8
52
 66
1
 10
0.0000
 20
0.0000
 30
0.0000
 40
0.1270
 41
0.1270
 70
0
  0
VERTEX
  8
52
 10
35.9700
 20
12.0000
 30
0.0000
  0
VERTEX
  8
52
 10
35.9700
 20
18.4000
 30
0.0000
  0
SEQEND
  8
0
  0
POLYLINE
  8
52
 66
1
 10
0.0000
 20
0.0000
 30
0.0000
 40
0.0635
 41
0.0635
 70
0
  0
VERTEX
  8
52
 10
36.0018
 20
18.4000
 30
0.0000
 42
1.0000
  0
VERTEX
  8
52
 10
35.9382
 20
18.4000
 30
0.0000
  0
SEQEND
  8
0
  0
POLYLINE
  8
52
 66
1
 10
0.0000
 20
0.0000
 30
0.0000
 40
0.0635
 41
0.0635
 70
0
  0
VERTEX
  8
52
 10
35.9382
 20
12.0000
 30
0.0000
 42
1.0000
  0
VERTEX
  8
52
 10
36.0018
 20
12.0000
 30
0.0000
  0
SEQEND
  8
0
  0
POLYLINE
  8
52
 66
1
 10
0.0000
 20
0.0000
 30
0.0000
 40
0.1270
 41
0.1270
 70
0
  0
VERTEX
  8
52
 10
35.9700
 20
18.4000
 30
0.0000
  0
VERTEX
  8
52
 10
27.0300
 20
18.4000
 30
0.0000
  0
SEQEND
  8
0
  0
POLYLINE
  8
52
 66
1
 10
0.0000
 20
0.0000
 30
0.0000
 40
0.0635
 41
0.0635
 70
0
  0
VERTEX
  8
52
 10
27.0300
 20
18.4318
 30
0.0000
 42
1.0000
  0
VERTEX
  8
52
 10
27.0300
 20
18.3683
 30
0.0000
  0
SEQEND
  8
0
  0
POLYLINE
  8
52
 66
1
 10
0.0000
 20
0.0000
 30
0.0000
 40
0.0635
 41
0.0635
 70
0
  0
VERTEX
  8
52
 10
35.9700
 20
18.3683
 30
0.0000
 42
1.0000
  0
VERTEX
  8
52
 10
35.9700
 20
18.4318
 30
0.0000
  0
SEQEND
  8
0
  0
POLYLINE
  8
52
 66
1
 10
0.0000
 20
0.0000
 30
0.0000
 40
0.1270
 41
0.1270
 70
0
  0
VERTEX
  8
52
 10
27.0300
 20
12.0000
 30
0.0000
  0
VERTEX
  8
52
 10
21.7500
 20
12.0000
 30
0.0000
  0
SEQEND
  8
0
  0
POLYLINE
  8
52
 66
1
 10
0.0000
 20
0.0000
 30
0.0000
 40
0.0635
 41
0.0635
 70
0
  0
VERTEX
  8
52
 10
21.7500
 20
12.0318
 30
0.0000
 42
1.0000
  0
VERTEX
  8
52
 10
21.7500
 20
11.9682
 30
0.0000
  0
SEQEND
  8
0
  0
POLYLINE
  8
52
 66
1
 10
0.0000
 20
0.0000
 30
0.0000
 40
0.0635
 41
0.0635
 70
0
  0
VERTEX
  8
52
 10
27.0300
 20
11.9682
 30
0.0000
 42
1.0000
  0
VERTEX
  8
52
 10
27.0300
 20
12.0318
 30
0.0000
  0
SEQEND
  8
0
  0
POLYLINE
  8
52
 66
1
 10
0.0000
 20
0.0000
 30
0.0000
 40
0.1270
 41
0.1270
 70
0
  0
VERTEX
  8
52
 10
27.0300
 20
12.0000
 30
0.0000
  0
VERTEX
  8
52
 10
35.9700
 20
12.0000
 30
0.0000
  0
SEQEND
  8
0
  0
POLYLINE
  8
52
 66
1
 10
0.0000
 20
0.0000
 30
0.0000
 40
0.0635
 41
0.0635
 70
0
  0
VERTEX
  8
52
 10
35.9700
 20
11.9682
 30
0.0000
 42
1.0000
  0
VERTEX
  8
52
 10
35.9700
 20
12.0318
 30
0.0000
  0
SEQEND
  8
0
  0
POLYLINE
  8
52
 66
1
 10
0.0000
 20
0.0000
 30
0.0000
 40
0.0635
 41
0.0635
 70
0
  0
VERTEX
  8
52
 10
27.0300
 20
12.0318
 30
0.0000
 42
1.0000
  0
VERTEX
  8
52
 10
27.0300
 20
11.9682
 30
0.0000
  0
SEQEND
  8
0
  0
POLYLINE
  8
52
 66
1
 10
0.0000
 20
0.0000
 30
0.0000
 40
0.0508
 41
0.0508
 70
0
  0
VERTEX
  8
52
 10
25.9746
 20
12.3254
 30
0.0000
  0
VERTEX
  8
52
 10
25.9746
 20
12.8847
 30
0.0000
  0
SEQEND
  8
0
  0
POLYLINE
  8
52
 66
1
 10
0.0000
 20
0.0000
 30
0.0000
 40
0.0254
 41
0.0254
 70
0
  0
VERTEX
  8
52
 10
25.9873
 20
12.8847
 30
0.0000
 42
1.0000
  0
VERTEX
  8
52
 10
25.9619
 20
12.8847
 30
0.0000
  0
SEQEND
  8
0
  0
POLYLINE
  8
52
 66
1
 10
0.0000
 20
0.0000
 30
0.0000
 40
0.0254
 41
0.0254
 70
0
  0
VERTEX
  8
52
 10
25.9619
 20
12.3254
 30
0.0000
 42
1.0000
  0
VERTEX
  8
52
 10
25.9873
 20
12.3254
 30
0.0000
  0
SEQEND
  8
0
  0
POLYLINE
  8
52
 66
1
 10
0.0000
 20
0.0000
 30
0.0000
 40
0.0508
 41
0.0508
 70
0
  0
VERTEX
  8
52
 10
25.9746
 20
12.8847
 30
0.0000
  0
VERTEX
  8
52
 10
25.6950
 20
12.8847
 30
0.0000
  0
SEQEND
  8
0
  0
POLYLINE
  8
52
 66
1
 10
0.0000
 20
0.0000
 30
0.0000
 40
0.0254
 41
0.0254
 70
0
  0
VERTEX
  8
52
 10
25.6950
 20
12.8974
 30
0.0000
 42
1.0000
  0
VERTEX
  8
52
 10
25.6950
 20
12.8720
 30
0.0000
  0
SEQEND
  8
0
  0
POLYLINE
  8
52
 66
1
 10
0.0000
 20
0.0000
 30
0.0000
 40
0.0254
 41
0.0254
 70
0
  0
VERTEX
  8
52
 10
25.9746
 20
12.8720
 30
0.0000
 42
1.0000
  0
VERTEX
  8
52
 10
25.9746
 20
12.8974
 30
0.0000
  0
SEQEND
  8
0
  0
POLYLINE
  8
52
 66
1
 10
0.0000
 20
0.0000
 30
0.0000
 40
0.0508
 41
0.0508
 70
0
  0
VERTEX
  8
52
 10
25.6950
 20
12.8847
 30
0.0000
  0
VERTEX
  8
52
 10
25.6018
 20
12.7915
 30
0.0000
  0
SEQEND
  8
0
  0
POLYLINE
  8
52
 66
1
 10
0.0000
 20
0.0000
 30
0.0000
 40
0.0254
 41
0.0254
 70
0
  0
VERTEX
  8
52
 10
25.5928
 20
12.8004
 30
0.0000
 42
1.0000
  0
VERTEX
  8
52
 10
25.6107
 20
12.7825
 30
0.0000
  0
SEQEND
  8
0
  0
POLYLINE
  8
52
 66
1
 10
0.0000
 20
0.0000
 30
0.0000
 40
0.0254
 41
0.0254
 70
0
  0
VERTEX
  8
52
 10
25.7039
 20
12.8757
 30
0.0000
 42
1.0000
  0
VERTEX
  8
52
 10
25.6860
 20
12.8937
 30
0.0000
  0
SEQEND
  8
0
  0
POLYLINE
  8
52
 66
1
 10
0.0000
 20
0.0000
 30
0.0000
 40
0.0508
 41
0.0508
 70
0
  0
VERTEX
  8
52
 10
25.6018
 20
12.7915
 30
0.0000
  0
VERTEX
  8
52
 10
25.6018
 20
12.6050
 30
0.0000
  0
SEQEND
  8
0
  0
POLYLINE
  8
52
 66
1
 10
0.0000
 20
0.0000
 30
0.0000
 40
0.0254
 41
0.0254
 70
0
  0
VERTEX
  8
52
 10
25.5891
 20
12.6050
 30
0.0000
 42
1.0000
  0
VERTEX
  8
52
 10
25.6145
 20
12.6050
 30
0.0000
  0
SEQEND
  8
0
  0
POLYLINE
  8
52
 66
1
 10
0.0000
 20
0.0000
 30
0.0000
 40
0.0254
 41
0.0254
 70
0
  0
VERTEX
  8
52
 10
25.6145
 20
12.7915
 30
0.0000
 42
1.0000
  0
VERTEX
  8
52
 10
25.5891
 20
12.7915
 30
0.0000
  0
SEQEND
  8
0
  0
POLYLINE
  8
52
 66
1
 10
0.0000
 20
0.0000
 30
0.0000
 40
0.0508
 41
0.0508
 70
0
  0
VERTEX
  8
52
 10
25.6018
 20
12.6050
 30
0.0000
  0
VERTEX
  8
52
 10
25.6950
 20
12.5118
 30
0.0000
  0
SEQEND
  8
0
  0
POLYLINE
  8
52
 66
1
 10
0.0000
 20
0.0000
 30
0.0000
 40
0.0254
 41
0.0254
 70
0
  0
VERTEX
  8
52
 10
25.6860
 20
12.5028
 30
0.0000
 42
1.0000
  0
VERTEX
  8
52
 10
25.7039
 20
12.5208
 30
0.0000
  0
SEQEND
  8
0
  0
POLYLINE
  8
52
 66
1
 10
0.0000
 20
0.0000
 30
0.0000
 40
0.0254
 41
0.0254
 70
0
  0
VERTEX
  8
52
 10
25.6107
 20
12.6140
 30
0.0000
 42
1.0000
  0
VERTEX
  8
52
 10
25.5928
 20
12.5961
 30
0.0000
  0
SEQEND
  8
0
  0
POLYLINE
  8
52
 66
1
 10
0.0000
 20
0.0000
 30
0.0000
 40
0.0508
 41
0.0508
 70
0
  0
VERTEX
  8
52
 10
25.6950
 20
12.5118
 30
0.0000
  0
VERTEX
  8
52
 10
25.9746
 20
12.5118
 30
0.0000
  0
SEQEND
  8
0
  0
POLYLINE
  8
52
 66
1
 10
0.0000
 20
0.0000
 30
0.0000
 40
0.0254
 41
0.0254
 70
0
  0
VERTEX
  8
52
 10
25.9746
 20
12.4991
 30
0.0000
 42
1.0000
  0
VERTEX
  8
52
 10
25.9746
 20
12.5245
 30
0.0000
  0
SEQEND
  8
0
  0
POLYLINE
  8
52
 66
1
 10
0.0000
 20
0.0000
 30
0.0000
 40
0.0254
 41
0.0254
 70
0
  0
VERTEX
  8
52
 10
25.6950
 20
12.5245
 30
0.0000
 42
1.0000
  0
VERTEX
  8
52
 10
25.6950
 20
12.4991
 30
0.0000
  0
SEQEND
  8
0
  0
POLYLINE
  8
52
 66
1
 10
0.0000
 20
0.0000
 30
0.0000
 40
0.0508
 41
0.0508
 70
0
  0
VERTEX
  8
52
 10
25.0404
 20
12.7915
 30
0.0000
  0
VERTEX
  8
52
 10
25.1337
 20
12.8847
 30
0.0000
  0
SEQEND
  8
0
  0
POLYLINE
  8
52
 66
1
 10
0.0000
 20
0.0000
 30
0.0000
 40
0.0254
 41
0.0254
 70
0
  0
VERTEX
  8
52
 10
25.1426
 20
12.8757
 30
0.0000
 42
1.0000
  0
VERTEX
  8
52
 10
25.1247
 20
12.8937
 30
0.0000
  0
SEQEND
  8
0
  0
POLYLINE
  8
52
 66
1
 10
0.0000
 20
0.0000
 30
0.0000
 40
0.0254
 41
0.0254
 70
0
  0
VERTEX
  8
52
 10
25.0315
 20
12.8004
 30
0.0000
 42
1.0000
  0
VERTEX
  8
52
 10
25.0494
 20
12.7825
 30
0.0000
  0
SEQEND
  8
0
  0
POLYLINE
  8
52
 66
1
 10
0.0000
 20
0.0000
 30
0.0000
 40
0.0508
 41
0.0508
 70
0
  0
VERTEX
  8
52
 10
25.1337
 20
12.8847
 30
0.0000
  0
VERTEX
  8
52
 10
25.3201
 20
12.8847
 30
0.0000
  0
SEQEND
  8
0
  0
POLYLINE
  8
52
 66
1
 10
0.0000
 20
0.0000
 30
0.0000
 40
0.0254
 41
0.0254
 70
0
  0
VERTEX
  8
52
 10
25.3201
 20
12.8720
 30
0.0000
 42
1.0000
  0
VERTEX
  8
52
 10
25.3201
 20
12.8974
 30
0.0000
  0
SEQEND
  8
0
  0
POLYLINE
  8
52
 66
1
 10
0.0000
 20
0.0000
 30
0.0000
 40
0.0254
 41
0.0254
 70
0
  0
VERTEX
  8
52
 10
25.1337
 20
12.8974
 30
0.0000
 42
1.0000
  0
VERTEX
  8
52
 10
25.1337
 20
12.8720
 30
0.0000
  0
SEQEND
  8
0
  0
POLYLINE
  8
52
 66
1
 10
0.0000
 20
0.0000
 30
0.0000
 40
0.0508
 41
0.0508
 70
0
  0
VERTEX
  8
52
 10
25.3201
 20
12.8847
 30
0.0000
  0
VERTEX
  8
52
 10
25.4133
 20
12.7915
 30
0.0000
  0
SEQEND
  8
0
  0
POLYLINE
  8
52
 66
1
 10
0.0000
 20
0.0000
 30
0.0000
 40
0.0254
 41
0.0254
 70
0
  0
VERTEX
  8
52
 10
25.4043
 20
12.7825
 30
0.0000
 42
1.0000
  0
VERTEX
  8
52
 10
25.4223
 20
12.8004
 30
0.0000
  0
SEQEND
  8
0
  0
POLYLINE
  8
52
 66
1
 10
0.0000
 20
0.0000
 30
0.0000
 40
0.0254
 41
0.0254
 70
0
  0
VERTEX
  8
52
 10
25.3291
 20
12.8937
 30
0.0000
 42
1.0000
  0
VERTEX
  8
52
 10
25.3111
 20
12.8757
 30
0.0000
  0
SEQEND
  8
0
  0
POLYLINE
  8
52
 66
1
 10
0.0000
 20
0.0000
 30
0.0000
 40
0.0508
 41
0.0508
 70
0
  0
VERTEX
  8
52
 10
25.4133
 20
12.7915
 30
0.0000
  0
VERTEX
  8
52
 10
25.4133
 20
12.4186
 30
0.0000
  0
SEQEND
  8
0
  0
POLYLINE
  8
52
 66
1
 10
0.0000
 20
0.0000
 30
0.0000
 40
0.0254
 41
0.0254
 70
0
  0
VERTEX
  8
52
 10
25.4006
 20
12.4186
 30
0.0000
 42
1.0000
  0
VERTEX
  8
52
 10
25.4260
 20
12.4186
 30
0.0000
  0
SEQEND
  8
0
  0
POLYLINE
  8
52
 66
1
 10
0.0000
 20
0.0000
 30
0.0000
 40
0.0254
 41
0.0254
 70
0
  0
VERTEX
  8
52
 10
25.4260
 20
12.7915
 30
0.0000
 42
1.0000
  0
VERTEX
  8
52
 10
25.4006
 20
12.7915
 30
0.0000
  0
SEQEND
  8
0
  0
POLYLINE
  8
52
 66
1
 10
0.0000
 20
0.0000
 30
0.0000
 40
0.0508
 41
0.0508
 70
0
  0
VERTEX
  8
52
 10
25.4133
 20
12.4186
 30
0.0000
  0
VERTEX
  8
52
 10
25.3201
 20
12.3254
 30
0.0000
  0
SEQEND
  8
0
  0
POLYLINE
  8
52
 66
1
 10
0.0000
 20
0.0000
 30
0.0000
 40
0.0254
 41
0.0254
 70
0
  0
VERTEX
  8
52
 10
25.3111
 20
12.3344
 30
0.0000
 42
1.0000
  0
VERTEX
  8
52
 10
25.3291
 20
12.3164
 30
0.0000
  0
SEQEND
  8
0
  0
POLYLINE
  8
52
 66
1
 10
0.0000
 20
0.0000
 30
0.0000
 40
0.0254
 41
0.0254
 70
0
  0
VERTEX
  8
52
 10
25.4223
 20
12.4096
 30
0.0000
 42
1.0000
  0
VERTEX
  8
52
 10
25.4043
 20
12.4276
 30
0.0000
  0
SEQEND
  8
0
  0
POLYLINE
  8
52
 66
1
 10
0.0000
 20
0.0000
 30
0.0000
 40
0.0508
 41
0.0508
 70
0
  0
VERTEX
  8
52
 10
25.3201
 20
12.3254
 30
0.0000
  0
VERTEX
  8
52
 10
25.1337
 20
12.3254
 30
0.0000
  0
SEQEND
  8
0
  0
POLYLINE
  8
52
 66
1
 10
0.0000
 20
0.0000
 30
0.0000
 40
0.0254
 41
0.0254
 70
0
  0
VERTEX
  8
52
 10
25.1337
 20
12.3381
 30
0.0000
 42
1.0000
  0
VERTEX
  8
52
 10
25.1337
 20
12.3127
 30
0.0000
  0
SEQEND
  8
0
  0
POLYLINE
  8
52
 66
1
 10
0.0000
 20
0.0000
 30
0.0000
 40
0.0254
 41
0.0254
 70
0
  0
VERTEX
  8
52
 10
25.3201
 20
12.3127
 30
0.0000
 42
1.0000
  0
VERTEX
  8
52
 10
25.3201
 20
12.3381
 30
0.0000
  0
SEQEND
  8
0
  0
POLYLINE
  8
52
 66
1
 10
0.0000
 20
0.0000
 30
0.0000
 40
0.0508
 41
0.0508
 70
0
  0
VERTEX
  8
52
 10
25.1337
 20
12.3254
 30
0.0000
  0
VERTEX
  8
52
 10
25.0404
 20
12.4186
 30
0.0000
  0
SEQEND
  8
0
  0
POLYLINE
  8
52
 66
1
 10
0.0000
 20
0.0000
 30
0.0000
 40
0.0254
 41
0.0254
 70
0
  0
VERTEX
  8
52
 10
25.0494
 20
12.4276
 30
0.0000
 42
1.0000
  0
VERTEX
  8
52
 10
25.0315
 20
12.4096
 30
0.0000
  0
SEQEND
  8
0
  0
POLYLINE
  8
52
 66
1
 10
0.0000
 20
0.0000
 30
0.0000
 40
0.0254
 41
0.0254
 70
0
  0
VERTEX
  8
52
 10
25.1247
 20
12.3164
 30
0.0000
 42
1.0000
  0
VERTEX
  8
52
 10
25.1426
 20
12.3344
 30
0.0000
  0
SEQEND
  8
0
  0
POLYLINE
  8
52
 66
1
 10
0.0000
 20
0.0000
 30
0.0000
 40
0.0508
 41
0.0508
 70
0
  0
VERTEX
  8
52
 10
24.8520
 20
12.3254
 30
0.0000
  0
VERTEX
  8
52
 10
24.8520
 20
12.8847
 30
0.0000
  0
SEQEND
  8
0
  0
POLYLINE
  8
52
 66
1
 10
0.0000
 20
0.0000
 30
0.0000
 40
0.0254
 41
0.0254
 70
0
  0
VERTEX
  8
52
 10
24.8647
 20
12.8847
 30
0.0000
 42
1.0000
  0
VERTEX
  8
52
 10
24.8393
 20
12.8847
 30
0.0000
  0
SEQEND
  8
0
  0
POLYLINE
  8
52
 66
1
 10
0.0000
 20
0.0000
 30
0.0000
 40
0.0254
 41
0.0254
 70
0
  0
VERTEX
  8
52
 10
24.8393
 20
12.3254
 30
0.0000
 42
1.0000
  0
VERTEX
  8
52
 10
24.8647
 20
12.3254
 30
0.0000
  0
SEQEND
  8
0
  0
POLYLINE
  8
52
 66
1
 10
0.0000
 20
0.0000
 30
0.0000
 40
0.0508
 41
0.0508
 70
0
  0
VERTEX
  8
52
 10
24.8520
 20
12.8847
 30
0.0000
  0
VERTEX
  8
52
 10
24.5723
 20
12.8847
 30
0.0000
  0
SEQEND
  8
0
  0
POLYLINE
  8
52
 66
1
 10
0.0000
 20
0.0000
 30
0.0000
 40
0.0254
 41
0.0254
 70
0
  0
VERTEX
  8
52
 10
24.5723
 20
12.8974
 30
0.0000
 42
1.0000
  0
VERTEX
  8
52
 10
24.5723
 20
12.8720
 30
0.0000
  0
SEQEND
  8
0
  0
POLYLINE
  8
52
 66
1
 10
0.0000
 20
0.0000
 30
0.0000
 40
0.0254
 41
0.0254
 70
0
  0
VERTEX
  8
52
 10
24.8520
 20
12.8720
 30
0.0000
 42
1.0000
  0
VERTEX
  8
52
 10
24.8520
 20
12.8974
 30
0.0000
  0
SEQEND
  8
0
  0
POLYLINE
  8
52
 66
1
 10
0.0000
 20
0.0000
 30
0.0000
 40
0.0508
 41
0.0508
 70
0
  0
VERTEX
  8
52
 10
24.5723
 20
12.8847
 30
0.0000
  0
VERTEX
  8
52
 10
24.4791
 20
12.7915
 30
0.0000
  0
SEQEND
  8
0
  0
POLYLINE
  8
52
 66
1
 10
0.0000
 20
0.0000
 30
0.0000
 40
0.0254
 41
0.0254
 70
0
  0
VERTEX
  8
52
 10
24.4702
 20
12.8004
 30
0.0000
 42
1.0000
  0
VERTEX
  8
52
 10
24.4881
 20
12.7825
 30
0.0000
  0
SEQEND
  8
0
  0
POLYLINE
  8
52
 66
1
 10
0.0000
 20
0.0000
 30
0.0000
 40
0.0254
 41
0.0254
 70
0
  0
VERTEX
  8
52
 10
24.5813
 20
12.8757
 30
0.0000
 42
1.0000
  0
VERTEX
  8
52
 10
24.5634
 20
12.8937
 30
0.0000
  0
SEQEND
  8
0
  0
POLYLINE
  8
52
 66
1
 10
0.0000
 20
0.0000
 30
0.0000
 40
0.0508
 41
0.0508
 70
0
  0
VERTEX
  8
52
 10
24.4791
 20
12.7915
 30
0.0000
  0
VERTEX
  8
52
 10
24.4791
 20
12.6982
 30
0.0000
  0
SEQEND
  8
0
  0
POLYLINE
  8
52
 66
1
 10
0.0000
 20
0.0000
 30
0.0000
 40
0.0254
 41
0.0254
 70
0
  0
VERTEX
  8
52
 10
24.4664
 20
12.6982
 30
0.0000
 42
1.0000
  0
VERTEX
  8
52
 10
24.4918
 20
12.6982
 30
0.0000
  0
SEQEND
  8
0
  0
POLYLINE
  8
52
 66
1
 10
0.0000
 20
0.0000
 30
0.0000
 40
0.0254
 41
0.0254
 70
0
  0
VERTEX
  8
52
 10
24.4918
 20
12.7915
 30
0.0000
 42
1.0000
  0
VERTEX
  8
52
 10
24.4664
 20
12.7915
 30
0.0000
  0
SEQEND
  8
0
  0
POLYLINE
  8
52
 66
1
 10
0.0000
 20
0.0000
 30
0.0000
 40
0.0508
 41
0.0508
 70
0
  0
VERTEX
  8
52
 10
24.4791
 20
12.6982
 30
0.0000
  0
VERTEX
  8
52
 10
24.5723
 20
12.6050
 30
0.0000
  0
SEQEND
  8
0
  0
POLYLINE
  8
52
 66
1
 10
0.0000
 20
0.0000
 30
0.0000
 40
0.0254
 41
0.0254
 70
0
  0
VERTEX
  8
52
 10
24.5634
 20
12.5961
 30
0.0000
 42
1.0000
  0
VERTEX
  8
52
 10
24.5813
 20
12.6140
 30
0.0000
  0
SEQEND
  8
0
  0
POLYLINE
  8
52
 66
1
 10
0.0000
 20
0.0000
 30
0.0000
 40
0.0254
 41
0.0254
 70
0
  0
VERTEX
  8
52
 10
24.4881
 20
12.7072
 30
0.0000
 42
1.0000
  0
VERTEX
  8
52
 10
24.4702
 20
12.6893
 30
0.0000
  0
SEQEND
  8
0
  0
POLYLINE
  8
52
 66
1
 10
0.0000
 20
0.0000
 30
0.0000
 40
0.0508
 41
0.0508
 70
0
  0
VERTEX
  8
52
 10
24.5723
 20
12.6050
 30
0.0000
  0
VERTEX
  8
52
 10
24.4791
 20
12.5118
 30
0.0000
  0
SEQEND
  8
0
  0
POLYLINE
  8
52
 66
1
 10
0.0000
 20
0.0000
 30
0.0000
 40
0.0254
 41
0.0254
 70
0
  0
VERTEX
  8
52
 10
24.4702
 20
12.5208
 30
0.0000
 42
1.0000
  0
VERTEX
  8
52
 10
24.4881
 20
12.5028
 30
0.0000
  0
SEQEND
  8
0
  0
POLYLINE
  8
52
 66
1
 10
0.0000
 20
0.0000
 30
0.0000
 40
0.0254
 41
0.0254
 70
0
  0
VERTEX
  8
52
 10
24.5813
 20
12.5961
 30
0.0000
 42
1.0000
  0
VERTEX
  8
52
 10
24.5634
 20
12.6140
 30
0.0000
  0
SEQEND
  8
0
  0
POLYLINE
  8
52
 66
1
 10
0.0000
 20
0.0000
 30
0.0000
 40
0.0508
 41
0.0508
 70
0
  0
VERTEX
  8
52
 10
24.4791
 20
12.5118
 30
0.0000
  0
VERTEX
  8
52
 10
24.4791
 20
12.4186
 30
0.0000
  0
SEQEND
  8
0
  0
POLYLINE
  8
52
 66
1
 10
0.0000
 20
0.0000
 30
0.0000
 40
0.0254
 41
0.0254
 70
0
  0
VERTEX
  8
52
 10
24.4664
 20
12.4186
 30
0.0000
 42
1.0000
  0
VERTEX
  8
52
 10
24.4918
 20
12.4186
 30
0.0000
  0
SEQEND
  8
0
  0
POLYLINE
  8
52
 66
1
 10
0.0000
 20
0.0000
 30
0.0000
 40
0.0254
 41
0.0254
 70
0
  0
VERTEX
  8
52
 10
24.4918
 20
12.5118
 30
0.0000
 42
1.0000
  0
VERTEX
  8
52
 10
24.4664
 20
12.5118
 30
0.0000
  0
SEQEND
  8
0
  0
POLYLINE
  8
52
 66
1
 10
0.0000
 20
0.0000
 30
0.0000
 40
0.0508
 41
0.0508
 70
0
  0
VERTEX
  8
52
 10
24.4791
 20
12.4186
 30
0.0000
  0
VERTEX
  8
52
 10
24.5723
 20
12.3254
 30
0.0000
  0
SEQEND
  8
0
  0
POLYLINE
  8
52
 66
1
 10
0.0000
 20
0.0000
 30
0.0000
 40
0.0254
 41
0.0254
 70
0
  0
VERTEX
  8
52
 10
24.5634
 20
12.3164
 30
0.0000
 42
1.0000
  0
VERTEX
  8
52
 10
24.5813
 20
12.3344
 30
0.0000
  0
SEQEND
  8
0
  0
POLYLINE
  8
52
 66
1
 10
0.0000
 20
0.0000
 30
0.0000
 40
0.0254
 41
0.0254
 70
0
  0
VERTEX
  8
52
 10
24.4881
 20
12.4276
 30
0.0000
 42
1.0000
  0
VERTEX
  8
52
 10
24.4702
 20
12.4096
 30
0.0000
  0
SEQEND
  8
0
  0
POLYLINE
  8
52
 66
1
 10
0.0000
 20
0.0000
 30
0.0000
 40
0.0508
 41
0.0508
 70
0
  0
VERTEX
  8
52
 10
24.5723
 20
12.3254
 30
0.0000
  0
VERTEX
  8
52
 10
24.8520
 20
12.3254
 30
0.0000
  0
SEQEND
  8
0
  0
POLYLINE
  8
52
 66
1
 10
0.0000
 20
0.0000
 30
0.0000
 40
0.0254
 41
0.0254
 70
0
  0
VERTEX
  8
52
 10
24.8520
 20
12.3127
 30
0.0000
 42
1.0000
  0
VERTEX
  8
52
 10
24.8520
 20
12.3381
 30
0.0000
  0
SEQEND
  8
0
  0
POLYLINE
  8
52
 66
1
 10
0.0000
 20
0.0000
 30
0.0000
 40
0.0254
 41
0.0254
 70
0
  0
VERTEX
  8
52
 10
24.5723
 20
12.3381
 30
0.0000
 42
1.0000
  0
VERTEX
  8
52
 10
24.5723
 20
12.3127
 30
0.0000
  0
SEQEND
  8
0
  0
POLYLINE
  8
52
 66
1
 10
0.0000
 20
0.0000
 30
0.0000
 40
0.0508
 41
0.0508
 70
0
  0
VERTEX
  8
52
 10
24.8520
 20
12.6050
 30
0.0000
  0
VERTEX
  8
52
 10
24.5723
 20
12.6050
 30
0.0000
  0
SEQEND
  8
0
  0
POLYLINE
  8
52
 66
1
 10
0.0000
 20
0.0000
 30
0.0000
 40
0.0254
 41
0.0254
 70
0
  0
VERTEX
  8
52
 10
24.5723
 20
12.6177
 30
0.0000
 42
1.0000
  0
VERTEX
  8
52
 10
24.5723
 20
12.5923
 30
0.0000
  0
SEQEND
  8
0
  0
POLYLINE
  8
52
 66
1
 10
0.0000
 20
0.0000
 30
0.0000
 40
0.0254
 41
0.0254
 70
0
  0
VERTEX
  8
52
 10
24.8520
 20
12.5923
 30
0.0000
 42
1.0000
  0
VERTEX
  8
52
 10
24.8520
 20
12.6177
 30
0.0000
  0
SEQEND
  8
0
  0
POLYLINE
  8
52
 66
1
 10
0.0000
 20
0.0000
 30
0.0000
 40
0.0508
 41
0.0508
 70
0
  0
VERTEX
  8
52
 10
23.3565
 20
12.8847
 30
0.0000
  0
VERTEX
  8
52
 10
23.7294
 20
12.8847
 30
0.0000
  0
SEQEND
  8
0
  0
POLYLINE
  8
52
 66
1
 10
0.0000
 20
0.0000
 30
0.0000
 40
0.0254
 41
0.0254
 70
0
  0
VERTEX
  8
52
 10
23.7294
 20
12.8720
 30
0.0000
 42
1.0000
  0
VERTEX
  8
52
 10
23.7294
 20
12.8974
 30
0.0000
  0
SEQEND
  8
0
  0
POLYLINE
  8
52
 66
1
 10
0.0000
 20
0.0000
 30
0.0000
 40
0.0254
 41
0.0254
 70
0
  0
VERTEX
  8
52
 10
23.3565
 20
12.8974
 30
0.0000
 42
1.0000
  0
VERTEX
  8
52
 10
23.3565
 20
12.8720
 30
0.0000
  0
SEQEND
  8
0
  0
POLYLINE
  8
52
 66
1
 10
0.0000
 20
0.0000
 30
0.0000
 40
0.0508
 41
0.0508
 70
0
  0
VERTEX
  8
52
 10
23.7294
 20
12.8847
 30
0.0000
  0
VERTEX
  8
52
 10
23.7294
 20
12.3254
 30
0.0000
  0
SEQEND
  8
0
  0
POLYLINE
  8
52
 66
1
 10
0.0000
 20
0.0000
 30
0.0000
 40
0.0254
 41
0.0254
 70
0
  0
VERTEX
  8
52
 10
23.7167
 20
12.3254
 30
0.0000
 42
1.0000
  0
VERTEX
  8
52
 10
23.7421
 20
12.3254
 30
0.0000
  0
SEQEND
  8
0
  0
POLYLINE
  8
52
 66
1
 10
0.0000
 20
0.0000
 30
0.0000
 40
0.0254
 41
0.0254
 70
0
  0
VERTEX
  8
52
 10
23.7421
 20
12.8847
 30
0.0000
 42
1.0000
  0
VERTEX
  8
52
 10
23.7167
 20
12.8847
 30
0.0000
  0
SEQEND
  8
0
  0
POLYLINE
  8
52
 66
1
 10
0.0000
 20
0.0000
 30
0.0000
 40
0.0508
 41
0.0508
 70
0
  0
VERTEX
  8
52
 10
23.7294
 20
12.3254
 30
0.0000
  0
VERTEX
  8
52
 10
23.3565
 20
12.3254
 30
0.0000
  0
SEQEND
  8
0
  0
POLYLINE
  8
52
 66
1
 10
0.0000
 20
0.0000
 30
0.0000
 40
0.0254
 41
0.0254
 70
0
  0
VERTEX
  8
52
 10
23.3565
 20
12.3381
 30
0.0000
 42
1.0000
  0
VERTEX
  8
52
 10
23.3565
 20
12.3127
 30
0.0000
  0
SEQEND
  8
0
  0
POLYLINE
  8
52
 66
1
 10
0.0000
 20
0.0000
 30
0.0000
 40
0.0254
 41
0.0254
 70
0
  0
VERTEX
  8
52
 10
23.7294
 20
12.3127
 30
0.0000
 42
1.0000
  0
VERTEX
  8
52
 10
23.7294
 20
12.3381
 30
0.0000
  0
SEQEND
  8
0
  0
POLYLINE
  8
52
 66
1
 10
0.0000
 20
0.0000
 30
0.0000
 40
0.0508
 41
0.0508
 70
0
  0
VERTEX
  8
52
 10
23.7294
 20
12.6050
 30
0.0000
  0
VERTEX
  8
52
 10
23.5429
 20
12.6050
 30
0.0000
  0
SEQEND
  8
0
  0
POLYLINE
  8
52
 66
1
 10
0.0000
 20
0.0000
 30
0.0000
 40
0.0254
 41
0.0254
 70
0
  0
VERTEX
  8
52
 10
23.5429
 20
12.6177
 30
0.0000
 42
1.0000
  0
VERTEX
  8
52
 10
23.5429
 20
12.5923
 30
0.0000
  0
SEQEND
  8
0
  0
POLYLINE
  8
52
 66
1
 10
0.0000
 20
0.0000
 30
0.0000
 40
0.0254
 41
0.0254
 70
0
  0
VERTEX
  8
52
 10
23.7294
 20
12.5923
 30
0.0000
 42
1.0000
  0
VERTEX
  8
52
 10
23.7294
 20
12.6177
 30
0.0000
  0
SEQEND
  8
0
  0
POLYLINE
  8
52
 66
1
 10
0.0000
 20
0.0000
 30
0.0000
 40
0.0508
 41
0.0508
 70
0
  0
VERTEX
  8
52
 10
23.1681
 20
12.8847
 30
0.0000
  0
VERTEX
  8
52
 10
23.1681
 20
12.3254
 30
0.0000
  0
SEQEND
  8
0
  0
POLYLINE
  8
52
 66
1
 10
0.0000
 20
0.0000
 30
0.0000
 40
0.0254
 41
0.0254
 70
0
  0
VERTEX
  8
52
 10
23.1554
 20
12.3254
 30
0.0000
 42
1.0000
  0
VERTEX
  8
52
 10
23.1808
 20
12.3254
 30
0.0000
  0
SEQEND
  8
0
  0
POLYLINE
  8
52
 66
1
 10
0.0000
 20
0.0000
 30
0.0000
 40
0.0254
 41
0.0254
 70
0
  0
VERTEX
  8
52
 10
23.1808
 20
12.8847
 30
0.0000
 42
1.0000
  0
VERTEX
  8
52
 10
23.1554
 20
12.8847
 30
0.0000
  0
SEQEND
  8
0
  0
POLYLINE
  8
52
 66
1
 10
0.0000
 20
0.0000
 30
0.0000
 40
0.0508
 41
0.0508
 70
0
  0
VERTEX
  8
52
 10
23.1681
 20
12.3254
 30
0.0000
  0
VERTEX
  8
52
 10
22.8884
 20
12.3254
 30
0.0000
  0
SEQEND
  8
0
  0
POLYLINE
  8
52
 66
1
 10
0.0000
 20
0.0000
 30
0.0000
 40
0.0254
 41
0.0254
 70
0
  0
VERTEX
  8
52
 10
22.8884
 20
12.3381
 30
0.0000
 42
1.0000
  0
VERTEX
  8
52
 10
22.8884
 20
12.3127
 30
0.0000
  0
SEQEND
  8
0
  0
POLYLINE
  8
52
 66
1
 10
0.0000
 20
0.0000
 30
0.0000
 40
0.0254
 41
0.0254
 70
0
  0
VERTEX
  8
52
 10
23.1681
 20
12.3127
 30
0.0000
 42
1.0000
  0
VERTEX
  8
52
 10
23.1681
 20
12.3381
 30
0.0000
  0
SEQEND
  8
0
  0
POLYLINE
  8
52
 66
1
 10
0.0000
 20
0.0000
 30
0.0000
 40
0.0508
 41
0.0508
 70
0
  0
VERTEX
  8
52
 10
22.8884
 20
12.3254
 30
0.0000
  0
VERTEX
  8
52
 10
22.7952
 20
12.4186
 30
0.0000
  0
SEQEND
  8
0
  0
POLYLINE
  8
52
 66
1
 10
0.0000
 20
0.0000
 30
0.0000
 40
0.0254
 41
0.0254
 70
0
  0
VERTEX
  8
52
 10
22.8042
 20
12.4276
 30
0.0000
 42
1.0000
  0
VERTEX
  8
52
 10
22.7862
 20
12.4096
 30
0.0000
  0
SEQEND
  8
0
  0
POLYLINE
  8
52
 66
1
 10
0.0000
 20
0.0000
 30
0.0000
 40
0.0254
 41
0.0254
 70
0
  0
VERTEX
  8
52
 10
22.8794
 20
12.3164
 30
0.0000
 42
1.0000
  0
VERTEX
  8
52
 10
22.8974
 20
12.3344
 30
0.0000
  0
SEQEND
  8
0
  0
POLYLINE
  8
52
 66
1
 10
0.0000
 20
0.0000
 30
0.0000
 40
0.0508
 41
0.0508
 70
0
  0
VERTEX
  8
52
 10
22.7952
 20
12.4186
 30
0.0000
  0
VERTEX
  8
52
 10
22.7952
 20
12.7915
 30
0.0000
  0
SEQEND
  8
0
  0
POLYLINE
  8
52
 66
1
 10
0.0000
 20
0.0000
 30
0.0000
 40
0.0254
 41
0.0254
 70
0
  0
VERTEX
  8
52
 10
22.8079
 20
12.7915
 30
0.0000
 42
1.0000
  0
VERTEX
  8
52
 10
22.7825
 20
12.7915
 30
0.0000
  0
SEQEND
  8
0
  0
POLYLINE
  8
52
 66
1
 10
0.0000
 20
0.0000
 30
0.0000
 40
0.0254
 41
0.0254
 70
0
  0
VERTEX
  8
52
 10
22.7825
 20
12.4186
 30
0.0000
 42
1.0000
  0
VERTEX
  8
52
 10
22.8079
 20
12.4186
 30
0.0000
  0
SEQEND
  8
0
  0
POLYLINE
  8
52
 66
1
 10
0.0000
 20
0.0000
 30
0.0000
 40
0.0508
 41
0.0508
 70
0
  0
VERTEX
  8
52
 10
22.7952
 20
12.7915
 30
0.0000
  0
VERTEX
  8
52
 10
22.8884
 20
12.8847
 30
0.0000
  0
SEQEND
  8
0
  0
POLYLINE
  8
52
 66
1
 10
0.0000
 20
0.0000
 30
0.0000
 40
0.0254
 41
0.0254
 70
0
  0
VERTEX
  8
52
 10
22.8974
 20
12.8757
 30
0.0000
 42
1.0000
  0
VERTEX
  8
52
 10
22.8794
 20
12.8937
 30
0.0000
  0
SEQEND
  8
0
  0
POLYLINE
  8
52
 66
1
 10
0.0000
 20
0.0000
 30
0.0000
 40
0.0254
 41
0.0254
 70
0
  0
VERTEX
  8
52
 10
22.7862
 20
12.8004
 30
0.0000
 42
1.0000
  0
VERTEX
  8
52
 10
22.8042
 20
12.7825
 30
0.0000
  0
SEQEND
  8
0
  0
POLYLINE
  8
52
 66
1
 10
0.0000
 20
0.0000
 30
0.0000
 40
0.0508
 41
0.0508
 70
0
  0
VERTEX
  8
52
 10
22.8884
 20
12.8847
 30
0.0000
  0
VERTEX
  8
52
 10
23.1681
 20
12.8847
 30
0.0000
  0
SEQEND
  8
0
  0
POLYLINE
  8
52
 66
1
 10
0.0000
 20
0.0000
 30
0.0000
 40
0.0254
 41
0.0254
 70
0
  0
VERTEX
  8
52
 10
23.1681
 20
12.8720
 30
0.0000
 42
1.0000
  0
VERTEX
  8
52
 10
23.1681
 20
12.8974
 30
0.0000
  0
SEQEND
  8
0
  0
POLYLINE
  8
52
 66
1
 10
0.0000
 20
0.0000
 30
0.0000
 40
0.0254
 41
0.0254
 70
0
  0
VERTEX
  8
52
 10
22.8884
 20
12.8974
 30
0.0000
 42
1.0000
  0
VERTEX
  8
52
 10
22.8884
 20
12.8720
 30
0.0000
  0
SEQEND
  8
0
  0
POLYLINE
  8
52
 66
1
 10
0.0000
 20
0.0000
 30
0.0000
 40
0.0508
 41
0.0508
 70
0
  0
VERTEX
  8
52
 10
22.2339
 20
12.7915
 30
0.0000
  0
VERTEX
  8
52
 10
22.3271
 20
12.8847
 30
0.0000
  0
SEQEND
  8
0
  0
POLYLINE
  8
52
 66
1
 10
0.0000
 20
0.0000
 30
0.0000
 40
0.0254
 41
0.0254
 70
0
  0
VERTEX
  8
52
 10
22.3361
 20
12.8757
 30
0.0000
 42
1.0000
  0
VERTEX
  8
52
 10
22.3181
 20
12.8937
 30
0.0000
  0
SEQEND
  8
0
  0
POLYLINE
  8
52
 66
1
 10
0.0000
 20
0.0000
 30
0.0000
 40
0.0254
 41
0.0254
 70
0
  0
VERTEX
  8
52
 10
22.2249
 20
12.8004
 30
0.0000
 42
1.0000
  0
VERTEX
  8
52
 10
22.2429
 20
12.7825
 30
0.0000
  0
SEQEND
  8
0
  0
POLYLINE
  8
52
 66
1
 10
0.0000
 20
0.0000
 30
0.0000
 40
0.0508
 41
0.0508
 70
0
  0
VERTEX
  8
52
 10
22.3271
 20
12.8847
 30
0.0000
  0
VERTEX
  8
52
 10
22.5135
 20
12.8847
 30
0.0000
  0
SEQEND
  8
0
  0
POLYLINE
  8
52
 66
1
 10
0.0000
 20
0.0000
 30
0.0000
 40
0.0254
 41
0.0254
 70
0
  0
VERTEX
  8
52
 10
22.5135
 20
12.8720
 30
0.0000
 42
1.0000
  0
VERTEX
  8
52
 10
22.5135
 20
12.8974
 30
0.0000
  0
SEQEND
  8
0
  0
POLYLINE
  8
52
 66
1
 10
0.0000
 20
0.0000
 30
0.0000
 40
0.0254
 41
0.0254
 70
0
  0
VERTEX
  8
52
 10
22.3271
 20
12.8974
 30
0.0000
 42
1.0000
  0
VERTEX
  8
52
 10
22.3271
 20
12.8720
 30
0.0000
  0
SEQEND
  8
0
  0
POLYLINE
  8
52
 66
1
 10
0.0000
 20
0.0000
 30
0.0000
 40
0.0508
 41
0.0508
 70
0
  0
VERTEX
  8
52
 10
22.5135
 20
12.8847
 30
0.0000
  0
VERTEX
  8
52
 10
22.6067
 20
12.7915
 30
0.0000
  0
SEQEND
  8
0
  0
POLYLINE
  8
52
 66
1
 10
0.0000
 20
0.0000
 30
0.0000
 40
0.0254
 41
0.0254
 70
0
  0
VERTEX
  8
52
 10
22.5978
 20
12.7825
 30
0.0000
 42
1.0000
  0
VERTEX
  8
52
 10
22.6157
 20
12.8004
 30
0.0000
  0
SEQEND
  8
0
  0
POLYLINE
  8
52
 66
1
 10
0.0000
 20
0.0000
 30
0.0000
 40
0.0254
 41
0.0254
 70
0
  0
VERTEX
  8
52
 10
22.5225
 20
12.8937
 30
0.0000
 42
1.0000
  0
VERTEX
  8
52
 10
22.5046
 20
12.8757
 30
0.0000
  0
SEQEND
  8
0
  0
POLYLINE
  8
52
 66
1
 10
0.0000
 20
0.0000
 30
0.0000
 40
0.0508
 41
0.0508
 70
0
  0
VERTEX
  8
52
 10
22.6067
 20
12.7915
 30
0.0000
  0
VERTEX
  8
52
 10
22.6067
 20
12.4186
 30
0.0000
  0
SEQEND
  8
0
  0
POLYLINE
  8
52
 66
1
 10
0.0000
 20
0.0000
 30
0.0000
 40
0.0254
 41
0.0254
 70
0
  0
VERTEX
  8
52
 10
22.5940
 20
12.4186
 30
0.0000
 42
1.0000
  0
VERTEX
  8
52
 10
22.6194
 20
12.4186
 30
0.0000
  0
SEQEND
  8
0
  0
POLYLINE
  8
52
 66
1
 10
0.0000
 20
0.0000
 30
0.0000
 40
0.0254
 41
0.0254
 70
0
  0
VERTEX
  8
52
 10
22.6194
 20
12.7915
 30
0.0000
 42
1.0000
  0
VERTEX
  8
52
 10
22.5940
 20
12.7915
 30
0.0000
  0
SEQEND
  8
0
  0
POLYLINE
  8
52
 66
1
 10
0.0000
 20
0.0000
 30
0.0000
 40
0.0508
 41
0.0508
 70
0
  0
VERTEX
  8
52
 10
22.6067
 20
12.4186
 30
0.0000
  0
VERTEX
  8
52
 10
22.5135
 20
12.3254
 30
0.0000
  0
SEQEND
  8
0
  0
POLYLINE
  8
52
 66
1
 10
0.0000
 20
0.0000
 30
0.0000
 40
0.0254
 41
0.0254
 70
0
  0
VERTEX
  8
52
 10
22.5046
 20
12.3344
 30
0.0000
 42
1.0000
  0
VERTEX
  8
52
 10
22.5225
 20
12.3164
 30
0.0000
  0
SEQEND
  8
0
  0
POLYLINE
  8
52
 66
1
 10
0.0000
 20
0.0000
 30
0.0000
 40
0.0254
 41
0.0254
 70
0
  0
VERTEX
  8
52
 10
22.6157
 20
12.4096
 30
0.0000
 42
1.0000
  0
VERTEX
  8
52
 10
22.5978
 20
12.4276
 30
0.0000
  0
SEQEND
  8
0
  0
POLYLINE
  8
52
 66
1
 10
0.0000
 20
0.0000
 30
0.0000
 40
0.0508
 41
0.0508
 70
0
  0
VERTEX
  8
52
 10
22.5135
 20
12.3254
 30
0.0000
  0
VERTEX
  8
52
 10
22.3271
 20
12.3254
 30
0.0000
  0
SEQEND
  8
0
  0
POLYLINE
  8
52
 66
1
 10
0.0000
 20
0.0000
 30
0.0000
 40
0.0254
 41
0.0254
 70
0
  0
VERTEX
  8
52
 10
22.3271
 20
12.3381
 30
0.0000
 42
1.0000
  0
VERTEX
  8
52
 10
22.3271
 20
12.3127
 30
0.0000
  0
SEQEND
  8
0
  0
POLYLINE
  8
52
 66
1
 10
0.0000
 20
0.0000
 30
0.0000
 40
0.0254
 41
0.0254
 70
0
  0
VERTEX
  8
52
 10
22.5135
 20
12.3127
 30
0.0000
 42
1.0000
  0
VERTEX
  8
52
 10
22.5135
 20
12.3381
 30
0.0000
  0
SEQEND
  8
0
  0
POLYLINE
  8
52
 66
1
 10
0.0000
 20
0.0000
 30
0.0000
 40
0.0508
 41
0.0508
 70
0
  0
VERTEX
  8
52
 10
22.3271
 20
12.3254
 30
0.0000
  0
VERTEX
  8
52
 10
22.2339
 20
12.4186
 30
0.0000
  0
SEQEND
  8
0
  0
POLYLINE
  8
52
 66
1
 10
0.0000
 20
0.0000
 30
0.0000
 40
0.0254
 41
0.0254
 70
0
  0
VERTEX
  8
52
 10
22.2429
 20
12.4276
 30
0.0000
 42
1.0000
  0
VERTEX
  8
52
 10
22.2249
 20
12.4096
 30
0.0000
  0
SEQEND
  8
0
  0
POLYLINE
  8
52
 66
1
 10
0.0000
 20
0.0000
 30
0.0000
 40
0.0254
 41
0.0254
 70
0
  0
VERTEX
  8
52
 10
22.3181
 20
12.3164
 30
0.0000
 42
1.0000
  0
VERTEX
  8
52
 10
22.3361
 20
12.3344
 30
0.0000
  0
SEQEND
  8
0
  0
POLYLINE
  8
52
 66
1
 10
0.0000
 20
0.0000
 30
0.0000
 40
0.0508
 41
0.0508
 70
0
  0
VERTEX
  8
52
 10
22.2339
 20
12.4186
 30
0.0000
  0
VERTEX
  8
52
 10
22.2339
 20
12.6050
 30
0.0000
  0
SEQEND
  8
0
  0
POLYLINE
  8
52
 66
1
 10
0.0000
 20
0.0000
 30
0.0000
 40
0.0254
 41
0.0254
 70
0
  0
VERTEX
  8
52
 10
22.2466
 20
12.6050
 30
0.0000
 42
1.0000
  0
VERTEX
  8
52
 10
22.2212
 20
12.6050
 30
0.0000
  0
SEQEND
  8
0
  0
POLYLINE
  8
52
 66
1
 10
0.0000
 20
0.0000
 30
0.0000
 40
0.0254
 41
0.0254
 70
0
  0
VERTEX
  8
52
 10
22.2212
 20
12.4186
 30
0.0000
 42
1.0000
  0
VERTEX
  8
52
 10
22.2466
 20
12.4186
 30
0.0000
  0
SEQEND
  8
0
  0
POLYLINE
  8
52
 66
1
 10
0.0000
 20
0.0000
 30
0.0000
 40
0.0508
 41
0.0508
 70
0
  0
VERTEX
  8
52
 10
22.2339
 20
12.6050
 30
0.0000
  0
VERTEX
  8
52
 10
22.4203
 20
12.6050
 30
0.0000
  0
SEQEND
  8
0
  0
POLYLINE
  8
52
 66
1
 10
0.0000
 20
0.0000
 30
0.0000
 40
0.0254
 41
0.0254
 70
0
  0
VERTEX
  8
52
 10
22.4203
 20
12.5923
 30
0.0000
 42
1.0000
  0
VERTEX
  8
52
 10
22.4203
 20
12.6177
 30
0.0000
  0
SEQEND
  8
0
  0
POLYLINE
  8
52
 66
1
 10
0.0000
 20
0.0000
 30
0.0000
 40
0.0254
 41
0.0254
 70
0
  0
VERTEX
  8
52
 10
22.2339
 20
12.6177
 30
0.0000
 42
1.0000
  0
VERTEX
  8
52
 10
22.2339
 20
12.5923
 30
0.0000
  0
SEQEND
  8
0
  0
POLYLINE
  8
52
 66
1
 10
0.0000
 20
0.0000
 30
0.0000
 40
0.0508
 41
0.0508
 70
0
  0
VERTEX
  8
52
 10
21.6726
 20
12.8847
 30
0.0000
  0
VERTEX
  8
52
 10
22.0454
 20
12.8847
 30
0.0000
  0
SEQEND
  8
0
  0
POLYLINE
  8
52
 66
1
 10
0.0000
 20
0.0000
 30
0.0000
 40
0.0254
 41
0.0254
 70
0
  0
VERTEX
  8
52
 10
22.0454
 20
12.8720
 30
0.0000
 42
1.0000
  0
VERTEX
  8
52
 10
22.0454
 20
12.8974
 30
0.0000
  0
SEQEND
  8
0
  0
POLYLINE
  8
52
 66
1
 10
0.0000
 20
0.0000
 30
0.0000
 40
0.0254
 41
0.0254
 70
0
  0
VERTEX
  8
52
 10
21.6726
 20
12.8974
 30
0.0000
 42
1.0000
  0
VERTEX
  8
52
 10
21.6726
 20
12.8720
 30
0.0000
  0
SEQEND
  8
0
  0
POLYLINE
  8
52
 66
1
 10
0.0000
 20
0.0000
 30
0.0000
 40
0.0508
 41
0.0508
 70
0
  0
VERTEX
  8
52
 10
22.0454
 20
12.8847
 30
0.0000
  0
VERTEX
  8
52
 10
22.0454
 20
12.3254
 30
0.0000
  0
SEQEND
  8
0
  0
POLYLINE
  8
52
 66
1
 10
0.0000
 20
0.0000
 30
0.0000
 40
0.0254
 41
0.0254
 70
0
  0
VERTEX
  8
52
 10
22.0327
 20
12.3254
 30
0.0000
 42
1.0000
  0
VERTEX
  8
52
 10
22.0581
 20
12.3254
 30
0.0000
  0
SEQEND
  8
0
  0
POLYLINE
  8
52
 66
1
 10
0.0000
 20
0.0000
 30
0.0000
 40
0.0254
 41
0.0254
 70
0
  0
VERTEX
  8
52
 10
22.0581
 20
12.8847
 30
0.0000
 42
1.0000
  0
VERTEX
  8
52
 10
22.0327
 20
12.8847
 30
0.0000
  0
SEQEND
  8
0
  0
POLYLINE
  8
52
 66
1
 10
0.0000
 20
0.0000
 30
0.0000
 40
0.0508
 41
0.0508
 70
0
  0
VERTEX
  8
52
 10
22.0454
 20
12.3254
 30
0.0000
  0
VERTEX
  8
52
 10
21.6726
 20
12.3254
 30
0.0000
  0
SEQEND
  8
0
  0
POLYLINE
  8
52
 66
1
 10
0.0000
 20
0.0000
 30
0.0000
 40
0.0254
 41
0.0254
 70
0
  0
VERTEX
  8
52
 10
21.6726
 20
12.3381
 30
0.0000
 42
1.0000
  0
VERTEX
  8
52
 10
21.6726
 20
12.3127
 30
0.0000
  0
SEQEND
  8
0
  0
POLYLINE
  8
52
 66
1
 10
0.0000
 20
0.0000
 30
0.0000
 40
0.0254
 41
0.0254
 70
0
  0
VERTEX
  8
52
 10
22.0454
 20
12.3127
 30
0.0000
 42
1.0000
  0
VERTEX
  8
52
 10
22.0454
 20
12.3381
 30
0.0000
  0
SEQEND
  8
0
  0
POLYLINE
  8
52
 66
1
 10
0.0000
 20
0.0000
 30
0.0000
 40
0.0508
 41
0.0508
 70
0
  0
VERTEX
  8
52
 10
22.0454
 20
12.6050
 30
0.0000
  0
VERTEX
  8
52
 10
21.8590
 20
12.6050
 30
0.0000
  0
SEQEND
  8
0
  0
POLYLINE
  8
52
 66
1
 10
0.0000
 20
0.0000
 30
0.0000
 40
0.0254
 41
0.0254
 70
0
  0
VERTEX
  8
52
 10
21.8590
 20
12.6177
 30
0.0000
 42
1.0000
  0
VERTEX
  8
52
 10
21.8590
 20
12.5923
 30
0.0000
  0
SEQEND
  8
0
  0
POLYLINE
  8
52
 66
1
 10
0.0000
 20
0.0000
 30
0.0000
 40
0.0254
 41
0.0254
 70
0
  0
VERTEX
  8
52
 10
22.0454
 20
12.5923
 30
0.0000
 42
1.0000
  0
VERTEX
  8
52
 10
22.0454
 20
12.6177
 30
0.0000
  0
SEQEND
  8
0
  0
POLYLINE
  8
52
 66
1
 10
0.0000
 20
0.0000
 30
0.0000
 40
0.2000
 41
0.2000
 70
0
  0
VERTEX
  8
52
 10
34.6000
 20
19.4500
 30
0.0000
 42
1.0000
  0
VERTEX
  8
52
 10
34.6000
 20
19.6500
 30
0.0000
 42
1.0000
  0
VERTEX
  8
52
 10
34.6000
 20
19.4500
 30
0.0000
  0
SEQEND
  8
0
  0
CIRCLE
  8
20
 10
28.5000
 20
17.0500
 30
0.0000
 40
0.3000
  0
CIRCLE
  8
20
 10
28.5000
 20
17.0500
 30
0.0000
 40
0.3150
  0
CIRCLE
  8
20
 10
34.5000
 20
17.0500
 30
0.0000
 40
0.3150
  0
POLYLINE
  8
52
 66
1
 10
0.0000
 20
0.0000
 30
0.0000
 40
0.1000
 41
0.1000
 70
0
  0
VERTEX
  8
52
 10
106.6590
 20
54.2460
 30
0.0000
  0
VERTEX
  8
52
 10
106.1510
 20
54.2460
 30
0.0000
  0
SEQEND
  8
0
  0
POLYLINE
  8
52
 66
1
 10
0.0000
 20
0.0000
 30
0.0000
 40
0.0500
 41
0.0500
 70
0
  0
VERTEX
  8
52
 10
106.1510
 20
54.2710
 30
0.0000
 42
1.0000
  0
VERTEX
  8
52
 10
106.1510
 20
54.2210
 30
0.0000
  0
SEQEND
  8
0
  0
POLYLINE
  8
52
 66
1
 10
0.0000
 20
0.0000
 30
0.0000
 40
0.0500
 41
0.0500
 70
0
  0
VERTEX
  8
52
 10
106.6590
 20
54.2210
 30
0.0000
 42
1.0000
  0
VERTEX
  8
52
 10
106.6590
 20
54.2710
 30
0.0000
  0
SEQEND
  8
0
  0
POLYLINE
  8
52
 66
1
 10
0.0000
 20
0.0000
 30
0.0000
 40
0.1000
 41
0.1000
 70
0
  0
VERTEX
  8
52
 10
106.1510
 20
54.2460
 30
0.0000
  0
VERTEX
  8
52
 10
106.1510
 20
54.7540
 30
0.0000
  0
SEQEND
  8
0
  0
POLYLINE
  8
52
 66
1
 10
0.0000
 20
0.0000
 30
0.0000
 40
0.0500
 41
0.0500
 70
0
  0
VERTEX
  8
52
 10
106.1760
 20
54.7540
 30
0.0000
 42
1.0000
  0
VERTEX
  8
52
 10
106.1260
 20
54.7540
 30
0.0000
  0
SEQEND
  8
0
  0
POLYLINE
  8
52
 66
1
 10
0.0000
 20
0.0000
 30
0.0000
 40
0.0500
 41
0.0500
 70
0
  0
VERTEX
  8
52
 10
106.1260
 20
54.2460
 30
0.0000
 42
1.0000
  0
VERTEX
  8
52
 10
106.1760
 20
54.2460
 30
0.0000
  0
SEQEND
  8
0
  0
POLYLINE
  8
52
 66
1
 10
0.0000
 20
0.0000
 30
0.0000
 40
0.1000
 41
0.1000
 70
0
  0
VERTEX
  8
52
 10
106.1510
 20
54.7540
 30
0.0000
  0
VERTEX
  8
52
 10
106.6590
 20
54.7540
 30
0.0000
  0
SEQEND
  8
0
  0
POLYLINE
  8
52
 66
1
 10
0.0000
 20
0.0000
 30
0.0000
 40
0.0500
 41
0.0500
 70
0
  0
VERTEX
  8
52
 10
106.6590
 20
54.7290
 30
0.0000
 42
1.0000
  0
VERTEX
  8
52
 10
106.6590
 20
54.7790
 30
0.0000
  0
SEQEND
  8
0
  0
POLYLINE
  8
52
 66
1
 10
0.0000
 20
0.0000
 30
0.0000
 40
0.0500
 41
0.0500
 70
0
  0
VERTEX
  8
52
 10
106.1510
 20
54.7790
 30
0.0000
 42
1.0000
  0
VERTEX
  8
52
 10
106.1510
 20
54.7290
 30
0.0000
  0
SEQEND
  8
0
  0
POLYLINE
  8
52
 66
1
 10
0.0000
 20
0.0000
 30
0.0000
 40
0.1000
 41
0.1000
 70
0
  0
VERTEX
  8
52
 10
107.9290
 20
54.7540
 30
0.0000
  0
VERTEX
  8
52
 10
107.9290
 20
54.2460
 30
0.0000
  0
SEQEND
  8
0
  0
POLYLINE
  8
52
 66
1
 10
0.0000
 20
0.0000
 30
0.0000
 40
0.0500
 41
0.0500
 70
0
  0
VERTEX
  8
52
 10
107.9040
 20
54.2460
 30
0.0000
 42
1.0000
  0
VERTEX
  8
52
 10
107.9540
 20
54.2460
 30
0.0000
  0
SEQEND
  8
0
  0
POLYLINE
  8
52
 66
1
 10
0.0000
 20
0.0000
 30
0.0000
 40
0.0500
 41
0.0500
 70
0
  0
VERTEX
  8
52
 10
107.9540
 20
54.7540
 30
0.0000
 42
1.0000
  0
VERTEX
  8
52
 10
107.9040
 20
54.7540
 30
0.0000
  0
SEQEND
  8
0
  0
POLYLINE
  8
52
 66
1
 10
0.0000
 20
0.0000
 30
0.0000
 40
0.1000
 41
0.1000
 70
0
  0
VERTEX
  8
52
 10
107.9290
 20
54.2460
 30
0.0000
  0
VERTEX
  8
52
 10
107.4210
 20
54.2460
 30
0.0000
  0
SEQEND
  8
0
  0
POLYLINE
  8
52
 66
1
 10
0.0000
 20
0.0000
 30
0.0000
 40
0.0500
 41
0.0500
 70
0
  0
VERTEX
  8
52
 10
107.4210
 20
54.2710
 30
0.0000
 42
1.0000
  0
VERTEX
  8
52
 10
107.4210
 20
54.2210
 30
0.0000
  0
SEQEND
  8
0
  0
POLYLINE
  8
52
 66
1
 10
0.0000
 20
0.0000
 30
0.0000
 40
0.0500
 41
0.0500
 70
0
  0
VERTEX
  8
52
 10
107.9290
 20
54.2210
 30
0.0000
 42
1.0000
  0
VERTEX
  8
52
 10
107.9290
 20
54.2710
 30
0.0000
  0
SEQEND
  8
0
  0
POLYLINE
  8
52
 66
1
 10
0.0000
 20
0.0000
 30
0.0000
 40
0.1000
 41
0.1000
 70
0
  0
VERTEX
  8
52
 10
107.4210
 20
54.7540
 30
0.0000
  0
VERTEX
  8
52
 10
107.9290
 20
54.7540
 30
0.0000
  0
SEQEND
  8
0
  0
POLYLINE
  8
52
 66
1
 10
0.0000
 20
0.0000
 30
0.0000
 40
0.0500
 41
0.0500
 70
0
  0
VERTEX
  8
52
 10
107.9290
 20
54.7290
 30
0.0000
 42
1.0000
  0
VERTEX
  8
52
 10
107.9290
 20
54.7790
 30
0.0000
  0
SEQEND
  8
0
  0
POLYLINE
  8
52
 66
1
 10
0.0000
 20
0.0000
 30
0.0000
 40
0.0500
 41
0.0500
 70
0
  0
VERTEX
  8
52
 10
107.4210
 20
54.7790
 30
0.0000
 42
1.0000
  0
VERTEX
  8
52
 10
107.4210
 20
54.7290
 30
0.0000
  0
SEQEND
  8
0
  0
POLYLINE
  8
52
 66
1
 10
0.0000
 20
0.0000
 30
0.0000
 40
0.1000
 41
0.1000
 70
0
  0
VERTEX
  8
52
 10
106.6590
 20
52.9760
 30
0.0000
  0
VERTEX
  8
52
 10
106.1510
 20
52.9760
 30
0.0000
  0
SEQEND
  8
0
  0
POLYLINE
  8
52
 66
1
 10
0.0000
 20
0.0000
 30
0.0000
 40
0.0500
 41
0.0500
 70
0
  0
VERTEX
  8
52
 10
106.1510
 20
53.0010
 30
0.0000
 42
1.0000
  0
VERTEX
  8
52
 10
106.1510
 20
52.9510
 30
0.0000
  0
SEQEND
  8
0
  0
POLYLINE
  8
52
 66
1
 10
0.0000
 20
0.0000
 30
0.0000
 40
0.0500
 41
0.0500
 70
0
  0
VERTEX
  8
52
 10
106.6590
 20
52.9510
 30
0.0000
 42
1.0000
  0
VERTEX
  8
52
 10
106.6590
 20
53.0010
 30
0.0000
  0
SEQEND
  8
0
  0
POLYLINE
  8
52
 66
1
 10
0.0000
 20
0.0000
 30
0.0000
 40
0.1000
 41
0.1000
 70
0
  0
VERTEX
  8
52
 10
106.1510
 20
52.9760
 30
0.0000
  0
VERTEX
  8
52
 10
106.1510
 20
53.4840
 30
0.0000
  0
SEQEND
  8
0
  0
POLYLINE
  8
52
 66
1
 10
0.0000
 20
0.0000
 30
0.0000
 40
0.0500
 41
0.0500
 70
0
  0
VERTEX
  8
52
 10
106.1760
 20
53.4840
 30
0.0000
 42
1.0000
  0
VERTEX
  8
52
 10
106.1260
 20
53.4840
 30
0.0000
  0
SEQEND
  8
0
  0
POLYLINE
  8
52
 66
1
 10
0.0000
 20
0.0000
 30
0.0000
 40
0.0500
 41
0.0500
 70
0
  0
VERTEX
  8
52
 10
106.1260
 20
52.9760
 30
0.0000
 42
1.0000
  0
VERTEX
  8
52
 10
106.1760
 20
52.9760
 30
0.0000
  0
SEQEND
  8
0
  0
POLYLINE
  8
52
 66
1
 10
0.0000
 20
0.0000
 30
0.0000
 40
0.1000
 41
0.1000
 70
0
  0
VERTEX
  8
52
 10
106.1510
 20
53.4840
 30
0.0000
  0
VERTEX
  8
52
 10
106.6590
 20
53.4840
 30
0.0000
  0
SEQEND
  8
0
  0
POLYLINE
  8
52
 66
1
 10
0.0000
 20
0.0000
 30
0.0000
 40
0.0500
 41
0.0500
 70
0
  0
VERTEX
  8
52
 10
106.6590
 20
53.4590
 30
0.0000
 42
1.0000
  0
VERTEX
  8
52
 10
106.6590
 20
53.5090
 30
0.0000
  0
SEQEND
  8
0
  0
POLYLINE
  8
52
 66
1
 10
0.0000
 20
0.0000
 30
0.0000
 40
0.0500
 41
0.0500
 70
0
  0
VERTEX
  8
52
 10
106.1510
 20
53.5090
 30
0.0000
 42
1.0000
  0
VERTEX
  8
52
 10
106.1510
 20
53.4590
 30
0.0000
  0
SEQEND
  8
0
  0
POLYLINE
  8
52
 66
1
 10
0.0000
 20
0.0000
 30
0.0000
 40
0.1000
 41
0.1000
 70
0
  0
VERTEX
  8
52
 10
107.9290
 20
53.4840
 30
0.0000
  0
VERTEX
  8
52
 10
107.9290
 20
52.9760
 30
0.0000
  0
SEQEND
  8
0
  0
POLYLINE
  8
52
 66
1
 10
0.0000
 20
0.0000
 30
0.0000
 40
0.0500
 41
0.0500
 70
0
  0
VERTEX
  8
52
 10
107.9040
 20
52.9760
 30
0.0000
 42
1.0000
  0
VERTEX
  8
52
 10
107.9540
 20
52.9760
 30
0.0000
  0
SEQEND
  8
0
  0
POLYLINE
  8
52
 66
1
 10
0.0000
 20
0.0000
 30
0.0000
 40
0.0500
 41
0.0500
 70
0
  0
VERTEX
  8
52
 10
107.9540
 20
53.4840
 30
0.0000
 42
1.0000
  0
VERTEX
  8
52
 10
107.9040
 20
53.4840
 30
0.0000
  0
SEQEND
  8
0
  0
POLYLINE
  8
52
 66
1
 10
0.0000
 20
0.0000
 30
0.0000
 40
0.1000
 41
0.1000
 70
0
  0
VERTEX
  8
52
 10
107.9290
 20
52.9760
 30
0.0000
  0
VERTEX
  8
52
 10
107.4210
 20
52.9760
 30
0.0000
  0
SEQEND
  8
0
  0
POLYLINE
  8
52
 66
1
 10
0.0000
 20
0.0000
 30
0.0000
 40
0.0500
 41
0.0500
 70
0
  0
VERTEX
  8
52
 10
107.4210
 20
53.0010
 30
0.0000
 42
1.0000
  0
VERTEX
  8
52
 10
107.4210
 20
52.9510
 30
0.0000
  0
SEQEND
  8
0
  0
POLYLINE
  8
52
 66
1
 10
0.0000
 20
0.0000
 30
0.0000
 40
0.0500
 41
0.0500
 70
0
  0
VERTEX
  8
52
 10
107.9290
 20
52.9510
 30
0.0000
 42
1.0000
  0
VERTEX
  8
52
 10
107.9290
 20
53.0010
 30
0.0000
  0
SEQEND
  8
0
  0
POLYLINE
  8
52
 66
1
 10
0.0000
 20
0.0000
 30
0.0000
 40
0.1000
 41
0.1000
 70
0
  0
VERTEX
  8
52
 10
107.4210
 20
53.4840
 30
0.0000
  0
VERTEX
  8
52
 10
107.9290
 20
53.4840
 30
0.0000
  0
SEQEND
  8
0
  0
POLYLINE
  8
52
 66
1
 10
0.0000
 20
0.0000
 30
0.0000
 40
0.0500
 41
0.0500
 70
0
  0
VERTEX
  8
52
 10
107.9290
 20
53.4590
 30
0.0000
 42
1.0000
  0
VERTEX
  8
52
 10
107.9290
 20
53.5090
 30
0.0000
  0
SEQEND
  8
0
  0
POLYLINE
  8
52
 66
1
 10
0.0000
 20
0.0000
 30
0.0000
 40
0.0500
 41
0.0500
 70
0
  0
VERTEX
  8
52
 10
107.4210
 20
53.5090
 30
0.0000
 42
1.0000
  0
VERTEX
  8
52
 10
107.4210
 20
53.4590
 30
0.0000
  0
SEQEND
  8
0
  0
POLYLINE
  8
52
 66
1
 10
0.0000
 20
0.0000
 30
0.0000
 40
0.1000
 41
0.1000
 70
0
  0
VERTEX
  8
52
 10
106.6590
 20
51.7060
 30
0.0000
  0
VERTEX
  8
52
 10
106.1510
 20
51.7060
 30
0.0000
  0
SEQEND
  8
0
  0
POLYLINE
  8
52
 66
1
 10
0.0000
 20
0.0000
 30
0.0000
 40
0.0500
 41
0.0500
 70
0
  0
VERTEX
  8
52
 10
106.1510
 20
51.7310
 30
0.0000
 42
1.0000
  0
VERTEX
  8
52
 10
106.1510
 20
51.6810
 30
0.0000
  0
SEQEND
  8
0
  0
POLYLINE
  8
52
 66
1
 10
0.0000
 20
0.0000
 30
0.0000
 40
0.0500
 41
0.0500
 70
0
  0
VERTEX
  8
52
 10
106.6590
 20
51.6810
 30
0.0000
 42
1.0000
  0
VERTEX
  8
52
 10
106.6590
 20
51.7310
 30
0.0000
  0
SEQEND
  8
0
  0
POLYLINE
  8
52
 66
1
 10
0.0000
 20
0.0000
 30
0.0000
 40
0.1000
 41
0.1000
 70
0
  0
VERTEX
  8
52
 10
106.1510
 20
51.7060
 30
0.0000
  0
VERTEX
  8
52
 10
106.1510
 20
52.2140
 30
0.0000
  0
SEQEND
  8
0
  0
POLYLINE
  8
52
 66
1
 10
0.0000
 20
0.0000
 30
0.0000
 40
0.0500
 41
0.0500
 70
0
  0
VERTEX
  8
52
 10
106.1760
 20
52.2140
 30
0.0000
 42
1.0000
  0
VERTEX
  8
52
 10
106.1260
 20
52.2140
 30
0.0000
  0
SEQEND
  8
0
  0
POLYLINE
  8
52
 66
1
 10
0.0000
 20
0.0000
 30
0.0000
 40
0.0500
 41
0.0500
 70
0
  0
VERTEX
  8
52
 10
106.1260
 20
51.7060
 30
0.0000
 42
1.0000
  0
VERTEX
  8
52
 10
106.1760
 20
51.7060
 30
0.0000
  0
SEQEND
  8
0
  0
POLYLINE
  8
52
 66
1
 10
0.0000
 20
0.0000
 30
0.0000
 40
0.1000
 41
0.1000
 70
0
  0
VERTEX
  8
52
 10
106.1510
 20
52.2140
 30
0.0000
  0
VERTEX
  8
52
 10
106.6590
 20
52.2140
 30
0.0000
  0
SEQEND
  8
0
  0
POLYLINE
  8
52
 66
1
 10
0.0000
 20
0.0000
 30
0.0000
 40
0.0500
 41
0.0500
 70
0
  0
VERTEX
  8
52
 10
106.6590
 20
52.1890
 30
0.0000
 42
1.0000
  0
VERTEX
  8
52
 10
106.6590
 20
52.2390
 30
0.0000
  0
SEQEND
  8
0
  0
POLYLINE
  8
52
 66
1
 10
0.0000
 20
0.0000
 30
0.0000
 40
0.0500
 41
0.0500
 70
0
  0
VERTEX
  8
52
 10
106.1510
 20
52.2390
 30
0.0000
 42
1.0000
  0
VERTEX
  8
52
 10
106.1510
 20
52.1890
 30
0.0000
  0
SEQEND
  8
0
  0
POLYLINE
  8
52
 66
1
 10
0.0000
 20
0.0000
 30
0.0000
 40
0.1000
 41
0.1000
 70
0
  0
VERTEX
  8
52
 10
107.9290
 20
52.2140
 30
0.0000
  0
VERTEX
  8
52
 10
107.9290
 20
51.7060
 30
0.0000
  0
SEQEND
  8
0
  0
POLYLINE
  8
52
 66
1
 10
0.0000
 20
0.0000
 30
0.0000
 40
0.0500
 41
0.0500
 70
0
  0
VERTEX
  8
52
 10
107.9040
 20
51.7060
 30
0.0000
 42
1.0000
  0
VERTEX
  8
52
 10
107.9540
 20
51.7060
 30
0.0000
  0
SEQEND
  8
0
  0
POLYLINE
  8
52
 66
1
 10
0.0000
 20
0.0000
 30
0.0000
 40
0.0500
 41
0.0500
 70
0
  0
VERTEX
  8
52
 10
107.9540
 20
52.2140
 30
0.0000
 42
1.0000
  0
VERTEX
  8
52
 10
107.9040
 20
52.2140
 30
0.0000
  0
SEQEND
  8
0
  0
POLYLINE
  8
52
 66
1
 10
0.0000
 20
0.0000
 30
0.0000
 40
0.1000
 41
0.1000
 70
0
  0
VERTEX
  8
52
 10
107.9290
 20
51.7060
 30
0.0000
  0
VERTEX
  8
52
 10
107.4210
 20
51.7060
 30
0.0000
  0
SEQEND
  8
0
  0
POLYLINE
  8
52
 66
1
 10
0.0000
 20
0.0000
 30
0.0000
 40
0.0500
 41
0.0500
 70
0
  0
VERTEX
  8
52
 10
107.4210
 20
51.7310
 30
0.0000
 42
1.0000
  0
VERTEX
  8
52
 10
107.4210
 20
51.6810
 30
0.0000
  0
SEQEND
  8
0
  0
POLYLINE
  8
52
 66
1
 10
0.0000
 20
0.0000
 30
0.0000
 40
0.0500
 41
0.0500
 70
0
  0
VERTEX
  8
52
 10
107.9290
 20
51.6810
 30
0.0000
 42
1.0000
  0
VERTEX
  8
52
 10
107.9290
 20
51.7310
 30
0.0000
  0
SEQEND
  8
0
  0
POLYLINE
  8
52
 66
1
 10
0.0000
 20
0.0000
 30
0.0000
 40
0.1000
 41
0.1000
 70
0
  0
VERTEX
  8
52
 10
107.4210
 20
52.2140
 30
0.0000
  0
VERTEX
  8
52
 10
107.9290
 20
52.2140
 30
0.0000
  0
SEQEND
  8
0
  0
POLYLINE
  8
52
 66
1
 10
0.0000
 20
0.0000
 30
0.0000
 40
0.0500
 41
0.0500
 70
0
  0
VERTEX
  8
52
 10
107.9290
 20
52.1890
 30
0.0000
 42
1.0000
  0
VERTEX
  8
52
 10
107.9290
 20
52.2390
 30
0.0000
  0
SEQEND
  8
0
  0
POLYLINE
  8
52
 66
1
 10
0.0000
 20
0.0000
 30
0.0000
 40
0.0500
 41
0.0500
 70
0
  0
VERTEX
  8
52
 10
107.4210
 20
52.2390
 30
0.0000
 42
1.0000
  0
VERTEX
  8
52
 10
107.4210
 20
52.1890
 30
0.0000
  0
SEQEND
  8
0
  0
POLYLINE
  8
52
 66
1
 10
0.0000
 20
0.0000
 30
0.0000
 40
0.1000
 41
0.1000
 70
0
  0
VERTEX
  8
52
 10
106.6590
 20
50.4360
 30
0.0000
  0
VERTEX
  8
52
 10
106.1510
 20
50.4360
 30
0.0000
  0
SEQEND
  8
0
  0
POLYLINE
  8
52
 66
1
 10
0.0000
 20
0.0000
 30
0.0000
 40
0.0500
 41
0.0500
 70
0
  0
VERTEX
  8
52
 10
106.1510
 20
50.4610
 30
0.0000
 42
1.0000
  0
VERTEX
  8
52
 10
106.1510
 20
50.4110
 30
0.0000
  0
SEQEND
  8
0
  0
POLYLINE
  8
52
 66
1
 10
0.0000
 20
0.0000
 30
0.0000
 40
0.0500
 41
0.0500
 70
0
  0
VERTEX
  8
52
 10
106.6590
 20
50.4110
 30
0.0000
 42
1.0000
  0
VERTEX
  8
52
 10
106.6590
 20
50.4610
 30
0.0000
  0
SEQEND
  8
0
  0
POLYLINE
  8
52
 66
1
 10
0.0000
 20
0.0000
 30
0.0000
 40
0.1000
 41
0.1000
 70
0
  0
VERTEX
  8
52
 10
106.1510
 20
50.4360
 30
0.0000
  0
VERTEX
  8
52
 10
106.1510
 20
50.9440
 30
0.0000
  0
SEQEND
  8
0
  0
POLYLINE
  8
52
 66
1
 10
0.0000
 20
0.0000
 30
0.0000
 40
0.0500
 41
0.0500
 70
0
  0
VERTEX
  8
52
 10
106.1760
 20
50.9440
 30
0.0000
 42
1.0000
  0
VERTEX
  8
52
 10
106.1260
 20
50.9440
 30
0.0000
  0
SEQEND
  8
0
  0
POLYLINE
  8
52
 66
1
 10
0.0000
 20
0.0000
 30
0.0000
 40
0.0500
 41
0.0500
 70
0
  0
VERTEX
  8
52
 10
106.1260
 20
50.4360
 30
0.0000
 42
1.0000
  0
VERTEX
  8
52
 10
106.1760
 20
50.4360
 30
0.0000
  0
SEQEND
  8
0
  0
POLYLINE
  8
52
 66
1
 10
0.0000
 20
0.0000
 30
0.0000
 40
0.1000
 41
0.1000
 70
0
  0
VERTEX
  8
52
 10
106.1510
 20
50.9440
 30
0.0000
  0
VERTEX
  8
52
 10
106.6590
 20
50.9440
 30
0.0000
  0
SEQEND
  8
0
  0
POLYLINE
  8
52
 66
1
 10
0.0000
 20
0.0000
 30
0.0000
 40
0.0500
 41
0.0500
 70
0
  0
VERTEX
  8
52
 10
106.6590
 20
50.9190
 30
0.0000
 42
1.0000
  0
VERTEX
  8
52
 10
106.6590
 20
50.9690
 30
0.0000
  0
SEQEND
  8
0
  0
POLYLINE
  8
52
 66
1
 10
0.0000
 20
0.0000
 30
0.0000
 40
0.0500
 41
0.0500
 70
0
  0
VERTEX
  8
52
 10
106.1510
 20
50.9690
 30
0.0000
 42
1.0000
  0
VERTEX
  8
52
 10
106.1510
 20
50.9190
 30
0.0000
  0
SEQEND
  8
0
  0
POLYLINE
  8
52
 66
1
 10
0.0000
 20
0.0000
 30
0.0000
 40
0.1000
 41
0.1000
 70
0
  0
VERTEX
  8
52
 10
107.9290
 20
50.9440
 30
0.0000
  0
VERTEX
  8
52
 10
107.9290
 20
50.4360
 30
0.0000
  0
SEQEND
  8
0
  0
POLYLINE
  8
52
 66
1
 10
0.0000
 20
0.0000
 30
0.0000
 40
0.0500
 41
0.0500
 70
0
  0
VERTEX
  8
52
 10
107.9040
 20
50.4360
 30
0.0000
 42
1.0000
  0
VERTEX
  8
52
 10
107.9540
 20
50.4360
 30
0.0000
  0
SEQEND
  8
0
  0
POLYLINE
  8
52
 66
1
 10
0.0000
 20
0.0000
 30
0.0000
 40
0.0500
 41
0.0500
 70
0
  0
VERTEX
  8
52
 10
107.9540
 20
50.9440
 30
0.0000
 42
1.0000
  0
VERTEX
  8
52
 10
107.9040
 20
50.9440
 30
0.0000
  0
SEQEND
  8
0
  0
POLYLINE
  8
52
 66
1
 10
0.0000
 20
0.0000
 30
0.0000
 40
0.1000
 41
0.1000
 70
0
  0
VERTEX
  8
52
 10
107.9290
 20
50.4360
 30
0.0000
  0
VERTEX
  8
52
 10
107.4210
 20
50.4360
 30
0.0000
  0
SEQEND
  8
0
  0
POLYLINE
  8
52
 66
1
 10
0.0000
 20
0.0000
 30
0.0000
 40
0.0500
 41
0.0500
 70
0
  0
VERTEX
  8
52
 10
107.4210
 20
50.4610
 30
0.0000
 42
1.0000
  0
VERTEX
  8
52
 10
107.4210
 20
50.4110
 30
0.0000
  0
SEQEND
  8
0
  0
POLYLINE
  8
52
 66
1
 10
0.0000
 20
0.0000
 30
0.0000
 40
0.0500
 41
0.0500
 70
0
  0
VERTEX
  8
52
 10
107.9290
 20
50.4110
 30
0.0000
 42
1.0000
  0
VERTEX
  8
52
 10
107.9290
 20
50.4610
 30
0.0000
  0
SEQEND
  8
0
  0
POLYLINE
  8
52
 66
1
 10
0.0000
 20
0.0000
 30
0.0000
 40
0.1000
 41
0.1000
 70
0
  0
VERTEX
  8
52
 10
107.4210
 20
50.9440
 30
0.0000
  0
VERTEX
  8
52
 10
107.9290
 20
50.9440
 30
0.0000
  0
SEQEND
  8
0
  0
POLYLINE
  8
52
 66
1
 10
0.0000
 20
0.0000
 30
0.0000
 40
0.0500
 41
0.0500
 70
0
  0
VERTEX
  8
52
 10
107.9290
 20
50.9190
 30
0.0000
 42
1.0000
  0
VERTEX
  8
52
 10
107.9290
 20
50.9690
 30
0.0000
  0
SEQEND
  8
0
  0
POLYLINE
  8
52
 66
1
 10
0.0000
 20
0.0000
 30
0.0000
 40
0.0500
 41
0.0500
 70
0
  0
VERTEX
  8
52
 10
107.4210
 20
50.9690
 30
0.0000
 42
1.0000
  0
VERTEX
  8
52
 10
107.4210
 20
50.9190
 30
0.0000
  0
SEQEND
  8
0
  0
POLYLINE
  8
52
 66
1
 10
0.0000
 20
0.0000
 30
0.0000
 40
0.1000
 41
0.1000
 70
0
  0
VERTEX
  8
52
 10
108.8400
 20
57.5350
 30
0.0000
  0
VERTEX
  8
52
 10
108.8400
 20
52.9600
 30
0.0000
  0
SEQEND
  8
0
  0
POLYLINE
  8
52
 66
1
 10
0.0000
 20
0.0000
 30
0.0000
 40
0.0500
 41
0.0500
 70
0
  0
VERTEX
  8
52
 10
108.8150
 20
52.9600
 30
0.0000
 42
1.0000
  0
VERTEX
  8
52
 10
108.8650
 20
52.9600
 30
0.0000
  0
SEQEND
  8
0
  0
POLYLINE
  8
52
 66
1
 10
0.0000
 20
0.0000
 30
0.0000
 40
0.0500
 41
0.0500
 70
0
  0
VERTEX
  8
52
 10
108.8650
 20
57.5350
 30
0.0000
 42
1.0000
  0
VERTEX
  8
52
 10
108.8150
 20
57.5350
 30
0.0000
  0
SEQEND
  8
0
  0
POLYLINE
  8
52
 66
1
 10
0.0000
 20
0.0000
 30
0.0000
 40
0.1000
 41
0.1000
 70
0
  0
VERTEX
  8
52
 10
108.8400
 20
52.9600
 30
0.0000
  0
VERTEX
  8
52
 10
109.5900
 20
52.9600
 30
0.0000
  0
SEQEND
  8
0
  0
POLYLINE
  8
52
 66
1
 10
0.0000
 20
0.0000
 30
0.0000
 40
0.0500
 41
0.0500
 70
0
  0
VERTEX
  8
52
 10
109.5900
 20
52.9350
 30
0.0000
 42
1.0000
  0
VERTEX
  8
52
 10
109.5900
 20
52.9850
 30
0.0000
  0
SEQEND
  8
0
  0
POLYLINE
  8
52
 66
1
 10
0.0000
 20
0.0000
 30
0.0000
 40
0.0500
 41
0.0500
 70
0
  0
VERTEX
  8
52
 10
108.8400
 20
52.9850
 30
0.0000
 42
1.0000
  0
VERTEX
  8
52
 10
108.8400
 20
52.9350
 30
0.0000
  0
SEQEND
  8
0
  0
POLYLINE
  8
52
 66
1
 10
0.0000
 20
0.0000
 30
0.0000
 40
0.1000
 41
0.1000
 70
0
  0
VERTEX
  8
52
 10
109.5900
 20
50.9600
 30
0.0000
  0
VERTEX
  8
52
 10
108.8400
 20
50.9600
 30
0.0000
  0
SEQEND
  8
0
  0
POLYLINE
  8
52
 66
1
 10
0.0000
 20
0.0000
 30
0.0000
 40
0.0500
 41
0.0500
 70
0
  0
VERTEX
  8
52
 10
108.8400
 20
50.9850
 30
0.0000
 42
1.0000
  0
VERTEX
  8
52
 10
108.8400
 20
50.9350
 30
0.0000
  0
SEQEND
  8
0
  0
POLYLINE
  8
52
 66
1
 10
0.0000
 20
0.0000
 30
0.0000
 40
0.0500
 41
0.0500
 70
0
  0
VERTEX
  8
52
 10
109.5900
 20
50.9350
 30
0.0000
 42
1.0000
  0
VERTEX
  8
52
 10
109.5900
 20
50.9850
 30
0.0000
  0
SEQEND
  8
0
  0
POLYLINE
  8
52
 66
1
 10
0.0000
 20
0.0000
 30
0.0000
 40
0.1000
 41
0.1000
 70
0
  0
VERTEX
  8
52
 10
108.8400
 20
50.9600
 30
0.0000
  0
VERTEX
  8
52
 10
108.8400
 20
46.3850
 30
0.0000
  0
SEQEND
  8
0
  0
POLYLINE
  8
52
 66
1
 10
0.0000
 20
0.0000
 30
0.0000
 40
0.0500
 41
0.0500
 70
0
  0
VERTEX
  8
52
 10
108.8150
 20
46.3850
 30
0.0000
 42
1.0000
  0
VERTEX
  8
52
 10
108.8650
 20
46.3850
 30
0.0000
  0
SEQEND
  8
0
  0
POLYLINE
  8
52
 66
1
 10
0.0000
 20
0.0000
 30
0.0000
 40
0.0500
 41
0.0500
 70
0
  0
VERTEX
  8
52
 10
108.8650
 20
50.9600
 30
0.0000
 42
1.0000
  0
VERTEX
  8
52
 10
108.8150
 20
50.9600
 30
0.0000
  0
SEQEND
  8
0
  0
POLYLINE
  8
52
 66
1
 10
0.0000
 20
0.0000
 30
0.0000
 40
0.1000
 41
0.1000
 70
0
  0
VERTEX
  8
52
 10
105.2400
 20
46.3850
 30
0.0000
  0
VERTEX
  8
52
 10
105.2400
 20
57.5350
 30
0.0000
  0
SEQEND
  8
0
  0
POLYLINE
  8
52
 66
1
 10
0.0000
 20
0.0000
 30
0.0000
 40
0.0500
 41
0.0500
 70
0
  0
VERTEX
  8
52
 10
105.2650
 20
57.5350
 30
0.0000
 42
1.0000
  0
VERTEX
  8
52
 10
105.2150
 20
57.5350
 30
0.0000
  0
SEQEND
  8
0
  0
POLYLINE
  8
52
 66
1
 10
0.0000
 20
0.0000
 30
0.0000
 40
0.0500
 41
0.0500
 70
0
  0
VERTEX
  8
52
 10
105.2150
 20
46.3850
 30
0.0000
 42
1.0000
  0
VERTEX
  8
52
 10
105.2650
 20
46.3850
 30
0.0000
  0
SEQEND
  8
0
  0
POLYLINE
  8
52
 66
1
 10
0.0000
 20
0.0000
 30
0.0000
 40
0.1000
 41
0.1000
 70
0
  0
VERTEX
  8
52
 10
106.6590
 20
49.1660
 30
0.0000
  0
VERTEX
  8
52
 10
106.1510
 20
49.1660
 30
0.0000
  0
SEQEND
  8
0
  0
POLYLINE
  8
52
 66
1
 10
0.0000
 20
0.0000
 30
0.0000
 40
0.0500
 41
0.0500
 70
0
  0
VERTEX
  8
52
 10
106.1510
 20
49.1910
 30
0.0000
 42
1.0000
  0
VERTEX
  8
52
 10
106.1510
 20
49.1410
 30
0.0000
  0
SEQEND
  8
0
  0
POLYLINE
  8
52
 66
1
 10
0.0000
 20
0.0000
 30
0.0000
 40
0.0500
 41
0.0500
 70
0
  0
VERTEX
  8
52
 10
106.6590
 20
49.1410
 30
0.0000
 42
1.0000
  0
VERTEX
  8
52
 10
106.6590
 20
49.1910
 30
0.0000
  0
SEQEND
  8
0
  0
POLYLINE
  8
52
 66
1
 10
0.0000
 20
0.0000
 30
0.0000
 40
0.1000
 41
0.1000
 70
0
  0
VERTEX
  8
52
 10
106.1510
 20
49.1660
 30
0.0000
  0
VERTEX
  8
52
 10
106.1510
 20
49.6740
 30
0.0000
  0
SEQEND
  8
0
  0
POLYLINE
  8
52
 66
1
 10
0.0000
 20
0.0000
 30
0.0000
 40
0.0500
 41
0.0500
 70
0
  0
VERTEX
  8
52
 10
106.1760
 20
49.6740
 30
0.0000
 42
1.0000
  0
VERTEX
  8
52
 10
106.1260
 20
49.6740
 30
0.0000
  0
SEQEND
  8
0
  0
POLYLINE
  8
52
 66
1
 10
0.0000
 20
0.0000
 30
0.0000
 40
0.0500
 41
0.0500
 70
0
  0
VERTEX
  8
52
 10
106.1260
 20
49.1660
 30
0.0000
 42
1.0000
  0
VERTEX
  8
52
 10
106.1760
 20
49.1660
 30
0.0000
  0
SEQEND
  8
0
  0
POLYLINE
  8
52
 66
1
 10
0.0000
 20
0.0000
 30
0.0000
 40
0.1000
 41
0.1000
 70
0
  0
VERTEX
  8
52
 10
106.1510
 20
49.6740
 30
0.0000
  0
VERTEX
  8
52
 10
106.6590
 20
49.6740
 30
0.0000
  0
SEQEND
  8
0
  0
POLYLINE
  8
52
 66
1
 10
0.0000
 20
0.0000
 30
0.0000
 40
0.0500
 41
0.0500
 70
0
  0
VERTEX
  8
52
 10
106.6590
 20
49.6490
 30
0.0000
 42
1.0000
  0
VERTEX
  8
52
 10
106.6590
 20
49.6990
 30
0.0000
  0
SEQEND
  8
0
  0
POLYLINE
  8
52
 66
1
 10
0.0000
 20
0.0000
 30
0.0000
 40
0.0500
 41
0.0500
 70
0
  0
VERTEX
  8
52
 10
106.1510
 20
49.6990
 30
0.0000
 42
1.0000
  0
VERTEX
  8
52
 10
106.1510
 20
49.6490
 30
0.0000
  0
SEQEND
  8
0
  0
POLYLINE
  8
52
 66
1
 10
0.0000
 20
0.0000
 30
0.0000
 40
0.1000
 41
0.1000
 70
0
  0
VERTEX
  8
52
 10
107.9290
 20
49.6740
 30
0.0000
  0
VERTEX
  8
52
 10
107.9290
 20
49.1660
 30
0.0000
  0
SEQEND
  8
0
  0
POLYLINE
  8
52
 66
1
 10
0.0000
 20
0.0000
 30
0.0000
 40
0.0500
 41
0.0500
 70
0
  0
VERTEX
  8
52
 10
107.9040
 20
49.1660
 30
0.0000
 42
1.0000
  0
VERTEX
  8
52
 10
107.9540
 20
49.1660
 30
0.0000
  0
SEQEND
  8
0
  0
POLYLINE
  8
52
 66
1
 10
0.0000
 20
0.0000
 30
0.0000
 40
0.0500
 41
0.0500
 70
0
  0
VERTEX
  8
52
 10
107.9540
 20
49.6740
 30
0.0000
 42
1.0000
  0
VERTEX
  8
52
 10
107.9040
 20
49.6740
 30
0.0000
  0
SEQEND
  8
0
  0
POLYLINE
  8
52
 66
1
 10
0.0000
 20
0.0000
 30
0.0000
 40
0.1000
 41
0.1000
 70
0
  0
VERTEX
  8
52
 10
107.9290
 20
49.1660
 30
0.0000
  0
VERTEX
  8
52
 10
107.4210
 20
49.1660
 30
0.0000
  0
SEQEND
  8
0
  0
POLYLINE
  8
52
 66
1
 10
0.0000
 20
0.0000
 30
0.0000
 40
0.0500
 41
0.0500
 70
0
  0
VERTEX
  8
52
 10
107.4210
 20
49.1910
 30
0.0000
 42
1.0000
  0
VERTEX
  8
52
 10
107.4210
 20
49.1410
 30
0.0000
  0
SEQEND
  8
0
  0
POLYLINE
  8
52
 66
1
 10
0.0000
 20
0.0000
 30
0.0000
 40
0.0500
 41
0.0500
 70
0
  0
VERTEX
  8
52
 10
107.9290
 20
49.1410
 30
0.0000
 42
1.0000
  0
VERTEX
  8
52
 10
107.9290
 20
49.1910
 30
0.0000
  0
SEQEND
  8
0
  0
POLYLINE
  8
52
 66
1
 10
0.0000
 20
0.0000
 30
0.0000
 40
0.1000
 41
0.1000
 70
0
  0
VERTEX
  8
52
 10
107.4210
 20
49.6740
 30
0.0000
  0
VERTEX
  8
52
 10
107.9290
 20
49.6740
 30
0.0000
  0
SEQEND
  8
0
  0
POLYLINE
  8
52
 66
1
 10
0.0000
 20
0.0000
 30
0.0000
 40
0.0500
 41
0.0500
 70
0
  0
VERTEX
  8
52
 10
107.9290
 20
49.6490
 30
0.0000
 42
1.0000
  0
VERTEX
  8
52
 10
107.9290
 20
49.6990
 30
0.0000
  0
SEQEND
  8
0
  0
POLYLINE
  8
52
 66
1
 10
0.0000
 20
0.0000
 30
0.0000
 40
0.0500
 41
0.0500
 70
0
  0
VERTEX
  8
52
 10
107.4210
 20
49.6990
 30
0.0000
 42
1.0000
  0
VERTEX
  8
52
 10
107.4210
 20
49.6490
 30
0.0000
  0
SEQEND
  8
0
  0
POLYLINE
  8
52
 66
1
 10
0.0000
 20
0.0000
 30
0.0000
 40
0.1000
 41
0.1000
 70
0
  0
VERTEX
  8
52
 10
104.4900
 20
45.6350
 30
0.0000
  0
VERTEX
  8
52
 10
104.4900
 20
58.2850
 30
0.0000
  0
SEQEND
  8
0
  0
POLYLINE
  8
52
 66
1
 10
0.0000
 20
0.0000
 30
0.0000
 40
0.0500
 41
0.0500
 70
0
  0
VERTEX
  8
52
 10
104.5150
 20
58.2850
 30
0.0000
 42
1.0000
  0
VERTEX
  8
52
 10
104.4650
 20
58.2850
 30
0.0000
  0
SEQEND
  8
0
  0
POLYLINE
  8
52
 66
1
 10
0.0000
 20
0.0000
 30
0.0000
 40
0.0500
 41
0.0500
 70
0
  0
VERTEX
  8
52
 10
104.4650
 20
45.6350
 30
0.0000
 42
1.0000
  0
VERTEX
  8
52
 10
104.5150
 20
45.6350
 30
0.0000
  0
SEQEND
  8
0
  0
POLYLINE
  8
52
 66
1
 10
0.0000
 20
0.0000
 30
0.0000
 40
0.1000
 41
0.1000
 70
0
  0
VERTEX
  8
52
 10
109.5900
 20
58.2850
 30
0.0000
  0
VERTEX
  8
52
 10
109.5900
 20
52.9600
 30
0.0000
  0
SEQEND
  8
0
  0
POLYLINE
  8
52
 66
1
 10
0.0000
 20
0.0000
 30
0.0000
 40
0.0500
 41
0.0500
 70
0
  0
VERTEX
  8
52
 10
109.5650
 20
52.9600
 30
0.0000
 42
1.0000
  0
VERTEX
  8
52
 10
109.6150
 20
52.9600
 30
0.0000
  0
SEQEND
  8
0
  0
POLYLINE
  8
52
 66
1
 10
0.0000
 20
0.0000
 30
0.0000
 40
0.0500
 41
0.0500
 70
0
  0
VERTEX
  8
52
 10
109.6150
 20
58.2850
 30
0.0000
 42
1.0000
  0
VERTEX
  8
52
 10
109.5650
 20
58.2850
 30
0.0000
  0
SEQEND
  8
0
  0
POLYLINE
  8
52
 66
1
 10
0.0000
 20
0.0000
 30
0.0000
 40
0.1000
 41
0.1000
 70
0
  0
VERTEX
  8
52
 10
109.5900
 20
52.9600
 30
0.0000
  0
VERTEX
  8
52
 10
109.5900
 20
50.9600
 30
0.0000
  0
SEQEND
  8
0
  0
POLYLINE
  8
52
 66
1
 10
0.0000
 20
0.0000
 30
0.0000
 40
0.0500
 41
0.0500
 70
0
  0
VERTEX
  8
52
 10
109.5650
 20
50.9600
 30
0.0000
 42
1.0000
  0
VERTEX
  8
52
 10
109.6150
 20
50.9600
 30
0.0000
  0
SEQEND
  8
0
  0
POLYLINE
  8
52
 66
1
 10
0.0000
 20
0.0000
 30
0.0000
 40
0.0500
 41
0.0500
 70
0
  0
VERTEX
  8
52
 10
109.6150
 20
52.9600
 30
0.0000
 42
1.0000
  0
VERTEX
  8
52
 10
109.5650
 20
52.9600
 30
0.0000
  0
SEQEND
  8
0
  0
POLYLINE
  8
52
 66
1
 10
0.0000
 20
0.0000
 30
0.0000
 40
0.1000
 41
0.1000
 70
0
  0
VERTEX
  8
52
 10
109.5900
 20
50.9600
 30
0.0000
  0
VERTEX
  8
52
 10
109.5900
 20
45.6350
 30
0.0000
  0
SEQEND
  8
0
  0
POLYLINE
  8
52
 66
1
 10
0.0000
 20
0.0000
 30
0.0000
 40
0.0500
 41
0.0500
 70
0
  0
VERTEX
  8
52
 10
109.5650
 20
45.6350
 30
0.0000
 42
1.0000
  0
VERTEX
  8
52
 10
109.6150
 20
45.6350
 30
0.0000
  0
SEQEND
  8
0
  0
POLYLINE
  8
52
 66
1
 10
0.0000
 20
0.0000
 30
0.0000
 40
0.0500
 41
0.0500
 70
0
  0
VERTEX
  8
52
 10
109.6150
 20
50.9600
 30
0.0000
 42
1.0000
  0
VERTEX
  8
52
 10
109.5650
 20
50.9600
 30
0.0000
  0
SEQEND
  8
0
  0
POLYLINE
  8
52
 66
1
 10
0.0000
 20
0.0000
 30
0.0000
 40
0.1000
 41
0.1000
 70
0
  0
VERTEX
  8
52
 10
106.6590
 20
54.7540
 30
0.0000
  0
VERTEX
  8
52
 10
106.6590
 20
54.2460
 30
0.0000
  0
SEQEND
  8
0
  0
POLYLINE
  8
52
 66
1
 10
0.0000
 20
0.0000
 30
0.0000
 40
0.0500
 41
0.0500
 70
0
  0
VERTEX
  8
52
 10
106.6340
 20
54.2460
 30
0.0000
 42
1.0000
  0
VERTEX
  8
52
 10
106.6840
 20
54.2460
 30
0.0000
  0
SEQEND
  8
0
  0
POLYLINE
  8
52
 66
1
 10
0.0000
 20
0.0000
 30
0.0000
 40
0.0500
 41
0.0500
 70
0
  0
VERTEX
  8
52
 10
106.6840
 20
54.7540
 30
0.0000
 42
1.0000
  0
VERTEX
  8
52
 10
106.6340
 20
54.7540
 30
0.0000
  0
SEQEND
  8
0
  0
POLYLINE
  8
52
 66
1
 10
0.0000
 20
0.0000
 30
0.0000
 40
0.1000
 41
0.1000
 70
0
  0
VERTEX
  8
52
 10
106.6590
 20
53.4840
 30
0.0000
  0
VERTEX
  8
52
 10
106.6590
 20
52.9760
 30
0.0000
  0
SEQEND
  8
0
  0
POLYLINE
  8
52
 66
1
 10
0.0000
 20
0.0000
 30
0.0000
 40
0.0500
 41
0.0500
 70
0
  0
VERTEX
  8
52
 10
106.6340
 20
52.9760
 30
0.0000
 42
1.0000
  0
VERTEX
  8
52
 10
106.6840
 20
52.9760
 30
0.0000
  0
SEQEND
  8
0
  0
POLYLINE
  8
52
 66
1
 10
0.0000
 20
0.0000
 30
0.0000
 40
0.0500
 41
0.0500
 70
0
  0
VERTEX
  8
52
 10
106.6840
 20
53.4840
 30
0.0000
 42
1.0000
  0
VERTEX
  8
52
 10
106.6340
 20
53.4840
 30
0.0000
  0
SEQEND
  8
0
  0
POLYLINE
  8
52
 66
1
 10
0.0000
 20
0.0000
 30
0.0000
 40
0.1000
 41
0.1000
 70
0
  0
VERTEX
  8
52
 10
106.6590
 20
52.2140
 30
0.0000
  0
VERTEX
  8
52
 10
106.6590
 20
51.7060
 30
0.0000
  0
SEQEND
  8
0
  0
POLYLINE
  8
52
 66
1
 10
0.0000
 20
0.0000
 30
0.0000
 40
0.0500
 41
0.0500
 70
0
  0
VERTEX
  8
52
 10
106.6340
 20
51.7060
 30
0.0000
 42
1.0000
  0
VERTEX
  8
52
 10
106.6840
 20
51.7060
 30
0.0000
  0
SEQEND
  8
0
  0
POLYLINE
  8
52
 66
1
 10
0.0000
 20
0.0000
 30
0.0000
 40
0.0500
 41
0.0500
 70
0
  0
VERTEX
  8
52
 10
106.6840
 20
52.2140
 30
0.0000
 42
1.0000
  0
VERTEX
  8
52
 10
106.6340
 20
52.2140
 30
0.0000
  0
SEQEND
  8
0
  0
POLYLINE
  8
52
 66
1
 10
0.0000
 20
0.0000
 30
0.0000
 40
0.1000
 41
0.1000
 70
0
  0
VERTEX
  8
52
 10
106.6590
 20
50.9440
 30
0.0000
  0
VERTEX
  8
52
 10
106.6590
 20
50.4360
 30
0.0000
  0
SEQEND
  8
0
  0
POLYLINE
  8
52
 66
1
 10
0.0000
 20
0.0000
 30
0.0000
 40
0.0500
 41
0.0500
 70
0
  0
VERTEX
  8
52
 10
106.6340
 20
50.4360
 30
0.0000
 42
1.0000
  0
VERTEX
  8
52
 10
106.6840
 20
50.4360
 30
0.0000
  0
SEQEND
  8
0
  0
POLYLINE
  8
52
 66
1
 10
0.0000
 20
0.0000
 30
0.0000
 40
0.0500
 41
0.0500
 70
0
  0
VERTEX
  8
52
 10
106.6840
 20
50.9440
 30
0.0000
 42
1.0000
  0
VERTEX
  8
52
 10
106.6340
 20
50.9440
 30
0.0000
  0
SEQEND
  8
0
  0
POLYLINE
  8
52
 66
1
 10
0.0000
 20
0.0000
 30
0.0000
 40
0.1000
 41
0.1000
 70
0
  0
VERTEX
  8
52
 10
106.6590
 20
49.6740
 30
0.0000
  0
VERTEX
  8
52
 10
106.6590
 20
49.1660
 30
0.0000
  0
SEQEND
  8
0
  0
POLYLINE
  8
52
 66
1
 10
0.0000
 20
0.0000
 30
0.0000
 40
0.0500
 41
0.0500
 70
0
  0
VERTEX
  8
52
 10
106.6340
 20
49.1660
 30
0.0000
 42
1.0000
  0
VERTEX
  8
52
 10
106.6840
 20
49.1660
 30
0.0000
  0
SEQEND
  8
0
  0
POLYLINE
  8
52
 66
1
 10
0.0000
 20
0.0000
 30
0.0000
 40
0.0500
 41
0.0500
 70
0
  0
VERTEX
  8
52
 10
106.6840
 20
49.6740
 30
0.0000
 42
1.0000
  0
VERTEX
  8
52
 10
106.6340
 20
49.6740
 30
0.0000
  0
SEQEND
  8
0
  0
POLYLINE
  8
52
 66
1
 10
0.0000
 20
0.0000
 30
0.0000
 40
0.1000
 41
0.1000
 70
0
  0
VERTEX
  8
52
 10
107.4210
 20
54.2460
 30
0.0000
  0
VERTEX
  8
52
 10
107.4210
 20
54.7540
 30
0.0000
  0
SEQEND
  8
0
  0
POLYLINE
  8
52
 66
1
 10
0.0000
 20
0.0000
 30
0.0000
 40
0.0500
 41
0.0500
 70
0
  0
VERTEX
  8
52
 10
107.4460
 20
54.7540
 30
0.0000
 42
1.0000
  0
VERTEX
  8
52
 10
107.3960
 20
54.7540
 30
0.0000
  0
SEQEND
  8
0
  0
POLYLINE
  8
52
 66
1
 10
0.0000
 20
0.0000
 30
0.0000
 40
0.0500
 41
0.0500
 70
0
  0
VERTEX
  8
52
 10
107.3960
 20
54.2460
 30
0.0000
 42
1.0000
  0
VERTEX
  8
52
 10
107.4460
 20
54.2460
 30
0.0000
  0
SEQEND
  8
0
  0
POLYLINE
  8
52
 66
1
 10
0.0000
 20
0.0000
 30
0.0000
 40
0.1000
 41
0.1000
 70
0
  0
VERTEX
  8
52
 10
107.4210
 20
52.9760
 30
0.0000
  0
VERTEX
  8
52
 10
107.4210
 20
53.4840
 30
0.0000
  0
SEQEND
  8
0
  0
POLYLINE
  8
52
 66
1
 10
0.0000
 20
0.0000
 30
0.0000
 40
0.0500
 41
0.0500
 70
0
  0
VERTEX
  8
52
 10
107.4460
 20
53.4840
 30
0.0000
 42
1.0000
  0
VERTEX
  8
52
 10
107.3960
 20
53.4840
 30
0.0000
  0
SEQEND
  8
0
  0
POLYLINE
  8
52
 66
1
 10
0.0000
 20
0.0000
 30
0.0000
 40
0.0500
 41
0.0500
 70
0
  0
VERTEX
  8
52
 10
107.3960
 20
52.9760
 30
0.0000
 42
1.0000
  0
VERTEX
  8
52
 10
107.4460
 20
52.9760
 30
0.0000
  0
SEQEND
  8
0
  0
POLYLINE
  8
52
 66
1
 10
0.0000
 20
0.0000
 30
0.0000
 40
0.1000
 41
0.1000
 70
0
  0
VERTEX
  8
52
 10
107.4210
 20
51.7060
 30
0.0000
  0
VERTEX
  8
52
 10
107.4210
 20
52.2140
 30
0.0000
  0
SEQEND
  8
0
  0
POLYLINE
  8
52
 66
1
 10
0.0000
 20
0.0000
 30
0.0000
 40
0.0500
 41
0.0500
 70
0
  0
VERTEX
  8
52
 10
107.4460
 20
52.2140
 30
0.0000
 42
1.0000
  0
VERTEX
  8
52
 10
107.3960
 20
52.2140
 30
0.0000
  0
SEQEND
  8
0
  0
POLYLINE
  8
52
 66
1
 10
0.0000
 20
0.0000
 30
0.0000
 40
0.0500
 41
0.0500
 70
0
  0
VERTEX
  8
52
 10
107.3960
 20
51.7060
 30
0.0000
 42
1.0000
  0
VERTEX
  8
52
 10
107.4460
 20
51.7060
 30
0.0000
  0
SEQEND
  8
0
  0
POLYLINE
  8
52
 66
1
 10
0.0000
 20
0.0000
 30
0.0000
 40
0.1000
 41
0.1000
 70
0
  0
VERTEX
  8
52
 10
107.4210
 20
50.4360
 30
0.0000
  0
VERTEX
  8
52
 10
107.4210
 20
50.9440
 30
0.0000
  0
SEQEND
  8
0
  0
POLYLINE
  8
52
 66
1
 10
0.0000
 20
0.0000
 30
0.0000
 40
0.0500
 41
0.0500
 70
0
  0
VERTEX
  8
52
 10
107.4460
 20
50.9440
 30
0.0000
 42
1.0000
  0
VERTEX
  8
52
 10
107.3960
 20
50.9440
 30
0.0000
  0
SEQEND
  8
0
  0
POLYLINE
  8
52
 66
1
 10
0.0000
 20
0.0000
 30
0.0000
 40
0.0500
 41
0.0500
 70
0
  0
VERTEX
  8
52
 10
107.3960
 20
50.4360
 30
0.0000
 42
1.0000
  0
VERTEX
  8
52
 10
107.4460
 20
50.4360
 30
0.0000
  0
SEQEND
  8
0
  0
POLYLINE
  8
52
 66
1
 10
0.0000
 20
0.0000
 30
0.0000
 40
0.1000
 41
0.1000
 70
0
  0
VERTEX
  8
52
 10
107.4210
 20
49.1660
 30
0.0000
  0
VERTEX
  8
52
 10
107.4210
 20
49.6740
 30
0.0000
  0
SEQEND
  8
0
  0
POLYLINE
  8
52
 66
1
 10
0.0000
 20
0.0000
 30
0.0000
 40
0.0500
 41
0.0500
 70
0
  0
VERTEX
  8
52
 10
107.4460
 20
49.6740
 30
0.0000
 42
1.0000
  0
VERTEX
  8
52
 10
107.3960
 20
49.6740
 30
0.0000
  0
SEQEND
  8
0
  0
POLYLINE
  8
52
 66
1
 10
0.0000
 20
0.0000
 30
0.0000
 40
0.0500
 41
0.0500
 70
0
  0
VERTEX
  8
52
 10
107.3960
 20
49.1660
 30
0.0000
 42
1.0000
  0
VERTEX
  8
52
 10
107.4460
 20
49.1660
 30
0.0000
  0
SEQEND
  8
0
  0
POLYLINE
  8
52
 66
1
 10
0.0000
 20
0.0000
 30
0.0000
 40
0.1524
 41
0.1524
 70
0
  0
VERTEX
  8
52
 10
19.8096
 20
52.3636
 30
0.0000
  0
VERTEX
  8
52
 10
21.1304
 20
52.3636
 30
0.0000
  0
SEQEND
  8
0
  0
POLYLINE
  8
52
 66
1
 10
0.0000
 20
0.0000
 30
0.0000
 40
0.0762
 41
0.0762
 70
0
  0
VERTEX
  8
52
 10
21.1304
 20
52.3255
 30
0.0000
 42
1.0000
  0
VERTEX
  8
52
 10
21.1304
 20
52.4017
 30
0.0000
  0
SEQEND
  8
0
  0
POLYLINE
  8
52
 66
1
 10
0.0000
 20
0.0000
 30
0.0000
 40
0.0762
 41
0.0762
 70
0
  0
VERTEX
  8
52
 10
19.8096
 20
52.4017
 30
0.0000
 42
1.0000
  0
VERTEX
  8
52
 10
19.8096
 20
52.3255
 30
0.0000
  0
SEQEND
  8
0
  0
POLYLINE
  8
52
 66
1
 10
0.0000
 20
0.0000
 30
0.0000
 40
0.1524
 41
0.1524
 70
0
  0
VERTEX
  8
52
 10
21.1304
 20
52.3636
 30
0.0000
  0
VERTEX
  8
52
 10
21.1304
 20
54.6084
 30
0.0000
  0
SEQEND
  8
0
  0
POLYLINE
  8
52
 66
1
 10
0.0000
 20
0.0000
 30
0.0000
 40
0.0762
 41
0.0762
 70
0
  0
VERTEX
  8
52
 10
21.1685
 20
54.6084
 30
0.0000
 42
1.0000
  0
VERTEX
  8
52
 10
21.0923
 20
54.6084
 30
0.0000
  0
SEQEND
  8
0
  0
POLYLINE
  8
52
 66
1
 10
0.0000
 20
0.0000
 30
0.0000
 40
0.0762
 41
0.0762
 70
0
  0
VERTEX
  8
52
 10
21.0923
 20
52.3636
 30
0.0000
 42
1.0000
  0
VERTEX
  8
52
 10
21.1685
 20
52.3636
 30
0.0000
  0
SEQEND
  8
0
  0
POLYLINE
  8
52
 66
1
 10
0.0000
 20
0.0000
 30
0.0000
 40
0.1524
 41
0.1524
 70
0
  0
VERTEX
  8
52
 10
21.1304
 20
54.6084
 30
0.0000
  0
VERTEX
  8
52
 10
19.8096
 20
54.6084
 30
0.0000
  0
SEQEND
  8
0
  0
POLYLINE
  8
52
 66
1
 10
0.0000
 20
0.0000
 30
0.0000
 40
0.0762
 41
0.0762
 70
0
  0
VERTEX
  8
52
 10
19.8096
 20
54.6465
 30
0.0000
 42
1.0000
  0
VERTEX
  8
52
 10
19.8096
 20
54.5703
 30
0.0000
  0
SEQEND
  8
0
  0
POLYLINE
  8
52
 66
1
 10
0.0000
 20
0.0000
 30
0.0000
 40
0.0762
 41
0.0762
 70
0
  0
VERTEX
  8
52
 10
21.1304
 20
54.5703
 30
0.0000
 42
1.0000
  0
VERTEX
  8
52
 10
21.1304
 20
54.6465
 30
0.0000
  0
SEQEND
  8
0
  0
POLYLINE
  8
52
 66
1
 10
0.0000
 20
0.0000
 30
0.0000
 40
0.1524
 41
0.1524
 70
0
  0
VERTEX
  8
52
 10
19.8096
 20
54.6084
 30
0.0000
  0
VERTEX
  8
52
 10
19.8096
 20
52.3636
 30
0.0000
  0
SEQEND
  8
0
  0
POLYLINE
  8
52
 66
1
 10
0.0000
 20
0.0000
 30
0.0000
 40
0.0762
 41
0.0762
 70
0
  0
VERTEX
  8
52
 10
19.7715
 20
52.3636
 30
0.0000
 42
1.0000
  0
VERTEX
  8
52
 10
19.8477
 20
52.3636
 30
0.0000
  0
SEQEND
  8
0
  0
POLYLINE
  8
52
 66
1
 10
0.0000
 20
0.0000
 30
0.0000
 40
0.0762
 41
0.0762
 70
0
  0
VERTEX
  8
52
 10
19.8477
 20
54.6084
 30
0.0000
 42
1.0000
  0
VERTEX
  8
52
 10
19.7715
 20
54.6084
 30
0.0000
  0
SEQEND
  8
0
  0
POLYLINE
  8
52
 66
1
 10
0.0000
 20
0.0000
 30
0.0000
 40
0.1524
 41
0.1524
 70
0
  0
VERTEX
  8
52
 10
73.0454
 20
47.3539
 30
0.0000
  0
VERTEX
  8
52
 10
74.3662
 20
47.3539
 30
0.0000
  0
SEQEND
  8
0
  0
POLYLINE
  8
52
 66
1
 10
0.0000
 20
0.0000
 30
0.0000
 40
0.0762
 41
0.0762
 70
0
  0
VERTEX
  8
52
 10
74.3662
 20
47.3158
 30
0.0000
 42
1.0000
  0
VERTEX
  8
52
 10
74.3662
 20
47.3920
 30
0.0000
  0
SEQEND
  8
0
  0
POLYLINE
  8
52
 66
1
 10
0.0000
 20
0.0000
 30
0.0000
 40
0.0762
 41
0.0762
 70
0
  0
VERTEX
  8
52
 10
73.0454
 20
47.3920
 30
0.0000
 42
1.0000
  0
VERTEX
  8
52
 10
73.0454
 20
47.3158
 30
0.0000
  0
SEQEND
  8
0
  0
POLYLINE
  8
52
 66
1
 10
0.0000
 20
0.0000
 30
0.0000
 40
0.1524
 41
0.1524
 70
0
  0
VERTEX
  8
52
 10
74.3662
 20
47.3539
 30
0.0000
  0
VERTEX
  8
52
 10
74.3662
 20
49.5987
 30
0.0000
  0
SEQEND
  8
0
  0
POLYLINE
  8
52
 66
1
 10
0.0000
 20
0.0000
 30
0.0000
 40
0.0762
 41
0.0762
 70
0
  0
VERTEX
  8
52
 10
74.4043
 20
49.5987
 30
0.0000
 42
1.0000
  0
VERTEX
  8
52
 10
74.3281
 20
49.5987
 30
0.0000
  0
SEQEND
  8
0
  0
POLYLINE
  8
52
 66
1
 10
0.0000
 20
0.0000
 30
0.0000
 40
0.0762
 41
0.0762
 70
0
  0
VERTEX
  8
52
 10
74.3281
 20
47.3539
 30
0.0000
 42
1.0000
  0
VERTEX
  8
52
 10
74.4043
 20
47.3539
 30
0.0000
  0
SEQEND
  8
0
  0
POLYLINE
  8
52
 66
1
 10
0.0000
 20
0.0000
 30
0.0000
 40
0.1524
 41
0.1524
 70
0
  0
VERTEX
  8
52
 10
74.3662
 20
49.5987
 30
0.0000
  0
VERTEX
  8
52
 10
73.0454
 20
49.5987
 30
0.0000
  0
SEQEND
  8
0
  0
POLYLINE
  8
52
 66
1
 10
0.0000
 20
0.0000
 30
0.0000
 40
0.0762
 41
0.0762
 70
0
  0
VERTEX
  8
52
 10
73.0454
 20
49.6368
 30
0.0000
 42
1.0000
  0
VERTEX
  8
52
 10
73.0454
 20
49.5606
 30
0.0000
  0
SEQEND
  8
0
  0
POLYLINE
  8
52
 66
1
 10
0.0000
 20
0.0000
 30
0.0000
 40
0.0762
 41
0.0762
 70
0
  0
VERTEX
  8
52
 10
74.3662
 20
49.5606
 30
0.0000
 42
1.0000
  0
VERTEX
  8
52
 10
74.3662
 20
49.6368
 30
0.0000
  0
SEQEND
  8
0
  0
POLYLINE
  8
52
 66
1
 10
0.0000
 20
0.0000
 30
0.0000
 40
0.1524
 41
0.1524
 70
0
  0
VERTEX
  8
52
 10
73.0454
 20
49.5987
 30
0.0000
  0
VERTEX
  8
52
 10
73.0454
 20
47.3539
 30
0.0000
  0
SEQEND
  8
0
  0
POLYLINE
  8
52
 66
1
 10
0.0000
 20
0.0000
 30
0.0000
 40
0.0762
 41
0.0762
 70
0
  0
VERTEX
  8
52
 10
73.0073
 20
47.3539
 30
0.0000
 42
1.0000
  0
VERTEX
  8
52
 10
73.0835
 20
47.3539
 30
0.0000
  0
SEQEND
  8
0
  0
POLYLINE
  8
52
 66
1
 10
0.0000
 20
0.0000
 30
0.0000
 40
0.0762
 41
0.0762
 70
0
  0
VERTEX
  8
52
 10
73.0835
 20
49.5987
 30
0.0000
 42
1.0000
  0
VERTEX
  8
52
 10
73.0073
 20
49.5987
 30
0.0000
  0
SEQEND
  8
0
  0
POLYLINE
  8
52
 66
1
 10
0.0000
 20
0.0000
 30
0.0000
 40
0.0500
 41
0.0500
 70
0
  0
VERTEX
  8
52
 10
106.7900
 20
39.7100
 30
0.0000
  0
VERTEX
  8
52
 10
110.4900
 20
39.7100
 30
0.0000
  0
SEQEND
  8
0
  0
POLYLINE
  8
52
 66
1
 10
0.0000
 20
0.0000
 30
0.0000
 40
0.0250
 41
0.0250
 70
0
  0
VERTEX
  8
52
 10
110.4900
 20
39.6975
 30
0.0000
 42
1.0000
  0
VERTEX
  8
52
 10
110.4900
 20
39.7225
 30
0.0000
  0
SEQEND
  8
0
  0
POLYLINE
  8
52
 66
1
 10
0.0000
 20
0.0000
 30
0.0000
 40
0.0250
 41
0.0250
 70
0
  0
VERTEX
  8
52
 10
106.7900
 20
39.7225
 30
0.0000
 42
1.0000
  0
VERTEX
  8
52
 10
106.7900
 20
39.6975
 30
0.0000
  0
SEQEND
  8
0
  0
POLYLINE
  8
52
 66
1
 10
0.0000
 20
0.0000
 30
0.0000
 40
0.0500
 41
0.0500
 70
0
  0
VERTEX
  8
52
 10
110.4900
 20
39.7100
 30
0.0000
  0
VERTEX
  8
52
 10
110.4900
 20
43.2100
 30
0.0000
  0
SEQEND
  8
0
  0
POLYLINE
  8
52
 66
1
 10
0.0000
 20
0.0000
 30
0.0000
 40
0.0250
 41
0.0250
 70
0
  0
VERTEX
  8
52
 10
110.5025
 20
43.2100
 30
0.0000
 42
1.0000
  0
VERTEX
  8
52
 10
110.4775
 20
43.2100
 30
0.0000
  0
SEQEND
  8
0
  0
POLYLINE
  8
52
 66
1
 10
0.0000
 20
0.0000
 30
0.0000
 40
0.0250
 41
0.0250
 70
0
  0
VERTEX
  8
52
 10
110.4775
 20
39.7100
 30
0.0000
 42
1.0000
  0
VERTEX
  8
52
 10
110.5025
 20
39.7100
 30
0.0000
  0
SEQEND
  8
0
  0
POLYLINE
  8
52
 66
1
 10
0.0000
 20
0.0000
 30
0.0000
 40
0.0500
 41
0.0500
 70
0
  0
VERTEX
  8
52
 10
110.4900
 20
43.2100
 30
0.0000
  0
VERTEX
  8
52
 10
106.7900
 20
43.2100
 30
0.0000
  0
SEQEND
  8
0
  0
POLYLINE
  8
52
 66
1
 10
0.0000
 20
0.0000
 30
0.0000
 40
0.0250
 41
0.0250
 70
0
  0
VERTEX
  8
52
 10
106.7900
 20
43.2225
 30
0.0000
 42
1.0000
  0
VERTEX
  8
52
 10
106.7900
 20
43.1975
 30
0.0000
  0
SEQEND
  8
0
  0
POLYLINE
  8
52
 66
1
 10
0.0000
 20
0.0000
 30
0.0000
 40
0.0250
 41
0.0250
 70
0
  0
VERTEX
  8
52
 10
110.4900
 20
43.1975
 30
0.0000
 42
1.0000
  0
VERTEX
  8
52
 10
110.4900
 20
43.2225
 30
0.0000
  0
SEQEND
  8
0
  0
POLYLINE
  8
52
 66
1
 10
0.0000
 20
0.0000
 30
0.0000
 40
0.0500
 41
0.0500
 70
0
  0
VERTEX
  8
52
 10
106.7900
 20
43.2100
 30
0.0000
  0
VERTEX
  8
52
 10
106.7900
 20
39.7100
 30
0.0000
  0
SEQEND
  8
0
  0
POLYLINE
  8
52
 66
1
 10
0.0000
 20
0.0000
 30
0.0000
 40
0.0250
 41
0.0250
 70
0
  0
VERTEX
  8
52
 10
106.7775
 20
39.7100
 30
0.0000
 42
1.0000
  0
VERTEX
  8
52
 10
106.8025
 20
39.7100
 30
0.0000
  0
SEQEND
  8
0
  0
POLYLINE
  8
52
 66
1
 10
0.0000
 20
0.0000
 30
0.0000
 40
0.0250
 41
0.0250
 70
0
  0
VERTEX
  8
52
 10
106.8025
 20
43.2100
 30
0.0000
 42
1.0000
  0
VERTEX
  8
52
 10
106.7775
 20
43.2100
 30
0.0000
  0
SEQEND
  8
0
  0
POLYLINE
  8
52
 66
1
 10
0.0000
 20
0.0000
 30
0.0000
 40
0.1000
 41
0.1000
 70
0
  0
VERTEX
  8
52
 10
107.9900
 20
40.0100
 30
0.0000
  0
VERTEX
  8
52
 10
109.2900
 20
40.0100
 30
0.0000
  0
SEQEND
  8
0
  0
POLYLINE
  8
52
 66
1
 10
0.0000
 20
0.0000
 30
0.0000
 40
0.0500
 41
0.0500
 70
0
  0
VERTEX
  8
52
 10
109.2900
 20
39.9850
 30
0.0000
 42
1.0000
  0
VERTEX
  8
52
 10
109.2900
 20
40.0350
 30
0.0000
  0
SEQEND
  8
0
  0
POLYLINE
  8
52
 66
1
 10
0.0000
 20
0.0000
 30
0.0000
 40
0.0500
 41
0.0500
 70
0
  0
VERTEX
  8
52
 10
107.9900
 20
40.0350
 30
0.0000
 42
1.0000
  0
VERTEX
  8
52
 10
107.9900
 20
39.9850
 30
0.0000
  0
SEQEND
  8
0
  0
POLYLINE
  8
52
 66
1
 10
0.0000
 20
0.0000
 30
0.0000
 40
0.1000
 41
0.1000
 70
0
  0
VERTEX
  8
52
 10
109.2900
 20
40.0100
 30
0.0000
  0
VERTEX
  8
52
 10
109.2900
 20
42.9100
 30
0.0000
  0
SEQEND
  8
0
  0
POLYLINE
  8
52
 66
1
 10
0.0000
 20
0.0000
 30
0.0000
 40
0.0500
 41
0.0500
 70
0
  0
VERTEX
  8
52
 10
109.3150
 20
42.9100
 30
0.0000
 42
1.0000
  0
VERTEX
  8
52
 10
109.2650
 20
42.9100
 30
0.0000
  0
SEQEND
  8
0
  0
POLYLINE
  8
52
 66
1
 10
0.0000
 20
0.0000
 30
0.0000
 40
0.0500
 41
0.0500
 70
0
  0
VERTEX
  8
52
 10
109.2650
 20
40.0100
 30
0.0000
 42
1.0000
  0
VERTEX
  8
52
 10
109.3150
 20
40.0100
 30
0.0000
  0
SEQEND
  8
0
  0
POLYLINE
  8
52
 66
1
 10
0.0000
 20
0.0000
 30
0.0000
 40
0.1000
 41
0.1000
 70
0
  0
VERTEX
  8
52
 10
109.2900
 20
42.9100
 30
0.0000
  0
VERTEX
  8
52
 10
107.9900
 20
42.9100
 30
0.0000
  0
SEQEND
  8
0
  0
POLYLINE
  8
52
 66
1
 10
0.0000
 20
0.0000
 30
0.0000
 40
0.0500
 41
0.0500
 70
0
  0
VERTEX
  8
52
 10
107.9900
 20
42.9350
 30
0.0000
 42
1.0000
  0
VERTEX
  8
52
 10
107.9900
 20
42.8850
 30
0.0000
  0
SEQEND
  8
0
  0
POLYLINE
  8
52
 66
1
 10
0.0000
 20
0.0000
 30
0.0000
 40
0.0500
 41
0.0500
 70
0
  0
VERTEX
  8
52
 10
109.2900
 20
42.8850
 30
0.0000
 42
1.0000
  0
VERTEX
  8
52
 10
109.2900
 20
42.9350
 30
0.0000
  0
SEQEND
  8
0
  0
POLYLINE
  8
52
 66
1
 10
0.0000
 20
0.0000
 30
0.0000
 40
0.1000
 41
0.1000
 70
0
  0
VERTEX
  8
52
 10
107.9900
 20
42.9100
 30
0.0000
  0
VERTEX
  8
52
 10
107.9900
 20
40.0100
 30
0.0000
  0
SEQEND
  8
0
  0
POLYLINE
  8
52
 66
1
 10
0.0000
 20
0.0000
 30
0.0000
 40
0.0500
 41
0.0500
 70
0
  0
VERTEX
  8
52
 10
107.9650
 20
40.0100
 30
0.0000
 42
1.0000
  0
VERTEX
  8
52
 10
108.0150
 20
40.0100
 30
0.0000
  0
SEQEND
  8
0
  0
POLYLINE
  8
52
 66
1
 10
0.0000
 20
0.0000
 30
0.0000
 40
0.0500
 41
0.0500
 70
0
  0
VERTEX
  8
52
 10
108.0150
 20
42.9100
 30
0.0000
 42
1.0000
  0
VERTEX
  8
52
 10
107.9650
 20
42.9100
 30
0.0000
  0
SEQEND
  8
0
  0
POLYLINE
  8
52
 66
1
 10
0.0000
 20
0.0000
 30
0.0000
 40
0.1000
 41
0.1000
 70
0
  0
VERTEX
  8
52
 10
107.9900
 20
40.9700
 30
0.0000
  0
VERTEX
  8
52
 10
108.9500
 20
40.0100
 30
0.0000
  0
SEQEND
  8
0
  0
POLYLINE
  8
52
 66
1
 10
0.0000
 20
0.0000
 30
0.0000
 40
0.0500
 41
0.0500
 70
0
  0
VERTEX
  8
52
 10
108.9323
 20
39.9923
 30
0.0000
 42
1.0000
  0
VERTEX
  8
52
 10
108.9677
 20
40.0277
 30
0.0000
  0
SEQEND
  8
0
  0
POLYLINE
  8
52
 66
1
 10
0.0000
 20
0.0000
 30
0.0000
 40
0.0500
 41
0.0500
 70
0
  0
VERTEX
  8
52
 10
108.0077
 20
40.9877
 30
0.0000
 42
1.0000
  0
VERTEX
  8
52
 10
107.9723
 20
40.9523
 30
0.0000
  0
SEQEND
  8
0
  0
POLYLINE
  8
52
 66
1
 10
0.0000
 20
0.0000
 30
0.0000
 40
0.0500
 41
0.0500
 70
0
  0
VERTEX
  8
52
 10
33.8750
 20
27.6800
 30
0.0000
  0
VERTEX
  8
52
 10
26.0250
 20
27.6800
 30
0.0000
  0
SEQEND
  8
0
  0
POLYLINE
  8
52
 66
1
 10
0.0000
 20
0.0000
 30
0.0000
 40
0.0250
 41
0.0250
 70
0
  0
VERTEX
  8
52
 10
26.0250
 20
27.6925
 30
0.0000
 42
1.0000
  0
VERTEX
  8
52
 10
26.0250
 20
27.6675
 30
0.0000
  0
SEQEND
  8
0
  0
POLYLINE
  8
52
 66
1
 10
0.0000
 20
0.0000
 30
0.0000
 40
0.0250
 41
0.0250
 70
0
  0
VERTEX
  8
52
 10
33.8750
 20
27.6675
 30
0.0000
 42
1.0000
  0
VERTEX
  8
52
 10
33.8750
 20
27.6925
 30
0.0000
  0
SEQEND
  8
0
  0
POLYLINE
  8
52
 66
1
 10
0.0000
 20
0.0000
 30
0.0000
 40
0.0500
 41
0.0500
 70
0
  0
VERTEX
  8
52
 10
26.0250
 20
27.6800
 30
0.0000
  0
VERTEX
  8
52
 10
26.0250
 20
22.1200
 30
0.0000
  0
SEQEND
  8
0
  0
POLYLINE
  8
52
 66
1
 10
0.0000
 20
0.0000
 30
0.0000
 40
0.0250
 41
0.0250
 70
0
  0
VERTEX
  8
52
 10
26.0125
 20
22.1200
 30
0.0000
 42
1.0000
  0
VERTEX
  8
52
 10
26.0375
 20
22.1200
 30
0.0000
  0
SEQEND
  8
0
  0
POLYLINE
  8
52
 66
1
 10
0.0000
 20
0.0000
 30
0.0000
 40
0.0250
 41
0.0250
 70
0
  0
VERTEX
  8
52
 10
26.0375
 20
27.6800
 30
0.0000
 42
1.0000
  0
VERTEX
  8
52
 10
26.0125
 20
27.6800
 30
0.0000
  0
SEQEND
  8
0
  0
POLYLINE
  8
52
 66
1
 10
0.0000
 20
0.0000
 30
0.0000
 40
0.0500
 41
0.0500
 70
0
  0
VERTEX
  8
52
 10
26.0250
 20
22.1200
 30
0.0000
  0
VERTEX
  8
52
 10
33.8750
 20
22.1200
 30
0.0000
  0
SEQEND
  8
0
  0
POLYLINE
  8
52
 66
1
 10
0.0000
 20
0.0000
 30
0.0000
 40
0.0250
 41
0.0250
 70
0
  0
VERTEX
  8
52
 10
33.8750
 20
22.1075
 30
0.0000
 42
1.0000
  0
VERTEX
  8
52
 10
33.8750
 20
22.1325
 30
0.0000
  0
SEQEND
  8
0
  0
POLYLINE
  8
52
 66
1
 10
0.0000
 20
0.0000
 30
0.0000
 40
0.0250
 41
0.0250
 70
0
  0
VERTEX
  8
52
 10
26.0250
 20
22.1325
 30
0.0000
 42
1.0000
  0
VERTEX
  8
52
 10
26.0250
 20
22.1075
 30
0.0000
  0
SEQEND
  8
0
  0
POLYLINE
  8
52
 66
1
 10
0.0000
 20
0.0000
 30
0.0000
 40
0.0500
 41
0.0500
 70
0
  0
VERTEX
  8
52
 10
33.8750
 20
22.1200
 30
0.0000
  0
VERTEX
  8
52
 10
33.8750
 20
27.6800
 30
0.0000
  0
SEQEND
  8
0
  0
POLYLINE
  8
52
 66
1
 10
0.0000
 20
0.0000
 30
0.0000
 40
0.0250
 41
0.0250
 70
0
  0
VERTEX
  8
52
 10
33.8875
 20
27.6800
 30
0.0000
 42
1.0000
  0
VERTEX
  8
52
 10
33.8625
 20
27.6800
 30
0.0000
  0
SEQEND
  8
0
  0
POLYLINE
  8
52
 66
1
 10
0.0000
 20
0.0000
 30
0.0000
 40
0.0250
 41
0.0250
 70
0
  0
VERTEX
  8
52
 10
33.8625
 20
22.1200
 30
0.0000
 42
1.0000
  0
VERTEX
  8
52
 10
33.8875
 20
22.1200
 30
0.0000
  0
SEQEND
  8
0
  0
POLYLINE
  8
52
 66
1
 10
0.0000
 20
0.0000
 30
0.0000
 40
0.1000
 41
0.1000
 70
0
  0
VERTEX
  8
52
 10
32.1500
 20
27.3800
 30
0.0000
  0
VERTEX
  8
52
 10
27.7500
 20
27.3800
 30
0.0000
  0
SEQEND
  8
0
  0
POLYLINE
  8
52
 66
1
 10
0.0000
 20
0.0000
 30
0.0000
 40
0.0500
 41
0.0500
 70
0
  0
VERTEX
  8
52
 10
27.7500
 20
27.4050
 30
0.0000
 42
1.0000
  0
VERTEX
  8
52
 10
27.7500
 20
27.3550
 30
0.0000
  0
SEQEND
  8
0
  0
POLYLINE
  8
52
 66
1
 10
0.0000
 20
0.0000
 30
0.0000
 40
0.0500
 41
0.0500
 70
0
  0
VERTEX
  8
52
 10
32.1500
 20
27.3550
 30
0.0000
 42
1.0000
  0
VERTEX
  8
52
 10
32.1500
 20
27.4050
 30
0.0000
  0
SEQEND
  8
0
  0
POLYLINE
  8
52
 66
1
 10
0.0000
 20
0.0000
 30
0.0000
 40
0.1000
 41
0.1000
 70
0
  0
VERTEX
  8
52
 10
27.7500
 20
27.3800
 30
0.0000
  0
VERTEX
  8
52
 10
27.7500
 20
22.4200
 30
0.0000
  0
SEQEND
  8
0
  0
POLYLINE
  8
52
 66
1
 10
0.0000
 20
0.0000
 30
0.0000
 40
0.0500
 41
0.0500
 70
0
  0
VERTEX
  8
52
 10
27.7250
 20
22.4200
 30
0.0000
 42
1.0000
  0
VERTEX
  8
52
 10
27.7750
 20
22.4200
 30
0.0000
  0
SEQEND
  8
0
  0
POLYLINE
  8
52
 66
1
 10
0.0000
 20
0.0000
 30
0.0000
 40
0.0500
 41
0.0500
 70
0
  0
VERTEX
  8
52
 10
27.7750
 20
27.3800
 30
0.0000
 42
1.0000
  0
VERTEX
  8
52
 10
27.7250
 20
27.3800
 30
0.0000
  0
SEQEND
  8
0
  0
POLYLINE
  8
52
 66
1
 10
0.0000
 20
0.0000
 30
0.0000
 40
0.1000
 41
0.1000
 70
0
  0
VERTEX
  8
52
 10
27.7500
 20
22.4200
 30
0.0000
  0
VERTEX
  8
52
 10
32.1500
 20
22.4200
 30
0.0000
  0
SEQEND
  8
0
  0
POLYLINE
  8
52
 66
1
 10
0.0000
 20
0.0000
 30
0.0000
 40
0.0500
 41
0.0500
 70
0
  0
VERTEX
  8
52
 10
32.1500
 20
22.3950
 30
0.0000
 42
1.0000
  0
VERTEX
  8
52
 10
32.1500
 20
22.4450
 30
0.0000
  0
SEQEND
  8
0
  0
POLYLINE
  8
52
 66
1
 10
0.0000
 20
0.0000
 30
0.0000
 40
0.0500
 41
0.0500
 70
0
  0
VERTEX
  8
52
 10
27.7500
 20
22.4450
 30
0.0000
 42
1.0000
  0
VERTEX
  8
52
 10
27.7500
 20
22.3950
 30
0.0000
  0
SEQEND
  8
0
  0
POLYLINE
  8
52
 66
1
 10
0.0000
 20
0.0000
 30
0.0000
 40
0.1000
 41
0.1000
 70
0
  0
VERTEX
  8
52
 10
32.1500
 20
22.4200
 30
0.0000
  0
VERTEX
  8
52
 10
32.1500
 20
27.3800
 30
0.0000
  0
SEQEND
  8
0
  0
POLYLINE
  8
52
 66
1
 10
0.0000
 20
0.0000
 30
0.0000
 40
0.0500
 41
0.0500
 70
0
  0
VERTEX
  8
52
 10
32.1750
 20
27.3800
 30
0.0000
 42
1.0000
  0
VERTEX
  8
52
 10
32.1250
 20
27.3800
 30
0.0000
  0
SEQEND
  8
0
  0
POLYLINE
  8
52
 66
1
 10
0.0000
 20
0.0000
 30
0.0000
 40
0.0500
 41
0.0500
 70
0
  0
VERTEX
  8
52
 10
32.1250
 20
22.4200
 30
0.0000
 42
1.0000
  0
VERTEX
  8
52
 10
32.1750
 20
22.4200
 30
0.0000
  0
SEQEND
  8
0
  0
POLYLINE
  8
52
 66
1
 10
0.0000
 20
0.0000
 30
0.0000
 40
0.1000
 41
0.1000
 70
0
  0
VERTEX
  8
52
 10
32.1500
 20
26.7300
 30
0.0000
  0
VERTEX
  8
52
 10
31.5000
 20
27.3800
 30
0.0000
  0
SEQEND
  8
0
  0
POLYLINE
  8
52
 66
1
 10
0.0000
 20
0.0000
 30
0.0000
 40
0.0500
 41
0.0500
 70
0
  0
VERTEX
  8
52
 10
31.5177
 20
27.3977
 30
0.0000
 42
1.0000
  0
VERTEX
  8
52
 10
31.4823
 20
27.3623
 30
0.0000
  0
SEQEND
  8
0
  0
POLYLINE
  8
52
 66
1
 10
0.0000
 20
0.0000
 30
0.0000
 40
0.0500
 41
0.0500
 70
0
  0
VERTEX
  8
52
 10
32.1323
 20
26.7123
 30
0.0000
 42
1.0000
  0
VERTEX
  8
52
 10
32.1677
 20
26.7477
 30
0.0000
  0
SEQEND
  8
0
  0
ENDSEC
  0
EOF
