0
SECTION
2
HEADER
9
$ANGDIR
70
1
9
$AUNITS
70
0
9
$PROJECTNAME
1
Connectors-MK2-1ch
9
$TDCREATE
40
2459747.84532878
9
$INSUNITS
70
4
0
ENDSEC
0
SECTION
2
ENTITIES
0
POLYLINE
66
1
8
outline
10
0.0
20
0.0
30
0.0
70
1
0
VERTEX
8
0
10
32.5
20
18.5
30
0
0
VERTEX
8
0
10
92
20
18.5
30
0
0
VERTEX
8
0
10
92
20
47
30
0
0
VERTEX
8
0
10
38.5
20
47
30
0
0
VERTEX
8
0
10
38.5
20
31
30
0
0
VERTEX
8
0
10
32.5
20
31
30
0
0
VERTEX
8
0
10
32.5
20
18.5
30
0
0
SEQEND
0
POLYLINE
66
1
8
1_copper
10
0.0
20
0.0
30
0.0
70
1
0
VERTEX
8
0
10
91.62461875000001
20
18.805609375
30
0
42
0.39258815634569955
0
VERTEX
8
0
10
91.6952
20
18.880996875
30
0
0
VERTEX
8
0
10
91.6952
20
46.5936
30
0
0
VERTEX
8
0
10
91.6943875
20
46.599218750000006
30
0
42
0.39258815634569955
0
VERTEX
8
0
10
91.619
20
46.6698
30
0
0
VERTEX
8
0
10
38.906396875
20
46.6698
30
0
0
VERTEX
8
0
10
38.900778125
20
46.6689875
30
0
42
0.39258815634569955
0
VERTEX
8
0
10
38.830196875
20
46.5936
30
0
0
VERTEX
8
0
10
38.830196875
20
30.863225
30
0
0
VERTEX
8
0
10
38.636771875
20
30.669800000000002
30
0
0
VERTEX
8
0
10
32.906396875
20
30.669800000000002
30
0
0
VERTEX
8
0
10
32.900778125
20
30.6689875
30
0
42
0.39258815634569955
0
VERTEX
8
0
10
32.830196875
20
30.593600000000002
30
0
0
VERTEX
8
0
10
32.830196875
20
18.880996875
30
0
0
VERTEX
8
0
10
32.831009375
20
18.875378125
30
0
42
0.39258815634569955
0
VERTEX
8
0
10
32.906396875
20
18.804796875
30
0
0
VERTEX
8
0
10
91.619
20
18.804796875
30
0
0
SEQEND
0
POLYLINE
66
1
8
1_copper
10
0.0
20
0.0
30
0.0
70
1
0
VERTEX
8
0
10
60.40083125
20
34.096000000000004
30
0
0
VERTEX
8
0
10
59.84805
20
34.324971875
30
0
0
VERTEX
8
0
10
59.424971875000004
20
34.74805
30
0
0
VERTEX
8
0
10
59.196000000000005
20
35.30083125
30
0
0
VERTEX
8
0
10
59.196000000000005
20
35.899165625
30
0
0
VERTEX
8
0
10
59.424971875000004
20
36.451946875000004
30
0
0
VERTEX
8
0
10
59.84805
20
36.875025
30
0
0
VERTEX
8
0
10
60.40083125
20
37.103996875
30
0
0
VERTEX
8
0
10
60.999165625
20
37.103996875
30
0
0
VERTEX
8
0
10
61.551946875000006
20
36.875025
30
0
0
VERTEX
8
0
10
61.975025
20
36.451946875000004
30
0
0
VERTEX
8
0
10
62.203996875
20
35.899165625
30
0
0
VERTEX
8
0
10
62.203996875
20
35.30083125
30
0
0
VERTEX
8
0
10
61.975025
20
34.74805
30
0
0
VERTEX
8
0
10
61.551946875000006
20
34.324971875
30
0
0
VERTEX
8
0
10
60.999165625
20
34.096000000000004
30
0
0
SEQEND
0
POLYLINE
66
1
8
1_copper
10
0.0
20
0.0
30
0.0
70
1
0
VERTEX
8
0
10
80.85083125
20
34.096000000000004
30
0
0
VERTEX
8
0
10
80.29805
20
34.324971875
30
0
0
VERTEX
8
0
10
79.874971875
20
34.74805
30
0
0
VERTEX
8
0
10
79.646
20
35.30083125
30
0
0
VERTEX
8
0
10
79.646
20
35.899165625
30
0
0
VERTEX
8
0
10
79.874971875
20
36.451946875000004
30
0
0
VERTEX
8
0
10
80.29805
20
36.875025
30
0
0
VERTEX
8
0
10
80.85083125
20
37.103996875
30
0
0
VERTEX
8
0
10
81.449165625
20
37.103996875
30
0
0
VERTEX
8
0
10
82.001946875
20
36.875025
30
0
0
VERTEX
8
0
10
82.425025
20
36.451946875000004
30
0
0
VERTEX
8
0
10
82.653996875
20
35.899165625
30
0
0
VERTEX
8
0
10
82.653996875
20
35.30083125
30
0
0
VERTEX
8
0
10
82.425025
20
34.74805
30
0
0
VERTEX
8
0
10
82.001946875
20
34.324971875
30
0
0
VERTEX
8
0
10
81.449165625
20
34.096000000000004
30
0
0
SEQEND
0
POLYLINE
66
1
8
1_copper
10
0.0
20
0.0
30
0.0
70
1
0
VERTEX
8
0
10
36.873996875
20
27.356562500000003
30
0
0
VERTEX
8
0
10
36.870825
20
27.344731250000002
30
0
42
0.4931978826511459
0
VERTEX
8
0
10
36.944425
20
27.248796875
30
0
0
VERTEX
8
0
10
40.122371875
20
27.248796875
30
0
0
VERTEX
8
0
10
40.1308
20
27.2500125
30
0
0
VERTEX
8
0
10
40.139265625
20
27.25069375
30
0
42
0.08765396656356698
0
VERTEX
8
0
10
40.163703125000005
20
27.260978125
30
0
0
VERTEX
8
0
10
40.169296875
20
27.26585
30
0
0
VERTEX
8
0
10
40.176253125
20
27.271115625
30
0
0
VERTEX
8
0
10
40.388253125
20
27.483115625
30
0
0
VERTEX
8
0
10
47.876825000000004
20
34.971684375
30
0
0
VERTEX
8
0
10
47.877812500000005
20
34.973006250000005
30
0
0
VERTEX
8
0
10
47.879090625
20
34.97405
30
0
42
0.21835602199983406
0
VERTEX
8
0
10
47.898618750000004
20
35.0345
30
0
0
VERTEX
8
0
10
47.895915625
20
35.04486875
30
0
0
VERTEX
8
0
10
47.894228125000005
20
35.052490625000004
30
0
42
0.007893929092387245
0
VERTEX
8
0
10
47.89334375
20
35.054728125000004
30
0
0
VERTEX
8
0
10
47.7914
20
35.300834375
30
0
0
VERTEX
8
0
10
47.7914
20
35.899165625
30
0
0
VERTEX
8
0
10
48.020371875
20
36.451946875000004
30
0
0
VERTEX
8
0
10
48.443450000000006
20
36.875025
30
0
0
VERTEX
8
0
10
48.99623125
20
37.103996875
30
0
0
VERTEX
8
0
10
49.594565625
20
37.103996875
30
0
0
VERTEX
8
0
10
50.147346875000004
20
36.875025
30
0
0
VERTEX
8
0
10
50.570425
20
36.451946875000004
30
0
0
VERTEX
8
0
10
50.799396875
20
35.899165625
30
0
0
VERTEX
8
0
10
50.799396875
20
35.30083125
30
0
0
VERTEX
8
0
10
50.570425
20
34.74805
30
0
0
VERTEX
8
0
10
50.147346875000004
20
34.324971875
30
0
0
VERTEX
8
0
10
49.594565625
20
34.096000000000004
30
0
0
VERTEX
8
0
10
48.996234375
20
34.096000000000004
30
0
0
VERTEX
8
0
10
48.750128125
20
34.19794375
30
0
0
VERTEX
8
0
10
48.748525
20
34.198353125000004
30
0
0
VERTEX
8
0
10
48.747075
20
34.19913125
30
0
42
0.21835452448693754
0
VERTEX
8
0
10
48.683753125
20
34.194040625
30
0
0
VERTEX
8
0
10
48.675221875000005
20
34.187584375
30
0
0
VERTEX
8
0
10
48.668809375
20
34.183096875000004
30
0
42
0.007881903973716804
0
VERTEX
8
0
10
48.667084375
20
34.181425000000004
30
0
0
VERTEX
8
0
10
41.178515625
20
26.692853125000003
30
0
0
VERTEX
8
0
10
39.701934375
20
25.216271875
30
0
0
VERTEX
8
0
10
39.496553125
20
25.1312
30
0
0
VERTEX
8
0
10
36.950196875
20
25.1312
30
0
0
VERTEX
8
0
10
36.944578125
20
25.1303875
30
0
42
0.33487945155198046
0
VERTEX
8
0
10
36.87611875
20
25.0703125
30
0
0
VERTEX
8
0
10
36.874715625
20
25.065453125
30
0
0
VERTEX
8
0
10
36.874725000000005
20
25.063684375
30
0
0
VERTEX
8
0
10
36.874715625
20
25.063650000000003
30
0
0
VERTEX
8
0
10
36.874734375
20
25.060325000000002
30
0
0
VERTEX
8
0
10
36.873996875
20
25.055
30
0
0
VERTEX
8
0
10
36.873996875
20
24.2847875
30
0
0
VERTEX
8
0
10
36.833087500000005
20
24.243878125000002
30
0
42
0.4142220557498749
0
VERTEX
8
0
10
36.833087500000005
20
24.1361125
30
0
0
VERTEX
8
0
10
36.873996875
20
24.09520625
30
0
0
VERTEX
8
0
10
36.873996875
20
23.324996875
30
0
0
VERTEX
8
0
10
36.874809375000005
20
23.319378125
30
0
42
0.39258815634569955
0
VERTEX
8
0
10
36.950196875
20
23.248796875
30
0
0
VERTEX
8
0
10
38.755653125
20
23.248796875
30
0
0
VERTEX
8
0
10
38.764081250000004
20
23.2500125
30
0
0
VERTEX
8
0
10
38.772546875
20
23.25069375
30
0
42
0.08765396656356698
0
VERTEX
8
0
10
38.796984375
20
23.260978125
30
0
0
VERTEX
8
0
10
38.802578125000004
20
23.26585
30
0
0
VERTEX
8
0
10
38.809534375
20
23.271115625
30
0
0
VERTEX
8
0
10
48.47574375
20
32.937325
30
0
0
VERTEX
8
0
10
48.681125
20
33.022396875
30
0
0
VERTEX
8
0
10
60.9858125
20
33.022396875
30
0
0
VERTEX
8
0
10
60.990253125
20
33.0230375
30
0
0
VERTEX
8
0
10
60.994746875000004
20
33.022921875
30
0
42
0.06890957900417566
0
VERTEX
8
0
10
61.014975
20
33.028196875
30
0
0
VERTEX
8
0
10
61.088846875
20
33.058796875
30
0
0
VERTEX
8
0
10
66.382371875
20
33.058796875
30
0
0
VERTEX
8
0
10
66.3908
20
33.0600125
30
0
0
VERTEX
8
0
10
66.399265625
20
33.06069375
30
0
42
0.08765396656356698
0
VERTEX
8
0
10
66.423703125
20
33.070978125
30
0
0
VERTEX
8
0
10
66.429296875
20
33.07585
30
0
0
VERTEX
8
0
10
66.43625312500001
20
33.081115625
30
0
0
VERTEX
8
0
10
68.326825
20
34.971684375
30
0
0
VERTEX
8
0
10
68.32781250000001
20
34.973006250000005
30
0
0
VERTEX
8
0
10
68.329090625
20
34.97405
30
0
42
0.21835602199983406
0
VERTEX
8
0
10
68.34861875
20
35.0345
30
0
0
VERTEX
8
0
10
68.345915625
20
35.04486875
30
0
0
VERTEX
8
0
10
68.344228125
20
35.052490625000004
30
0
42
0.007893929092387245
0
VERTEX
8
0
10
68.34334375
20
35.054728125000004
30
0
0
VERTEX
8
0
10
68.2414
20
35.300834375
30
0
0
VERTEX
8
0
10
68.2414
20
35.899165625
30
0
0
VERTEX
8
0
10
68.470371875
20
36.451946875000004
30
0
0
VERTEX
8
0
10
68.89345
20
36.875025
30
0
0
VERTEX
8
0
10
69.44623125
20
37.103996875
30
0
0
VERTEX
8
0
10
70.044565625
20
37.103996875
30
0
0
VERTEX
8
0
10
70.597346875
20
36.875025
30
0
0
VERTEX
8
0
10
71.020425
20
36.451946875000004
30
0
0
VERTEX
8
0
10
71.249396875
20
35.899165625
30
0
0
VERTEX
8
0
10
71.249396875
20
35.30083125
30
0
0
VERTEX
8
0
10
71.020425
20
34.74805
30
0
0
VERTEX
8
0
10
70.597346875
20
34.324971875
30
0
0
VERTEX
8
0
10
70.044565625
20
34.096000000000004
30
0
0
VERTEX
8
0
10
69.446234375
20
34.096000000000004
30
0
0
VERTEX
8
0
10
69.200128125
20
34.19794375
30
0
0
VERTEX
8
0
10
69.198525
20
34.198353125000004
30
0
0
VERTEX
8
0
10
69.197075
20
34.19913125
30
0
42
0.21835452448693754
0
VERTEX
8
0
10
69.133753125
20
34.194040625
30
0
0
VERTEX
8
0
10
69.12522187500001
20
34.187584375
30
0
0
VERTEX
8
0
10
69.118809375
20
34.183096875000004
30
0
42
0.007881903973716804
0
VERTEX
8
0
10
69.117084375
20
34.181425000000004
30
0
0
VERTEX
8
0
10
66.961934375
20
32.026271875
30
0
0
VERTEX
8
0
10
66.756553125
20
31.941200000000002
30
0
0
VERTEX
8
0
10
61.377784375000005
20
31.941200000000002
30
0
0
VERTEX
8
0
10
61.373343750000004
20
31.940559375000003
30
0
0
VERTEX
8
0
10
61.36885
20
31.940675000000002
30
0
42
0.06890957900417566
0
VERTEX
8
0
10
61.348621875000006
20
31.9354
30
0
0
VERTEX
8
0
10
61.274750000000004
20
31.9048
30
0
0
VERTEX
8
0
10
49.529796875
20
31.9048
30
0
0
VERTEX
8
0
10
49.521590625
20
31.909465625000003
30
0
42
0.22558191803347952
0
VERTEX
8
0
10
49.085471875
20
31.917196875000002
30
0
0
VERTEX
8
0
10
49.061746875000004
20
31.9048
30
0
0
VERTEX
8
0
10
49.05530625
20
31.9048
30
0
42
0.020289392125668767
0
VERTEX
8
0
10
49.013975
20
31.89261875
30
0
0
VERTEX
8
0
10
49.00838125
20
31.887746875
30
0
0
VERTEX
8
0
10
49.001425000000005
20
31.88248125
30
0
0
VERTEX
8
0
10
39.49781875
20
22.378878125
30
0
0
VERTEX
8
0
10
39.496115625
20
22.3766
30
0
0
VERTEX
8
0
10
39.493956250000004
20
22.37471875
30
0
42
0.5484095900174472
0
VERTEX
8
0
10
39.53099375
20
22.251665625
30
0
0
VERTEX
8
0
10
39.53965625
20
22.250465625
30
0
0
VERTEX
8
0
10
39.546896875
20
22.24895
30
0
42
0.015770375218223928
0
VERTEX
8
0
10
39.551700000000004
20
22.248796875
30
0
0
VERTEX
8
0
10
41.106971875
20
22.248796875
30
0
0
VERTEX
8
0
10
41.1154
20
22.2500125
30
0
0
VERTEX
8
0
10
41.123865625
20
22.25069375
30
0
42
0.08765396656356698
0
VERTEX
8
0
10
41.148303125000005
20
22.260978125
30
0
0
VERTEX
8
0
10
41.153896875
20
22.26585
30
0
0
VERTEX
8
0
10
41.160853125
20
22.271115625
30
0
0
VERTEX
8
0
10
45.2034625
20
26.313725
30
0
0
VERTEX
8
0
10
45.40884375
20
26.398796875000002
30
0
0
VERTEX
8
0
10
66.91655312500001
20
26.398796875000002
30
0
0
VERTEX
8
0
10
67.12193437500001
20
26.313725
30
0
0
VERTEX
8
0
10
67.28984375
20
26.145815625
30
0
0
VERTEX
8
0
10
68.09131875
20
25.3443375
30
0
0
VERTEX
8
0
10
68.093596875
20
25.342634375000003
30
0
0
VERTEX
8
0
10
68.095478125
20
25.340475
30
0
42
0.5484095900174472
0
VERTEX
8
0
10
68.21853125
20
25.3775125
30
0
0
VERTEX
8
0
10
68.21973125000001
20
25.386175
30
0
0
VERTEX
8
0
10
68.221246875
20
25.393415625000003
30
0
42
0.015770375218223928
0
VERTEX
8
0
10
68.2214
20
25.39821875
30
0
0
VERTEX
8
0
10
68.2214
20
29.55314375
30
0
0
VERTEX
8
0
10
68.453415625
20
30.113275
30
0
0
VERTEX
8
0
10
68.88212187500001
20
30.541981250000003
30
0
0
VERTEX
8
0
10
69.44225312500001
20
30.773996875
30
0
0
VERTEX
8
0
10
70.04854375000001
20
30.773996875
30
0
0
VERTEX
8
0
10
70.608675
20
30.541981250000003
30
0
0
VERTEX
8
0
10
71.03738125000001
20
30.113275
30
0
0
VERTEX
8
0
10
71.269396875
20
29.55314375
30
0
0
VERTEX
8
0
10
71.269396875
20
24.500196875
30
0
0
VERTEX
8
0
10
71.27020937500001
20
24.494578125
30
0
42
0.39258815634569955
0
VERTEX
8
0
10
71.345596875
20
24.423996875
30
0
0
VERTEX
8
0
10
81.45314375000001
20
24.423996875
30
0
0
VERTEX
8
0
10
82.01327500000001
20
24.19198125
30
0
0
VERTEX
8
0
10
82.44198125
20
23.763275
30
0
0
VERTEX
8
0
10
82.673996875
20
23.203143750000002
30
0
0
VERTEX
8
0
10
82.673996875
20
22.596853125000003
30
0
0
VERTEX
8
0
10
82.44198125
20
22.036721875
30
0
0
VERTEX
8
0
10
82.01327500000001
20
21.608015625
30
0
0
VERTEX
8
0
10
81.45314375000001
20
21.376
30
0
0
VERTEX
8
0
10
69.44225312500001
20
21.376
30
0
0
VERTEX
8
0
10
68.88212187500001
20
21.608015625
30
0
0
VERTEX
8
0
10
68.453415625
20
22.036721875
30
0
0
VERTEX
8
0
10
68.2214
20
22.596853125000003
30
0
0
VERTEX
8
0
10
68.2214
20
23.602171875
30
0
0
VERTEX
8
0
10
68.220184375
20
23.6106
30
0
0
VERTEX
8
0
10
68.219503125
20
23.619065625
30
0
42
0.08765396656356698
0
VERTEX
8
0
10
68.20921875
20
23.643503125000002
30
0
0
VERTEX
8
0
10
68.204346875
20
23.649096875
30
0
0
VERTEX
8
0
10
68.19908125
20
23.656053125
30
0
0
VERTEX
8
0
10
66.596253125
20
25.25888125
30
0
0
VERTEX
8
0
10
66.58946875000001
20
25.263953125
30
0
0
VERTEX
8
0
10
66.58296875
20
25.2694875
30
0
42
0.08765145259213399
0
VERTEX
8
0
10
66.55841562500001
20
25.279490625
30
0
0
VERTEX
8
0
10
66.551040625
20
25.28
30
0
0
VERTEX
8
0
10
66.542371875
20
25.281200000000002
30
0
0
VERTEX
8
0
10
45.783025
20
25.281200000000002
30
0
0
VERTEX
8
0
10
45.774596875
20
25.279984375
30
0
0
VERTEX
8
0
10
45.76613125
20
25.279303125000002
30
0
42
0.08765396656356698
0
VERTEX
8
0
10
45.74169375
20
25.26901875
30
0
0
VERTEX
8
0
10
45.7361
20
25.264146875
30
0
0
VERTEX
8
0
10
45.72914375
20
25.25888125
30
0
0
VERTEX
8
0
10
41.686534375
20
21.216271875
30
0
0
VERTEX
8
0
10
41.481153125
20
21.1312
30
0
0
VERTEX
8
0
10
35.007334375
20
21.1312
30
0
0
VERTEX
8
0
10
35.0069
20
21.131309375
30
0
0
VERTEX
8
0
10
35.00280625
20
21.13313125
30
0
42
0.06890909149035641
0
VERTEX
8
0
10
34.9821
20
21.136000000000003
30
0
0
VERTEX
8
0
10
33.514787500000004
20
21.136000000000003
30
0
0
VERTEX
8
0
10
33.366
20
21.2847875
30
0
0
VERTEX
8
0
10
33.366
20
22.09520625
30
0
0
VERTEX
8
0
10
33.406909375000005
20
22.1361125
30
0
42
0.4142220557498749
0
VERTEX
8
0
10
33.406909375000005
20
22.243878125000002
30
0
0
VERTEX
8
0
10
33.366
20
22.2847875
30
0
0
VERTEX
8
0
10
33.366
20
23.09520625
30
0
0
VERTEX
8
0
10
33.406909375000005
20
23.1361125
30
0
42
0.4142220557498749
0
VERTEX
8
0
10
33.406909375000005
20
23.243878125000002
30
0
0
VERTEX
8
0
10
33.366
20
23.2847875
30
0
0
VERTEX
8
0
10
33.366
20
24.09520625
30
0
0
VERTEX
8
0
10
33.406909375000005
20
24.1361125
30
0
42
0.4142220557498749
0
VERTEX
8
0
10
33.406909375000005
20
24.243878125000002
30
0
0
VERTEX
8
0
10
33.366
20
24.2847875
30
0
0
VERTEX
8
0
10
33.366
20
25.09520625
30
0
0
VERTEX
8
0
10
33.406909375000005
20
25.136112500000003
30
0
42
0.4142220557498749
0
VERTEX
8
0
10
33.406909375000005
20
25.243878125000002
30
0
0
VERTEX
8
0
10
33.366
20
25.2847875
30
0
0
VERTEX
8
0
10
33.366
20
26.09520625
30
0
0
VERTEX
8
0
10
33.406909375000005
20
26.136112500000003
30
0
42
0.4142220557498749
0
VERTEX
8
0
10
33.406909375000005
20
26.243878125000002
30
0
0
VERTEX
8
0
10
33.366
20
26.2847875
30
0
0
VERTEX
8
0
10
33.366
20
27.09520625
30
0
0
VERTEX
8
0
10
33.407646875000005
20
27.136850000000003
30
0
42
0.33946327820194455
0
VERTEX
8
0
10
33.41975625
20
27.228834375
30
0
0
VERTEX
8
0
10
33.383309375
20
27.291959375
30
0
0
VERTEX
8
0
10
33.366
20
27.35655625
30
0
0
VERTEX
8
0
10
33.366
20
27.3852
30
0
0
VERTEX
8
0
10
36.873996875
20
27.3852
30
0
0
SEQEND
0
POLYLINE
66
1
8
1_copper
10
0.0
20
0.0
30
0.0
70
1
0
VERTEX
8
0
10
60.40083125
20
27.746000000000002
30
0
0
VERTEX
8
0
10
59.84805
20
27.974971875
30
0
0
VERTEX
8
0
10
59.424971875000004
20
28.39805
30
0
0
VERTEX
8
0
10
59.196000000000005
20
28.95083125
30
0
0
VERTEX
8
0
10
59.196000000000005
20
29.549165625
30
0
0
VERTEX
8
0
10
59.424971875000004
20
30.101946875000003
30
0
0
VERTEX
8
0
10
59.84805
20
30.525025000000003
30
0
0
VERTEX
8
0
10
60.40083125
20
30.753996875000002
30
0
0
VERTEX
8
0
10
60.999165625
20
30.753996875000002
30
0
0
VERTEX
8
0
10
61.551946875000006
20
30.525025000000003
30
0
0
VERTEX
8
0
10
61.975025
20
30.101946875000003
30
0
0
VERTEX
8
0
10
62.203996875
20
29.549165625
30
0
0
VERTEX
8
0
10
62.203996875
20
28.95083125
30
0
0
VERTEX
8
0
10
61.975025
20
28.39805
30
0
0
VERTEX
8
0
10
61.551946875000006
20
27.974971875
30
0
0
VERTEX
8
0
10
60.999165625
20
27.746000000000002
30
0
0
SEQEND
0
POLYLINE
66
1
8
1_copper
10
0.0
20
0.0
30
0.0
70
1
0
VERTEX
8
0
10
80.85083125
20
27.746000000000002
30
0
0
VERTEX
8
0
10
80.29805
20
27.974971875
30
0
0
VERTEX
8
0
10
79.874971875
20
28.39805
30
0
0
VERTEX
8
0
10
79.646
20
28.95083125
30
0
0
VERTEX
8
0
10
79.646
20
29.549165625
30
0
0
VERTEX
8
0
10
79.874971875
20
30.101946875000003
30
0
0
VERTEX
8
0
10
80.29805
20
30.525025000000003
30
0
0
VERTEX
8
0
10
80.85083125
20
30.753996875000002
30
0
0
VERTEX
8
0
10
81.449165625
20
30.753996875000002
30
0
0
VERTEX
8
0
10
82.001946875
20
30.525025000000003
30
0
0
VERTEX
8
0
10
82.425025
20
30.101946875000003
30
0
0
VERTEX
8
0
10
82.653996875
20
29.549165625
30
0
0
VERTEX
8
0
10
82.653996875
20
28.95083125
30
0
0
VERTEX
8
0
10
82.425025
20
28.39805
30
0
0
VERTEX
8
0
10
82.001946875
20
27.974971875
30
0
0
VERTEX
8
0
10
81.449165625
20
27.746000000000002
30
0
0
SEQEND
0
POLYLINE
66
1
8
1_copper
10
0.0
20
0.0
30
0.0
70
1
0
VERTEX
8
0
10
47.813009375
20
29.504800000000003
30
0
0
VERTEX
8
0
10
47.82843125
20
29.60218125
30
0
0
VERTEX
8
0
10
47.90159375
20
29.827346875
30
0
0
VERTEX
8
0
10
48.00905625
20
30.03825625
30
0
0
VERTEX
8
0
10
48.148215625
20
30.229790625
30
0
0
VERTEX
8
0
10
48.31560625
20
30.397181250000003
30
0
0
VERTEX
8
0
10
48.507140625000005
20
30.536340625
30
0
0
VERTEX
8
0
10
48.718050000000005
20
30.643803125
30
0
0
VERTEX
8
0
10
48.787400000000005
20
30.6663375
30
0
0
VERTEX
8
0
10
48.787400000000005
20
30.413584375000003
30
0
42
0.23448892144148833
0
VERTEX
8
0
10
48.061153125000004
20
29.549225
30
0
0
VERTEX
8
0
10
48.052021875
20
29.504800000000003
30
0
0
SEQEND
0
POLYLINE
66
1
8
1_copper
10
0.0
20
0.0
30
0.0
70
1
0
VERTEX
8
0
10
49.8034
20
30.520000000000003
30
0
0
VERTEX
8
0
10
49.8034
20
30.666334375
30
0
0
VERTEX
8
0
10
49.872746875000004
20
30.643803125
30
0
0
VERTEX
8
0
10
50.083656250000004
20
30.536340625
30
0
0
VERTEX
8
0
10
50.106146875
20
30.520000000000003
30
0
0
SEQEND
0
POLYLINE
66
1
8
1_copper
10
0.0
20
0.0
30
0.0
70
1
0
VERTEX
8
0
10
33.366
20
28.9948
30
0
0
VERTEX
8
0
10
33.366
20
29.023440625000003
30
0
0
VERTEX
8
0
10
33.383309375
20
29.088037500000002
30
0
0
VERTEX
8
0
10
33.41675
20
29.145959375
30
0
0
VERTEX
8
0
10
33.4640375
20
29.193246875
30
0
0
VERTEX
8
0
10
33.521959375
20
29.2266875
30
0
0
VERTEX
8
0
10
33.58655625
20
29.243996875
30
0
0
VERTEX
8
0
10
34.815200000000004
20
29.243996875
30
0
0
VERTEX
8
0
10
34.815200000000004
20
28.9948
30
0
0
SEQEND
0
POLYLINE
66
1
8
1_copper
10
0.0
20
0.0
30
0.0
70
1
0
VERTEX
8
0
10
35.424800000000005
20
28.9948
30
0
0
VERTEX
8
0
10
35.424800000000005
20
29.243996875
30
0
0
VERTEX
8
0
10
36.653440625
20
29.243996875
30
0
0
VERTEX
8
0
10
36.7180375
20
29.2266875
30
0
0
VERTEX
8
0
10
36.775959375
20
29.193246875
30
0
0
VERTEX
8
0
10
36.823246875
20
29.145959375
30
0
0
VERTEX
8
0
10
36.8566875
20
29.088037500000002
30
0
0
VERTEX
8
0
10
36.873996875
20
29.023440625000003
30
0
0
VERTEX
8
0
10
36.873996875
20
28.9948
30
0
0
SEQEND
0
POLYLINE
66
1
8
1_copper
10
0.0
20
0.0
30
0.0
70
1
0
VERTEX
8
0
10
48.718050000000005
20
27.856193750000003
30
0
0
VERTEX
8
0
10
48.507140625000005
20
27.96365625
30
0
0
VERTEX
8
0
10
48.31560625
20
28.102815625
30
0
0
VERTEX
8
0
10
48.148215625
20
28.27020625
30
0
0
VERTEX
8
0
10
48.00905625
20
28.461740625
30
0
0
VERTEX
8
0
10
47.90159375
20
28.67265
30
0
0
VERTEX
8
0
10
47.82928125
20
28.895200000000003
30
0
0
VERTEX
8
0
10
48.0767625
20
28.895200000000003
30
0
0
VERTEX
8
0
10
48.091234375
20
28.846409375
30
0
42
0.21309085116236487
0
VERTEX
8
0
10
48.792
20
28.084125
30
0
0
VERTEX
8
0
10
48.792
20
27.832165625000002
30
0
0
SEQEND
0
POLYLINE
66
1
8
1_copper
10
0.0
20
0.0
30
0.0
70
1
0
VERTEX
8
0
10
35.424800000000005
20
27.9948
30
0
0
VERTEX
8
0
10
35.424800000000005
20
28.3852
30
0
0
VERTEX
8
0
10
36.873996875
20
28.3852
30
0
0
VERTEX
8
0
10
36.873996875
20
28.35655625
30
0
0
VERTEX
8
0
10
36.8566875
20
28.291959375
30
0
0
VERTEX
8
0
10
36.819815625000004
20
28.228096875000002
30
0
0
VERTEX
8
0
10
36.817009375000005
20
28.221078125000002
30
0
0
VERTEX
8
0
10
36.813590625
20
28.21431875
30
0
42
0.16681649626555345
0
VERTEX
8
0
10
36.813875
20
28.16485
30
0
0
VERTEX
8
0
10
36.816965625
20
28.15890625
30
0
0
VERTEX
8
0
10
36.819815625000004
20
28.151893750000003
30
0
0
VERTEX
8
0
10
36.856690625
20
28.08803125
30
0
0
VERTEX
8
0
10
36.873996875
20
28.023440625000003
30
0
0
VERTEX
8
0
10
36.873996875
20
27.9948
30
0
0
SEQEND
0
POLYLINE
66
1
8
1_copper
10
0.0
20
0.0
30
0.0
70
1
0
VERTEX
8
0
10
33.366
20
27.9948
30
0
0
VERTEX
8
0
10
33.366
20
28.023440625000003
30
0
0
VERTEX
8
0
10
33.383306250000004
20
28.08803125
30
0
0
VERTEX
8
0
10
33.42018125
20
28.151893750000003
30
0
0
VERTEX
8
0
10
33.422996875
20
28.1589375
30
0
0
VERTEX
8
0
10
33.426403125
20
28.165675
30
0
42
0.1668099121517446
0
VERTEX
8
0
10
33.426121875
20
28.215140625
30
0
0
VERTEX
8
0
10
33.423034375
20
28.221075000000003
30
0
0
VERTEX
8
0
10
33.42018125
20
28.228096875000002
30
0
0
VERTEX
8
0
10
33.383309375
20
28.291959375
30
0
0
VERTEX
8
0
10
33.382440625
20
28.2952
30
0
0
VERTEX
8
0
10
34.815200000000004
20
28.2952
30
0
0
VERTEX
8
0
10
34.815200000000004
20
27.9948
30
0
0
SEQEND
0
POLYLINE
66
1
8
1_copper
10
0.0
20
0.0
30
0.0
70
1
0
VERTEX
8
0
10
49.808
20
27.98
30
0
0
VERTEX
8
0
10
50.10615
20
27.98
30
0
0
VERTEX
8
0
10
50.083656250000004
20
27.96365625
30
0
0
VERTEX
8
0
10
49.872746875000004
20
27.856193750000003
30
0
0
VERTEX
8
0
10
49.808
20
27.83515625
30
0
0
SEQEND
0
POLYLINE
66
1
8
1_copper
10
0.0
20
0.0
30
0.0
70
1
0
VERTEX
8
0
10
47.8790625
20
23.408
30
0
0
VERTEX
8
0
10
47.90159375
20
23.477346875000002
30
0
0
VERTEX
8
0
10
48.00905625
20
23.688256250000002
30
0
0
VERTEX
8
0
10
48.148215625
20
23.879790625000002
30
0
0
VERTEX
8
0
10
48.31560625
20
24.04718125
30
0
0
VERTEX
8
0
10
48.507140625000005
20
24.186340625
30
0
0
VERTEX
8
0
10
48.718050000000005
20
24.293803125
30
0
0
VERTEX
8
0
10
48.85000625
20
24.336678125000002
30
0
42
0.04293946647804926
0
VERTEX
8
0
10
48.842000000000006
20
24.25
30
0
0
VERTEX
8
0
10
48.842000000000006
20
24.0857625
30
0
0
VERTEX
8
0
10
48.7764625
20
24.059140625
30
0
42
0.17720884394689793
0
VERTEX
8
0
10
48.1509
20
23.450475
30
0
0
VERTEX
8
0
10
48.132275
20
23.408
30
0
0
SEQEND
0
POLYLINE
66
1
8
1_copper
10
0.0
20
0.0
30
0.0
70
1
0
VERTEX
8
0
10
59.889250000000004
20
24.17
30
0
0
VERTEX
8
0
10
59.911740625
20
24.186340625
30
0
0
VERTEX
8
0
10
60.12265
20
24.293803125
30
0
0
VERTEX
8
0
10
60.192
20
24.3163375
30
0
0
VERTEX
8
0
10
60.192
20
24.17
30
0
0
SEQEND
0
POLYLINE
66
1
8
1_copper
10
0.0
20
0.0
30
0.0
70
1
0
VERTEX
8
0
10
61.863318750000005
20
23.408
30
0
0
VERTEX
8
0
10
61.835887500000005
20
23.468028125
30
0
42
0.17564533989220338
0
VERTEX
8
0
10
61.208000000000006
20
24.063703125
30
0
0
VERTEX
8
0
10
61.208000000000006
20
24.316334375
30
0
0
VERTEX
8
0
10
61.277346875000006
20
24.293803125
30
0
0
VERTEX
8
0
10
61.488256250000006
20
24.186340625
30
0
0
VERTEX
8
0
10
61.679790625
20
24.04718125
30
0
0
VERTEX
8
0
10
61.847181250000006
20
23.879790625000002
30
0
0
VERTEX
8
0
10
61.986340625000004
20
23.688256250000002
30
0
0
VERTEX
8
0
10
62.093803125
20
23.477346875000002
30
0
0
VERTEX
8
0
10
62.116334375
20
23.408
30
0
0
SEQEND
0
POLYLINE
66
1
8
1_copper
10
0.0
20
0.0
30
0.0
70
1
0
VERTEX
8
0
10
49.858000000000004
20
24.17
30
0
0
VERTEX
8
0
10
49.858000000000004
20
24.25
30
0
0
VERTEX
8
0
10
49.855253125000004
20
24.2994875
30
0
0
VERTEX
8
0
10
49.872746875000004
20
24.293803125
30
0
0
VERTEX
8
0
10
50.083656250000004
20
24.186340625
30
0
0
VERTEX
8
0
10
50.106146875
20
24.17
30
0
0
SEQEND
0
POLYLINE
66
1
8
1_copper
10
0.0
20
0.0
30
0.0
70
1
0
VERTEX
8
0
10
61.158
20
21.71610625
30
0
0
VERTEX
8
0
10
61.2189375
20
21.740859375
30
0
42
0.17720884394689793
0
VERTEX
8
0
10
61.844500000000004
20
22.349525
30
0
0
VERTEX
8
0
10
61.863125000000004
20
22.392
30
0
0
VERTEX
8
0
10
62.1163375
20
22.392
30
0
0
VERTEX
8
0
10
62.093803125
20
22.32265
30
0
0
VERTEX
8
0
10
61.986340625000004
20
22.111740625
30
0
0
VERTEX
8
0
10
61.847181250000006
20
21.92020625
30
0
0
VERTEX
8
0
10
61.679790625
20
21.752815625
30
0
0
VERTEX
8
0
10
61.488256250000006
20
21.613656250000002
30
0
0
VERTEX
8
0
10
61.277346875000006
20
21.50619375
30
0
0
VERTEX
8
0
10
61.158
20
21.467415625
30
0
0
SEQEND
0
POLYLINE
66
1
8
1_copper
10
0.0
20
0.0
30
0.0
70
1
0
VERTEX
8
0
10
48.943215625
20
21.433031250000003
30
0
0
VERTEX
8
0
10
48.718050000000005
20
21.50619375
30
0
0
VERTEX
8
0
10
48.507140625000005
20
21.613656250000002
30
0
0
VERTEX
8
0
10
48.31560625
20
21.752815625
30
0
0
VERTEX
8
0
10
48.148215625
20
21.92020625
30
0
0
VERTEX
8
0
10
48.00905625
20
22.111740625
30
0
0
VERTEX
8
0
10
47.90159375
20
22.32265
30
0
0
VERTEX
8
0
10
47.879059375000004
20
22.392
30
0
0
VERTEX
8
0
10
48.13208125
20
22.392
30
0
0
VERTEX
8
0
10
48.159512500000005
20
22.331971875
30
0
42
0.2505999663181763
0
VERTEX
8
0
10
49.13716875
20
21.639896875
30
0
0
VERTEX
8
0
10
49.143
20
21.639371875000002
30
0
0
VERTEX
8
0
10
49.143
20
21.401390625
30
0
0
SEQEND
0
POLYLINE
66
1
8
1_copper
10
0.0
20
0.0
30
0.0
70
1
0
VERTEX
8
0
10
49.44779375
20
21.630000000000003
30
0
0
VERTEX
8
0
10
50.10615
20
21.630000000000003
30
0
0
VERTEX
8
0
10
50.083656250000004
20
21.613656250000002
30
0
0
VERTEX
8
0
10
49.872746875000004
20
21.50619375
30
0
0
VERTEX
8
0
10
49.64758125
20
21.433031250000003
30
0
0
VERTEX
8
0
10
49.44779375
20
21.401390625
30
0
0
SEQEND
0
POLYLINE
66
1
8
1_copper
10
0.0
20
0.0
30
0.0
70
1
0
VERTEX
8
0
10
60.12265
20
21.50619375
30
0
0
VERTEX
8
0
10
59.911740625
20
21.613656250000002
30
0
0
VERTEX
8
0
10
59.889246875000005
20
21.630000000000003
30
0
0
VERTEX
8
0
10
60.142
20
21.630000000000003
30
0
0
VERTEX
8
0
10
60.142
20
21.499906250000002
30
0
0
SEQEND
0
POLYLINE
66
1
8
16_copper
10
0.0
20
0.0
30
0.0
70
1
0
VERTEX
8
0
10
91.62461875000001
20
18.805609375
30
0
42
0.39258815634569955
0
VERTEX
8
0
10
91.6952
20
18.880996875
30
0
0
VERTEX
8
0
10
91.6952
20
46.5936
30
0
0
VERTEX
8
0
10
91.6943875
20
46.599218750000006
30
0
42
0.39258815634569955
0
VERTEX
8
0
10
91.619
20
46.6698
30
0
0
VERTEX
8
0
10
38.906396875
20
46.6698
30
0
0
VERTEX
8
0
10
38.900778125
20
46.6689875
30
0
42
0.39258815634569955
0
VERTEX
8
0
10
38.830196875
20
46.5936
30
0
0
VERTEX
8
0
10
38.830196875
20
30.863225
30
0
0
VERTEX
8
0
10
38.636771875
20
30.669800000000002
30
0
0
VERTEX
8
0
10
32.906396875
20
30.669800000000002
30
0
0
VERTEX
8
0
10
32.900778125
20
30.6689875
30
0
42
0.39258815634569955
0
VERTEX
8
0
10
32.830196875
20
30.593600000000002
30
0
0
VERTEX
8
0
10
32.830196875
20
18.880996875
30
0
0
VERTEX
8
0
10
32.831009375
20
18.875378125
30
0
42
0.39258815634569955
0
VERTEX
8
0
10
32.906396875
20
18.804796875
30
0
0
VERTEX
8
0
10
91.619
20
18.804796875
30
0
0
SEQEND
0
POLYLINE
66
1
8
16_copper
10
0.0
20
0.0
30
0.0
70
1
0
VERTEX
8
0
10
80.85083125
20
34.096000000000004
30
0
0
VERTEX
8
0
10
80.29805
20
34.324971875
30
0
0
VERTEX
8
0
10
79.874971875
20
34.74805
30
0
0
VERTEX
8
0
10
79.646
20
35.30083125
30
0
0
VERTEX
8
0
10
79.646
20
35.899165625
30
0
0
VERTEX
8
0
10
79.874971875
20
36.451946875000004
30
0
0
VERTEX
8
0
10
80.29805
20
36.875025
30
0
0
VERTEX
8
0
10
80.85083125
20
37.103996875
30
0
0
VERTEX
8
0
10
81.449165625
20
37.103996875
30
0
0
VERTEX
8
0
10
82.001946875
20
36.875025
30
0
0
VERTEX
8
0
10
82.425025
20
36.451946875000004
30
0
0
VERTEX
8
0
10
82.653996875
20
35.899165625
30
0
0
VERTEX
8
0
10
82.653996875
20
35.30083125
30
0
0
VERTEX
8
0
10
82.425025
20
34.74805
30
0
0
VERTEX
8
0
10
82.001946875
20
34.324971875
30
0
0
VERTEX
8
0
10
81.449165625
20
34.096000000000004
30
0
0
SEQEND
0
POLYLINE
66
1
8
16_copper
10
0.0
20
0.0
30
0.0
70
1
0
VERTEX
8
0
10
69.44623125
20
34.096000000000004
30
0
0
VERTEX
8
0
10
68.89345
20
34.324971875
30
0
0
VERTEX
8
0
10
68.470371875
20
34.74805
30
0
0
VERTEX
8
0
10
68.2414
20
35.30083125
30
0
0
VERTEX
8
0
10
68.2414
20
35.899165625
30
0
0
VERTEX
8
0
10
68.470371875
20
36.451946875000004
30
0
0
VERTEX
8
0
10
68.89345
20
36.875025
30
0
0
VERTEX
8
0
10
69.44623125
20
37.103996875
30
0
0
VERTEX
8
0
10
70.044565625
20
37.103996875
30
0
0
VERTEX
8
0
10
70.597346875
20
36.875025
30
0
0
VERTEX
8
0
10
71.020425
20
36.451946875000004
30
0
0
VERTEX
8
0
10
71.249396875
20
35.899165625
30
0
0
VERTEX
8
0
10
71.249396875
20
35.30083125
30
0
0
VERTEX
8
0
10
71.020425
20
34.74805
30
0
0
VERTEX
8
0
10
70.597346875
20
34.324971875
30
0
0
VERTEX
8
0
10
70.044565625
20
34.096000000000004
30
0
0
SEQEND
0
POLYLINE
66
1
8
16_copper
10
0.0
20
0.0
30
0.0
70
1
0
VERTEX
8
0
10
60.40083125
20
34.096000000000004
30
0
0
VERTEX
8
0
10
59.84805
20
34.324971875
30
0
0
VERTEX
8
0
10
59.424971875000004
20
34.74805
30
0
0
VERTEX
8
0
10
59.196000000000005
20
35.30083125
30
0
0
VERTEX
8
0
10
59.196000000000005
20
35.899165625
30
0
0
VERTEX
8
0
10
59.424971875000004
20
36.451946875000004
30
0
0
VERTEX
8
0
10
59.84805
20
36.875025
30
0
0
VERTEX
8
0
10
60.40083125
20
37.103996875
30
0
0
VERTEX
8
0
10
60.999165625
20
37.103996875
30
0
0
VERTEX
8
0
10
61.551946875000006
20
36.875025
30
0
0
VERTEX
8
0
10
61.975025
20
36.451946875000004
30
0
0
VERTEX
8
0
10
62.203996875
20
35.899165625
30
0
0
VERTEX
8
0
10
62.203996875
20
35.30083125
30
0
0
VERTEX
8
0
10
61.975025
20
34.74805
30
0
0
VERTEX
8
0
10
61.551946875000006
20
34.324971875
30
0
0
VERTEX
8
0
10
60.999165625
20
34.096000000000004
30
0
0
SEQEND
0
POLYLINE
66
1
8
16_copper
10
0.0
20
0.0
30
0.0
70
1
0
VERTEX
8
0
10
48.99623125
20
34.096000000000004
30
0
0
VERTEX
8
0
10
48.443450000000006
20
34.324971875
30
0
0
VERTEX
8
0
10
48.020371875
20
34.74805
30
0
0
VERTEX
8
0
10
47.7914
20
35.30083125
30
0
0
VERTEX
8
0
10
47.7914
20
35.899165625
30
0
0
VERTEX
8
0
10
48.020371875
20
36.451946875000004
30
0
0
VERTEX
8
0
10
48.443450000000006
20
36.875025
30
0
0
VERTEX
8
0
10
48.99623125
20
37.103996875
30
0
0
VERTEX
8
0
10
49.594565625
20
37.103996875
30
0
0
VERTEX
8
0
10
50.147346875000004
20
36.875025
30
0
0
VERTEX
8
0
10
50.570425
20
36.451946875000004
30
0
0
VERTEX
8
0
10
50.799396875
20
35.899165625
30
0
0
VERTEX
8
0
10
50.799396875
20
35.30083125
30
0
0
VERTEX
8
0
10
50.570425
20
34.74805
30
0
0
VERTEX
8
0
10
50.147346875000004
20
34.324971875
30
0
0
VERTEX
8
0
10
49.594565625
20
34.096000000000004
30
0
0
SEQEND
0
POLYLINE
66
1
8
16_copper
10
0.0
20
0.0
30
0.0
70
1
0
VERTEX
8
0
10
80.85083125
20
27.746000000000002
30
0
0
VERTEX
8
0
10
80.29805
20
27.974971875
30
0
0
VERTEX
8
0
10
79.874971875
20
28.39805
30
0
0
VERTEX
8
0
10
79.646
20
28.95083125
30
0
0
VERTEX
8
0
10
79.646
20
29.549165625
30
0
0
VERTEX
8
0
10
79.874971875
20
30.101946875000003
30
0
0
VERTEX
8
0
10
80.29805
20
30.525025000000003
30
0
0
VERTEX
8
0
10
80.85083125
20
30.753996875000002
30
0
0
VERTEX
8
0
10
81.449165625
20
30.753996875000002
30
0
0
VERTEX
8
0
10
82.001946875
20
30.525025000000003
30
0
0
VERTEX
8
0
10
82.425025
20
30.101946875000003
30
0
0
VERTEX
8
0
10
82.653996875
20
29.549165625
30
0
0
VERTEX
8
0
10
82.653996875
20
28.95083125
30
0
0
VERTEX
8
0
10
82.425025
20
28.39805
30
0
0
VERTEX
8
0
10
82.001946875
20
27.974971875
30
0
0
VERTEX
8
0
10
81.449165625
20
27.746000000000002
30
0
0
SEQEND
0
POLYLINE
66
1
8
16_copper
10
0.0
20
0.0
30
0.0
70
1
0
VERTEX
8
0
10
69.44623125
20
27.746000000000002
30
0
0
VERTEX
8
0
10
68.89345
20
27.974971875
30
0
0
VERTEX
8
0
10
68.470371875
20
28.39805
30
0
0
VERTEX
8
0
10
68.2414
20
28.95083125
30
0
0
VERTEX
8
0
10
68.2414
20
29.549165625
30
0
0
VERTEX
8
0
10
68.470371875
20
30.101946875000003
30
0
0
VERTEX
8
0
10
68.89345
20
30.525025000000003
30
0
0
VERTEX
8
0
10
69.44623125
20
30.753996875000002
30
0
0
VERTEX
8
0
10
70.044565625
20
30.753996875000002
30
0
0
VERTEX
8
0
10
70.597346875
20
30.525025000000003
30
0
0
VERTEX
8
0
10
71.020425
20
30.101946875000003
30
0
0
VERTEX
8
0
10
71.249396875
20
29.549165625
30
0
0
VERTEX
8
0
10
71.249396875
20
28.95083125
30
0
0
VERTEX
8
0
10
71.020425
20
28.39805
30
0
0
VERTEX
8
0
10
70.597346875
20
27.974971875
30
0
0
VERTEX
8
0
10
70.044565625
20
27.746000000000002
30
0
0
SEQEND
0
POLYLINE
66
1
8
16_copper
10
0.0
20
0.0
30
0.0
70
1
0
VERTEX
8
0
10
60.40083125
20
27.746000000000002
30
0
0
VERTEX
8
0
10
59.84805
20
27.974971875
30
0
0
VERTEX
8
0
10
59.424971875000004
20
28.39805
30
0
0
VERTEX
8
0
10
59.196000000000005
20
28.95083125
30
0
0
VERTEX
8
0
10
59.196000000000005
20
29.549165625
30
0
0
VERTEX
8
0
10
59.424971875000004
20
30.101946875000003
30
0
0
VERTEX
8
0
10
59.84805
20
30.525025000000003
30
0
0
VERTEX
8
0
10
60.40083125
20
30.753996875000002
30
0
0
VERTEX
8
0
10
60.999165625
20
30.753996875000002
30
0
0
VERTEX
8
0
10
61.551946875000006
20
30.525025000000003
30
0
0
VERTEX
8
0
10
61.975025
20
30.101946875000003
30
0
0
VERTEX
8
0
10
62.203996875
20
29.549165625
30
0
0
VERTEX
8
0
10
62.203996875
20
28.95083125
30
0
0
VERTEX
8
0
10
61.975025
20
28.39805
30
0
0
VERTEX
8
0
10
61.551946875000006
20
27.974971875
30
0
0
VERTEX
8
0
10
60.999165625
20
27.746000000000002
30
0
0
SEQEND
0
POLYLINE
66
1
8
16_copper
10
0.0
20
0.0
30
0.0
70
1
0
VERTEX
8
0
10
47.796790625
20
29.40239375
30
0
0
VERTEX
8
0
10
47.82843125
20
29.60218125
30
0
0
VERTEX
8
0
10
47.90159375
20
29.827346875
30
0
0
VERTEX
8
0
10
48.00905625
20
30.03825625
30
0
0
VERTEX
8
0
10
48.148215625
20
30.229790625
30
0
0
VERTEX
8
0
10
48.31560625
20
30.397181250000003
30
0
0
VERTEX
8
0
10
48.507140625000005
20
30.536340625
30
0
0
VERTEX
8
0
10
48.718050000000005
20
30.643803125
30
0
0
VERTEX
8
0
10
48.943215625
20
30.716965625
30
0
0
VERTEX
8
0
10
49.143
20
30.74860625
30
0
0
VERTEX
8
0
10
49.143
20
29.40239375
30
0
0
SEQEND
0
POLYLINE
66
1
8
16_copper
10
0.0
20
0.0
30
0.0
70
1
0
VERTEX
8
0
10
49.44779375
20
29.40239375
30
0
0
VERTEX
8
0
10
49.44779375
20
30.74860625
30
0
0
VERTEX
8
0
10
49.64758125
20
30.716965625
30
0
0
VERTEX
8
0
10
49.872746875000004
20
30.643803125
30
0
0
VERTEX
8
0
10
50.083656250000004
20
30.536340625
30
0
0
VERTEX
8
0
10
50.275190625
20
30.397181250000003
30
0
0
VERTEX
8
0
10
50.44258125
20
30.229790625
30
0
0
VERTEX
8
0
10
50.581740625
20
30.03825625
30
0
0
VERTEX
8
0
10
50.689203125000006
20
29.827346875
30
0
0
VERTEX
8
0
10
50.762365625
20
29.60218125
30
0
0
VERTEX
8
0
10
50.79400625
20
29.40239375
30
0
0
SEQEND
0
POLYLINE
66
1
8
16_copper
10
0.0
20
0.0
30
0.0
70
1
0
VERTEX
8
0
10
49.295384375000005
20
29.249984375
30
0
0
VERTEX
8
0
10
49.295384375000005
20
29.2500125
30
0
0
VERTEX
8
0
10
49.295412500000005
20
29.2500125
30
0
0
VERTEX
8
0
10
49.295412500000005
20
29.249984375
30
0
0
SEQEND
0
POLYLINE
66
1
8
16_copper
10
0.0
20
0.0
30
0.0
70
1
0
VERTEX
8
0
10
49.44779375
20
29.0976
30
0
0
VERTEX
8
0
10
50.79400625
20
29.0976
30
0
0
VERTEX
8
0
10
50.762365625
20
28.897815625
30
0
0
VERTEX
8
0
10
50.689203125000006
20
28.67265
30
0
0
VERTEX
8
0
10
50.581740625
20
28.461740625
30
0
0
VERTEX
8
0
10
50.44258125
20
28.27020625
30
0
0
VERTEX
8
0
10
50.275190625
20
28.102815625
30
0
0
VERTEX
8
0
10
50.083656250000004
20
27.96365625
30
0
0
VERTEX
8
0
10
49.872746875000004
20
27.856193750000003
30
0
0
VERTEX
8
0
10
49.64758125
20
27.78303125
30
0
0
VERTEX
8
0
10
49.44779375
20
27.751390625000003
30
0
0
SEQEND
0
POLYLINE
66
1
8
16_copper
10
0.0
20
0.0
30
0.0
70
1
0
VERTEX
8
0
10
48.943215625
20
27.78303125
30
0
0
VERTEX
8
0
10
48.718050000000005
20
27.856193750000003
30
0
0
VERTEX
8
0
10
48.507140625000005
20
27.96365625
30
0
0
VERTEX
8
0
10
48.31560625
20
28.102815625
30
0
0
VERTEX
8
0
10
48.148215625
20
28.27020625
30
0
0
VERTEX
8
0
10
48.00905625
20
28.461740625
30
0
0
VERTEX
8
0
10
47.90159375
20
28.67265
30
0
0
VERTEX
8
0
10
47.82843125
20
28.897815625
30
0
0
VERTEX
8
0
10
47.796790625
20
29.0976
30
0
0
VERTEX
8
0
10
49.143
20
29.0976
30
0
0
VERTEX
8
0
10
49.143
20
27.751390625000003
30
0
0
SEQEND
0
POLYLINE
66
1
8
16_copper
10
0.0
20
0.0
30
0.0
70
1
0
VERTEX
8
0
10
80.85083125
20
21.396
30
0
0
VERTEX
8
0
10
80.29805
20
21.624971875
30
0
0
VERTEX
8
0
10
79.874971875
20
22.04805
30
0
0
VERTEX
8
0
10
79.646
20
22.600831250000002
30
0
0
VERTEX
8
0
10
79.646
20
23.199165625000003
30
0
0
VERTEX
8
0
10
79.874971875
20
23.751946875
30
0
0
VERTEX
8
0
10
80.29805
20
24.175025
30
0
0
VERTEX
8
0
10
80.85083125
20
24.403996875
30
0
0
VERTEX
8
0
10
81.449165625
20
24.403996875
30
0
0
VERTEX
8
0
10
82.001946875
20
24.175025
30
0
0
VERTEX
8
0
10
82.425025
20
23.751946875
30
0
0
VERTEX
8
0
10
82.653996875
20
23.199165625000003
30
0
0
VERTEX
8
0
10
82.653996875
20
22.600831250000002
30
0
0
VERTEX
8
0
10
82.425025
20
22.04805
30
0
0
VERTEX
8
0
10
82.001946875
20
21.624971875
30
0
0
VERTEX
8
0
10
81.449165625
20
21.396
30
0
0
SEQEND
0
POLYLINE
66
1
8
16_copper
10
0.0
20
0.0
30
0.0
70
1
0
VERTEX
8
0
10
69.44623125
20
21.396
30
0
0
VERTEX
8
0
10
68.89345
20
21.624971875
30
0
0
VERTEX
8
0
10
68.470371875
20
22.04805
30
0
0
VERTEX
8
0
10
68.2414
20
22.600831250000002
30
0
0
VERTEX
8
0
10
68.2414
20
23.199165625000003
30
0
0
VERTEX
8
0
10
68.470371875
20
23.751946875
30
0
0
VERTEX
8
0
10
68.89345
20
24.175025
30
0
0
VERTEX
8
0
10
69.44623125
20
24.403996875
30
0
0
VERTEX
8
0
10
70.044565625
20
24.403996875
30
0
0
VERTEX
8
0
10
70.597346875
20
24.175025
30
0
0
VERTEX
8
0
10
71.020425
20
23.751946875
30
0
0
VERTEX
8
0
10
71.249396875
20
23.199165625000003
30
0
0
VERTEX
8
0
10
71.249396875
20
22.600831250000002
30
0
0
VERTEX
8
0
10
71.020425
20
22.04805
30
0
0
VERTEX
8
0
10
70.597346875
20
21.624971875
30
0
0
VERTEX
8
0
10
70.044565625
20
21.396
30
0
0
SEQEND
0
POLYLINE
66
1
8
16_copper
10
0.0
20
0.0
30
0.0
70
1
0
VERTEX
8
0
10
47.796790625
20
23.05239375
30
0
0
VERTEX
8
0
10
47.82843125
20
23.25218125
30
0
0
VERTEX
8
0
10
47.90159375
20
23.477346875000002
30
0
0
VERTEX
8
0
10
48.00905625
20
23.688256250000002
30
0
0
VERTEX
8
0
10
48.148215625
20
23.879790625000002
30
0
0
VERTEX
8
0
10
48.31560625
20
24.04718125
30
0
0
VERTEX
8
0
10
48.507140625000005
20
24.186340625
30
0
0
VERTEX
8
0
10
48.718050000000005
20
24.293803125
30
0
0
VERTEX
8
0
10
48.943215625
20
24.366965625000002
30
0
0
VERTEX
8
0
10
49.143
20
24.39860625
30
0
0
VERTEX
8
0
10
49.143
20
23.05239375
30
0
0
SEQEND
0
POLYLINE
66
1
8
16_copper
10
0.0
20
0.0
30
0.0
70
1
0
VERTEX
8
0
10
49.44779375
20
23.05239375
30
0
0
VERTEX
8
0
10
49.44779375
20
24.39860625
30
0
0
VERTEX
8
0
10
49.64758125
20
24.366965625000002
30
0
0
VERTEX
8
0
10
49.872746875000004
20
24.293803125
30
0
0
VERTEX
8
0
10
50.083656250000004
20
24.186340625
30
0
0
VERTEX
8
0
10
50.275190625
20
24.04718125
30
0
0
VERTEX
8
0
10
50.44258125
20
23.879790625000002
30
0
0
VERTEX
8
0
10
50.581740625
20
23.688256250000002
30
0
0
VERTEX
8
0
10
50.689203125000006
20
23.477346875000002
30
0
0
VERTEX
8
0
10
50.762365625
20
23.25218125
30
0
0
VERTEX
8
0
10
50.79400625
20
23.05239375
30
0
0
SEQEND
0
POLYLINE
66
1
8
16_copper
10
0.0
20
0.0
30
0.0
70
1
0
VERTEX
8
0
10
59.201390625
20
23.05239375
30
0
0
VERTEX
8
0
10
59.23303125
20
23.25218125
30
0
0
VERTEX
8
0
10
59.306193750000006
20
23.477346875000002
30
0
0
VERTEX
8
0
10
59.41365625
20
23.688256250000002
30
0
0
VERTEX
8
0
10
59.552815625
20
23.879790625000002
30
0
0
VERTEX
8
0
10
59.720206250000004
20
24.04718125
30
0
0
VERTEX
8
0
10
59.911740625
20
24.186340625
30
0
0
VERTEX
8
0
10
60.12265
20
24.293803125
30
0
0
VERTEX
8
0
10
60.347815625
20
24.366965625000002
30
0
0
VERTEX
8
0
10
60.5476
20
24.39860625
30
0
0
VERTEX
8
0
10
60.5476
20
23.05239375
30
0
0
SEQEND
0
POLYLINE
66
1
8
16_copper
10
0.0
20
0.0
30
0.0
70
1
0
VERTEX
8
0
10
60.852393750000005
20
23.05239375
30
0
0
VERTEX
8
0
10
60.852393750000005
20
24.39860625
30
0
0
VERTEX
8
0
10
61.052181250000004
20
24.366965625000002
30
0
0
VERTEX
8
0
10
61.277346875000006
20
24.293803125
30
0
0
VERTEX
8
0
10
61.488256250000006
20
24.186340625
30
0
0
VERTEX
8
0
10
61.679790625
20
24.04718125
30
0
0
VERTEX
8
0
10
61.847181250000006
20
23.879790625000002
30
0
0
VERTEX
8
0
10
61.986340625000004
20
23.688256250000002
30
0
0
VERTEX
8
0
10
62.093803125
20
23.477346875000002
30
0
0
VERTEX
8
0
10
62.166965625
20
23.25218125
30
0
0
VERTEX
8
0
10
62.198606250000005
20
23.05239375
30
0
0
SEQEND
0
POLYLINE
66
1
8
16_copper
10
0.0
20
0.0
30
0.0
70
1
0
VERTEX
8
0
10
60.699984375
20
22.899984375000003
30
0
0
VERTEX
8
0
10
60.699984375
20
22.900012500000003
30
0
0
VERTEX
8
0
10
60.7000125
20
22.900012500000003
30
0
0
VERTEX
8
0
10
60.7000125
20
22.899984375000003
30
0
0
SEQEND
0
POLYLINE
66
1
8
16_copper
10
0.0
20
0.0
30
0.0
70
1
0
VERTEX
8
0
10
49.295384375000005
20
22.899984375000003
30
0
0
VERTEX
8
0
10
49.295384375000005
20
22.900012500000003
30
0
0
VERTEX
8
0
10
49.295412500000005
20
22.900012500000003
30
0
0
VERTEX
8
0
10
49.295412500000005
20
22.899984375000003
30
0
0
SEQEND
0
POLYLINE
66
1
8
16_copper
10
0.0
20
0.0
30
0.0
70
1
0
VERTEX
8
0
10
60.852393750000005
20
22.747600000000002
30
0
0
VERTEX
8
0
10
62.198606250000005
20
22.747600000000002
30
0
0
VERTEX
8
0
10
62.166965625
20
22.547815625000002
30
0
0
VERTEX
8
0
10
62.093803125
20
22.32265
30
0
0
VERTEX
8
0
10
61.986340625000004
20
22.111740625
30
0
0
VERTEX
8
0
10
61.847181250000006
20
21.92020625
30
0
0
VERTEX
8
0
10
61.679790625
20
21.752815625
30
0
0
VERTEX
8
0
10
61.488256250000006
20
21.613656250000002
30
0
0
VERTEX
8
0
10
61.277346875000006
20
21.50619375
30
0
0
VERTEX
8
0
10
61.052181250000004
20
21.433031250000003
30
0
0
VERTEX
8
0
10
60.852393750000005
20
21.401390625
30
0
0
SEQEND
0
POLYLINE
66
1
8
16_copper
10
0.0
20
0.0
30
0.0
70
1
0
VERTEX
8
0
10
60.347815625
20
21.433031250000003
30
0
0
VERTEX
8
0
10
60.12265
20
21.50619375
30
0
0
VERTEX
8
0
10
59.911740625
20
21.613656250000002
30
0
0
VERTEX
8
0
10
59.720206250000004
20
21.752815625
30
0
0
VERTEX
8
0
10
59.552815625
20
21.92020625
30
0
0
VERTEX
8
0
10
59.41365625
20
22.111740625
30
0
0
VERTEX
8
0
10
59.306193750000006
20
22.32265
30
0
0
VERTEX
8
0
10
59.23303125
20
22.547815625000002
30
0
0
VERTEX
8
0
10
59.201390625
20
22.747600000000002
30
0
0
VERTEX
8
0
10
60.5476
20
22.747600000000002
30
0
0
VERTEX
8
0
10
60.5476
20
21.401390625
30
0
0
SEQEND
0
POLYLINE
66
1
8
16_copper
10
0.0
20
0.0
30
0.0
70
1
0
VERTEX
8
0
10
49.44779375
20
22.747600000000002
30
0
0
VERTEX
8
0
10
50.79400625
20
22.747600000000002
30
0
0
VERTEX
8
0
10
50.762365625
20
22.547815625000002
30
0
0
VERTEX
8
0
10
50.689203125000006
20
22.32265
30
0
0
VERTEX
8
0
10
50.581740625
20
22.111740625
30
0
0
VERTEX
8
0
10
50.44258125
20
21.92020625
30
0
0
VERTEX
8
0
10
50.275190625
20
21.752815625
30
0
0
VERTEX
8
0
10
50.083656250000004
20
21.613656250000002
30
0
0
VERTEX
8
0
10
49.872746875000004
20
21.50619375
30
0
0
VERTEX
8
0
10
49.64758125
20
21.433031250000003
30
0
0
VERTEX
8
0
10
49.44779375
20
21.401390625
30
0
0
SEQEND
0
POLYLINE
66
1
8
16_copper
10
0.0
20
0.0
30
0.0
70
1
0
VERTEX
8
0
10
48.943215625
20
21.433031250000003
30
0
0
VERTEX
8
0
10
48.718050000000005
20
21.50619375
30
0
0
VERTEX
8
0
10
48.507140625000005
20
21.613656250000002
30
0
0
VERTEX
8
0
10
48.31560625
20
21.752815625
30
0
0
VERTEX
8
0
10
48.148215625
20
21.92020625
30
0
0
VERTEX
8
0
10
48.00905625
20
22.111740625
30
0
0
VERTEX
8
0
10
47.90159375
20
22.32265
30
0
0
VERTEX
8
0
10
47.82843125
20
22.547815625000002
30
0
0
VERTEX
8
0
10
47.796790625
20
22.747600000000002
30
0
0
VERTEX
8
0
10
49.143
20
22.747600000000002
30
0
0
VERTEX
8
0
10
49.143
20
21.401390625
30
0
0
SEQEND
0
POLYLINE
66
1
8
1_copper
10
0.0
20
0.0
30
0.0
70
1
0
VERTEX
8
0
10
49.539484375
20
35.417443750000004
30
0
42
0.9308331713209983
0
VERTEX
8
0
10
49.079875
20
35.815525
30
0
0
VERTEX
8
0
10
40.259150000000005
20
26.9948
30
0
0
VERTEX
8
0
10
35.120000000000005
20
26.9948
30
0
0
VERTEX
8
0
10
35.119284375
20
26.99475
30
0
0
VERTEX
8
0
10
35.118565625
20
26.994796875000002
30
0
42
0.03582138667997905
0
VERTEX
8
0
10
35.075075
20
26.991471875000002
30
0
0
VERTEX
8
0
10
35.068478125
20
26.990000000000002
30
0
0
VERTEX
8
0
10
33.620000000000005
20
26.990000000000002
30
0
0
VERTEX
8
0
10
33.620000000000005
20
26.39
30
0
0
VERTEX
8
0
10
34.815200000000004
20
26.39
30
0
0
VERTEX
8
0
10
34.815200000000004
20
25.990000000000002
30
0
0
VERTEX
8
0
10
33.620000000000005
20
25.990000000000002
30
0
0
VERTEX
8
0
10
33.620000000000005
20
25.39
30
0
0
VERTEX
8
0
10
35.06909375
20
25.39
30
0
0
VERTEX
8
0
10
35.077912500000004
20
25.38811875
30
0
42
0.0011744727552567887
0
VERTEX
8
0
10
35.07933125
20
25.387925000000003
30
0
0
VERTEX
8
0
10
35.120000000000005
20
25.3852
30
0
0
VERTEX
8
0
10
39.385400000000004
20
25.3852
30
0
0
VERTEX
8
0
10
39.397368750000005
20
25.386059375000002
30
0
0
VERTEX
8
0
10
39.409353125
20
25.386143750000002
30
0
42
0.144214582167629
0
VERTEX
8
0
10
39.57024375
20
25.44764375
30
0
0
VERTEX
8
0
10
39.57813125
20
25.454540625
30
0
42
0.015625620443906547
0
VERTEX
8
0
10
39.59244375
20
25.467056250000002
30
0
0
VERTEX
8
0
10
39.600925000000004
20
25.474475
30
0
0
VERTEX
8
0
10
49.510925
20
35.384475
30
0
0
SEQEND
0
POLYLINE
66
1
8
1_copper
10
0.0
20
0.0
30
0.0
70
1
0
VERTEX
8
0
10
35.424800000000005
20
25.9948
30
0
0
VERTEX
8
0
10
35.424800000000005
20
26.3852
30
0
0
VERTEX
8
0
10
39.649550000000005
20
26.3852
30
0
0
VERTEX
8
0
10
39.259150000000005
20
25.9948
30
0
0
SEQEND
0
POLYLINE
66
1
8
1_copper
10
0.0
20
0.0
30
0.0
70
1
0
VERTEX
8
0
10
36.620000000000005
20
23.990000000000002
30
0
0
VERTEX
8
0
10
33.620000000000005
20
23.990000000000002
30
0
0
VERTEX
8
0
10
33.620000000000005
20
23.39
30
0
0
VERTEX
8
0
10
36.620000000000005
20
23.39
30
0
0
SEQEND
0
POLYLINE
66
1
8
1_copper
10
0.0
20
0.0
30
0.0
70
1
0
VERTEX
8
0
10
36.620000000000005
20
24.990000000000002
30
0
0
VERTEX
8
0
10
33.620000000000005
20
24.990000000000002
30
0
0
VERTEX
8
0
10
33.620000000000005
20
24.39
30
0
0
VERTEX
8
0
10
36.620000000000005
20
24.39
30
0
0
SEQEND
0
POLYLINE
66
1
8
1_copper
10
0.0
20
0.0
30
0.0
70
1
0
VERTEX
8
0
10
41.38196875
20
21.386059375000002
30
0
0
VERTEX
8
0
10
41.393953125
20
21.386143750000002
30
0
42
0.144214582167629
0
VERTEX
8
0
10
41.55484375
20
21.44764375
30
0
0
VERTEX
8
0
10
41.56273125
20
21.454540625
30
0
42
0.015625620443906547
0
VERTEX
8
0
10
41.57704375
20
21.467056250000002
30
0
0
VERTEX
8
0
10
41.585525000000004
20
21.474475
30
0
0
VERTEX
8
0
10
45.64625
20
25.5352
30
0
0
VERTEX
8
0
10
66.67915
20
25.5352
30
0
0
VERTEX
8
0
10
68.47540000000001
20
23.738950000000003
30
0
0
VERTEX
8
0
10
68.47540000000001
20
22.900000000000002
30
0
0
VERTEX
8
0
10
68.476353125
20
22.87285625
30
0
0
VERTEX
8
0
10
68.4765625
20
22.845690625
30
0
42
0.3859261786651442
0
VERTEX
8
0
10
69.67589062500001
20
21.631903125
30
0
0
VERTEX
8
0
10
69.697075
20
21.631321875
30
0
42
0.005347712157296638
0
VERTEX
8
0
10
69.724221875
20
21.630581250000002
30
0
0
VERTEX
8
0
10
69.7454
20
21.630000000000003
30
0
0
VERTEX
8
0
10
81.15
20
21.630000000000003
30
0
0
VERTEX
8
0
10
81.239025
20
21.633125
30
0
42
0.9394147363927301
0
VERTEX
8
0
10
81.219509375
20
24.168096875
30
0
0
VERTEX
8
0
10
81.15
20
24.17
30
0
0
VERTEX
8
0
10
71.0154
20
24.17
30
0
0
VERTEX
8
0
10
71.0154
20
29.25
30
0
0
VERTEX
8
0
10
71.012275
20
29.339025000000003
30
0
42
0.9394147363927301
0
VERTEX
8
0
10
68.477303125
20
29.319509375000003
30
0
0
VERTEX
8
0
10
68.47540000000001
20
29.25
30
0
0
VERTEX
8
0
10
68.47540000000001
20
24.60105
30
0
0
VERTEX
8
0
10
67.020925
20
26.055525000000003
30
0
0
VERTEX
8
0
10
67.011865625
20
26.063375
30
0
0
VERTEX
8
0
10
67.003321875
20
26.071796875
30
0
42
0.14421336799456477
0
VERTEX
8
0
10
66.84606875
20
26.142075000000002
30
0
0
VERTEX
8
0
10
66.835609375
20
26.142775
30
0
42
0.0156090373326806
0
VERTEX
8
0
10
66.816659375
20
26.144046875
30
0
0
VERTEX
8
0
10
66.8054
20
26.1448
30
0
0
VERTEX
8
0
10
45.52
20
26.1448
30
0
0
VERTEX
8
0
10
45.50803125
20
26.143940625000003
30
0
0
VERTEX
8
0
10
45.496046875000005
20
26.143856250000002
30
0
42
0.144214582167629
0
VERTEX
8
0
10
45.335156250000004
20
26.08235625
30
0
0
VERTEX
8
0
10
45.32726875
20
26.075459375
30
0
42
0.015625620443906547
0
VERTEX
8
0
10
45.31295625
20
26.062943750000002
30
0
0
VERTEX
8
0
10
45.304475000000004
20
26.055525000000003
30
0
0
VERTEX
8
0
10
41.24375
20
21.9948
30
0
0
VERTEX
8
0
10
35.120000000000005
20
21.9948
30
0
0
VERTEX
8
0
10
35.076493750000004
20
21.991678125
30
0
0
VERTEX
8
0
10
35.0688
20
21.990000000000002
30
0
0
VERTEX
8
0
10
33.620000000000005
20
21.990000000000002
30
0
0
VERTEX
8
0
10
33.620000000000005
20
21.39
30
0
0
VERTEX
8
0
10
35.069371875
20
21.39
30
0
0
VERTEX
8
0
10
35.07933125
20
21.387925000000003
30
0
0
VERTEX
8
0
10
35.120000000000005
20
21.3852
30
0
0
VERTEX
8
0
10
41.370000000000005
20
21.3852
30
0
0
SEQEND
0
POLYLINE
66
1
8
1_copper
10
0.0
20
0.0
30
0.0
70
1
0
VERTEX
8
0
10
39.03065
20
22.386059375000002
30
0
0
VERTEX
8
0
10
39.042634375
20
22.386143750000002
30
0
42
0.144214582167629
0
VERTEX
8
0
10
39.203525
20
22.44764375
30
0
0
VERTEX
8
0
10
39.2114125
20
22.454540625
30
0
42
0.015625620443906547
0
VERTEX
8
0
10
39.225725000000004
20
22.467056250000002
30
0
0
VERTEX
8
0
10
39.23420625
20
22.474475
30
0
0
VERTEX
8
0
10
48.91853125
20
32.1588
30
0
0
VERTEX
8
0
10
61.1636
20
32.1588
30
0
0
VERTEX
8
0
10
61.20710625
20
32.161921875000004
30
0
42
0.07173697373226474
0
VERTEX
8
0
10
61.290575000000004
20
32.18650625
30
0
0
VERTEX
8
0
10
61.3064375
20
32.1952
30
0
0
VERTEX
8
0
10
66.64540000000001
20
32.1952
30
0
0
VERTEX
8
0
10
66.65736875
20
32.196059375000004
30
0
0
VERTEX
8
0
10
66.669353125
20
32.196143750000005
30
0
42
0.144214582167629
0
VERTEX
8
0
10
66.83024375000001
20
32.25764375
30
0
0
VERTEX
8
0
10
66.83813125
20
32.264540625
30
0
42
0.015625620443906547
0
VERTEX
8
0
10
66.85244375
20
32.27705625
30
0
0
VERTEX
8
0
10
66.86092500000001
20
32.284475
30
0
0
VERTEX
8
0
10
69.960925
20
35.384475
30
0
0
VERTEX
8
0
10
69.989484375
20
35.417443750000004
30
0
42
0.9308331713209983
0
VERTEX
8
0
10
69.529875
20
35.815525
30
0
0
VERTEX
8
0
10
66.51915
20
32.8048
30
0
0
VERTEX
8
0
10
61.2
20
32.8048
30
0
0
VERTEX
8
0
10
61.15649375
20
32.801678125
30
0
0
VERTEX
8
0
10
61.113878125
20
32.79238125
30
0
0
VERTEX
8
0
10
61.073025
20
32.77709375
30
0
0
VERTEX
8
0
10
61.057162500000004
20
32.7684
30
0
0
VERTEX
8
0
10
48.79228125
20
32.7684
30
0
0
VERTEX
8
0
10
48.7803125
20
32.767540625
30
0
0
VERTEX
8
0
10
48.768328125000004
20
32.76745625
30
0
42
0.144214582167629
0
VERTEX
8
0
10
48.6074375
20
32.70595625
30
0
0
VERTEX
8
0
10
48.59955
20
32.699059375000004
30
0
42
0.015625620443906547
0
VERTEX
8
0
10
48.585237500000005
20
32.68654375
30
0
0
VERTEX
8
0
10
48.57675625
20
32.679125
30
0
0
VERTEX
8
0
10
38.89243125
20
22.9948
30
0
0
VERTEX
8
0
10
35.120000000000005
20
22.9948
30
0
0
VERTEX
8
0
10
35.076493750000004
20
22.991678125
30
0
0
VERTEX
8
0
10
35.0688
20
22.990000000000002
30
0
0
VERTEX
8
0
10
33.620000000000005
20
22.990000000000002
30
0
0
VERTEX
8
0
10
33.620000000000005
20
22.39
30
0
0
VERTEX
8
0
10
35.069371875
20
22.39
30
0
0
VERTEX
8
0
10
35.07933125
20
22.387925000000003
30
0
0
VERTEX
8
0
10
35.120000000000005
20
22.3852
30
0
0
VERTEX
8
0
10
39.01868125
20
22.3852
30
0
0
SEQEND
0
CIRCLE
8
drills_PTH
10
60.7
20
22.900000000000002
30
0
40
0.75
0
CIRCLE
8
drills_PTH
10
60.7
20
29.25
30
0
40
0.75
0
CIRCLE
8
drills_PTH
10
60.7
20
35.6
30
0
40
0.75
0
CIRCLE
8
drills_PTH
10
49.2954
20
22.900000000000002
30
0
40
0.75
0
CIRCLE
8
drills_PTH
10
49.2954
20
29.25
30
0
40
0.75
0
CIRCLE
8
drills_PTH
10
49.2954
20
35.6
30
0
40
0.75
0
CIRCLE
8
drills_PTH
10
81.15
20
22.900000000000002
30
0
40
0.75
0
CIRCLE
8
drills_PTH
10
81.15
20
29.25
30
0
40
0.75
0
CIRCLE
8
drills_PTH
10
81.15
20
35.6
30
0
40
0.75
0
CIRCLE
8
drills_PTH
10
69.7454
20
22.900000000000002
30
0
40
0.75
0
CIRCLE
8
drills_PTH
10
69.7454
20
29.25
30
0
40
0.75
0
CIRCLE
8
drills_PTH
10
69.7454
20
35.6
30
0
40
0.75
0
ENDSEC
0
EOF