0
SECTION
2
HEADER
9
$ANGDIR
70
1
9
$AUNITS
70
0
9
$PROJECTNAME
1
Connectors-MK2-1ch
9
$TDCREATE
40
2459726.95424473
9
$INSUNITS
70
4
0
ENDSEC
0
SECTION
2
ENTITIES
0
POLYLINE
66
1
8
outline
10
0.0
20
0.0
30
0.0
70
1
0
VERTEX
8
0
10
32.5
20
18.5
30
0
0
VERTEX
8
0
10
92
20
18.5
30
0
0
VERTEX
8
0
10
92
20
47
30
0
0
VERTEX
8
0
10
38.5
20
47
30
0
0
VERTEX
8
0
10
38.5
20
31
30
0
0
VERTEX
8
0
10
32.5
20
31
30
0
0
VERTEX
8
0
10
32.5
20
18.5
30
0
0
SEQEND
0
POLYLINE
66
1
8
1_copper
10
0.0
20
0.0
30
0.0
70
1
0
VERTEX
8
0
10
91.62461875000001
20
18.805609375
30
0
42
0.39258815634569955
0
VERTEX
8
0
10
91.6952
20
18.880996875
30
0
0
VERTEX
8
0
10
91.6952
20
46.5936
30
0
0
VERTEX
8
0
10
91.6943875
20
46.599218750000006
30
0
42
0.39258815634569955
0
VERTEX
8
0
10
91.619
20
46.6698
30
0
0
VERTEX
8
0
10
38.906396875
20
46.6698
30
0
0
VERTEX
8
0
10
38.900778125
20
46.6689875
30
0
42
0.39258815634569955
0
VERTEX
8
0
10
38.830196875
20
46.5936
30
0
0
VERTEX
8
0
10
38.830196875
20
30.863225
30
0
0
VERTEX
8
0
10
38.636771875
20
30.669800000000002
30
0
0
VERTEX
8
0
10
32.906396875
20
30.669800000000002
30
0
0
VERTEX
8
0
10
32.900778125
20
30.6689875
30
0
42
0.39258815634569955
0
VERTEX
8
0
10
32.830196875
20
30.593600000000002
30
0
0
VERTEX
8
0
10
32.830196875
20
18.880996875
30
0
0
VERTEX
8
0
10
32.831009375
20
18.875378125
30
0
42
0.39258815634569955
0
VERTEX
8
0
10
32.906396875
20
18.804796875
30
0
0
VERTEX
8
0
10
91.619
20
18.804796875
30
0
0
SEQEND
0
POLYLINE
66
1
8
1_copper
10
0.0
20
0.0
30
0.0
70
1
0
VERTEX
8
0
10
80.85083125
20
34.096000000000004
30
0
0
VERTEX
8
0
10
80.29805
20
34.324971875
30
0
0
VERTEX
8
0
10
79.874971875
20
34.74805
30
0
0
VERTEX
8
0
10
79.646
20
35.30083125
30
0
0
VERTEX
8
0
10
79.646
20
35.899165625
30
0
0
VERTEX
8
0
10
79.874971875
20
36.451946875000004
30
0
0
VERTEX
8
0
10
80.29805
20
36.875025
30
0
0
VERTEX
8
0
10
80.85083125
20
37.103996875
30
0
0
VERTEX
8
0
10
81.449165625
20
37.103996875
30
0
0
VERTEX
8
0
10
82.001946875
20
36.875025
30
0
0
VERTEX
8
0
10
82.425025
20
36.451946875000004
30
0
0
VERTEX
8
0
10
82.653996875
20
35.899165625
30
0
0
VERTEX
8
0
10
82.653996875
20
35.30083125
30
0
0
VERTEX
8
0
10
82.425025
20
34.74805
30
0
0
VERTEX
8
0
10
82.001946875
20
34.324971875
30
0
0
VERTEX
8
0
10
81.449165625
20
34.096000000000004
30
0
0
SEQEND
0
POLYLINE
66
1
8
1_copper
10
0.0
20
0.0
30
0.0
70
1
0
VERTEX
8
0
10
69.44623125
20
34.096000000000004
30
0
0
VERTEX
8
0
10
68.89345
20
34.324971875
30
0
0
VERTEX
8
0
10
68.470371875
20
34.74805
30
0
0
VERTEX
8
0
10
68.2414
20
35.30083125
30
0
0
VERTEX
8
0
10
68.2414
20
35.899165625
30
0
0
VERTEX
8
0
10
68.470371875
20
36.451946875000004
30
0
0
VERTEX
8
0
10
68.89345
20
36.875025
30
0
0
VERTEX
8
0
10
69.44623125
20
37.103996875
30
0
0
VERTEX
8
0
10
70.044565625
20
37.103996875
30
0
0
VERTEX
8
0
10
70.597346875
20
36.875025
30
0
0
VERTEX
8
0
10
71.020425
20
36.451946875000004
30
0
0
VERTEX
8
0
10
71.249396875
20
35.899165625
30
0
0
VERTEX
8
0
10
71.249396875
20
35.30083125
30
0
0
VERTEX
8
0
10
71.020425
20
34.74805
30
0
0
VERTEX
8
0
10
70.597346875
20
34.324971875
30
0
0
VERTEX
8
0
10
70.044565625
20
34.096000000000004
30
0
0
SEQEND
0
POLYLINE
66
1
8
1_copper
10
0.0
20
0.0
30
0.0
70
1
0
VERTEX
8
0
10
60.40083125
20
34.096000000000004
30
0
0
VERTEX
8
0
10
59.84805
20
34.324971875
30
0
0
VERTEX
8
0
10
59.424971875000004
20
34.74805
30
0
0
VERTEX
8
0
10
59.196000000000005
20
35.30083125
30
0
0
VERTEX
8
0
10
59.196000000000005
20
35.899165625
30
0
0
VERTEX
8
0
10
59.424971875000004
20
36.451946875000004
30
0
0
VERTEX
8
0
10
59.84805
20
36.875025
30
0
0
VERTEX
8
0
10
60.40083125
20
37.103996875
30
0
0
VERTEX
8
0
10
60.999165625
20
37.103996875
30
0
0
VERTEX
8
0
10
61.551946875000006
20
36.875025
30
0
0
VERTEX
8
0
10
61.975025
20
36.451946875000004
30
0
0
VERTEX
8
0
10
62.203996875
20
35.899165625
30
0
0
VERTEX
8
0
10
62.203996875
20
35.30083125
30
0
0
VERTEX
8
0
10
61.975025
20
34.74805
30
0
0
VERTEX
8
0
10
61.551946875000006
20
34.324971875
30
0
0
VERTEX
8
0
10
60.999165625
20
34.096000000000004
30
0
0
SEQEND
0
POLYLINE
66
1
8
1_copper
10
0.0
20
0.0
30
0.0
70
1
0
VERTEX
8
0
10
48.99623125
20
34.096000000000004
30
0
0
VERTEX
8
0
10
48.443450000000006
20
34.324971875
30
0
0
VERTEX
8
0
10
48.020371875
20
34.74805
30
0
0
VERTEX
8
0
10
47.7914
20
35.30083125
30
0
0
VERTEX
8
0
10
47.7914
20
35.899165625
30
0
0
VERTEX
8
0
10
48.020371875
20
36.451946875000004
30
0
0
VERTEX
8
0
10
48.443450000000006
20
36.875025
30
0
0
VERTEX
8
0
10
48.99623125
20
37.103996875
30
0
0
VERTEX
8
0
10
49.594565625
20
37.103996875
30
0
0
VERTEX
8
0
10
50.147346875000004
20
36.875025
30
0
0
VERTEX
8
0
10
50.570425
20
36.451946875000004
30
0
0
VERTEX
8
0
10
50.799396875
20
35.899165625
30
0
0
VERTEX
8
0
10
50.799396875
20
35.30083125
30
0
0
VERTEX
8
0
10
50.570425
20
34.74805
30
0
0
VERTEX
8
0
10
50.147346875000004
20
34.324971875
30
0
0
VERTEX
8
0
10
49.594565625
20
34.096000000000004
30
0
0
SEQEND
0
POLYLINE
66
1
8
1_copper
10
0.0
20
0.0
30
0.0
70
1
0
VERTEX
8
0
10
80.85083125
20
27.746000000000002
30
0
0
VERTEX
8
0
10
80.29805
20
27.974971875
30
0
0
VERTEX
8
0
10
79.874971875
20
28.39805
30
0
0
VERTEX
8
0
10
79.646
20
28.95083125
30
0
0
VERTEX
8
0
10
79.646
20
29.549165625
30
0
0
VERTEX
8
0
10
79.874971875
20
30.101946875000003
30
0
0
VERTEX
8
0
10
80.29805
20
30.525025000000003
30
0
0
VERTEX
8
0
10
80.85083125
20
30.753996875000002
30
0
0
VERTEX
8
0
10
81.449165625
20
30.753996875000002
30
0
0
VERTEX
8
0
10
82.001946875
20
30.525025000000003
30
0
0
VERTEX
8
0
10
82.425025
20
30.101946875000003
30
0
0
VERTEX
8
0
10
82.653996875
20
29.549165625
30
0
0
VERTEX
8
0
10
82.653996875
20
28.95083125
30
0
0
VERTEX
8
0
10
82.425025
20
28.39805
30
0
0
VERTEX
8
0
10
82.001946875
20
27.974971875
30
0
0
VERTEX
8
0
10
81.449165625
20
27.746000000000002
30
0
0
SEQEND
0
POLYLINE
66
1
8
1_copper
10
0.0
20
0.0
30
0.0
70
1
0
VERTEX
8
0
10
69.44623125
20
27.746000000000002
30
0
0
VERTEX
8
0
10
68.89345
20
27.974971875
30
0
0
VERTEX
8
0
10
68.470371875
20
28.39805
30
0
0
VERTEX
8
0
10
68.2414
20
28.95083125
30
0
0
VERTEX
8
0
10
68.2414
20
29.549165625
30
0
0
VERTEX
8
0
10
68.470371875
20
30.101946875000003
30
0
0
VERTEX
8
0
10
68.89345
20
30.525025000000003
30
0
0
VERTEX
8
0
10
69.44623125
20
30.753996875000002
30
0
0
VERTEX
8
0
10
70.044565625
20
30.753996875000002
30
0
0
VERTEX
8
0
10
70.597346875
20
30.525025000000003
30
0
0
VERTEX
8
0
10
71.020425
20
30.101946875000003
30
0
0
VERTEX
8
0
10
71.249396875
20
29.549165625
30
0
0
VERTEX
8
0
10
71.249396875
20
28.95083125
30
0
0
VERTEX
8
0
10
71.020425
20
28.39805
30
0
0
VERTEX
8
0
10
70.597346875
20
27.974971875
30
0
0
VERTEX
8
0
10
70.044565625
20
27.746000000000002
30
0
0
SEQEND
0
POLYLINE
66
1
8
1_copper
10
0.0
20
0.0
30
0.0
70
1
0
VERTEX
8
0
10
60.40083125
20
27.746000000000002
30
0
0
VERTEX
8
0
10
59.84805
20
27.974971875
30
0
0
VERTEX
8
0
10
59.424971875000004
20
28.39805
30
0
0
VERTEX
8
0
10
59.196000000000005
20
28.95083125
30
0
0
VERTEX
8
0
10
59.196000000000005
20
29.549165625
30
0
0
VERTEX
8
0
10
59.424971875000004
20
30.101946875000003
30
0
0
VERTEX
8
0
10
59.84805
20
30.525025000000003
30
0
0
VERTEX
8
0
10
60.40083125
20
30.753996875000002
30
0
0
VERTEX
8
0
10
60.999165625
20
30.753996875000002
30
0
0
VERTEX
8
0
10
61.551946875000006
20
30.525025000000003
30
0
0
VERTEX
8
0
10
61.975025
20
30.101946875000003
30
0
0
VERTEX
8
0
10
62.203996875
20
29.549165625
30
0
0
VERTEX
8
0
10
62.203996875
20
28.95083125
30
0
0
VERTEX
8
0
10
61.975025
20
28.39805
30
0
0
VERTEX
8
0
10
61.551946875000006
20
27.974971875
30
0
0
VERTEX
8
0
10
60.999165625
20
27.746000000000002
30
0
0
SEQEND
0
POLYLINE
66
1
8
1_copper
10
0.0
20
0.0
30
0.0
70
1
0
VERTEX
8
0
10
48.99623125
20
27.746000000000002
30
0
0
VERTEX
8
0
10
48.443450000000006
20
27.974971875
30
0
0
VERTEX
8
0
10
48.020371875
20
28.39805
30
0
0
VERTEX
8
0
10
47.7914
20
28.95083125
30
0
0
VERTEX
8
0
10
47.7914
20
29.549165625
30
0
0
VERTEX
8
0
10
48.020371875
20
30.101946875000003
30
0
0
VERTEX
8
0
10
48.443450000000006
20
30.525025000000003
30
0
0
VERTEX
8
0
10
48.99623125
20
30.753996875000002
30
0
0
VERTEX
8
0
10
49.594565625
20
30.753996875000002
30
0
0
VERTEX
8
0
10
50.147346875000004
20
30.525025000000003
30
0
0
VERTEX
8
0
10
50.570425
20
30.101946875000003
30
0
0
VERTEX
8
0
10
50.799396875
20
29.549165625
30
0
0
VERTEX
8
0
10
50.799396875
20
28.95083125
30
0
0
VERTEX
8
0
10
50.570425
20
28.39805
30
0
0
VERTEX
8
0
10
50.147346875000004
20
27.974971875
30
0
0
VERTEX
8
0
10
49.594565625
20
27.746000000000002
30
0
0
SEQEND
0
POLYLINE
66
1
8
1_copper
10
0.0
20
0.0
30
0.0
70
1
0
VERTEX
8
0
10
36.620000000000005
20
28.84
30
0
0
VERTEX
8
0
10
36.620000000000005
20
28.990000000000002
30
0
0
VERTEX
8
0
10
35.27
20
28.990000000000002
30
0
0
VERTEX
8
0
10
35.27
20
29.243996875
30
0
0
VERTEX
8
0
10
36.653440625
20
29.243996875
30
0
0
VERTEX
8
0
10
36.7180375
20
29.2266875
30
0
0
VERTEX
8
0
10
36.775959375
20
29.193246875
30
0
0
VERTEX
8
0
10
36.823246875
20
29.145959375
30
0
0
VERTEX
8
0
10
36.8566875
20
29.088037500000002
30
0
0
VERTEX
8
0
10
36.873996875
20
29.023440625000003
30
0
0
VERTEX
8
0
10
36.873996875
20
28.84
30
0
0
SEQEND
0
POLYLINE
66
1
8
1_copper
10
0.0
20
0.0
30
0.0
70
1
0
VERTEX
8
0
10
33.366
20
28.84
30
0
0
VERTEX
8
0
10
33.366
20
29.023440625000003
30
0
0
VERTEX
8
0
10
33.383309375
20
29.088037500000002
30
0
0
VERTEX
8
0
10
33.41675
20
29.145959375
30
0
0
VERTEX
8
0
10
33.4640375
20
29.193246875
30
0
0
VERTEX
8
0
10
33.521959375
20
29.2266875
30
0
0
VERTEX
8
0
10
33.58655625
20
29.243996875
30
0
0
VERTEX
8
0
10
34.96999375
20
29.243996875
30
0
0
VERTEX
8
0
10
34.96999375
20
28.990000000000002
30
0
0
VERTEX
8
0
10
33.620000000000005
20
28.990000000000002
30
0
0
VERTEX
8
0
10
33.620000000000005
20
28.84
30
0
0
SEQEND
0
POLYLINE
66
1
8
1_copper
10
0.0
20
0.0
30
0.0
70
1
0
VERTEX
8
0
10
33.366
20
27.84
30
0
0
VERTEX
8
0
10
33.366
20
28.023440625000003
30
0
0
VERTEX
8
0
10
33.383306250000004
20
28.08803125
30
0
0
VERTEX
8
0
10
33.42018125
20
28.151893750000003
30
0
0
VERTEX
8
0
10
33.422996875
20
28.1589375
30
0
0
VERTEX
8
0
10
33.426403125
20
28.165675
30
0
42
0.1668099121517446
0
VERTEX
8
0
10
33.426121875
20
28.215140625
30
0
0
VERTEX
8
0
10
33.423034375
20
28.221075000000003
30
0
0
VERTEX
8
0
10
33.42018125
20
28.228096875000002
30
0
0
VERTEX
8
0
10
33.383309375
20
28.291959375
30
0
0
VERTEX
8
0
10
33.366
20
28.35655625
30
0
0
VERTEX
8
0
10
33.366
20
28.53999375
30
0
0
VERTEX
8
0
10
33.620000000000005
20
28.53999375
30
0
0
VERTEX
8
0
10
33.620000000000005
20
28.39
30
0
0
VERTEX
8
0
10
34.96999375
20
28.39
30
0
0
VERTEX
8
0
10
34.96999375
20
27.990000000000002
30
0
0
VERTEX
8
0
10
33.620000000000005
20
27.990000000000002
30
0
0
VERTEX
8
0
10
33.620000000000005
20
27.84
30
0
0
SEQEND
0
POLYLINE
66
1
8
1_copper
10
0.0
20
0.0
30
0.0
70
1
0
VERTEX
8
0
10
36.620000000000005
20
27.84
30
0
0
VERTEX
8
0
10
36.620000000000005
20
27.990000000000002
30
0
0
VERTEX
8
0
10
35.27
20
27.990000000000002
30
0
0
VERTEX
8
0
10
35.27
20
28.39
30
0
0
VERTEX
8
0
10
36.620000000000005
20
28.39
30
0
0
VERTEX
8
0
10
36.620000000000005
20
28.53999375
30
0
0
VERTEX
8
0
10
36.873996875
20
28.53999375
30
0
0
VERTEX
8
0
10
36.873996875
20
28.35655625
30
0
0
VERTEX
8
0
10
36.8566875
20
28.291959375
30
0
0
VERTEX
8
0
10
36.819815625000004
20
28.228096875000002
30
0
0
VERTEX
8
0
10
36.817009375000005
20
28.221078125000002
30
0
0
VERTEX
8
0
10
36.813590625
20
28.21431875
30
0
42
0.16681649626555345
0
VERTEX
8
0
10
36.813875
20
28.16485
30
0
0
VERTEX
8
0
10
36.816965625
20
28.15890625
30
0
0
VERTEX
8
0
10
36.819815625000004
20
28.151893750000003
30
0
0
VERTEX
8
0
10
36.856690625
20
28.08803125
30
0
0
VERTEX
8
0
10
36.873996875
20
28.023440625000003
30
0
0
VERTEX
8
0
10
36.873996875
20
27.84
30
0
0
SEQEND
0
POLYLINE
66
1
8
1_copper
10
0.0
20
0.0
30
0.0
70
1
0
VERTEX
8
0
10
33.514787500000004
20
21.136000000000003
30
0
0
VERTEX
8
0
10
33.366
20
21.2847875
30
0
0
VERTEX
8
0
10
33.366
20
22.09520625
30
0
0
VERTEX
8
0
10
33.406909375000005
20
22.1361125
30
0
42
0.4142220557498749
0
VERTEX
8
0
10
33.406909375000005
20
22.243878125000002
30
0
0
VERTEX
8
0
10
33.366
20
22.2847875
30
0
0
VERTEX
8
0
10
33.366
20
23.09520625
30
0
0
VERTEX
8
0
10
33.406909375000005
20
23.1361125
30
0
42
0.4142220557498749
0
VERTEX
8
0
10
33.406909375000005
20
23.243878125000002
30
0
0
VERTEX
8
0
10
33.366
20
23.2847875
30
0
0
VERTEX
8
0
10
33.366
20
24.09520625
30
0
0
VERTEX
8
0
10
33.406909375000005
20
24.1361125
30
0
42
0.4142220557498749
0
VERTEX
8
0
10
33.406909375000005
20
24.243878125000002
30
0
0
VERTEX
8
0
10
33.366
20
24.2847875
30
0
0
VERTEX
8
0
10
33.366
20
25.09520625
30
0
0
VERTEX
8
0
10
33.406909375000005
20
25.136112500000003
30
0
42
0.4142220557498749
0
VERTEX
8
0
10
33.406909375000005
20
25.243878125000002
30
0
0
VERTEX
8
0
10
33.366
20
25.2847875
30
0
0
VERTEX
8
0
10
33.366
20
26.09520625
30
0
0
VERTEX
8
0
10
33.406909375000005
20
26.136112500000003
30
0
42
0.4142220557498749
0
VERTEX
8
0
10
33.406909375000005
20
26.243878125000002
30
0
0
VERTEX
8
0
10
33.366
20
26.2847875
30
0
0
VERTEX
8
0
10
33.366
20
27.09520625
30
0
0
VERTEX
8
0
10
33.407646875000005
20
27.136850000000003
30
0
42
0.33946327820194455
0
VERTEX
8
0
10
33.41975625
20
27.228834375
30
0
0
VERTEX
8
0
10
33.383309375
20
27.291959375
30
0
0
VERTEX
8
0
10
33.366
20
27.35655625
30
0
0
VERTEX
8
0
10
33.366
20
27.53999375
30
0
0
VERTEX
8
0
10
33.620000000000005
20
27.53999375
30
0
0
VERTEX
8
0
10
33.620000000000005
20
27.39
30
0
0
VERTEX
8
0
10
36.620000000000005
20
27.39
30
0
0
VERTEX
8
0
10
36.620000000000005
20
27.53999375
30
0
0
VERTEX
8
0
10
36.873996875
20
27.53999375
30
0
0
VERTEX
8
0
10
36.873996875
20
27.35655625
30
0
0
VERTEX
8
0
10
36.8566875
20
27.291959375
30
0
0
VERTEX
8
0
10
36.820240625000004
20
27.228834375
30
0
0
VERTEX
8
0
10
36.817775000000005
20
27.22266875
30
0
0
VERTEX
8
0
10
36.81464375
20
27.216840625
30
0
42
0.2916503160847645
0
VERTEX
8
0
10
36.832350000000005
20
27.136850000000003
30
0
0
VERTEX
8
0
10
36.873996875
20
27.09520625
30
0
0
VERTEX
8
0
10
36.873996875
20
26.2847875
30
0
0
VERTEX
8
0
10
36.833087500000005
20
26.243878125000002
30
0
42
0.4142220557498749
0
VERTEX
8
0
10
36.833087500000005
20
26.136112500000003
30
0
0
VERTEX
8
0
10
36.873996875
20
26.09520625
30
0
0
VERTEX
8
0
10
36.873996875
20
25.2847875
30
0
0
VERTEX
8
0
10
36.833087500000005
20
25.243878125000002
30
0
42
0.4142220557498749
0
VERTEX
8
0
10
36.833087500000005
20
25.136112500000003
30
0
0
VERTEX
8
0
10
36.873996875
20
25.09520625
30
0
0
VERTEX
8
0
10
36.873996875
20
24.2847875
30
0
0
VERTEX
8
0
10
36.833087500000005
20
24.243878125000002
30
0
42
0.4142220557498749
0
VERTEX
8
0
10
36.833087500000005
20
24.1361125
30
0
0
VERTEX
8
0
10
36.873996875
20
24.09520625
30
0
0
VERTEX
8
0
10
36.873996875
20
23.2847875
30
0
0
VERTEX
8
0
10
36.833087500000005
20
23.243878125000002
30
0
42
0.4142220557498749
0
VERTEX
8
0
10
36.833087500000005
20
23.1361125
30
0
0
VERTEX
8
0
10
36.873996875
20
23.09520625
30
0
0
VERTEX
8
0
10
36.873996875
20
22.2847875
30
0
0
VERTEX
8
0
10
36.833087500000005
20
22.243878125000002
30
0
42
0.4142220557498749
0
VERTEX
8
0
10
36.833087500000005
20
22.1361125
30
0
0
VERTEX
8
0
10
36.873996875
20
22.09520625
30
0
0
VERTEX
8
0
10
36.873996875
20
21.2847875
30
0
0
VERTEX
8
0
10
36.725209375
20
21.136000000000003
30
0
0
SEQEND
0
POLYLINE
66
1
8
1_copper
10
0.0
20
0.0
30
0.0
70
1
0
VERTEX
8
0
10
80.85083125
20
21.396
30
0
0
VERTEX
8
0
10
80.29805
20
21.624971875
30
0
0
VERTEX
8
0
10
79.874971875
20
22.04805
30
0
0
VERTEX
8
0
10
79.646
20
22.600831250000002
30
0
0
VERTEX
8
0
10
79.646
20
23.199165625000003
30
0
0
VERTEX
8
0
10
79.874971875
20
23.751946875
30
0
0
VERTEX
8
0
10
80.29805
20
24.175025
30
0
0
VERTEX
8
0
10
80.85083125
20
24.403996875
30
0
0
VERTEX
8
0
10
81.449165625
20
24.403996875
30
0
0
VERTEX
8
0
10
82.001946875
20
24.175025
30
0
0
VERTEX
8
0
10
82.425025
20
23.751946875
30
0
0
VERTEX
8
0
10
82.653996875
20
23.199165625000003
30
0
0
VERTEX
8
0
10
82.653996875
20
22.600831250000002
30
0
0
VERTEX
8
0
10
82.425025
20
22.04805
30
0
0
VERTEX
8
0
10
82.001946875
20
21.624971875
30
0
0
VERTEX
8
0
10
81.449165625
20
21.396
30
0
0
SEQEND
0
POLYLINE
66
1
8
1_copper
10
0.0
20
0.0
30
0.0
70
1
0
VERTEX
8
0
10
69.44623125
20
21.396
30
0
0
VERTEX
8
0
10
68.89345
20
21.624971875
30
0
0
VERTEX
8
0
10
68.470371875
20
22.04805
30
0
0
VERTEX
8
0
10
68.2414
20
22.600831250000002
30
0
0
VERTEX
8
0
10
68.2414
20
23.199165625000003
30
0
0
VERTEX
8
0
10
68.470371875
20
23.751946875
30
0
0
VERTEX
8
0
10
68.89345
20
24.175025
30
0
0
VERTEX
8
0
10
69.44623125
20
24.403996875
30
0
0
VERTEX
8
0
10
70.044565625
20
24.403996875
30
0
0
VERTEX
8
0
10
70.597346875
20
24.175025
30
0
0
VERTEX
8
0
10
71.020425
20
23.751946875
30
0
0
VERTEX
8
0
10
71.249396875
20
23.199165625000003
30
0
0
VERTEX
8
0
10
71.249396875
20
22.600831250000002
30
0
0
VERTEX
8
0
10
71.020425
20
22.04805
30
0
0
VERTEX
8
0
10
70.597346875
20
21.624971875
30
0
0
VERTEX
8
0
10
70.044565625
20
21.396
30
0
0
SEQEND
0
POLYLINE
66
1
8
1_copper
10
0.0
20
0.0
30
0.0
70
1
0
VERTEX
8
0
10
60.40083125
20
21.396
30
0
0
VERTEX
8
0
10
59.84805
20
21.624971875
30
0
0
VERTEX
8
0
10
59.424971875000004
20
22.04805
30
0
0
VERTEX
8
0
10
59.196000000000005
20
22.600831250000002
30
0
0
VERTEX
8
0
10
59.196000000000005
20
23.199165625000003
30
0
0
VERTEX
8
0
10
59.424971875000004
20
23.751946875
30
0
0
VERTEX
8
0
10
59.84805
20
24.175025
30
0
0
VERTEX
8
0
10
60.40083125
20
24.403996875
30
0
0
VERTEX
8
0
10
60.999165625
20
24.403996875
30
0
0
VERTEX
8
0
10
61.551946875000006
20
24.175025
30
0
0
VERTEX
8
0
10
61.975025
20
23.751946875
30
0
0
VERTEX
8
0
10
62.203996875
20
23.199165625000003
30
0
0
VERTEX
8
0
10
62.203996875
20
22.600831250000002
30
0
0
VERTEX
8
0
10
61.975025
20
22.04805
30
0
0
VERTEX
8
0
10
61.551946875000006
20
21.624971875
30
0
0
VERTEX
8
0
10
60.999165625
20
21.396
30
0
0
SEQEND
0
POLYLINE
66
1
8
1_copper
10
0.0
20
0.0
30
0.0
70
1
0
VERTEX
8
0
10
48.99623125
20
21.396
30
0
0
VERTEX
8
0
10
48.443450000000006
20
21.624971875
30
0
0
VERTEX
8
0
10
48.020371875
20
22.04805
30
0
0
VERTEX
8
0
10
47.7914
20
22.600831250000002
30
0
0
VERTEX
8
0
10
47.7914
20
23.199165625000003
30
0
0
VERTEX
8
0
10
48.020371875
20
23.751946875
30
0
0
VERTEX
8
0
10
48.443450000000006
20
24.175025
30
0
0
VERTEX
8
0
10
48.99623125
20
24.403996875
30
0
0
VERTEX
8
0
10
49.594565625
20
24.403996875
30
0
0
VERTEX
8
0
10
50.147346875000004
20
24.175025
30
0
0
VERTEX
8
0
10
50.570425
20
23.751946875
30
0
0
VERTEX
8
0
10
50.799396875
20
23.199165625000003
30
0
0
VERTEX
8
0
10
50.799396875
20
22.600831250000002
30
0
0
VERTEX
8
0
10
50.570425
20
22.04805
30
0
0
VERTEX
8
0
10
50.147346875000004
20
21.624971875
30
0
0
VERTEX
8
0
10
49.594565625
20
21.396
30
0
0
SEQEND
0
POLYLINE
66
1
8
1_copper
10
0.0
20
0.0
30
0.0
70
1
0
VERTEX
8
0
10
36.620000000000005
20
26.990000000000002
30
0
0
VERTEX
8
0
10
33.620000000000005
20
26.990000000000002
30
0
0
VERTEX
8
0
10
33.620000000000005
20
26.39
30
0
0
VERTEX
8
0
10
36.620000000000005
20
26.39
30
0
0
SEQEND
0
POLYLINE
66
1
8
1_copper
10
0.0
20
0.0
30
0.0
70
1
0
VERTEX
8
0
10
36.620000000000005
20
25.990000000000002
30
0
0
VERTEX
8
0
10
33.620000000000005
20
25.990000000000002
30
0
0
VERTEX
8
0
10
33.620000000000005
20
25.39
30
0
0
VERTEX
8
0
10
36.620000000000005
20
25.39
30
0
0
SEQEND
0
POLYLINE
66
1
8
1_copper
10
0.0
20
0.0
30
0.0
70
1
0
VERTEX
8
0
10
36.620000000000005
20
23.990000000000002
30
0
0
VERTEX
8
0
10
33.620000000000005
20
23.990000000000002
30
0
0
VERTEX
8
0
10
33.620000000000005
20
23.39
30
0
0
VERTEX
8
0
10
36.620000000000005
20
23.39
30
0
0
SEQEND
0
POLYLINE
66
1
8
1_copper
10
0.0
20
0.0
30
0.0
70
1
0
VERTEX
8
0
10
36.620000000000005
20
24.990000000000002
30
0
0
VERTEX
8
0
10
33.620000000000005
20
24.990000000000002
30
0
0
VERTEX
8
0
10
33.620000000000005
20
24.39
30
0
0
VERTEX
8
0
10
36.620000000000005
20
24.39
30
0
0
SEQEND
0
POLYLINE
66
1
8
1_copper
10
0.0
20
0.0
30
0.0
70
1
0
VERTEX
8
0
10
36.620000000000005
20
21.990000000000002
30
0
0
VERTEX
8
0
10
33.620000000000005
20
21.990000000000002
30
0
0
VERTEX
8
0
10
33.620000000000005
20
21.39
30
0
0
VERTEX
8
0
10
36.620000000000005
20
21.39
30
0
0
SEQEND
0
POLYLINE
66
1
8
1_copper
10
0.0
20
0.0
30
0.0
70
1
0
VERTEX
8
0
10
36.620000000000005
20
22.990000000000002
30
0
0
VERTEX
8
0
10
33.620000000000005
20
22.990000000000002
30
0
0
VERTEX
8
0
10
33.620000000000005
20
22.39
30
0
0
VERTEX
8
0
10
36.620000000000005
20
22.39
30
0
0
SEQEND
0
CIRCLE
8
drills_PTH
10
60.7
20
22.900000000000002
30
0
40
0.75
0
CIRCLE
8
drills_PTH
10
60.7
20
29.25
30
0
40
0.75
0
CIRCLE
8
drills_PTH
10
60.7
20
35.6
30
0
40
0.75
0
CIRCLE
8
drills_PTH
10
49.2954
20
22.900000000000002
30
0
40
0.75
0
CIRCLE
8
drills_PTH
10
49.2954
20
29.25
30
0
40
0.75
0
CIRCLE
8
drills_PTH
10
49.2954
20
35.6
30
0
40
0.75
0
CIRCLE
8
drills_PTH
10
81.15
20
22.900000000000002
30
0
40
0.75
0
CIRCLE
8
drills_PTH
10
81.15
20
29.25
30
0
40
0.75
0
CIRCLE
8
drills_PTH
10
81.15
20
35.6
30
0
40
0.75
0
CIRCLE
8
drills_PTH
10
69.7454
20
22.900000000000002
30
0
40
0.75
0
CIRCLE
8
drills_PTH
10
69.7454
20
29.25
30
0
40
0.75
0
CIRCLE
8
drills_PTH
10
69.7454
20
35.6
30
0
40
0.75
0
ENDSEC
0
EOF